<?xml version="1.0" encoding="UTF-8"?><svg id="_图层_2" xmlns="http://www.w3.org/2000/svg" viewBox="0 0 267.85 79.85"><defs><style>.cls-1{fill:#f5f5f5;}</style></defs><g id="_图层_1-2"><path class="cls-1" d="M.37,77.4h7.41l.76-5h-2.46l.38-2.5h-2.5l.38-2.5H1.89l.38-2.5h2.45l.37-2.46h9.96l-.37,2.46h-7.41l-.38,2.5h2.45l-.38,2.5h2.5l-.38,2.5h2.46l-.76,5h-2.46l-.37,2.46H0l.37-2.46Z"/><path class="cls-1" d="M18.71,77.4h-2.46l1.9-12.5h2.46l.37-2.46h12.5l-.37,2.46h2.46l-1.9,12.5h-2.46l-.37,2.46h-12.5l.37-2.46ZM23.14,64.94l-1.88,12.41h7.41l1.88-12.41h-7.41Z"/><path class="cls-1" d="M39.95,77.4h-2.46l2.27-14.96h4.96l-2.26,14.91h5l2.26-14.91h4.96l-2.64,17.41h-12.46l.37-2.46Z"/><path class="cls-1" d="M58.89,62.44h4.96l-.37,2.46h2.5l-.38,2.5h2.5l-.37,2.46h2.5l1.12-7.41h4.96l-2.64,17.41h-4.96l.75-4.96h-2.5l.38-2.5h-2.5l.37-2.46h-2.5l-1.5,9.91h-4.96l2.64-17.41Z"/><path class="cls-1" d="M80.51,62.44h12.46l-.37,2.46h2.46l-1.9,12.5h-2.46l-.37,2.46h-12.46l2.64-17.41ZM85.14,64.94l-1.88,12.41h4.91l1.88-12.41h-4.91Z"/><path class="cls-1" d="M99.35,62.44h4.96l-1.88,12.41h2.5l.37-2.46h2.5l.37-2.46h2.5l-.37,2.46h2.46l-.38,2.5h-7.46l-.38,2.5h-2.5l-.37,2.46h-4.96l2.64-17.41ZM114.54,77.4h-2.46l.38-2.5h2.46l1.89-12.46h4.96l-2.64,17.41h-4.96l.37-2.46Z"/><path class="cls-1" d="M124.84,67.39h2.46l.38-2.5h2.5l.37-2.46h7.5l-.37,2.46h2.5l-.38,2.5h2.46l-1.89,12.46h-4.96l.74-4.91h-7.5l-.74,4.91h-4.96l1.89-12.46ZM129.84,67.39l-.75,4.96h7.41l.75-4.96h-2.46l.37-2.46h-2.5l-.37,2.46h-2.46Z"/><path class="cls-1" d="M149.12,77.4h-2.5l.38-2.5h-2.46l1.89-12.46h4.96l-1.89,12.46h2.5l-.37,2.46h2.5l.37-2.46h2.5l1.89-12.46h4.96l-1.89,12.46h-2.45l-.38,2.5h-2.5l-.37,2.46h-7.5l.37-2.46Z"/><path class="cls-1" d="M167.65,62.44h12.41l-.37,2.46h-7.41l-.76,5h7.41l-.38,2.5h-7.41l-.76,5h7.41l-.37,2.46h-12.41l2.64-17.41Z"/><path class="cls-1" d="M195.12,77.4h-2.46l1.9-12.5h2.46l.37-2.46h10l-.37,2.46h2.46l-.37,2.46h-4.96l.37-2.41h-4.96l-1.89,12.46h9.91l-.37,2.46h-12.46l.37-2.46Z"/><path class="cls-1" d="M213.47,62.44h4.96l-2.27,14.96h4.96l-.37,2.46h-9.91l2.64-17.41Z"/><path class="cls-1" d="M226.09,77.4h-2.46l2.27-14.96h4.96l-2.26,14.91h5l2.26-14.91h4.96l-2.64,17.41h-12.46l.37-2.46Z"/><path class="cls-1" d="M245.03,62.44h12.46l-.37,2.46h2.46l-.76,5h-2.41l-.38,2.5h2.41l-.76,5h-2.46l-.37,2.46h-12.46l2.64-17.41ZM249.65,64.94l-.74,4.91h4.91l.74-4.91h-4.91ZM248.51,72.44l-.74,4.91h4.91l.74-4.91h-4.91Z"/><path class="cls-1" d="M49.94,26.38c.8,0,1.26-.3,1.69-.96,1.19-1.84,2.38-3.68,3.66-5.47.79-1.1.4-1.22-.62-1.21-3.24.04-6.47-.03-9.71.04-1.18.03-1.69-.26-1.3-1.52.16-.52.39-1.17-.3-1.43-2.26-.83-4.52-1.65-6.91-2.52-.26,1.52-.55,2.85-.69,4.16-.11.99-.45,1.32-1.48,1.3-3.22-.07-6.46-.07-9.7,0-1.07.02-1.44-.26-1.14-1.35.16-.6.51-1.34-.37-1.65-2.19-.77-4.37-1.58-6.74-2.45-.26,1.52-.55,2.89-.71,4.25-.11.98-.54,1.22-1.44,1.2-2.25-.05-4.52,0-6.77-.02-.59,0-1.05.05-1.47.71-1.26,1.98-2.59,3.94-3.92,5.89-.54.78-.46,1.04.48,1.04,15.82-.02,31.63-.02,47.45,0Z"/><path class="cls-1" d="M10.65,11.87c6.64-.05,13.26-.02,19.89-.02,6.52,0,13.06-.03,19.57.03,1.27.01,1.9-.17,2-1.62.1-1.46.39-2.96.75-4.43.3-1.24.03-1.66-1.31-1.63-4.79.08-9.56.04-14.34.02-.44,0-1.29.3-1.11-.5.29-1.26-.57-1.35-1.35-1.61-1.21-.39-2.4-.81-3.6-1.22-2.43-.82-2.5-.82-2.86,1.79-.18,1.29-.63,1.59-1.89,1.57-4.82-.08-9.66,0-14.48-.05-.99,0-1.4.24-1.52,1.27-.2,1.68-.49,3.37-.86,5.04-.24,1.07.03,1.36,1.12,1.36Z"/><path class="cls-1" d="M202.32,32.54c1.06.02,1.63-.35,2.17-1.27,1-1.69,2.04-3.37,3.16-4.99.77-1.12.67-1.42-.66-1.41-5.35.06-10.69-.01-16.04.05-1.25.01-1.66-.26-1.39-1.59.58-2.8.96-5.61,1.48-8.41.18-.95.02-1.38-1.06-1.33-1.81.09-3.61.09-5.39,0-1.09-.06-1.32.41-1.47,1.34-.46,2.96-1.03,5.92-1.48,8.87-.14.88-.46,1.13-1.32,1.11-2.77-.05-5.54-.07-8.32,0-1.07.03-1.36-.25-1.15-1.34.78-4.18,1.52-8.36,2.13-12.54.2-1.34.7-1.55,1.91-1.55,8.73.05,17.51-.17,26.18.13,3.56.12,5.95-.65,7.41-4.27.29-.73.82-1.42,1.31-2.08.91-1.2.47-1.4-.73-1.39-6.79.04-13.57.02-20.35.02-6.83,0-13.67.03-20.5-.03-1.18,0-1.61.26-1.82,1.51-1.51,9.18-3.08,18.36-4.7,27.53-.22,1.26.04,1.64,1.34,1.62,5.3-.07,10.59-.02,15.88-.03.71,0,1.26-.06,1.07.98-.95,5.25-1.84,10.5-2.69,15.76-.15.92-.57.97-1.27.96-1.74-.03-3.5.03-5.24-.02-1.1-.03-1.27.34-1.02,1.26.46,1.68.88,3.37,1.2,5.1.17.95.56,1.33,1.64,1.3,3.15-.09,6.29-.09,9.4,0,1.3.04,1.78-.23,2.01-1.65,1.19-7.44,2.53-14.89,3.75-22.33.18-1.07.53-1.39,1.61-1.37,4.31.06,8.64-.02,12.94.05Z"/><path class="cls-1" d="M169.66,37.13c-1.8.04-3.61.09-5.39-.01-1.07-.06-1.54.29-1.96,1.33-1.59,3.96-3.21,7.92-4.83,11.87h-7.49c-.17-.77-.34-1.54-.5-2.31-.12-.58-.31-.95-1.03-.94-2.05.03-4.1.02-6.14,0-.74,0-.9.24-.73.92.49,2.07.93,4.15,1.38,6.24.44,2.08.61,2.91,1.5,3.24l-.07.38h17.68s.03-.17.03-.17c.21-.14.37-.38.51-.73,2.55-6.29,5.12-12.58,7.71-18.86.32-.77.12-.98-.65-.96Z"/><path class="cls-1" d="M263.58,23.73c-1.99-.08-1.97-.15-1.19-2.2.21-.55.4-1.1.6-1.65,1.98-5.34,4.33-10.62,4.83-16.15.1-1.06-.11-1.38-1.18-1.37-6.12.04-12.24.06-18.34,0-1.18-.01-1.5.33-1.69,1.45-1.45,8.77-2.97,17.54-4.47,26.31-1.51,8.82-2.99,17.64-4.55,26.46-.2,1.12-.02,1.54,1.19,1.46,1.6-.11,3.21-.12,4.77,0,1.36.1,1.78-.37,2-1.71,2.35-14.02,4.75-28.04,7.17-42.06.24-1.41-.09-3.33,1-4.08,1.02-.7,2.78-.15,4.23-.25,1.09-.08,1.09.31.74,1.23-1.83,4.89-3.57,9.8-5.41,14.69-.46,1.22-.42,1.87,1.05,1.64,1.22-.2,1.56.24,1.32,1.49-.72,3.72-1.3,7.44-1.94,11.16-.49,2.87-.49,2.89-3.39,3.09-.67.05-.99.13-.81.88.45,1.89.85,3.79,1.23,5.7.13.66.56.77,1.19.76,1.44-.03,2.88,0,4.32,0q3.57,0,4.18-3.58c1.25-7.29,2.5-14.58,3.73-21.87.1-.58.55-1.33-.6-1.38Z"/><path class="cls-1" d="M239.64,21.87c-2.63,0-2.62,0-2.2-2.65.1-.66.47-1.38-.44-1.76-1.82-.76-3.58-1.65-5.33-2.53-.8-.4-1.04-.1-1.15.73-.16,1.22-.41,2.45-.62,3.67q-.43,2.53-2.93,2.53c-2.68,0-2.66,0-2.25-2.75.08-.54.52-1.21-.26-1.57-1.89-.85-3.74-1.74-5.6-2.65-.79-.39-.94.05-1.05.73-.22,1.43-.48,2.85-.73,4.28-.33,1.94-.35,2.02-2.33,1.91-1.18-.06-1.79.32-2.25,1.46-.67,1.63-1.45,3.24-2.27,4.82-.55,1.07-.4,1.41.8,1.39,4.48-.06,8.94-.02,13.4-.02,3.23,0,6.47,0,9.7,0,1.59,0,3.43.49,4.7-.23,1.37-.78,1.63-2.91,2.39-4.45,1.44-2.93,1.42-2.94-1.6-2.94Z"/><path class="cls-1" d="M215.93,12.65c4.11-.05,8.22-.02,12.32-.02,4.16,0,8.32-.04,12.47.03,1.1.02,1.46-.33,1.59-1.38.2-1.68.5-3.36.86-5.04.21-.98-.14-1.2-1.05-1.19-2.47.05-4.93-.01-7.4.03-.92.02-1.33-.26-1.03-1.21.31-.97,0-1.46-.96-1.71-1.33-.34-2.57-.89-3.86-1.33q-2.42-.83-2.89,1.92c-.07.41-.18.82-.2,1.22-.04.89-.48,1.12-1.33,1.11-2.45-.05-4.93.02-7.38-.04-.88-.02-1.2.28-1.32,1.13-.24,1.73-.51,3.47-.9,5.19-.23,1.02.06,1.29,1.07,1.28Z"/><path class="cls-1" d="M236.14,33.27c-8.02.05-16.03,0-24.04-.02-.44.37-.42.85-.5,1.3-1.24,7.23-.62,3.71-1.9,10.94-.2,1.11,0,1.55,1.2,1.48,1.71-.1,3.4-.09,5.08,0,1.08.05,1.45-.32,1.62-1.38.74-4.63-.24,1.49.49-3.15.18-1.17.53-1.61,1.78-1.55,2.44.1,4.92.06,7.39.02.79-.01,1.05.21.89,1.03-.46,2.39-.87,4.79-1.23,7.18-.12.8-.41,1.06-1.22,1.04-.12,0-.31,0-.54,0h0c-1.46-.01-5,0-9.09,0h-8.59s0,0,0,0c-1.66,0-3.23,0-4.61,0-.19-3.17-.37-6.34-.55-9.51q-.2-3.5-3.95-3.5c-.82,0-1.66.07-2.46-.02-1.14-.13-1.43.3-1.36,1.35.38,6.15.73,12.3,1.05,18.46.04.71.3.91.98.9,1.85-.03,3.71-.06,5.54.01.41.02.67-.03.85-.15.97,0,2.06,0,3.23-.01h17.68s0,0,0,0c3.88,0,6.98.03,8.15.05,1.18.02,1.6-.26,1.8-1.5,1.16-7.14,2.37-14.27,3.66-21.41.23-1.3-.1-1.57-1.36-1.56Z"/><path class="cls-1" d="M124.16,0c-1.75.06-3.51.07-5.24,0-1.04-.05-1.56.29-2.05,1.33-3.01,6.44-6.09,12.86-9.17,19.28-1.53,3.2-1.56,3.25,1.72,3.2,1.2-.02,1.55.29,1.33,1.54-.96,5.2-1.81,10.4-2.69,15.6-.53,3.12-1.06,6.24-1.59,9.37h-8.79c-.17-.43-.34-.86-.51-1.29q-.79-1.99,1.44-1.99c.46,0,.94-.05,1.38.01.86.12,1.33-.26,1.72-1.07.84-1.75,1.71-3.49,2.67-5.19.6-1.05.55-1.42-.7-1.39-2.78.07-5.53-.07-8.32.06-1.5.07-2.38-.32-2.64-1.73-.21-1.14-.95-1.55-2.22-1.47-1.96.12-3.92.09-5.85,0-1.34-.06-1.35.36-.98,1.34,2.12,5.52,4.36,10.99,6.22,16.63.5,1.52,1.08,2.78,2.05,3.49l-.02.13h17.68s.01-.09.01-.09c.6,0,1.19.03,1.77.07,1.3.1,1.76-.23,1.99-1.64,1.92-11.62,3.9-23.24,5.96-34.86.28-1.57-.03-2.14-1.61-1.86-1.6.29-1.39-.48-.85-1.59,2.67-5.54,5.28-11.1,7.97-16.64.47-.97.36-1.28-.69-1.24Z"/><path class="cls-1" d="M130.05,47.07c-1.9.03-3.8.04-5.68,0-.78-.02-1.22.25-1.63,1-1.36,2.52-2.84,5-4.21,7.52-1.18,2.18-1.58,2.12,1.16,2.1.56,0,1.13,0,1.69,0,.97,0,1.96-.05,2.92.01.74.05,1.14-.28,1.5-.94,1.59-2.9,3.19-5.79,4.84-8.66.51-.89.26-1.05-.57-1.04Z"/><path class="cls-1" d="M154.02,44.56c.51-1.29,1.14-2.55,1.7-3.83,1.24-2.83,1.25-2.9-1.73-2.82-1.27.03-1.46-.39-1.25-1.56,1.04-5.76,1.99-11.52,2.98-17.27.97-5.66,1.9-11.31,2.93-16.97.24-1.32.09-1.82-1.41-1.8-8.64.08-17.27.08-25.88,0-1.48-.01-1.81.46-2.04,1.79-1.9,11.41-3.89,22.83-5.8,34.24-.19,1.15-.53,1.77-1.76,1.53-.79-.15-1.1.33-1.39.99-.81,1.87-1.63,3.74-2.51,5.59-.43.89-.11,1.05.69,1.05,11.35-.01,22.7-.01,34.04,0,.73,0,1.14-.18,1.44-.94ZM137.2,7.95c3.88.04,7.77.05,11.67,0,1.03-.01.75.59.65,1.18-.1.59-.02,1.22-1.05,1.18-1.93-.07-3.88-.02-5.83-.02-1.94,0-3.88-.05-5.84.02-1.07.04-.85-.58-.76-1.26.1-.72.28-1.11,1.16-1.1ZM143.61,37.9c-3.83-.07-7.68-.06-11.53,0-1.23.02-.8-.78-.72-1.43.08-.66.07-1.31,1.16-1.27,1.98.07,3.99.02,5.99.02,1.85,0,3.68.08,5.54-.03,1.23-.07.9.66.77,1.35-.12.67,0,1.4-1.22,1.37ZM145.25,28.71c-1.93-.07-3.89-.02-5.84-.02-1.9,0-3.79-.06-5.69.02-1.18.05-.92-.64-.8-1.36.12-.73.1-1.37,1.26-1.35,3.83.07,7.68.06,11.53,0,1.12-.02.84.64.69,1.27-.14.61.12,1.48-1.15,1.44ZM147.97,18.2c-.08.71-.08,1.39-1.25,1.33-1.87-.1-3.78-.03-5.67-.03-1.94,0-3.88-.05-5.83.02-1.06.04-.94-.57-.75-1.26.16-.62-.11-1.48,1.16-1.47,3.88.04,7.77.05,11.66,0,1.26-.02.76.78.69,1.41Z"/><path class="cls-1" d="M62.66,39.89c.09-.5.24-1.01-.27-1.34-2.17-1.41-4.33-2.84-6.49-4.27-.18.2-.29.28-.3.36-.91,5.3-1.82,10.61-2.74,15.91h-9.59c1.1-6.52,2.22-13.04,3.37-19.56.2-1.16.04-1.57-1.24-1.55-5.97.07-11.92.03-17.88.03-6.01,0-12.02,0-18.03,0-.69,0-1.25-.1-1.43.96-1.48,8.87-3,17.74-4.54,26.6-.14.79.08,1.07.89,1.05,1.86-.05,3.71-.07,5.54,0,1.11.05,1.47-.37,1.63-1.42.42-2.8.96-5.61,1.41-8.41.13-.78.32-1.2,1.28-1.2,6.88.04,13.76.02,20.64.03.34,0,.9-.12.89.29-.03.9-.07,1.85-.41,2.72-.3.78-1.12.41-1.68.41-6.12.02-12.23.01-18.34.02-1.74,0-1.74,0-1.23,1.61.51,1.6,1.07,3.18,1.52,4.81.24.88.75,1.14,1.7,1.14,6.48-.03,12.96-.04,19.44,0h0s.79,0,.79,0c.96,0,1.92,0,2.88.02.15,0,.29,0,.42-.02h11.06c.15.06.34.07.59.07,1.9-.03,3.81-.06,5.69,0,1.02.03,1.36-.33,1.53-1.32.92-5.65,1.91-11.3,2.88-16.96ZM35.95,40.6c-3.41-.09-6.86-.03-10.29-.03-3.38,0-6.75-.06-10.15.03-1.33.04-1.15-.69-.91-1.52.22-.78-.19-1.89,1.47-1.88,6.8.06,13.62.06,20.44,0,1.64-.01.93,1.06.86,1.86-.08.81-.07,1.57-1.42,1.54Z"/><path class="cls-1" d="M57.02,31.64c2.01-.03,4.01-.03,6.01,0,.81.01,1.12-.32,1.24-1.09.4-2.55.86-5.09,1.3-7.64.08-.47.16-.92-.28-1.2-2.19-1.38-4.37-2.77-6.76-4.29-.79,4.64-1.53,9-2.29,13.37-.12.68.15.86.79.85Z"/><path class="cls-1" d="M59.96,14.78c1.95-.04,3.9-.04,5.84,0,.86.02,1.23-.29,1.36-1.15.4-2.54.84-5.08,1.3-7.62.1-.57-.02-.96-.47-1.25-2.12-1.33-4.23-2.67-6.59-4.16-.79,4.6-1.51,8.92-2.27,13.23-.13.75.12.96.84.94Z"/><path class="cls-1" d="M80.54,54.15c-.65-2.86-2.27-4.28-5.58-3.62-.96.19-1.31-.13-1.12-1.21,1.49-8.41,2.92-16.83,4.32-25.24.17-1.01.52-1.3,1.53-1.29,4.87.05,9.76,0,14.64.03,2.53.01,2.14-.38,1.85,2.18-.14,1.27-.65,1.5-1.81,1.48-4.87-.06-9.76,0-14.64-.04-.94,0-1.34.1-1.11,1.18.36,1.71.6,3.47.76,5.24.09.98.53,1.24,1.51,1.24,6.74-.04,13.47-.06,20.19.01,1.28.01,1.58-.41,1.77-1.56,1.45-8.72,2.93-17.44,4.47-26.16.2-1.14-.03-1.48-1.2-1.46-3.66.07-7.3.03-10.95.02-.58,0-1.46.17-1.12-.82.52-1.53-.36-1.9-1.48-2.19-.81-.21-1.55-.56-2.36-.78-1.04-.28-2.18-1.29-3.02-.79-1.02.6-.69,2.16-.86,3.29-.17,1.12-.61,1.34-1.64,1.32-3.23-.06-6.48.03-9.7-.05-1.2-.03-1.61.32-1.81,1.53-1.36,8.31-2.81,16.62-4.23,24.93-.44,2.55-.87,5.1-1.31,7.65-1,5.86-2,11.73-3,17.59-.12.7-.42,1.46.74,1.46,5.25-.03,10.48-.01,15.72,0,.74,0,.98-.24.69-.9-.44-1-1.02-1.96-1.26-3.03ZM79.92,13.84c.03-1.07.52-1.38,1.59-1.37,5.16.05,10.34.05,15.52,0,1.01,0,1.26.28,1.06,1.29-.44,2.3-.38,2.3-2.75,2.3-2.25,0-4.51,0-6.76,0-2.61,0-5.22-.04-7.84.02-.93.02-1.32-.21-1-1.18.11-.35.17-.72.18-1.06Z"/></g></svg>