<?xml version="1.0" encoding="UTF-8"?><svg id="_图层_2" xmlns="http://www.w3.org/2000/svg" viewBox="0 0 202.36 120.15"><defs><style>.cls-1{fill:#f5f5f5;}</style></defs><g id="_图层_1-2"><path class="cls-1" d="M31.95,23.5H12.75c-3.42,0-6.2-2.78-6.2-6.2v-5.82c0-3.42,2.78-6.2,6.2-6.2h19.19c3.42,0,6.2,2.78,6.2,6.2v5.82c0,3.42-2.78,6.2-6.2,6.2ZM12.75,10.12c-.75,0-1.36.61-1.36,1.36v5.82c0,.75.61,1.36,1.36,1.36h19.19c.75,0,1.36-.61,1.36-1.36v-5.82c0-.75-.61-1.36-1.36-1.36H12.75Z"/><rect class="cls-1" x="19.93" y="11" width="4.85" height="16.48"/><rect class="cls-1" x="14.6" y="12.26" width="15.7" height="4.85"/><rect class="cls-1" x="14.6" y="31.45" width="15.7" height="4.85"/><rect class="cls-1" x="19.25" y="43.08" width="6.4" height="4.85"/><rect class="cls-1" x="26.03" y="30.77" width="4.85" height="6.2"/><path class="cls-1" d="M30.85,42.5h-8.5v-4.85h8.5c2.32,0,4.2-1.88,4.2-4.2v-3.55H9.65v10.18h-4.85v-15.03h35.09v8.4c0,4.99-4.06,9.05-9.05,9.05Z"/><path class="cls-1" d="M24.54,55.3h-4.58c-5.13,0-9.15-3.13-9.15-7.12v-4.6h4.85v4.6c0,.93,1.68,2.28,4.3,2.28h4.58c2.63,0,4.3-1.35,4.3-2.28v-4.6h4.85v4.6c0,4-4.02,7.12-9.15,7.12Z"/><rect class="cls-1" x="4.8" y="43.57" width="4.85" height="11.84"/><rect class="cls-1" x="35.05" y="43.57" width="4.85" height="11.84"/><path class="cls-1" d="M62.99,14.02c-.57.1-1.15-.3-1.3-.91-.15-.6.2-1.17.77-1.27.57-.1,1.15.3,1.29.9.15.6-.19,1.18-.76,1.28Z"/><path class="cls-1" d="M71.04,28.06l-.28-2.69c-2.86-2.33-3.34-4.79-.79-7.42l-.83-7.82c-.06-.54-.2-1.06-.42-1.54-1.04-2.31-3.77-3.86-6.8-3.62-3.65.28-6.34,3.06-6.01,6.19l1.9,17.92c.31,2.96,3.21,5.19,6.6,5.19.2,0,.41-.01.61-.03,3.65-.28,6.34-3.06,6.01-6.19ZM60.31,13.36c-.25-1,.09-1.97.79-2.53.28-.22.62-.38,1-.45,1.33-.24,2.69.71,3.03,2.12.35,1.41-.46,2.75-1.79,2.99-.52.09-1.03,0-1.5-.21-.74-.35-1.33-1.05-1.54-1.91Z"/><path class="cls-1" d="M62.99,14.02c-.57.1-1.15-.3-1.3-.91-.15-.6.2-1.17.77-1.27.57-.1,1.15.3,1.29.9.15.6-.19,1.18-.76,1.28Z"/><path class="cls-1" d="M90.53,14.8l-.55-.17c-.97-.3-2.05-.1-2.8.51-.51.42-1.19.65-1.88.65-.22,0-.44-.03-.65-.07l-2.26-.48c-.67-.15-1.38-.06-1.99.23l-2.57,1.24c-.6.29-1.31.38-1.99.23l-2.25-.48c-.91-.19-1.87.03-2.55.58l-1.08.9-.12.1-7.39.91-.62-3.69c.46.22.98.3,1.5.21,1.33-.24,2.14-1.58,1.79-2.99-.34-1.41-1.7-2.35-3.03-2.12-.38.07-.72.23-1,.45l-.1-.58,7.72-1.66,13.92-2.99c4.05-.87,8.1,1.46,8.69,5.01l.55,3.25c.11.65-.62,1.16-1.34.94Z"/><path class="cls-1" d="M91.44,23.19l-.49.28c-.85.49-1.94.58-2.81.23h0c-.79-.32-1.76-.28-2.58.11l-2.04.97c-.61.29-1.31.39-1.97.28l-2.79-.46c-.66-.11-1.36,0-1.97.28l-2.03.96c-.82.39-1.8.43-2.59.11l-1.4-.57-7.31.99.89,7.92,21.94-1.18c4.11-.22,7.37-3.22,7.01-6.46l-.33-2.96c-.07-.59-.9-.86-1.53-.5Z"/><path class="cls-1" d="M62.99,14.02c-.57.1-1.15-.3-1.3-.91-.15-.6.2-1.17.77-1.27.57-.1,1.15.3,1.29.9.15.6-.19,1.18-.76,1.28Z"/><path class="cls-1" d="M62.99,14.02c-.57.1-1.15-.3-1.3-.91-.15-.6.2-1.17.77-1.27.57-.1,1.15.3,1.29.9.15.6-.19,1.18-.76,1.28Z"/><path class="cls-1" d="M63.42,33.13s.01,0,.02,0c0,0,.01.02.02.02.01.02.03.04.05.06l.1.13.19.27c.13.19.26.38.39.57.26.39.52.79.77,1.19,1.76,2.79,4.79,5.08,5.67,8.23.1.36.17.73.2,1.11.03.38,0,.76-.1,1.11-.05.17-.12.33-.21.47-.09.14-.19.26-.3.38-.22.23-.46.44-.73.58-.28.15-.57.24-.87.29-.3.05-.61.05-.93.04-.33,0-.68-.03-1.08,0-.2.02-.41.05-.63.1-.11.03-.22.06-.34.1l-.22.07-.34.1c-.47.15-.91.36-1.28.6-.37.24-.67.51-.92.78-.5.55-.8,1.12-1.02,1.67-.22.55-.35,1.1-.44,1.64-.09.54-.13,1.07-.12,1.59.33-.44.7-.85,1.09-1.22.39-.37.8-.72,1.23-.99.43-.28.88-.49,1.28-.57.2-.04.39-.05.54-.04,0,0,2.36,1.05,2.36,1.05.72.32,1.4.68,2.07,1,.67.33,1.34.63,2.04.87.7.24,1.43.42,2.19.51.74.09,1.5.08,2.25,0,.19-.02.37-.05.56-.08.19-.03.37-.07.55-.11.36-.09.72-.21,1.06-.35.34-.14.66-.31.96-.49.3-.18.58-.37.86-.58.54-.41,1.02-.85,1.47-1.33.9-.95,1.66-2.03,2.31-3.25.64-1.22,1.17-2.58,1.58-4.07.41-1.48.7-3.08.9-4.76.05-.42.1-.85.13-1.28l.06-.65.05-.64.02-.31v-.15s.02-.11.02-.14l.07-.42.13-.84c.17-1.11.32-2.22.45-3.34.06-.56.12-1.12.17-1.69l.07-.86.03-.44v-.23s.01-.12.01-.12v-.07s0-.04,0-.09l-24.38,4.55Z"/><rect class="cls-1" x="111.82" y="7.51" width="35.09" height="4.85"/><path class="cls-1" d="M143.22,28.15h-27.7c-1.3,0-2.43-.79-2.88-2.01-.45-1.22-.1-2.55.88-3.4l15.85-13.59,15.85,13.59c.99.85,1.33,2.18.88,3.4-.45,1.22-1.58,2.01-2.88,2.01ZM120.31,23.31h18.11l-9.06-7.76-9.06,7.76Z"/><path class="cls-1" d="M147.01,53.55h-10.13c-5.48,0-9.94-4.46-9.94-9.94v-12.84h4.85v12.84c0,2.81,2.28,5.09,5.09,5.09h10.13v4.85Z"/><rect class="cls-1" x="111.15" y="48.7" width="16.48" height="4.85"/><rect class="cls-1" x="115.6" y="35.33" width="27.53" height="4.85"/><path class="cls-1" d="M193.74,25.83h-.94c-7.88,0-14.28-6.41-14.28-14.28v-5.2h4.85v5.2c0,5.2,4.23,9.44,9.44,9.44h.65v-3.68h-6.49v-4.85h6.79c2.51,0,4.56,2.04,4.56,4.56v4.27c0,2.51-2.04,4.56-4.56,4.56Z"/><path class="cls-1" d="M197.81,53.55h-5.01c-7.88,0-14.28-6.41-14.28-14.28v-15.87h4.85v15.87c0,5.2,4.23,9.44,9.44,9.44h4.72v-5.43h-9.21v-4.85h9.5c2.51,0,4.56,2.04,4.56,4.56v6.01c0,2.51-2.04,4.56-4.56,4.56Z"/><path class="cls-1" d="M180.16,53.55h-12.6c-2.73,0-4.94-2.22-4.94-4.94v-5.23c0-2.73,2.22-4.94,4.94-4.94h9.5v4.85h-9.5c-.05,0-.1.04-.1.1v5.23c0,.05.04.1.1.1h12.6v4.85Z"/><path class="cls-1" d="M73.56,26.1l.42-1.06.21-.53.11-.26.03-.07.04-.11c.03-.08.06-.15.09-.22.25-.58.66-1.04,1.1-1.37.22-.16.46-.3.7-.4.12-.05.24-.1.37-.13.11-.03.19-.05.28-.07l.55-.14.28-.07c.09-.02.19-.05.25-.06.27-.06.54-.18.77-.36.23-.18.42-.43.53-.73.01-.03.03-.08.04-.13l.04-.14.08-.27.15-.55.24.02.06.57.03.28v.14s.02.1.02.15c.02.44-.1.9-.33,1.31-.23.41-.56.76-.95,1.04l-.96.67c-.07.05-.16.11-.23.16-.05.04-.09.08-.13.13-.08.09-.14.18-.19.27-.1.18-.12.37-.08.5,0,.02,0,.03.01.05v.02s0,.07,0,.07v.28s-.01.57-.01.57l-.02,1.14-3.5-.7Z"/><path class="cls-1" d="M64.45,44.27l1.89-4.52c.13-.3.05-.66-.17-1-.22-.34-.58-.67-1.03-.91s-.95-.37-1.41-.38c-.45-.01-.86.09-1.12.33l-3.84,3.49c-.87.79-2.08,2.23-.82,3.11.05-.13.67-.64,1.09-.53-.21,0-1.08.84-1.01,1.05.17.52.53.83,1.2,1.19.68.36,1.16.48,1.78.38.25-.04.73-1.09.63-1.25.3.28.06.98-.06,1.07,1.49.57,2.43-1,2.86-2.03Z"/><path class="cls-1" d="M89.76,44.27l-1.89-4.52c-.13-.3-.05-.66.17-1,.22-.34.58-.67,1.03-.91s.95-.37,1.41-.38c.45-.01.86.09,1.12.33l3.84,3.49c.87.79,2.08,2.23.82,3.11-.05-.13-.67-.64-1.09-.53.21,0,1.08.84,1.01,1.05-.17.52-.53.83-1.2,1.19-.68.36-1.16.48-1.78.38-.25-.04-.73-1.09-.63-1.25-.3.28-.06.98.06,1.07-1.49.57-2.43-1-2.86-2.03Z"/><rect class="cls-1" x="56.97" y="2.5" width="7.27" height="1.83" rx=".91" ry=".91" transform="translate(.17 9.08) rotate(-8.58)"/><path class="cls-1" d="M63.15,2.29l-5.31.8c-.22-1.47.79-2.84,2.26-3.06,1.47-.22,2.84.79,3.06,2.26Z"/><rect class="cls-1" x="4.8" y="70.97" width="4.85" height="10.16"/><rect class="cls-1" x="13.14" y="70.97" width="4.85" height="7.76"/><rect class="cls-1" x="4.8" y="85.25" width="4.85" height="7.76"/><path class="cls-1" d="M0,120.05v-4.85c2.65,0,4.8-2.16,4.8-4.8v-12.81h4.85v12.81c0,5.32-4.33,9.65-9.65,9.65Z"/><rect class="cls-1" x="10.91" y="76.3" width="14.61" height="4.85"/><rect class="cls-1" x="27.12" y="70.98" width="4.85" height="7.76"/><rect class="cls-1" x="27.13" y="76.3" width="16.59" height="4.85"/><path class="cls-1" d="M9.1,120.05v-4.85c2.23,0,4.04-1.81,4.04-4.04v-32.44h4.85v32.44c0,4.9-3.99,8.89-8.89,8.89Z"/><path class="cls-1" d="M18.21,120.05v-4.85c1.76,0,3.2-1.43,3.2-3.2v-20.45h-5.85v-4.85h10.7v25.3c0,4.44-3.61,8.05-8.05,8.05Z"/><path class="cls-1" d="M43.72,102.33h-15.46v-4.85h1.74c3.83,0,7.71-5.7,8.71-10.82h-10.46v-4.85h15.56v2.42c0,3.61-1.43,8.03-3.74,11.53-.4.61-.82,1.19-1.26,1.72h4.9v4.85Z"/><path class="cls-1" d="M31.56,120.05h-3.3v-4.85h3.3c2.93,0,5.31-2.38,5.31-5.31v-5.71h4.85v5.71c0,5.6-4.56,10.15-10.15,10.15Z"/><path class="cls-1" d="M94.18,95.72h-34.51v-7.95c0-9.3,7.57-16.87,16.87-16.87h12.6v4.85h-12.6c-6.63,0-12.02,5.39-12.02,12.02v3.1h29.66v4.85Z"/><path class="cls-1" d="M90.49,119.96h-3.38c-2.3,0-4.18-1.87-4.18-4.18v-13.33c0-2.3,1.87-4.18,4.18-4.18h3.38c2.3,0,4.18,1.87,4.18,4.18v13.33c0,2.3-1.87,4.18-4.18,4.18ZM87.78,115.11h2.04v-11.99h-2.04v11.99Z"/><path class="cls-1" d="M67.22,113.16h-3.38c-2.3,0-4.18-1.87-4.18-4.18v-6.53c0-2.3,1.87-4.18,4.18-4.18h3.38c2.3,0,4.18,1.87,4.18,4.18v6.53c0,2.3-1.87,4.18-4.18,4.18ZM64.52,108.31h2.04v-5.19h-2.04v5.19Z"/><path class="cls-1" d="M67.26,120.05h-7.69v-4.85h7.69c4.04,0,7.33-3.29,7.33-7.34v-25.4h4.85v25.4c0,6.72-5.46,12.18-12.18,12.18Z"/><path class="cls-1" d="M140.88,120.15h-23.85c-3.45,0-6.25-2.8-6.25-6.25v-36.74c0-3.45,2.8-6.25,6.25-6.25h23.85c3.45,0,6.25,2.8,6.25,6.25v36.74c0,3.45-2.8,6.25-6.25,6.25ZM117.03,75.75c-.78,0-1.41.63-1.41,1.41v36.74c0,.78.63,1.41,1.41,1.41h23.85c.78,0,1.41-.63,1.41-1.41v-36.74c0-.78-.63-1.41-1.41-1.41h-23.85Z"/><rect class="cls-1" x="122.66" y="80.05" width="12.6" height="4.85"/><rect class="cls-1" x="118.59" y="89.6" width="20.74" height="4.85"/><path class="cls-1" d="M118.96,112.43v-4.85c2.33,0,4.23-2.39,4.23-5.32v-10.23h4.85v10.23c0,5.61-4.07,10.17-9.08,10.17Z"/><path class="cls-1" d="M138.59,112.43c-5.01,0-9.08-4.56-9.08-10.17v-10.23h4.85v10.23c0,2.94,1.9,5.32,4.23,5.32v4.85Z"/><path class="cls-1" d="M162.76,84.97h1.94c1.7,0,2.23.56,2.23,1.93,0,1.48-.63,1.99-2.23,1.99h-.69v1.75h-1.24v-5.67ZM164.54,87.9c.84,0,1.13-.22,1.13-.97s-.29-.97-1.13-.97h-.53v1.94h.53Z"/><path class="cls-1" d="M171.13,90.64l-1.33-2.07h-.61v2.07h-1.24v-5.67h1.93c1.53,0,2.19.49,2.19,1.8,0,.95-.33,1.45-1.06,1.67l1.59,2.2h-1.46ZM169.68,87.65c.83,0,1.14-.16,1.14-.88,0-.68-.31-.82-1.14-.82h-.5v1.7h.5Z"/><path class="cls-1" d="M176.83,89.56v1.08h-3.58v-5.67h3.46v1.08h-2.22v1.17h2.06v1.04h-2.06v1.31h2.34Z"/><path class="cls-1" d="M181.57,86.06h-1.49v4.58h-1.23v-4.58h-1.49v-1.09h4.21v1.09Z"/><path class="cls-1" d="M186.07,86.06h-1.49v4.58h-1.23v-4.58h-1.49v-1.09h4.21v1.09Z"/><path class="cls-1" d="M188.3,88.4l-2.06-3.42h1.45l1.22,2.26h.05l1.26-2.26h1.4l-2.07,3.4v2.27h-1.25v-2.25Z"/><path class="cls-1" d="M162.61,102.4c0-2.19,1.07-2.92,2.74-2.92.53,0,.97.07,1.32.19v1.07c-.35-.12-.76-.2-1.24-.2-1.02,0-1.47.46-1.47,1.85,0,1.47.45,1.85,1.45,1.85.47,0,.89-.07,1.32-.22v1.06c-.33.14-.83.24-1.38.24-1.66,0-2.74-.54-2.74-2.92Z"/><path class="cls-1" d="M170.87,105.24l-1.33-2.07h-.61v2.07h-1.24v-5.67h1.93c1.53,0,2.19.49,2.19,1.8,0,.95-.33,1.45-1.06,1.67l1.59,2.2h-1.46ZM169.43,102.25c.83,0,1.14-.16,1.14-.88,0-.68-.31-.82-1.14-.82h-.5v1.7h.5Z"/><path class="cls-1" d="M176.48,103.83h-2.3l-.49,1.4h-1.29l2.12-5.67h1.67l2.1,5.67h-1.32l-.48-1.4ZM176.12,102.8l-.74-2.15h-.1l-.75,2.15h1.58Z"/><path class="cls-1" d="M178.72,104.12l2.79-3.44v-.05h-2.64v-1.07h4.17v1.07l-2.83,3.47v.05h3.04v1.08h-4.53v-1.11Z"/><path class="cls-1" d="M185.68,102.99l-2.06-3.42h1.45l1.22,2.26h.05l1.26-2.26h1.4l-2.07,3.4v2.27h-1.25v-2.25Z"/><path class="cls-1" d="M162.61,116.99c0-2.19,1.07-2.92,2.74-2.92.53,0,.97.07,1.32.19v1.07c-.35-.12-.76-.2-1.24-.2-1.02,0-1.47.46-1.47,1.85,0,1.47.45,1.85,1.45,1.85.47,0,.89-.07,1.32-.22v1.06c-.33.14-.83.24-1.38.24-1.66,0-2.74-.54-2.74-2.92Z"/><path class="cls-1" d="M171.17,118.42h-2.3l-.49,1.4h-1.29l2.12-5.67h1.67l2.1,5.67h-1.32l-.48-1.4ZM170.81,117.39l-.74-2.15h-.1l-.75,2.15h1.58Z"/><path class="cls-1" d="M176.8,119.83l-1.33-2.07h-.61v2.07h-1.24v-5.67h1.93c1.53,0,2.19.49,2.19,1.8,0,.95-.33,1.45-1.06,1.67l1.59,2.2h-1.46ZM175.35,116.84c.83,0,1.14-.16,1.14-.88,0-.68-.31-.82-1.14-.82h-.5v1.7h.5Z"/><path class="cls-1" d="M178.92,114.16h1.89l1.78,4.05h.05v-4.05h1.22v5.67h-1.71l-1.96-4.31h-.05v4.31h-1.23v-5.67Z"/><path class="cls-1" d="M185.12,114.16h1.24v5.67h-1.24v-5.67Z"/><path class="cls-1" d="M187.1,114.16h1.37l1.36,4.35h.05l1.41-4.35h1.29l-1.99,5.67h-1.54l-1.95-5.67Z"/><path class="cls-1" d="M196.18,118.42h-2.3l-.49,1.4h-1.29l2.12-5.67h1.67l2.1,5.67h-1.32l-.48-1.4ZM195.82,117.39l-.74-2.15h-.1l-.75,2.15h1.58Z"/><path class="cls-1" d="M202.12,118.75v1.08h-3.5v-5.67h1.24v4.59h2.25Z"/></g></svg>