<?xml version="1.0" encoding="UTF-8"?><svg id="_图层_2" xmlns="http://www.w3.org/2000/svg" viewBox="0 0 103.24 91.16"><defs><style>.cls-1{fill:#f5f5f5;}</style></defs><g id="_图层_1-2"><path class="cls-1" d="M103.24,63.45c-.03.12-.08.24-.1.36-.18,1.83-1.82,3.42-3.91,3.45-.82.01-1.64,0-2.45.01-.21,0-.41.07-.61.11.01.4.05.46.37.49.33.02.67.03,1,.01.55-.02,1.07.05,1.59.26.41.17.84.28,1.26.43,1.73.66,2.74,2.27,2.59,4.12-.14,1.75-1.46,3.22-3.22,3.57-.65.13-1.3.1-1.93-.09-3.84-1.16-7.3-2.99-10.32-5.64-.61-.54-1.19-1.12-1.77-1.7-.23-.23-.47-.48-.51-.89.17-.02.32-.06.48-.07.83,0,1.66,0,2.5,0,.24,0,.48-.02.55-.29-.05-.25-.22-.3-.41-.31-.19-.01-.39-.01-.58-.01-1.22,0-2.44,0-3.66,0-.19,0-.38-.02-.5-.03-.28-.15-.27-.54-.7-.44-.04.11-.11.25-.13.4-.04.23-.04.47-.07.7-.22,2.14-2.05,3.71-4.21,3.6-2.05-.1-3.71-1.79-3.77-3.83,0-.19,0-.39-.05-.58-.03-.12-.14-.27-.24-.29-.09-.02-.25.08-.33.17-.28.33-.42.37-.96.2,0-.14-.01-.3,0-.46.09-.99-.07-1.94-.56-2.81-.12-.22-.15-.44-.07-.68.44-1.24.37-2.45-.19-3.64-.03-.07-.04-.16-.07-.29.57-.1,1.11-.08,1.64-.01.13.16.24.3.34.42.27.08.39-.05.44-.27.03-.15.04-.3.04-.45,0-.4,0-.8,0-1.21.03-1.57,1.02-3,2.5-3.56,1.57-.59,2.99-.32,4.24.82.95.86,1.26,1.96,1.28,3.18,0,.37,0,.75.02,1.12,0,.22.07.42.4.39.09-.12.2-.26.35-.44.17-.01.38-.04.58-.04,1.46,0,2.91,0,4.37,0,.25,0,.51.02.63-.28-.05-.31-.28-.33-.5-.33-.6,0-1.19,0-1.79,0-.15,0-.29-.02-.49-.04.06-.15.09-.26.14-.35.46-.79.91-1.59,1.39-2.37,1.13-1.85,3.45-2.49,5.34-1.45,1.43.79,2.15,2.03,2.08,3.7,0,.13-.05.27-.08.45-.25.02-.47.04-.7.06-.18.01-.37-.01-.54.03-.13.03-.24.13-.34.19.01.31.18.37.37.39.16.02.33.02.5.02,1.61,0,3.22-.01,4.82,0,1.79.02,3.32,1.22,3.78,2.91.08.29.13.59.19.89v.42Z"/><path class="cls-1" d="M30.7,91.16c-.16-.04-.32-.09-.48-.13-2.14-.47-3.6-2.22-3.65-4.41-.02-.82,0-1.63,0-2.45,0-.15.04-.29.06-.49.19-.03.37-.08.54-.08,2.63,0,5.26,0,7.9,0,.16,0,.32.04.52.07.03.18.08.34.08.5,0,.82.02,1.63,0,2.45-.05,2.17-1.49,3.93-3.61,4.4-.18.04-.35.09-.52.14h-.83Z"/><path class="cls-1" d="M4.76,69.28c-.25-.1-.42-.14-.58-.22-2.1-1.06-3.02-3.57-2.13-5.75.89-2.19,3.29-3.33,5.54-2.63.16.05.32.11.48.14.18.04.33,0,.4-.2.02-.24-.15-.35-.34-.41-.38-.12-.77-.24-1.16-.31-1.78-.32-2.95-1.39-3.5-3.07-.91-2.82,1.03-5.65,3.98-5.9.73-.06,1.44.07,2.11.36,1.31.56,2.62,1.13,3.92,1.72.84.38,1.51.98,1.97,1.79.07.13.12.27.18.43-.12.1-.24.16-.31.25-.07.1-.14.25-.11.36.04.18.22.18.38.14.07-.02.13-.04.2-.07.68-.28,1.38-.38,2.12-.36.55.02,1.11,0,1.66,0,.17,0,.35.04.46.06.26.26.04.75.51.77.27-.12.26-.36.26-.58,0-.6,0-1.19.01-1.79.06-2.01,1.35-3.72,3.29-4.23,3.35-.88,5.78,1.72,5.76,4.25,0,.53,0,1.05,0,1.58,0,.17,0,.34.06.49.04.11.18.25.27.25.09,0,.23-.13.28-.24.08-.14.1-.31.14-.46.33-.16.64-.15.91-.04.25.23.02.72.48.75.28-.11.27-.35.27-.57,0-.58,0-1.16,0-1.75.04-2.03,1.35-3.78,3.32-4.29,3.24-.83,5.73,1.63,5.73,4.25,0,.53,0,1.05,0,1.58,0,.15-.01.32.04.45.05.12.18.21.27.32.1-.09.24-.17.31-.28.07-.12.09-.28.14-.47.18-.03.36-.07.53-.07.71,0,1.41-.01,2.12,0,2.1.04,3.88,1.51,4.31,3.55.44,2.1-.58,4.19-2.49,5.08-.38.18-.75.25-1.16.08-.26-.11-.56-.16-.85-.19-.66-.08-1.32-.15-1.98-.21-.23-.02-.48-.07-.6.23,0,.31.24.34.46.37.55.07,1.1.14,1.65.18,1.93.14,3.59,1.41,4.08,3.26.54,2.03-.11,3.76-1.72,4.97-.31.23-.64.3-1.01.26-.95-.09-1.91-.15-2.86-.21-.23-.01-.49-.05-.61.25.02.29.25.33.47.35.61.05,1.22.1,1.82.15.91.07,1.82.14,2.74.2,1.95.13,3.6,1.41,4.13,3.22.55,1.88-.1,3.85-1.67,4.99-.81.59-1.73.85-2.73.88-.15,0-.3,0-.46,0-10.11,0-20.21,0-30.32,0-.94,0-1.84-.13-2.69-.58-2.58-1.36-3.15-4.98-1.12-7.08.89-.92,1.96-1.36,3.22-1.44,1.37-.09,2.74-.2,4.1-.31.2-.02.39-.09.57-.13.03-.41-.04-.5-.41-.49-.51.01-1.02.06-1.54.09-.47.03-.94.07-1.41.12-.32.03-.6-.06-.86-.24-2.79-1.96-2.49-6.13.38-7.69.65-.35,1.33-.54,2.06-.58.44-.03.88-.09,1.32-.14.1-.01.21-.02.28-.07.09-.07.22-.2.2-.27-.03-.1-.16-.19-.27-.26-.04-.03-.11-.02-.16-.01-.8.09-1.6.18-2.39.28-.11.01-.22.03-.32.08-.52.27-.99.1-1.46-.16-1.09-.59-1.82-1.48-2.19-2.66-.05-.16-.08-.33-.17-.47-.06-.09-.23-.2-.32-.17-.09.03-.2.19-.21.3-.02.2.03.4.06.6-.32.24-.64.18-.94.09-.68-.21-1.38-.31-2.09-.25-.21.02-.41.05-.61.1-.16.04-.28.14-.26.32.03.19.17.24.34.24.15,0,.3-.02.46-.04,2.16-.23,4.05,1.05,4.78,2.98.16.41.12.74-.13,1.12-1.21,1.84-1.24,3.74-.14,5.65.11.2.23.42.26.64.08.64-.03.79-.63,1.02-3.55,1.34-4.52,5.82-1.83,8.5.05.05.1.1.15.14.29.23.35.51.22.85-.42,1.11-.83,2.23-1.26,3.35-.13.34-.28.66-.45.98-1.14,2.15-3.76,3.01-5.97,1.96-2.17-1.03-3.18-3.65-2.21-5.85,1.71-3.89,2.66-7.96,3.02-12.18.08-.95.11-1.91.16-2.86,0-.12.01-.26-.04-.37-.05-.11-.18-.24-.28-.24-.1,0-.24.14-.28.24-.06.18-.05.38-.06.57-.02.17-.04.35-.06.6ZM37.51,64.05c-.12-.07-.24-.16-.37-.2-.12-.04-.25-.02-.37-.02-3.55,0-7.09,0-10.64,0-.12,0-.25,0-.37.01-.18.02-.32.09-.34.3.03.2.18.26.36.28.16.02.33.02.5.02,3.45,0,6.9,0,10.35,0,.17,0,.33,0,.5-.02.17-.02.33-.08.39-.38ZM25.07,73c-.09.33.01.46.22.49.18.03.36.04.54.04,3.4,0,6.79,0,10.19,0,.15,0,.31,0,.46-.02.18-.02.32-.09.35-.31-.1-.33-.4-.28-.65-.28-1.9,0-3.8,0-5.7,0-1.58,0-3.16,0-4.74,0-.22,0-.45.05-.67.08Z"/><path class="cls-1" d="M89.44,37.92c-.34.09-.39.3-.36.49.07.48.18.95.28,1.42.03.14.09.28.15.46-.14.04-.24.08-.34.09-.12.01-.25,0-.37,0-6.88,0-13.75,0-20.63,0-.2,0-.41-.02-.68-.03.06-.19.1-.33.14-.47.11-.46.23-.91.31-1.37.04-.23.03-.48-.27-.57-.22.01-.29.16-.32.33-.03.21-.06.41-.09.62-.33,1.9-1.98,3.3-3.92,3.31-1.89.02-3.59-1.35-3.95-3.18-.06-.28-.07-.58-.07-.87,0-10.08.01-20.16-.01-30.23,0-2.13,1.72-4.04,4.03-4.04,10.12.02,20.24,0,30.36,0,2.29,0,4.02,1.75,4.02,4.05.01,4.38,0,8.76,0,13.14,0,5.61,0,11.23,0,16.84,0,.7-.11,1.38-.42,2.02-.79,1.6-2.53,2.51-4.27,2.2-1.79-.31-3.13-1.72-3.33-3.51-.01-.12,0-.26-.05-.37-.05-.13-.15-.24-.22-.35ZM89.34,12.25c-.25,0-.4-.01-.55,0-1.17.09-2.35.21-3.52.28-1.3.08-2.6.13-3.9.19-2.56.12-5.13.07-7.69-.06-1.84-.1-3.68-.28-5.51-.41-.16-.01-.32.03-.51.05-.02.25-.04.46-.04.66,0,1.36,0,2.72,0,4.08,0,.19-.04.37-.05.56-.59.24-1.25-.03-1.73.34-.07.28.06.39.26.42.15.02.3.02.46.02,1.86-.07,3.71-.18,5.57-.21,2.73-.04,5.46-.03,8.19-.04,3.38-.01,6.76.08,10.14.25.14,0,.28,0,.41-.02.18-.03.31-.13.28-.39-.43-.42-1.08-.09-1.63-.4-.02-.17-.05-.37-.05-.57,0-1.36,0-2.72,0-4.08,0-.21-.06-.42-.09-.65ZM67.64,31.39c.25.26.51.2.75.2,2.56-.07,5.12-.18,7.69-.21,4.23-.05,8.45.02,12.68.21.1,0,.19,0,.29,0,.23-.01.36-.14.38-.36.01-.15.02-.3.02-.46,0-1.1,0-2.19,0-3.29,0-.2.04-.4.06-.62.2-.04.35-.07.49-.09.25-.03.5-.04.75-.07.19-.02.36-.07.39-.29-.02-.21-.17-.28-.34-.3-.15-.02-.3-.02-.46-.01-1.88.07-3.77.18-5.65.21-2.62.04-5.24.04-7.86.03-1.93,0-3.85-.04-5.78-.09-1.47-.03-2.94-.1-4.4-.15-.19,0-.39,0-.58.02-.21.03-.32.15-.24.42.49.36,1.15.08,1.73.34.02.18.05.37.05.56,0,1.12,0,2.25,0,3.37,0,.19.02.38.03.56Z"/><path class="cls-1" d="M6.79,24.96c-.01-.26-.18-.32-.37-.34-.22-.02-.44-.04-.66-.02-1.07.08-1.88-.43-2.53-1.2-1.07-1.25-1.29-2.7-.67-4.2.65-1.58,1.92-2.35,3.6-2.47.26-.02.53,0,.79-.02.19,0,.36-.04.42-.28-.03-.3-.27-.31-.49-.32-.64-.04-1.27,0-1.9.18-.16.05-.32.07-.55.12-.08-.18-.18-.35-.22-.52-.58-2.4,1.21-4.78,3.68-4.91.26-.01.53,0,.79-.02.2-.01.39-.06.42-.31-.04-.23-.21-.27-.4-.29-1.7-.11-3.14.42-4.23,1.77-.11.14-.23.27-.37.44-.16-.1-.31-.16-.43-.26-1.28-1.06-1.76-2.86-1.19-4.46.55-1.56,2.01-2.62,3.69-2.62,4.7-.01,9.4,0,14.1,0,.24,0,.47,0,.71-.03.21-.02.37-.13.34-.36-.02-.04-.02-.08-.04-.09-.39-.25-.37-.59-.26-.99.66-2.57,3.2-4.17,5.85-3.66,2.55.49,4.39,3,3.94,5.57-1.15,6.68-3.6,12.82-7.89,18.15-2.88,3.58-6.34,6.51-10.27,8.87-1.71,1.03-3.48,1.95-5.25,2.88-1.55.81-3.15.84-4.71.02-2.81-1.48-3.49-5.01-1.65-7.45.49-.65,1.11-1.12,1.82-1.49.84-.43,1.67-.87,2.53-1.27.25-.12.56-.12.84-.16.22-.03.46.02.58-.26ZM6.29,26.26c-.32.17-.37.39-.11.63.28.27.64.36,1,.28.48-.11.97-.25,1.42-.46,2-.93,3.66-2.34,5.24-3.84,1.46-1.39,2.74-2.93,3.91-4.58,2.18-3.07,3.84-6.38,4.7-10.06.29-1.26.51-2.53.53-3.82,0-.25-.06-.52-.16-.76-.09-.22-.29-.29-.53-.09,0,.09,0,.2,0,.31.02.34.08.69.05,1.03-.18,2.18-.68,4.29-1.46,6.34-1.01,2.63-2.39,5.06-4.08,7.31-1.81,2.4-3.88,4.55-6.32,6.34-.83.61-1.7,1.14-2.67,1.5-.5.19-.99.3-1.44-.11-.02-.02-.05-.01-.08-.02Z"/><path class="cls-1" d="M83.43,67.91c.26,0,.52-.02.77.01.12.02.26.13.32.23.59,1.18,1.59,1.98,2.54,2.82,2.81,2.48,6.04,4.26,9.57,5.49.57.2.59.23.59.83,0,2.99,0,5.99,0,8.98,0,1.55-.6,2.81-1.93,3.65-2.46,1.56-5.79-.07-6.09-2.97-.02-.18-.03-.36-.09-.53-.03-.08-.17-.19-.24-.17-.1.01-.22.11-.27.2-.05.1-.05.25-.03.37.11.51.24,1.02.37,1.53.02.08.04.16.06.28-.11.04-.21.08-.31.1-.15.02-.3.01-.46.01-6.42,0-12.84,0-19.25,0-.23,0-.45-.02-.74-.04.23-.76.52-1.43.45-2.16,0-.07-.04-.13-.08-.19-.03-.04-.08-.07-.12-.1-.25-.03-.34.12-.37.31-.04.22-.06.44-.1.66-.3,1.83-1.97,3.41-4.14,3.29-2.18-.13-3.79-1.78-3.8-3.88-.02-3.13,0-6.27,0-9.4,0-.54.05-.6.56-.78,2.74-.95,5.31-2.24,7.66-3.95,1.24-.91,2.42-1.9,3.49-3.02.32-.34.61-.73.83-1.13.2-.35.43-.52.82-.48.18.02.35.03.56.04.06.17.12.32.16.48.82,3.59,4.99,4.92,7.73,2.45.7-.63,1.13-1.43,1.34-2.35.03-.13.07-.27.11-.4.01-.04.04-.07.06-.11l.03-.1ZM83.01,82.06c.31-.04.33-.28.37-.5.11-.59.16-.65.76-.63,1.04.03,2.08.09,3.11.14.42.02.83.04,1.25.05.18,0,.35-.04.38-.24.03-.23-.14-.31-.33-.34-.14-.02-.27-.03-.41-.04-1.24-.06-2.49-.12-3.73-.19-.26-.01-.51-.07-.71-.11-.06-.11-.1-.14-.1-.18-.01-.54-.03-1.08-.02-1.62,0-.19.14-.3.32-.33.15-.03.3-.03.45-.04,1.27-.06,2.55-.13,3.82-.19.16,0,.34-.02.49-.09.1-.05.23-.2.22-.29-.01-.09-.16-.21-.27-.25-.12-.04-.27,0-.41,0-1.34.07-2.68.14-4.03.2-.2,0-.4-.04-.61-.06-.05-.18-.1-.31-.13-.44-.02-.08-.02-.17-.04-.25-.04-.2-.06-.44-.34-.44-.19,0-.28.18-.26.53,0,.1.02.19.03.29.03.98.06,1.96.07,2.94,0,.51-.07,1.02-.09,1.53-.01.21-.03.43.25.54ZM73.89,80.2c-.42.04-.77.09-1.12.11-1.19.07-2.38.12-3.57.19-.14,0-.29.02-.4.08-.09.05-.19.19-.18.28.01.09.14.2.24.23.12.04.27.02.41.01,1.34-.06,2.68-.13,4.03-.19.21,0,.42.05.62.07.05.14.08.22.09.3.02.14.03.28.05.41.04.19.12.36.35.33.21-.02.25-.2.25-.37,0-.07,0-.14,0-.21-.13-1.56-.13-3.13,0-4.69,0-.11.02-.23-.01-.33-.03-.09-.13-.21-.21-.22-.1,0-.24.07-.3.15-.07.11-.08.26-.1.4-.07.59-.13.66-.73.64-.95-.03-1.91-.09-2.86-.13-.48-.02-.97-.06-1.45-.08-.17,0-.34.05-.37.26-.02.21.13.3.3.33.2.04.41.06.62.07,1.2.07,2.41.12,3.61.19.24.01.48.08.75.13v2.03Z"/><path class="cls-1" d="M48.44,12.55c-.12-.14-.23-.26-.34-.39-.93-1.16-2.14-1.79-3.63-1.8-3.69-.01-7.38,0-11.06,0-.26,0-.57-.06-.69.28.04.25.2.31.39.33.18.01.36.01.54.01,3.55,0,7.1,0,10.65,0,.74,0,1.43.15,2.07.51,1.59.89,2.34,2.56,1.95,4.47-.03.16-.11.3-.18.46-.13-.02-.23-.02-.32-.04-.64-.21-1.3-.26-1.97-.26-2.83,0-5.66,0-8.49,0-.21,0-.42,0-.62.05-.1.03-.24.18-.24.27,0,.1.14.25.24.28.22.06.47.06.7.06,2.95,0,5.91.06,8.86-.02,1.99-.05,4.16,1.7,4.01,4.27-.12,2-1.79,3.66-3.8,3.72-.78.03-1.55,0-2.33.01-.17,0-.33,0-.5.03-.16.02-.32.12-.28.29.03.12.17.25.29.29.19.06.41.06.62.05.48-.03.88.12,1.3.36,1.09.63,2.21,1.22,3.32,1.82,2.07,1.12,2.77,3.7,1.54,5.69-1.2,1.94-3.61,2.26-5.14,1.49-3.77-1.89-7.35-4.07-10.57-6.8-.78-.66-1.52-1.38-2.27-2.07-.11-.1-.2-.22-.37-.41.24-.03.39-.06.54-.06.83,0,1.66,0,2.5,0,.18,0,.36-.02.54-.04.18-.02.31-.11.34-.29-.03-.23-.18-.29-.36-.3-.22-.02-.44-.03-.66-.03-3.76,0-7.51,0-11.27,0-.2,0-.4-.02-.69-.04.12-.19.18-.3.26-.4,1.58-1.94,2.94-4.03,4.09-6.26,1.17-2.26,2.09-4.62,2.81-7.06.5-1.72.92-3.46,1.22-5.22.03-.15.07-.29.13-.49.25-.02.49-.06.73-.06,3.67,0,7.35,0,11.02,0,1,0,2,0,2.99,0,1.71.02,2.95.83,3.65,2.36.7,1.53.43,2.98-.62,4.28-.23.28-.49.53-.9.68Z"/><path class="cls-1" d="M95.99,58.23c-.03-.15-.07-.33-.08-.5-.08-.99-.38-1.9-1.01-2.68-1.54-1.93-4.28-2.33-6.31-.91-.53.37-.96.84-1.29,1.39-.51.86-1.02,1.71-1.51,2.59-.2.36-.46.53-.87.5-.33-.02-.67,0-1,0-.15,0-.29-.04-.49-.07-.02-.22-.06-.42-.07-.62-.11-1.84-.91-3.27-2.59-4.12-2.84-1.44-6.24.36-6.67,3.52-.03.25-.04.5-.07.74-.02.15-.05.29-.08.48-.18.03-.34.07-.5.08-.36.01-.72-.02-1.08.01-.47.04-.74-.17-.95-.57-.43-.79-.9-1.56-1.35-2.34-.11-.18-.21-.36-.34-.52-.1-.12-.24-.21-.34-.3-.36.2-.38.29-.2.6.67,1.13,1.35,2.26,2.02,3.4.16.26.31.52.46.79.47.88.63,1.8.42,2.78-.02.09-.05.19-.08.28-.02.05-.06.09-.09.14-.14,0-.28-.02-.41-.03-.26.19-.18.38-.03.58.2.27.42.52.57.81.84,1.56.62,3.36-.59,4.66-1.44,1.55-3.08,2.88-4.86,4.01-2.14,1.36-4.43,2.41-6.85,3.18-1.03.33-2.04.35-3.05-.07-1.52-.64-2.49-2.17-2.44-3.83.05-1.67,1.15-3.11,2.77-3.69.93-.33,1.86-.64,2.76-1.04,1.97-.87,3.74-2.05,5.28-3.56.15-.15.27-.33.39-.48q-.23-.31-.9-.01c-.08-.11-.17-.23-.25-.35-.53-.91-1.05-1.83-1.6-2.73-.83-1.36-1.01-2.76-.31-4.24.04-.09.08-.19.07-.28-.02-.09-.09-.2-.18-.25-.06-.03-.2,0-.26.05-.1.09-.17.21-.23.34-.3.61-.44,1.25-.44,1.93,0,.2-.02.41-.04.64-.19.03-.33.08-.47.09-.62,0-1.25,0-1.87,0-.29,0-.54-.1-.77-.27-1.3-.98-1.87-2.77-1.38-4.36.5-1.62,1.98-2.81,3.64-2.81,1.04,0,2.07.13,3.11.2,1.58.1,3.15.23,4.73.28,2.38.08,4.77.16,7.15.15,4.21-.01,8.43-.18,12.62-.62,2.48-.26,4.96-.58,7.43-.89,1.64-.21,3.04.21,4.05,1.56,1.72,2.29.51,5.6-2.27,6.28-.61.15-.94.18-1.31.1Z"/><path class="cls-1" d="M33.81,38.24c-.37.04-.45.11-.43.47.03.56.15,1.1.38,1.61.07.14.11.3.17.44-.35.14-14.79.18-15.32.04.05-.14.12-.27.15-.41.14-.51.27-1.01.39-1.52.03-.13.02-.29-.02-.41-.04-.1-.16-.22-.25-.22-.09,0-.22.1-.27.2-.06.1-.06.24-.07.36-.1,1.93-1.89,3.77-4.13,3.69-2.11-.08-3.8-1.73-3.88-3.91-.04-1.16,0-2.33-.02-3.49,0-.37.21-.54.49-.7,1.13-.68,2.27-1.34,3.37-2.05,2.85-1.85,5.41-4.06,7.7-6.57.2-.22.43-.33.73-.32,2.63,0,5.27,0,7.9,0,.33,0,.58.12.81.35,2.91,3.04,6.27,5.49,9.91,7.58.44.26.61.56.6,1.07-.03,1.34,0,2.69-.01,4.03-.01,1.73-.82,2.99-2.39,3.67-1.58.69-3.08.41-4.36-.75-.69-.62-1.09-1.42-1.22-2.35-.04-.27,0-.56-.23-.8ZM33.58,29.8c-.27-.13-.43-.02-.48.19-.11.41-.41.48-.77.49-1.73.06-3.46.15-5.19.18-2.37.05-4.74-.02-7.1-.18-.35-.02-.66-.08-.77-.49-.05-.17-.17-.3-.37-.24-.2.06-.2.24-.2.41,0,.47,0,.94,0,1.4,0,.21.02.39.28.42.23-.04.27-.22.33-.39.15-.45.2-.5.68-.49.69.03,1.38.07,2.08.1,2.77.15,5.54.15,8.31,0,.69-.04,1.38-.08,2.08-.1.4-.01.47.05.59.44.06.2.1.41.43.45.05-.08.18-.18.18-.29.02-.58.01-1.16,0-1.74,0-.05-.04-.1-.06-.16ZM32.93,34.54s-.03.06-.04.1c-.34,0-.68,0-1.02,0-1.76-.05-3.52-.14-5.28-.13-2.16,0-4.32.1-6.48.15-.23,0-.46-.03-.67-.05-.09-.2-.14-.37-.24-.5-.05-.08-.2-.16-.27-.14-.1.03-.19.15-.23.25-.04.08,0,.19,0,.29,0,.39,0,.77,0,1.16,0,.16.02.32.03.46.39.09.44.06.56-.26.18-.52.22-.55.77-.57,1.51-.06,3.02-.14,4.53-.15,2.05,0,4.1.04,6.15.08.57,0,1.14.06,1.7.08.31.01.53.14.59.47.01.08.04.16.08.24.11.21.27.27.52.08,0-.62,0-1.26,0-1.91,0-.07-.13-.19-.21-.2-.09-.01-.22.06-.27.14-.09.13-.14.3-.21.45Z"/><path class="cls-1" d="M64.15,64.02c-.19.13-.35.23-.5.35-1.36,1.11-2.85,2.01-4.47,2.7-.95.41-1.87.17-2.72-.26-1.65-.83-2.49-2.69-2.07-4.48.43-1.81,1.97-3.07,3.84-3.1.93-.02,1.86,0,2.79,0,.35,0,.53.14.7.45.62,1.15,1.27,2.27,1.92,3.41.15.26.29.53.52.94Z"/></g></svg>