<?xml version="1.0" encoding="UTF-8"?><svg xmlns="http://www.w3.org/2000/svg" xmlns:xlink="http://www.w3.org/1999/xlink" viewBox="0 0 86.41 137.42"><defs><style>.cls-1{fill:url(#_未命名的渐变_6522);}.cls-2{fill:#fff;}.cls-3{fill:url(#_未命名的渐变_6452);}.cls-4{fill:url(#_未命名的渐变_6317);}.cls-5{isolation:isolate;}.cls-6{fill:url(#_未命名的渐变_6392);mix-blend-mode:screen;}.cls-6,.cls-7{fill-rule:evenodd;}.cls-7{fill:url(#_未命名的渐变_6496);mix-blend-mode:lighten;opacity:.6;}</style><linearGradient id="_未命名的渐变_6317" x1="12.58" y1="9.23" x2="29.07" y2="37.78" gradientUnits="userSpaceOnUse"><stop offset="0" stop-color="#595959"/><stop offset=".19" stop-color="#727272"/><stop offset=".59" stop-color="#b5b5b5"/><stop offset="1" stop-color="#fff"/></linearGradient><linearGradient id="_未命名的渐变_6522" x1="4812.48" y1="876.11" x2="4814.9" y2="945.24" gradientTransform="translate(3616.41 3385.16) rotate(-148)" gradientUnits="userSpaceOnUse"><stop offset=".26" stop-color="#fff"/><stop offset=".41" stop-color="#e5e5e5"/><stop offset=".74" stop-color="#a3a3a3"/><stop offset="1" stop-color="#6c6c6c"/></linearGradient><linearGradient id="_未命名的渐变_6452" x1="4624.1" y1="60.91" x2="4575.71" y2="60.91" gradientTransform="translate(4630.95) rotate(-180) scale(1 -1)" gradientUnits="userSpaceOnUse"><stop offset=".27" stop-color="#d8d8d8"/><stop offset=".39" stop-color="#bebebe"/><stop offset=".65" stop-color="#7b7b7b"/><stop offset="1" stop-color="#171717"/></linearGradient><linearGradient id="_未命名的渐变_6392" x1="55.24" y1="48.1" x2="6.84" y2="48.1" gradientUnits="userSpaceOnUse"><stop offset="0" stop-color="#474747"/><stop offset=".17" stop-color="#606060"/><stop offset=".54" stop-color="#a3a3a3"/><stop offset="1" stop-color="#fff"/></linearGradient><linearGradient id="_未命名的渐变_6496" x1="4630.84" y1="65.74" x2="4594.55" y2="65.74" gradientTransform="translate(4630.95) rotate(-180) scale(1 -1)" gradientUnits="userSpaceOnUse"><stop offset=".25" stop-color="#787878"/><stop offset=".42" stop-color="#919191"/><stop offset=".78" stop-color="#d3d3d3"/><stop offset="1" stop-color="#fff"/></linearGradient></defs><g class="cls-5"><g id="_图层_2"><g id="_图层_1-2"><path class="cls-2" d="M67.67,43.44c.39.16.84.24,1.26.24h12.12c.47,0,.87-.08,1.29-.24.79-.37,1.39-.97,1.75-1.76.16-.42.23-.82.23-1.29v-3.55c-.02-.47-.1-.89-.26-1.31-.37-.79-.98-1.39-1.77-1.74-.42-.16-.82-.26-1.29-.26h-12.12c-.42,0-.87.11-1.26.26-.79.34-1.39.95-1.73,1.74-.18.42-.26.84-.26,1.31v3.55c.02.47.1.87.28,1.29.35.79.95,1.39,1.74,1.76ZM67.47,39.42v-1.79s-.01-.79-.01-.79c0-.47.13-.79.39-1.08.29-.29.66-.45,1.05-.45h12.12c.42,0,.79.16,1.08.45.29.29.45.6.45,1.08v.79s.01,1.79.01,1.79v.97c0,.42-.15.79-.44,1.08-.29.32-.66.45-1.08.45h-12.12c-.39,0-.76-.13-1.05-.45-.26-.29-.4-.66-.4-1.08v-.97Z"/><path class="cls-2" d="M85.47,56.39c0,.49-.4.88-.89.88h-17.4c-.47,0-.87-.42-.87-.87v-.05c0-.48.39-.87.86-.87h6.96v-2.76h-8.5c-.47,0-.87-.37-.87-.87v-.03c0-.48.39-.87.86-.87h8.49v-2.76h-8.42c-.29,0-.53-.11-.71-.34-.16-.21-.21-.47-.13-.74l.54-2.08c.1-.45.58-.71,1.02-.63l.05.03c.47.13.76.58.66,1.05l-.23.92h7.2v-1.21c0-.47.36-.87.86-.87s.87.39.87.87v1.21h8.13c.48,0,.87.39.87.87v.05c0,.5-.39.87-.86.87h-8.12v2.76h8.24c.47,0,.84.38.84.84v.05c0,.5-.39.87-.86.87h-8.2v2.76h8.72c.5,0,.9.41.89.9h0Z"/><circle class="cls-2" cx="64.5" cy="56.37" r=".89" transform="translate(-20.96 62.21) rotate(-45.06)"/><path class="cls-2" d="M78.93,39.42h-7.84c-.49,0-.9-.4-.9-.89h0c0-.49.4-.89.89-.89h7.84c.49,0,.9.4.9.89h0c0,.49-.4.89-.89.89Z"/><path class="cls-2" d="M85.01,105.72h-3.37v-3.34h3.15c.47,0,.87-.42.87-.87v-.05c0-.47-.4-.87-.87-.87h-3.15v-.79c0-.47-.39-.87-.87-.87h-.05c-.45,0-.87.4-.87.87v.79h-4.15c-.5,0-.87.4-.87.87v.05c0,.45.37.87.87.87h4.15v3.34h-3l.16-1.71c.05-.47-.29-.89-.76-.94h-.05c-.45-.08-.89.26-.95.74l-.34,2.74c-.03.26.03.5.21.68.16.19.37.29.65.29h4.08v2.42c0,.47.42.87.87.87h.05c.47,0,.87-.39.87-.87v-2.42h3.37c.47,0,.84-.39.84-.87v-.05c0-.47-.37-.87-.84-.87Z"/><path class="cls-2" d="M64.37,109.44c.12.54.7.83,1.21.6,1.2-.55,3.25-1.57,4.51-2.7,1.66-1.5,2.89-3.42,3.43-5.8,0,0,0-.01,0-.02.05-.25.1-.5.15-.76.03-.26-.02-.5-.21-.71-.16-.19-.39-.32-.66-.32h-5.81l.55-1c.05-.08.11-.19.11-.29h17.14c.48,0,.87-.39.87-.87v-.07c0-.48-.39-.87-.87-.87h-1.86v-2.13h1.71c.47,0,.87-.4.87-.84v-.05c0-.5-.4-.87-.87-.87h-1.71v-2.21s0,0,0,0c0-1-.79-1.76-1.74-1.76h-15.12l.16-.34c.16-.45-.05-.92-.5-1.1v-.03c-.45-.19-.94.03-1.16.47l-.63,1.57c-.21.58.19,1.18.82,1.18h1.68v2.21h-1.84c-.47,0-.87.37-.87.87v.05c0,.45.39.84.87.84h1.84v2.13h-2c-.45,0-.87.39-.87.87v.08c0,.47.42.87.87.87h1.29l-.94,1.81c-.32.56.08,1.26.76,1.26h6.26c-.5,1.58-1.24,2.81-2.16,3.84l-.1-.04h0s-5.05-2.4-5.05-2.4c-.45-.19-.95-.03-1.16.42l-.03.08c-.21.43-.02.92.42,1.13l4.42,2.11.05.02c-.28.21-.57.41-.87.59-.02.02-.03.03-.05.04-.72.44-1.52.81-2.38,1.15-.4.15-.63.58-.53,1h0ZM71.31,96.63h-3.1v-2.13h3.1v2.13ZM71.31,92.74h-3.1v-2.21h3.1v2.21ZM76.31,96.63h-3.21v-2.13h3.21v2.13ZM76.31,92.74h-3.21v-2.21h3.21v2.21ZM81.19,96.63h-3.13v-2.13h3.13v2.13ZM81.19,92.74h-3.13v-2.21h3.13v2.21Z"/><circle class="cls-2" cx="84.63" cy="89.62" r=".88"/><path class="cls-2" d="M69.29,118.57c0,.5-.37.87-.84.87h-.05c-.47,0-.87-.37-.87-.87v-1.16h-4c-.45,0-.87-.37-.87-.84v-.05c0-.47.42-.87.87-.87h4v-1.16c0-.47.39-.87.87-.87h.05c.47,0,.84.39.84.87v1.16h10.49v-1.16c0-.47.37-.87.87-.87h.05c.45,0,.84.39.84.87v1.16h1.32c.47,0,.87.39.87.87v.05c0,.47-.39.84-.87.84h-1.32v1.16c0,.5-.39.87-.84.87h-.05c-.5,0-.87-.37-.87-.87v-1.16h-10.49v1.16ZM65.4,122.22c.26-.32.53-.63.79-.89.53-.58,1.18-.95,1.95-1.16.39-.11.87-.16,1.39-.16h10.02c.53,0,1,.05,1.42.16.76.21,1.37.58,1.92,1.16.26.26.5.58.76.89l2.21,2.84c.13.18.21.39.16.63-.03.26-.16.45-.34.58l-.05.05c-.37.26-.89.21-1.18-.18l-2.21-2.87h.03l-.5-.6c-.37-.39-.76-.66-1.29-.76-.26-.08-.58-.13-.92-.13h-10.02c-.68,0-1.24.16-1.6.42-.39.26-.74.6-1.08,1.08h.03l-1.37,1.79c-.29.34-.58.71-.87,1.1-.26.37-.82.42-1.16.16l-.08-.05c-.39-.29-.47-.84-.18-1.21l2.18-2.84ZM85.33,128.77c.5,0,.87.37.87.87v.03c0,.47-.37.87-.87.87h-16.77c0,.08-.03.16-.05.24l-1.87,4.92h14.7c.45,0,.79-.18,1.08-.47.29-.29.45-.66.45-1.05v-1.29c0-.47.39-.87.87-.87h.03c.47,0,.87.39.87.87v1.29c0,.45-.08.89-.26,1.29-.53,1.24-1.66,1.97-3.02,1.97h-16.12c-.58,0-1.03-.58-.79-1.16l2.23-5.73h-2.71c-.47,0-.87-.39-.87-.87v-.03c0-.5.39-.87.87-.87h21.37ZM81.26,124.28c.47,0,.87.42.87.87v.05c0,.47-.39.87-.87.87h-13.17c-.5,0-.87-.39-.87-.87v-.05c0-.45.37-.87.87-.87h13.17Z"/><circle class="cls-2" cx="85.53" cy="116.53" r=".88"/><path class="cls-2" d="M64.64,66.14h.03c.47,0,.87-.39.87-.87v-3.21c0-.45-.39-.87-.87-.87h-.03c-.47,0-.87.42-.87.87v3.21c0,.47.39.87.87.87Z"/><path class="cls-2" d="M64.64,73.39h.03c.47,0,.87-.39.87-.87v-3.21c0-.47-.39-.84-.87-.84h-.03c-.47,0-.87.37-.87.84v3.21c0,.47.39.87.87.87Z"/><path class="cls-2" d="M64.64,84.57h.03c.47,0,.87-.39.87-.87v-7.28c0-.47-.39-.84-.87-.84h-.03c-.47,0-.87.37-.87.84v7.28c0,.47.39.87.87.87Z"/><path class="cls-2" d="M82.54,61.38h-2.08c-1.52,0-2.79,1.24-2.79,2.79v19.56c0,.5.37.87.87.87h.03c.5,0,.87-.37.87-.87v-19.56c0-.6.42-1.03,1.02-1.03h2.08c.26,0,.5.11.68.26.24.21.32.47.32.76v4.78s0,1.81,0,1.81v12.93c0,.5.39.87.87.87h.05c.45,0,.84-.37.84-.87v-19.53c0-1.55-1.26-2.79-2.76-2.79Z"/><path class="cls-2" d="M75.79,79.94h-2.76v-1.58h1.1c.66,0,1.18-.21,1.63-.66.47-.47.68-1.03.68-1.66v-6.73c0-.63-.21-1.18-.68-1.63-.45-.47-.97-.68-1.63-.68h-1.1v-2.26c.5,0,.87-.42.87-.87v-.05c0-.47-.37-.87-.87-.87v-1.29c0-.5-.39-.87-.87-.87h-.05c-.47,0-.87.37-.87.87v1.29h-2.76c-.5,0-.87.39-.87.87v.05c0,.45.37.87.87.87h2.76v2.26h-1.1c-.66,0-1.18.21-1.63.68-.47.45-.68,1-.68,1.63v6.73c0,.63.21,1.18.68,1.66.45.45.97.66,1.63.66h1.1v1.58h0c-.5,0-.87.37-.87.87v.05c0,.47.37.87.87.87h0v1.97c0,.47.39.87.87.87h.05c.47,0,.87-.39.87-.87v-1.97h2.76c.5,0,.87-.39.87-.87v-.05c0-.5-.37-.87-.87-.87ZM69.58,69.32c0-.32.24-.53.55-.53h4c.32,0,.55.21.55.53v2.52h-5.1v-2.52ZM70.14,76.57c-.32,0-.55-.21-.55-.53v-2.42h5.1v2.42c0,.32-.24.53-.55.53h-4Z"/><circle class="cls-2" cx="75.76" cy="63.85" r=".89"/><circle class="cls-2" cx="68.5" cy="80.84" r=".89"/><circle class="cls-2" cx="83.54" cy="69.85" r=".91"/><circle class="cls-2" cx="83.54" cy="77.12" r=".91"/><rect class="cls-2" x="81.01" y="76.21" width="3.44" height="1.83" rx=".92" ry=".92"/><rect class="cls-2" x="81.01" y="68.94" width="3.44" height="1.83" rx=".92" ry=".92"/><path class="cls-4" d="M44.01,22.93c.4.63.75,1.18,1.13,1.77-.31.1-.49.04-.64-.11-2.04-2.09-.55-.74-2.7-1.34-.06-.02-.13,0-.33.02.28.25.28.19,2.01.66-.11.18-.16.36-.23.37-1.42.09-1.61-.32-2.49-.21-.47.06-.85-.21-1.17-.53-.08-.08-.14-.16-.26-.31-4.17,2.79-4.18,4.06-9.67,6.69-1.37.66-3.56,2.09-5.17,2.28-1.17.14-1.93.49-6.43,3.18-5.04,3.01-4.69,2.42-5.47,5.6-.18.71.33.96.85,1.12.15.05.15.26,0,.31-2.32.75-3.79,1.29-6.47.45-.03-3.25-1.29-6-.72-7.85.29-.93-1-1.41-.71-2.8.08-.38.28-.73.55-1.02.17-.18.33-.37.52-.52.38-.29.57-.66.65-1.12.08-.47.28-.93.16-1.43-.02-.1.03-.22.04-.33.35-4.83.18-4.85.2-6.15.04-2.56.17-2.3.32-3.95.09-1.05,0-1.37.17-2.36.45-2.62.31-1.6,1.56-5.14,1.28-3.7,1.67-4.44,1.04-4.58-1.07-.24-.92-1.53-1.64-2.26-.22-.22-.28-.62-.37-.95-.02-.07.09-.2.17-.25.05-.03.19.03.23.09.11.15.16.34.44.27-.09-.41-.23-.35-1.74-1.11-.06-.03-.24-.1-.24-.25.49.03.57.06,2.13.17.3-.44-.45-.88-.03-1.38,1.58,2.66.8,1.33,2.18,4.67.47,1.13.57.65-.15,6.27-.53,4.06-.1,4.3-1.15,6.54-.2.44-.38.86-.28,1.38.36,1.85.12,2.83.11,3.38-.05,2.04.31,4.28.31,4.43.76.31,1.44.88,2.46.55.84-1.17,1.76-2.43,2.01-4.06-.28-.27-.63-.36-1-.43-2.02-.35-1.59-.41-.73-3.8.19-.74.9.01,1.75-1.12,1.66-2.24,3.23-1.2,5.4-.77,1.7.35,1.92,1.79,2.72,1.64.87-.17,1.67.34,1.89,1.21.33,1.32-.44,2.16-1.59,3.64-.41.53-.93.78-1.56.9-3.03.55-3.04.45-3.3.8-1.22,1.62-1.22,1.56-1.73,3.7-.1.41.02.61.4.78.87.41,1.54.89,2.39.65.74-.21,1.92-.21,2.58-.44,3.02-1.06,3.8-1.48,4.76-1.54.47-.03.85-.35,1.17-.66,1.1-1.02,2.37-1.74,3.74-2.33,2.92-1.26,6.86-3.38,6.86-3.38.85.04,2.78.19,2.97.19,2.08-.05,1.08.04,3.19.26.09,0,.17.04.27.07-.19.23-.37.35-.67.29-.18-.03-.38.04-.66.07Z"/><path class="cls-1" d="M4.5,75.78c12.79,20.05,8.27,22.24,8.27,22.24,0,0,41.56-29.34-5.93-54.68,0,0-.05.03-.14.09-1.46.96-12.86,15.66-2.21,32.35Z"/><path class="cls-3" d="M27.6,45.33c10.78-1.33,20.26,8.2,23.15,14.12,2.3,4.69,4.02,10.1,4.49,15.27,0,0-15.23,8.8-30.13-.49-12.66-7.89-18.49-21.34-18.26-30.89,0,0,6.26,3.79,20.75,1.99Z"/><path class="cls-6" d="M55.24,51.05c-2.97-.69-5.63.34-8.23,1.71-.27.14-.54.29-.81.44-2.01,1.1-4,2.32-6.07,3.01-.37.12-.75.24-1.13.34-3.31.91-6.73,1.05-10.11.77-.81-.06-1.61-.15-2.41-.26-.82-.11-1.61-.27-2.36-.46-5.63-1.48-9.77-5.46-17.19-13.18h0s-.04-.04-.05-.06c0,0,0,0-.01-.01,0,0,0,0,.01,0,0,0,0,0,0,0h0s0,0,.02,0c0,0,0,0,0,0,0,0,.01,0,.02,0,.5.16,3.57,1.05,6.06.32,1.27-.37,2.54-.77,3.8-1.18.44-.14.88-.28,1.32-.42,2.01-.64,4.02-1.27,6.06-1.81,6.42-1.7,8.87-2.45,16.2.29.03,0,.05.02.08.03,1.61.61,3.5,1.69,5.39,2.94.56.37,1.12.76,1.67,1.15,1.01.71,1.99,1.45,2.9,2.16,2.4,1.88,4.29,3.58,4.87,4.21Z"/><path class="cls-7" d="M34.95,88.16c-3.9-3.25-7.06-4.17-11.82-4.47-11.5-.91-16.82-4.99-19.19-8.83C-1.67,62.35,0,58.09,2.01,50.96c2.24-5.1,3.49-6.24,4.84-7.62,3.23,2.82,8.27,3.35,11.93,5.61,5.86,3.62,11.23,8.49,14.42,14.66,2.01,3.89,3.1,9.05,3.2,13.39.07,3.11-.94,8.22-1.45,11.16Z"/><path class="cls-2" d="M7.23,114.72c-.21.23-.45.4-.72.52-.62.27-1.37.24-1.97-.16-.34-.22-.62-.53-.82-.91-.2-.38-.3-.79-.3-1.22s.1-.84.3-1.22c.2-.38.48-.69.82-.91.34-.22.71-.34,1.11-.34.27,0,.52.06.75.16.24.11.47.28.72.53.18.14.37.12.5-.01.07-.07.11-.16.11-.26,0-.09-.03-.18-.1-.25-.29-.3-.6-.52-.93-.67-.33-.15-.68-.22-1.06-.22-.54,0-1.04.15-1.5.45-.45.29-.82.69-1.08,1.18-.27.49-.4,1.02-.4,1.58s.13,1.09.4,1.58c.27.49.63.88,1.08,1.18.46.3.96.45,1.49.45.39,0,.78-.08,1.14-.25.36-.16.69-.39.98-.68.07-.07.1-.15.1-.26s-.04-.19-.12-.27c-.15-.13-.37-.12-.51.02Z"/><path class="cls-2" d="M13.74,109.85c-.07.07-.1.16-.1.26v2.52c-.01-.07-.04-.13-.1-.19-.07-.07-.16-.11-.26-.11h-3.27v-2.22c0-.1-.04-.19-.1-.26-.14-.14-.38-.13-.51,0-.07.07-.11.16-.11.26v5.68c0,.1.04.19.1.26.13.13.37.14.51,0,.07-.07.1-.16.1-.26v-2.73h3.27c.1,0,.19-.04.26-.1.05-.05.09-.12.1-.19v3.02c0,.1.04.19.1.26s.16.1.26.1c.09,0,.18-.03.25-.1.07-.07.11-.16.11-.26v-5.68c0-.1-.04-.19-.11-.26-.15-.14-.38-.13-.51,0Z"/><path class="cls-2" d="M24.05,115.72c.48.29,1,.43,1.56.43s1.09-.15,1.56-.43c.47-.29.85-.68,1.13-1.17.28-.49.42-1.03.42-1.61s-.14-1.11-.42-1.6c-.28-.49-.66-.88-1.13-1.16-.47-.29-1-.43-1.56-.43s-1.09.14-1.56.43c-.47.28-.85.68-1.13,1.16-.28.49-.42,1.03-.42,1.6s.14,1.12.42,1.61c.28.49.66.88,1.13,1.17ZM25.61,110.48c.43,0,.83.11,1.19.33.36.22.65.52.87.9.21.38.32.79.32,1.24s-.11.86-.32,1.24c-.22.38-.51.68-.87.91-.72.44-1.65.44-2.37,0-.36-.22-.66-.53-.87-.91-.21-.38-.32-.8-.32-1.24s.11-.86.32-1.24c.21-.38.5-.68.87-.9.36-.22.76-.33,1.19-.33Z"/><path class="cls-2" d="M30.43,116.14h.08c.14.01.25-.05.3-.16l2.02-2.99,2.08,3c.07.1.18.16.3.16.1,0,.18-.04.26-.11s.11-.16.11-.26v-4.68c0-.09-.03-.18-.1-.25-.14-.15-.38-.15-.53,0-.07.07-.11.16-.11.26v3.51l-1.72-2.48c-.15-.21-.5-.19-.6.01l-1.65,2.44v-4.47c0-.09-.03-.18-.1-.25-.14-.15-.39-.15-.53,0-.07.07-.1.16-.1.25v5.67c0,.08.02.15.07.22.05.07.11.12.21.14Z"/><path class="cls-2" d="M38.24,115.82c.38.22.8.33,1.26.33s.88-.11,1.26-.33c.38-.22.68-.53.89-.92.21-.39.32-.83.32-1.3v-2.5c0-.1-.04-.19-.1-.26-.14-.14-.38-.14-.52,0-.07.07-.11.16-.11.26v2.5c0,.34-.08.66-.23.93-.15.28-.36.49-.62.65-.53.31-1.25.31-1.77,0-.26-.16-.47-.37-.62-.65-.15-.28-.23-.59-.23-.93v-3.48c0-.1-.04-.19-.1-.26-.14-.14-.38-.14-.52,0-.07.07-.1.16-.1.26v3.48c0,.47.11.91.32,1.3.21.39.51.7.89.92Z"/><path class="cls-2" d="M43.97,116.05c.07-.07.1-.16.1-.26v-2.73h3.27c.1,0,.19-.04.26-.1.05-.05.09-.12.1-.19v3.02c0,.1.04.19.1.26s.16.1.26.1c.09,0,.18-.03.25-.1.07-.07.11-.16.11-.26v-5.68c0-.1-.04-.19-.11-.26-.15-.14-.38-.13-.51,0-.07.07-.1.16-.1.26v2.52c-.01-.07-.04-.13-.1-.19-.07-.07-.16-.11-.26-.11h-3.27v-2.22c0-.1-.04-.19-.1-.26-.14-.14-.38-.13-.51,0-.07.07-.11.16-.11.26v5.68c0,.1.04.19.1.26.13.13.37.14.51,0Z"/><path class="cls-2" d="M51.09,115.82c.38.22.8.33,1.26.33s.88-.11,1.26-.33c.38-.22.68-.53.89-.92.21-.39.32-.83.32-1.3v-2.5c0-.1-.04-.19-.1-.26-.14-.14-.38-.14-.52,0-.07.07-.11.16-.11.26v2.5c0,.34-.08.66-.23.93-.15.28-.36.49-.62.65-.53.31-1.25.31-1.77,0-.26-.16-.47-.37-.62-.65-.15-.28-.23-.59-.23-.93v-3.48c0-.1-.04-.19-.1-.26-.14-.14-.38-.14-.52,0-.07.07-.1.16-.1.26v3.48c0,.47.11.91.32,1.3.21.39.51.7.89.92Z"/><path class="cls-2" d="M56.58,116.15c.1,0,.2-.04.27-.12.07-.07.11-.17.11-.26v-5.64c0-.1-.04-.19-.11-.26-.14-.15-.39-.15-.53,0-.07.07-.11.17-.11.27v5.64c0,.11.04.2.11.27s.16.11.26.11Z"/><path class="cls-2" d="M31.37,124.47c.14-.47.2-.84.2-1.12,0-.5-.1-.96-.29-1.36-.19-.4-.46-.75-.81-1.02-.32-.26-.71-.45-1.15-.58-.43-.12-.89-.18-1.37-.18-.3,0-.53.01-.69.03-.13.02-.21.03-.23.03-.11.01-.19.06-.25.15-.05.08-.07.17-.06.26v4.61c0,.1.04.19.1.26.14.14.38.14.52,0,.07-.07.1-.16.1-.26v-4.32c.14-.01.29-.02.46-.02.38,0,.76.05,1.13.13.37.09.69.24.97.47.26.2.46.46.6.77.14.31.22.66.22,1.05,0,.23-.06.53-.16.9-.1.35-.37.71-.78,1.07-.41.35-1.04.54-1.89.57-.1.01-.18.05-.25.12-.07.07-.1.16-.1.28,0,.09.05.17.11.23.07.07.16.1.25.1h.01c1.03-.03,1.82-.28,2.35-.75.52-.46.86-.94,1-1.42Z"/><path class="cls-2" d="M43.95,120.34c-.07.07-.1.16-.1.25v4.55l-3.48-4.75c-.13-.18-.39-.21-.56-.05-.07.07-.11.16-.11.26v5.67c0,.1.04.19.11.26.14.14.39.14.53,0,.07-.07.1-.16.1-.26v-4.54l3.48,4.77c.1.12.21.15.29.15.04,0,.08,0,.12-.03.07-.02.13-.07.17-.12.05-.06.07-.14.07-.22v-5.67c0-.09-.03-.18-.1-.25-.14-.15-.39-.15-.53,0Z"/><path class="cls-2" d="M51.19,125.44c0-.1-.04-.19-.12-.27-.15-.13-.37-.12-.51.02-.21.23-.45.4-.72.52-.62.27-1.37.24-1.97-.16-.34-.22-.62-.53-.82-.91-.2-.38-.3-.79-.3-1.22s.1-.84.3-1.22c.2-.38.48-.69.82-.91.34-.22.71-.34,1.11-.34.27,0,.52.06.75.16.24.11.47.28.72.53.18.14.37.12.5-.01.07-.07.11-.16.11-.26,0-.09-.03-.18-.1-.25-.29-.3-.6-.52-.93-.67-.33-.15-.68-.22-1.06-.22-.54,0-1.04.15-1.5.45-.45.29-.82.69-1.08,1.18-.27.49-.4,1.02-.4,1.58s.13,1.09.4,1.58c.27.49.63.88,1.08,1.18.46.3.96.45,1.49.45.39,0,.78-.08,1.14-.25.36-.16.69-.39.98-.68.07-.07.1-.15.1-.26Z"/><path class="cls-2" d="M56.59,125.75h-3.24v-4.67h3.24c.1,0,.19-.04.26-.1.07-.07.11-.16.11-.26s-.04-.19-.11-.26-.16-.1-.26-.1h-3.61c-.1,0-.19.04-.26.1-.07.07-.11.16-.11.26v5.4c0,.1.04.19.1.26.07.07.16.1.26.1h3.61c.1,0,.19-.04.26-.1s.11-.16.11-.26-.03-.19-.1-.26c-.07-.07-.16-.11-.26-.11Z"/><path class="cls-2" d="M53.81,122.98c-.1,0-.19.03-.26.1-.07.07-.11.16-.11.26s.04.19.11.26c.07.07.16.11.26.11h2.37c.1,0,.2-.04.26-.11.07-.07.1-.16.1-.26s-.04-.19-.1-.26-.16-.1-.26-.1h-2.37Z"/><path class="cls-2" d="M26.66,133.79c-.28-.14-.59-.21-.93-.21h-.91c-.33,0-.6-.09-.82-.28-.21-.18-.31-.41-.31-.68,0-.3.1-.54.32-.74.21-.2.48-.3.81-.3h2.02c.1,0,.19-.04.26-.1s.1-.16.1-.26-.04-.19-.1-.26-.16-.1-.26-.1h-2.02c-.35,0-.66.08-.94.23-.28.15-.51.37-.67.64-.16.27-.25.57-.25.91s.08.62.25.87c.16.26.39.46.67.61.28.15.59.22.94.22h.91c.32,0,.58.09.79.27.2.18.3.39.3.65,0,.29-.1.53-.31.72-.21.19-.47.29-.79.29h-2.23c-.1,0-.19.04-.26.1s-.1.16-.1.26.04.19.1.26.16.1.26.1h2.23c.34,0,.65-.08.93-.22.28-.15.5-.36.66-.62.16-.26.24-.56.24-.89s-.08-.59-.24-.85c-.16-.25-.38-.45-.66-.6Z"/><path class="cls-2" d="M34.14,130.84h-4.89c-.1,0-.19.04-.26.11-.07.07-.1.16-.1.26,0,.09.03.18.1.25.07.07.16.11.26.11h2.08v5.15c0,.1.03.19.1.26.07.07.16.11.26.11s.2-.04.26-.11c.07-.07.1-.16.1-.26v-5.15h2.08c.1,0,.19-.04.26-.11s.11-.16.11-.26c0-.1-.04-.19-.11-.26-.07-.07-.16-.11-.26-.11Z"/><path class="cls-2" d="M40.27,130.8c-.07.07-.11.16-.11.26v3.48c0,.34-.08.66-.23.93-.15.28-.36.49-.62.65-.53.31-1.25.31-1.77,0-.26-.16-.47-.37-.62-.65-.15-.28-.23-.59-.23-.93v-3.48c0-.1-.04-.19-.1-.26-.14-.14-.38-.14-.52,0-.07.07-.1.16-.1.26v3.48c0,.47.11.91.32,1.3.21.39.51.7.89.92.38.22.8.33,1.26.33s.88-.11,1.26-.33c.38-.22.68-.53.89-.92.21-.39.32-.83.32-1.3v-3.48c0-.1-.04-.19-.1-.26-.14-.14-.38-.14-.52,0Z"/><path class="cls-2" d="M48.67,130.81c-.07.07-.11.17-.11.27v5.64c0,.11.04.2.11.27s.16.11.26.11.2-.04.27-.12c.07-.07.11-.17.11-.26v-5.64c0-.1-.04-.19-.11-.26-.14-.15-.39-.15-.53,0Z"/><path class="cls-2" d="M55.4,131.13c-.47-.29-1-.43-1.56-.43s-1.09.14-1.56.43c-.47.28-.85.68-1.13,1.16-.28.49-.42,1.03-.42,1.6s.14,1.12.42,1.61c.28.49.66.88,1.13,1.17.48.29,1,.43,1.56.43s1.09-.15,1.56-.43c.47-.29.85-.68,1.13-1.17.28-.49.42-1.03.42-1.61s-.14-1.11-.42-1.6c-.28-.49-.66-.88-1.13-1.16ZM53.84,131.43c.43,0,.83.11,1.19.33.36.22.65.52.87.9.21.38.32.79.32,1.24s-.11.86-.32,1.24c-.22.38-.51.68-.87.91-.72.44-1.65.44-2.37,0-.36-.22-.66-.53-.87-.91-.21-.38-.32-.8-.32-1.24s.11-.86.32-1.24c.21-.38.5-.68.87-.9.36-.22.76-.33,1.19-.33Z"/><path class="cls-2" d="M18.7,109.98c-.03-.07-.08-.13-.14-.17-.06-.04-.13-.06-.2-.06-.15,0-.27.08-.34.24l-2.21,5.67s-.02.07-.02.12c0,.07.02.14.06.2.04.07.11.12.16.14.12.06.24.04.35-.03h0c.06-.04.11-.1.14-.17l1.88-4.81,1.66,3.99c.07.15.19.23.33.23.1,0,.2-.04.27-.12.07-.07.11-.16.11-.26,0-.03,0-.07-.03-.13l-2.01-4.84Z"/><circle class="cls-2" cx="20.78" cy="115.79" r=".37"/><circle class="cls-2" cx="35.22" cy="110.11" r=".37"/><circle class="cls-2" cx="41.6" cy="110.11" r=".37"/><circle class="cls-2" cx="54.43" cy="110.1" r=".37"/><path class="cls-2" d="M35.82,120.45c-.03-.07-.08-.13-.14-.17-.06-.04-.13-.06-.2-.06-.15,0-.27.08-.34.24l-2.21,5.67s-.02.07-.02.12c0,.07.02.14.06.2.04.07.11.12.16.14.12.06.24.04.35-.03h0c.06-.04.11-.1.14-.17l1.88-4.81,1.66,3.99c.07.15.19.23.33.23.1,0,.2-.04.27-.12.07-.07.11-.16.11-.26,0-.03,0-.07-.03-.13l-2.01-4.84Z"/><circle class="cls-2" cx="37.9" cy="126.27" r=".37"/><circle class="cls-2" cx="27.08" cy="126.27" r=".37"/><path class="cls-2" d="M47.05,134.8c.14-.47.2-.84.2-1.12,0-.5-.1-.96-.29-1.36-.19-.4-.46-.75-.81-1.02-.32-.26-.71-.45-1.15-.58-.43-.12-.89-.18-1.37-.18-.3,0-.53.01-.69.03-.13.02-.21.03-.23.03-.11.01-.19.06-.25.15-.05.08-.07.17-.06.26v4.61c0,.1.04.19.1.26.14.14.38.14.52,0,.07-.07.1-.16.1-.26v-4.32c.14-.01.29-.02.46-.02.38,0,.76.05,1.13.13.37.09.69.24.97.47.26.2.46.46.6.77.14.31.22.66.22,1.05,0,.23-.06.53-.16.9-.1.35-.37.71-.78,1.07-.41.35-1.04.54-1.89.57-.1.01-.18.05-.25.12-.07.07-.1.16-.1.28,0,.09.05.17.11.23.07.07.16.1.25.1h.01c1.03-.03,1.82-.28,2.35-.75.52-.46.86-.94,1-1.42Z"/><circle class="cls-2" cx="42.76" cy="136.6" r=".37"/></g></g></g></svg>