<?xml version="1.0" encoding="UTF-8"?><svg id="_图层_2" xmlns="http://www.w3.org/2000/svg" viewBox="0 0 315.96 118.38"><defs><style>.cls-1{fill:#f5f5f5;}</style></defs><g id="_图层_1-2"><path class="cls-1" d="M91.39,40.08l-7.52.65c-.46.04-.8.43-.78.89l.31,6.89-20.41,1.89v-7.44c0-.27-.23-.47-.5-.45l-7.25.66c-.23.02-.41.22-.41.46l.16,7.47c-6.77.52-12.92.93-18.46,1.2l-5.74-5.85-1.33.11c-.34.92-.73,2.3-1.18,4.16-.44,1.85-.8,3.63-1.08,5.33-.27,1.7-.96,5.04-2.05,10.02-1.09,4.99-1.95,8.38-2.56,10.17-.61,1.8-.92,2.87-.92,3.21s.07.75.2,1.21c1.98.72,3.9.24,5.74-1.42.89-.97,1.47-1.91,1.74-2.82.27-.91.68-1.85,1.23-2.82.54-.97.92-1.88,1.13-2.71.21-.84.41-1.78.62-2.82l20.41-1.79,1.92-.26-.05,14.12c.02.96,0,2.28-.08,3.98-.17,3.88-.25,10.33-.25,19.36,2.6.32,4.95-.61,7.07-2.78.34-1.05.79-1.97,1.33-2.73.54-.77.65-11.63.31-32.59l.2-2.58v-9.74c10.6-.59,17.6-1.16,20.19-1.53-.02.92-.29,6.06,3.65,3.9,3.93-2.15,4.84-3.49,4.77-6.31.08-3.86.25-6.18.51-8.07.07-.54-.38-1.01-.92-.96ZM54.53,56.93c-.17,1.01-.25,2.94-.25,5.82-.14.22-.34.37-.62.46-.27.09-2.05.28-5.33.57-3.28.29-8.17.65-14.67,1.08,0-.89.12-1.62.36-2.19.24-.57.41-1.28.51-2.15.1-.86.29-1.65.56-2.35.27-.71.48-1.51.61-2.42.41-.24.79-.46,1.13-.66.34-.2,1.85-.33,4.51-.39,2.67-.06,6.91-.35,12.72-.86.14.54.29.93.46,1.19s.17.89,0,1.9Z"/><path class="cls-1" d="M91.77,37.76l-1.41.12-10.05.82-24.74,2.33-8.2.41c-2.19.19-4.96.43-8.31.73-3.35.29-8.38.73-15.08,1.32l-4.4-5.1.31-.44,4.21,2.13c32.54-2.51,54.23-4.25,56.01-4.74l4.72-5.33,6.46,3.23c2.1,1.68,2.24,4.39.48,4.54Z"/><path class="cls-1" d="M48.58,82.28l-.84.98c-12.72,12.19-27.31,20.23-43.79,24.14v-1.03c12.31-4.91,23.11-12.11,32.41-21.6,2.87-3.26,5.04-5.6,6.51-7.03,1.47-1.42,2.98-3.06,4.52-4.91,1.54-1.84,2.53-3.14,2.97-3.9.29-.49.54-.42.54-.42l.36,5.78c.18,2.91-.78,5.78-2.68,8Z"/><path class="cls-1" d="M90.18,13.99c-.79-.72-2.24-1.84-4.36-3.37-.34.38-.72.63-1.13.77-.41.14-1.25,1-2.51,2.58-1.27,1.58-2.97,2.33-5.13,2.24-2.15-.08-4.94.06-8.36.43l4.61-5.43-8.61-4.17-.2-.29c-2.53,7.74-6.5,14.55-11.9,20.42-2.19,2.04-4.55,3.99-7.07,5.85v1.02l1.33.7c1.64-1.24,4.14-2.91,7.49-5.01,3.35-2.1,6.12-4.07,8.31-5.91l4.72-4.62c2.33,4.38,3.62,8.47,3.9,12.27.96.67,2.26.59,3.9-.24,1.64-1.58,2.84-3.53,3.59-5.85-2.73-2.43-5.13-4.58-7.18-6.45,1.51-.14,3.69-.27,6.57-.42,2.87-.15,7.21-.58,13.02-1.29,0-.68.03-1.22.1-1.6.07-.38-.29-.93-1.08-1.65Z"/><path class="cls-1" d="M54.04,20.83l-21.53,1.68,1.23,1.43,7.69,3.74.61,2.2c-.61,1.9-1.21,3.3-1.79,4.21-.58.9-2.24,1.58-4.97,2.02-1.92-4.48-3.07-7.4-3.49-8.77-.41-1.36-1.13-2.62-2.15-3.76l-6.97,9.74-3.69,3.81-.31.44c-.96,1.17-2.67,2.52-5.13,4.04-2.46,1.51-4.51,2.82-6.15,3.92-1.64,1.1-2.99,1.92-4.05,2.46-1.06.54-2.17.86-3.33.96,8.47-6.96,14.68-13.92,18.61-20.85,3.93-6.94,6.09-11.47,6.46-13.59.37-2.12.73-3.26,1.08-3.43,3.07,1.24,6.26,2.43,9.53,3.57l-2.77,2.81-1.44,2.59,11.59-.81,5.95-5.55,5.64,6.28-.61.88Z"/><path class="cls-1" d="M93.12,66.55c.76-.11,1.34.67.99,1.36-.31.62-.5,1.24-.57,1.88-.17,1.49-.62,3.3-1.33,5.45-.72,2.15-1.23,4.01-1.54,5.57-.31,1.56-1.08,3.6-2.3,6.1-1.64,1.72-2.98,2.99-4,3.84-1.03.84-2.43,1.82-4.2,2.93-1.78,1.11-3.13,1.74-4.05,1.89-.92.15-1.52.2-1.79.16-.27-.05-.58-.23-.93-.54-.54-1.94-1.27-4.02-2.15-6.27l-4.92-3.98c4.72-.07,9.54-.84,14.46-2.29.48-.59.94-1.12,1.38-1.6.45-.48.96-2.2,1.54-5.16.58-2.96.84-4.95.77-5.96-.05-.68-.08-1.45-.09-2.29l.23.2,8.52-1.28Z"/><path class="cls-1" d="M206.55,13.36c-3.48-1.54-6-2.66-7.54-3.34-1.54-.69-2.58-1.04-3.13-1.06-.55-.02-1.27-.16-2.15-.43l-.31-.28c-.34,1.13-.6,2.03-.77,2.73-.17.7-.25,2.88-.25,6.53s-.23,6.77-.67,9.34c-.45,2.57-.75,5.56-.93,8.95-.17,3.4-.51,6.17-1.02,8.29-.52,2.13-.89,4.38-1.13,6.76-.24,2.38-1.08,5.48-2.51,9.3-1.44,3.82-3.28,7.6-5.54,11.35-2.26,3.75-4.09,6.46-5.49,8.12-1.4,1.66-3.37,4.14-5.9,7.44-5.47,5.6-11.07,10.74-16.82,15.42l.31,1c.68-.27,1.33-.5,1.95-.68.61-.19,2.26-1.21,4.92-3.05,2.67-1.84,6.15-4.52,10.46-8.04,4.31-3.52,6.97-5.98,8-7.37,3.14-3.9,5.5-6.67,7.07-8.31,1.57-1.64,3.26-4.01,5.08-7.11,1.81-3.1,3.35-6.14,4.61-9.12,1.27-2.98,2.39-6.05,3.39-9.22.99-3.16,1.85-6.74,2.56-10.73.72-4,1.35-7.28,1.9-9.86l1.08-9.38c-.04-.58.25-1.78.87-3.61l2.15-2.55-.21-1.11Z"/><path class="cls-1" d="M247.78,93.02c-2.53.77-4.39,1.29-5.59,1.57-1.2.27-2.29.73-3.28,1.36-.99.63-1.9,1.43-2.72,2.39-.82.96-2.22,2.42-4.2,4.37l-1.74-.36c-2.46-2.66-4.29-4.55-5.49-5.67-1.2-1.13-2.84-3.19-4.92-6.18-2.08-3-4.27-6.86-6.56-11.58-2.29-4.72-3.56-7.87-3.8-9.46-.24-1.58-.63-2.87-1.18-3.84-.55-.98-.9-2.28-1.08-3.91-.17-1.63-.56-3.3-1.18-5.02-.61-1.72-1.06-3.65-1.33-5.78-.22-1.71-.61-4.88-1.18-9.51-.15-1.2-.1-2.42.13-3.6l.99-4.94c.05-.27.45-.28.5,0,.19,1,.41,2.26.64,3.76.45,2.9,1.28,6.25,2.51,10.04,1.23,3.79,3.01,7.99,5.33,12.61,2.32,4.61,4.32,7.84,6,9.68,1.67,1.84,3.81,4.59,6.41,8.26,6.29,6.08,13.43,11.1,21.43,15.05l.31.79Z"/><path class="cls-1" d="M241.35,26.67v1.68c0,.26-.22.48-.48.48h-.65l-29.72,2.28c-1.56-1.26-3.28-2.83-3.89-3.56-.09-.11.01-.27.15-.23l2.8.85,31.19-2.06c.32-.02.6.24.6.56Z"/><path class="cls-1" d="M266.34,7.15l-.82.79-13.13,2.58-.41,15.01v2.15c.14,2.18.17,11.1.1,26.76-.07,15.66-.36,32.75-.87,34.2,0,0,0,0,0,0-.26-.07-8.73-2.35-8.58-4.91.18-3.05.4-15.69.65-20.82.32-6.76.46-11.32.41-13.7v-.12l-.2-20.15v-2.87c.34-9.12.43-13.76.26-13.92-.17-.16-.33-.4-.46-.73-5.26.46-9.04.88-11.33,1.25-2.29.37-3.83.59-4.61.66-.79.07-1.25-.4-1.39-1.42,3.01-.74,7.32-1.9,12.92-3.49,5.6-1.58,9.35-2.85,11.23-3.8,1.88-.95,3.33-1.69,4.36-2.23,1.03-.53,2.15-1.27,3.39-2.19.34-.03.6-.09.77-.17.17-.08.39-.02.67.2.27.22.75.43,1.43.64,2.19,1.86,4.07,3.95,5.64,6.28Z"/><path class="cls-1" d="M267.16,26.56l-11.29.83c-.92.07-1.51-.97-.98-1.72.56-.79,1.13-1.65,1.55-2.17.92-1.17,1.69-1.99,2.3-2.46.62-.47,1.37-1.08,2.26-1.84l1.95,1.57c2.12,1.73,3.52,3.66,4.2,5.78Z"/><path class="cls-1" d="M255.46,33.51c1.23.92,2.87,2.31,4.92,4.18,2.05,1.87,3.62,3.53,4.72,4.97,1.09,1.44,1.69,2.76,1.79,3.95.1,1.19-.33,2.71-1.28,4.57-.96,1.86-1.98,3.15-3.08,3.86-1.09.71-2.26.71-3.49,0-.34-2.29-.72-4.86-1.13-7.7-.41-2.84-.96-5.37-1.64-7.6-.68-2.23-1.13-4.29-1.33-6.19l.51-.04Z"/><path class="cls-1" d="M270.58,48.17c.34-.03.6-.1.77-.22.17-.12.92.11,2.26.67,1.33.57,2.85,1.49,4.56,2.78l2.56,1.83c-.21.98-1.61,1.95-4.2,2.93-1.92,5.57-3.98,10.24-6.2,14.03-2.22,3.78-3.93,6.5-5.13,8.14-1.2,1.64-3.61,4.67-7.23,9.09l-1.74-.57c0-.55.62-1.9,1.85-4.06,1.23-2.16,2.97-5.54,5.23-10.15,2.26-4.61,4.68-12.77,7.28-24.48Z"/><path class="cls-1" d="M276.99,11.68c3.21,1.02,6.73,2.32,10.56,3.9-.14.9-.75,1.55-1.85,1.96-1.09.4-2.05,1.55-2.87,3.43-.82,1.88-1.61,3.51-2.36,4.87l.51.47,22.66-1.68c1.09-2.28,2.53-4.63,4.31-7.04l6.15,5.31,1.85,2.71-1.33,2.17c-5.33,4.02-10.56,6.6-15.69,7.73,1.23-2.36,2.19-4.02,2.87-4.97.68-.95.99-1.56.92-1.82-.07-.27-.1-.64-.1-1.12l-24.82,2.17c-.55.53-1.18,1.38-1.9,2.58-.72,1.19-1.74,2.72-3.08,4.58-1.33,1.86-2.65,3.46-3.95,4.81l-1.95-1.06c2.6-5.56,4.29-9.36,5.08-11.42.78-2.05,1.49-4.28,2.1-6.7s1.11-4.69,1.49-6.85c.38-2.15.62-3.3.72-3.45.1-.15.22-.39.36-.75l.31.18Z"/><path class="cls-1" d="M284.68,34.02c.41.1,4,1.6,10.77,4.49.07.68-.6,1.88-2,3.61-1.4,1.73-1.61,9.32-.62,22.77.99,13.45.85,21.94-.41,25.47-1.27,3.53-3.23,6.81-5.9,9.85-1.85,1.6-3.23,2.61-4.15,3.03-.92.42-2.2.81-3.85,1.16-.48-3.24-1.78-6.03-3.9-8.38l-6.15-3.67c3.08-.41,5.35-.64,6.82-.7,1.47-.06,2.84-.28,4.1-.67,1.26-.38,2.07-.71,2.41-.98.34-.27.85-.71,1.54-1.31,1.03-1.46,1.5-7.62,1.44-18.48-.07-10.86-.1-22.93-.1-36.19Z"/><path class="cls-1" d="M298.01,50.59c6.15,4.25,10.24,7.87,12.26,10.88,2.02,3,3.16,5.38,3.44,7.13.27,1.75.24,3.21-.1,4.37-.34,1.16-.8,2.05-1.38,2.68-.58.63-1.49,1.58-2.72,2.85l-2.87,1.28-1.03-.42c-.34-.86-.58-1.55-.72-2.09-.14-.53-.43-2.41-.87-5.62-.45-3.21-1.27-6.45-2.46-9.73-1.2-3.28-2.14-5.42-2.82-6.42-.68-1-1.44-2.15-2.26-3.44l1.54-1.47Z"/><path class="cls-1" d="M164.73,44.32l-9.33,10.74c-.13.01-57.66,4.83-57.79,4.84-2.59.16-5.19.54-13.81,1.15-4.89.35-10.38-.8-12.54-1.24-.26-.05-.42.28-.22.46,2.46,2.16,3.7,3.11,5.75,4.94l8.4-.63,10.9-1.2.82-.12,83.74-7.08.82-.89c-2.6-3.87-12.7-8.57-16.74-10.95Z"/><path class="cls-1" d="M243.67,49.08v.12l-.1-1.6c.05.3.08.79.1,1.48Z"/><path class="cls-1" d="M233.34,33.6c.05.34.09.79.13,1.19l.11,1.25c.06.84.11,1.69.15,2.54.08,1.7.12,3.4.11,5.11-.02,3.41-.19,6.84-.61,10.23-.21,1.7-.47,3.39-.82,5.07-.34,1.68-.76,3.35-1.28,4.98-1.03,3.28-2.48,6.45-4.59,9.28,2.61-2.37,4.74-5.32,6.45-8.48.87-1.58,1.63-3.21,2.32-4.88.7-1.66,1.32-3.36,1.87-5.08,1.12-3.44,1.99-6.95,2.7-10.5.35-1.78.66-3.56.92-5.36.13-.9.25-1.8.36-2.71l.15-1.37c.05-.47.09-.9.12-1.44l-8.08.18Z"/><path class="cls-1" d="M251.21,88.64c-.26-.07-8.73-2.35-8.58-4.91l8.58,4.91Z"/><polyline class="cls-1" points="83.05 40.8 92.49 39.99 92.49 39.99"/><path class="cls-1" d="M23.76,111.39c-.02.96-.02,1.94-.02,2.94v.56c0,.97,0,1.95.02,2.93l1.06.1v.32h-2.9v-.32l1.07-.1c.01-.96.01-1.95.01-2.93v-.56c0-.99,0-1.97-.01-2.94l-1.07-.1v-.31h2.9v.31l-1.06.1Z"/><path class="cls-1" d="M41.54,117.95v.29h-2.37v-.29l.87-.11c0-.55.02-1.33.02-1.87v-1.04c0-1.04-.33-1.39-.97-1.39-.48,0-1.04.2-1.73.87v1.56c0,.52,0,1.32.02,1.87l.8.11v.29h-2.38v-.29l.88-.11c.01-.55.02-1.35.02-1.87v-.54c0-.66,0-1.15-.03-1.63l-.92-.06v-.29l1.39-.44.13.1.07.94c.63-.69,1.37-1.06,2.03-1.06.88,0,1.35.54,1.35,1.92v1.06c0,.54.01,1.32.02,1.87l.8.11Z"/><path class="cls-1" d="M68.09,111.36c-.01.97-.01,1.96-.01,2.97v.56c0,.97,0,1.95.01,2.93l1.18.1v.32h-3.11v-.32l1.16-.1c.03-.96.03-1.95.03-2.93v-.56c0-1,0-1.99-.03-2.97h-1.94l-.25,1.49h-.44l.09-1.87h5.86l.1,1.87h-.44l-.26-1.49h-1.95Z"/><path class="cls-1" d="M87.12,117.95v.29h-2.38v-.29l.88-.11c.01-.55.02-1.33.02-1.87v-1.04c0-1.04-.34-1.39-.98-1.39-.48,0-1.05.19-1.74.89v1.54c0,.52.01,1.32.02,1.87l.79.11v.29h-2.38v-.29l.88-.11c0-.55.02-1.35.02-1.87v-5.07l-.92-.05v-.3l1.44-.34.16.08-.03,1.54v2.23c.62-.69,1.37-1.07,2.05-1.07.88,0,1.35.53,1.35,1.93v1.05c0,.54,0,1.32.02,1.87l.8.11Z"/><path class="cls-1" d="M98.71,115.62c.02,1.55.83,2.26,1.88,2.26.71,0,1.19-.28,1.59-.74l.19.14c-.4.68-1.1,1.1-1.96,1.1-1.36,0-2.41-.93-2.41-2.68,0-1.65,1.12-2.71,2.41-2.71,1.18,0,1.98.83,1.98,2.03,0,.25-.02.45-.07.6h-3.61ZM101.26,115.29c.37,0,.47-.2.47-.53,0-.74-.53-1.42-1.36-1.42s-1.55.7-1.65,1.94h2.54Z"/><path class="cls-1" d="M127.86,111.36c-.02.96-.02,1.95-.02,3.01h1.87l.13-1.06h.36v2.53h-.36l-.14-1.11h-1.86c0,1.13,0,2.12.02,3.09l1.11.1v.32h-2.95v-.32l1.07-.1c0-.96,0-1.95,0-2.93v-.56c0-.99,0-1.97,0-2.94l-1.07-.1v-.31h5.29l.07,1.81h-.44l-.24-1.43h-2.84Z"/><path class="cls-1" d="M144.49,117.95v.29h-2.38v-.29l.89-.11c.01-.55.02-1.35.02-1.87v-.55c0-.63,0-1.09-.03-1.62l-.93-.07v-.29l1.5-.43.13.1-.02,1.37v1.49c0,.52.01,1.32.02,1.87l.8.11ZM142.74,111.02c0-.34.25-.55.56-.55s.57.21.57.55c0,.32-.26.54-.57.54s-.56-.22-.56-.54Z"/><path class="cls-1" d="M156.91,114.43c.34-.88,1-1.44,1.66-1.44.34,0,.64.14.75.35,0,.38-.15.59-.51.59-.24,0-.41-.11-.61-.3l-.13-.1c-.52.27-.88.75-1.16,1.51v.93c0,.52.01,1.31.02,1.87l.94.11v.29h-2.51v-.29l.87-.11c0-.55.02-1.35.02-1.87v-.54c0-.66-.01-1.15-.03-1.63l-.92-.06v-.29l1.39-.44.13.1.09,1.32Z"/><path class="cls-1" d="M172.09,115.4c1.02.38,1.41.83,1.41,1.5,0,.79-.65,1.48-1.99,1.48-.6,0-1.06-.13-1.59-.38l-.03-1.14h.42l.21.96c.27.13.59.2,1,.2.9,0,1.34-.4,1.34-.96,0-.48-.29-.75-1.07-1.03l-.49-.18c-.79-.29-1.31-.7-1.31-1.43,0-.79.64-1.43,1.79-1.43.59,0,1,.15,1.48.44l-.03,1.05h-.4l-.16-.89c-.3-.17-.6-.25-.9-.25-.77,0-1.14.38-1.14.89s.3.75,1.03,1.02l.43.15Z"/><path class="cls-1" d="M187.41,117.93c-.26.29-.65.45-1.13.45-.78,0-1.17-.42-1.15-1.28,0-.23,0-.45,0-.82v-2.74h-1.02v-.34l1.04-.09.21-1.51h.49l-.05,1.53h1.5v.41h-1.51v3.54c0,.63.24.89.67.89.29,0,.49-.09.77-.27l.17.23Z"/><path class="cls-1" d="M212.48,115.28c0,.83,0,1.67.02,2.54l1.11.1v.32h-2.95v-.32l1.07-.1c.01-.96.01-1.95.01-2.93v-.56c0-.99,0-1.97-.01-2.94l-1.07-.1v-.31h2.83c1.73,0,2.6.83,2.6,2.11s-.88,2.19-2.96,2.19h-.65ZM212.5,111.34c-.02.98-.02,1.98-.02,2.99v.59h.68c1.55,0,2.16-.76,2.16-1.83,0-1.13-.59-1.75-1.97-1.75h-.85Z"/><path class="cls-1" d="M227.45,115.62c.02,1.55.83,2.26,1.88,2.26.71,0,1.19-.28,1.59-.74l.19.14c-.4.68-1.1,1.1-1.96,1.1-1.36,0-2.41-.93-2.41-2.68,0-1.65,1.12-2.71,2.41-2.71,1.18,0,1.98.83,1.98,2.03,0,.25-.02.45-.07.6h-3.61ZM230,115.29c.37,0,.47-.2.47-.53,0-.74-.53-1.42-1.36-1.42s-1.55.7-1.65,1.94h2.54Z"/><path class="cls-1" d="M243.65,114.43c.34-.88,1-1.44,1.66-1.44.34,0,.64.14.75.35,0,.38-.15.59-.51.59-.24,0-.41-.11-.61-.3l-.13-.1c-.52.27-.88.75-1.16,1.51v.93c0,.52,0,1.31.02,1.87l.94.11v.29h-2.51v-.29l.87-.11c.01-.55.02-1.35.02-1.87v-.54c0-.66,0-1.15-.03-1.63l-.92-.06v-.29l1.39-.44.13.1.09,1.32Z"/><path class="cls-1" d="M258.82,115.4c1.02.38,1.41.83,1.41,1.5,0,.79-.65,1.48-1.99,1.48-.6,0-1.06-.13-1.59-.38l-.03-1.14h.42l.21.96c.27.13.59.2,1,.2.9,0,1.34-.4,1.34-.96,0-.48-.29-.75-1.07-1.03l-.49-.18c-.79-.29-1.31-.7-1.31-1.43,0-.79.64-1.43,1.79-1.43.59,0,1,.15,1.48.44l-.03,1.05h-.4l-.16-.89c-.3-.17-.6-.25-.9-.25-.77,0-1.14.38-1.14.89s.3.75,1.03,1.02l.43.15Z"/><path class="cls-1" d="M271.25,115.7c0-1.81,1.21-2.71,2.42-2.71s2.43.9,2.43,2.71-1.22,2.68-2.43,2.68-2.42-.86-2.42-2.68ZM275.36,115.7c0-1.49-.65-2.36-1.69-2.36s-1.68.87-1.68,2.36.63,2.32,1.68,2.32,1.69-.82,1.69-2.32Z"/><path class="cls-1" d="M292.78,117.95v.29h-2.37v-.29l.87-.11c0-.55.02-1.33.02-1.87v-1.04c0-1.04-.33-1.39-.97-1.39-.48,0-1.04.2-1.73.87v1.56c0,.52,0,1.32.02,1.87l.8.11v.29h-2.38v-.29l.88-.11c.01-.55.02-1.35.02-1.87v-.54c0-.66,0-1.15-.03-1.63l-.92-.06v-.29l1.39-.44.13.1.07.94c.63-.69,1.37-1.06,2.03-1.06.88,0,1.35.54,1.35,1.92v1.06c0,.54,0,1.32.02,1.87l.8.11Z"/></g></svg>