<?xml version="1.0" encoding="UTF-8"?><svg id="_图层_2" xmlns="http://www.w3.org/2000/svg" viewBox="0 0 172.13 91.41"><defs><style>.cls-1{fill:#f5f5f5;}</style></defs><g id="_图层_1-2"><path class="cls-1" d="M146.92,38.3c1.42,1.69,2.91,3.21,4.39,4.5,3.67,3.22,7.29,5.1,9.84,5.1.91,0,1.68-.24,2.27-.74,2.93-2.48.31-10.5-5.9-17.95-4.98-5.98-10.75-9.78-14.37-9.78-.92,0-1.7.24-2.3.76-2.27,1.97-1.13,7.32,2.42,13.09,1.02,1.66,2.25,3.36,3.64,5.02ZM142.99,23.84c-.05-.52-.03-.87.01-1.08.01,0,.02,0,.04,0,1.83,0,6.7,2.35,11.94,8.63,2.47,2.96,4.42,6.13,5.51,8.94.47,1.23.77,2.36.85,3.27.05.51.02.85-.02,1.06-.01,0-.02,0-.04,0-1.82,0-6.63-2.31-11.84-8.52-2.48-2.95-4.45-6.14-5.57-8.98-.49-1.24-.79-2.39-.89-3.32Z"/><path class="cls-1" d="M87.79,19.45c.32-.34.4-.81.2-1.22-.19-.41-.61-.66-1.09-.66h-7.93c-.47,0-.89.25-1.1.66-.2.4-.13.85.17,1.18.93,1.03,2.8,1.67,4.88,1.67s3.91-.63,4.86-1.63Z"/><path class="cls-1" d="M104.35,19.45c.32-.34.41-.81.21-1.22-.19-.41-.6-.66-1.08-.66h-7.93c-.47,0-.9.25-1.1.66-.2.4-.14.85.16,1.18.92,1.03,2.79,1.67,4.87,1.67s3.92-.63,4.87-1.63Z"/><path class="cls-1" d="M92.89,30.24c.76.56,1.81.64,2.71.4.79-.21,1.52-.67,2.02-1.32.49-.62.76-1.4.77-2.19.02-1.64-1.04-3.03-2.51-3.49-.24-.07-.48.07-.56.31-.09.28-.23.56-.43.81-.96,1.24-2.14,1.76-2.97,1.95-.13.03-.19.47-.2.57-.1,1.08.26,2.28,1.16,2.94Z"/><path class="cls-1" d="M86.64,30.64c.9.24,1.94.16,2.72-.4.91-.66,1.29-1.86,1.21-2.94,0-.1-.06-.54-.19-.57-.83-.2-2-.71-2.94-1.95-.19-.26-.33-.53-.41-.81-.07-.24-.32-.39-.56-.31-1.48.46-2.56,1.85-2.56,3.49,0,.79.26,1.56.73,2.19.5.65,1.22,1.11,2,1.32Z"/><path class="cls-1" d="M91.81,25.08c.51-.16,1.23-.52,1.82-1.3.03-.04.06-.09.08-.13.13-.22.17-.46.07-.59-.13-.18-.4-.37-.77-.52-.46-.19-1.04-.28-1.82-.28s-1.36.09-1.83.28c-.37.15-.65.34-.78.52-.09.13-.06.37.07.59.02.04.05.09.08.13.58.77,1.3,1.13,1.8,1.3.37.12.64.14.64.14s.27-.02.64-.14Z"/><path class="cls-1" d="M62.66,21.36h0c.67,0,1.27-.43,1.49-1.07,1.74-5.07,5.02-7.85,5.08-7.89.33-.28.55-.68.59-1.12,0-.05.61-5.56,4.79-7.88.69.28,2.32,1.24,4.62,4.45.46.65,1.31.85,2.01.5.04-.02,3.96-1.93,10-1.93.03,0,.06,0,.08,0,.03,0,.06,0,.08,0,6.04,0,9.94,1.91,9.97,1.93.7.36,1.55.15,2.02-.5,2.36-3.21,3.99-4.17,4.69-4.45,4.14,2.32,4.65,7.83,4.66,7.88.03.44.24.84.57,1.12.09.07,8.8,7.57,4.91,20.41-.13.41-.08.84.11,1.22.2.37.53.64.94.76.41.12.84.07,1.21-.14.38-.21.65-.55.78-.96,3.99-13.11-3.61-21.61-5.4-23.37-.28-1.88-1.56-7.65-6.86-10.16-.21-.1-.44-.15-.67-.15-.67,0-3.12.36-6.72,4.87-1.81-.69-5.38-1.75-10.19-1.75-.03,0-.06,0-.08,0-.03,0-.06,0-.08,0-4.81,0-8.39,1.06-10.21,1.75-3.53-4.51-5.97-4.87-6.65-4.87-.23,0-.46.05-.67.15-5.35,2.51-6.72,8.28-7.03,10.16-1.01.99-3.88,4.08-5.55,8.92-.36,1.04.42,2.14,1.51,2.14Z"/><path class="cls-1" d="M118,36.1c-.9,0-1.65.74-1.67,1.65-.02.91.7,1.64,1.6,1.64s1.65-.74,1.67-1.64c.02-.91-.7-1.65-1.6-1.65Z"/><path class="cls-1" d="M46.16,50.45c-.03-.05-.05-.1-.08-.16.03.05.06.1.08.16Z"/><path class="cls-1" d="M46.08,50.3c-.23-.36-.7-.54-1.43-.54h-.6c-.07,0-.1-.03-.09-.1l.29-4s0-.05.01-.05c0,0,.01.02.02.05.43,1.53.83,2.67,1.19,3.42.21.45.41.85.59,1.21Z"/><path class="cls-1" d="M56.35,44.48l-.57,7.26c0,.07-.04.1-.11.1h-1.37c-.07,0-.1-.03-.09-.1l.56-7.26c0-.07.04-.1.11-.1h1.38c.07,0,.1.03.09.1Z"/><path class="cls-1" d="M60.81,50.93l-.07.81c0,.07-.04.1-.11.1h-2.2c-.07,0-.1-.03-.09-.1l.06-.81c0-.07.04-.1.11-.1h2.2c.07,0,.1.03.09.1Z"/><path class="cls-1" d="M61.08,47.65l-.07.85c0,.07-.04.1-.11.1h-2.21c-.07,0-.1-.03-.09-.1l.07-.85c0-.07.04-.1.11-.1h2.21c.07,0,.1.03.09.1Z"/><path class="cls-1" d="M61.33,44.48l-.06.74c0,.07-.04.1-.11.1h-2.21c-.07,0-.1-.03-.09-.1l.06-.74c0-.07.04-.1.11-.1h2.21c.07,0,.1.03.09.1Z"/><path class="cls-1" d="M65.6,44.48l-.6,7.26c0,.07-.04.1-.11.1h-1.47c-.07,0-.1-.03-.09-.1l.6-7.26c0-.07.04-.1.11-.1h1.47c.07,0,.1.03.09.1Z"/><path class="cls-1" d="M80.82,43.53l-.11,1.16c0,.07-.04.1-.11.1h-4.8c-.07,0-.1-.03-.09-.1l.12-1.16c0-.07.04-.1.11-.1h4.78c.07,0,.1.03.09.1Z"/><path class="cls-1" d="M84.43,51.21l-.11,1.15c0,.07-.04.1-.11.1h-5.65c-.07,0-.1-.03-.09-.1l.1-1.15c0-.07.04-.1.11-.1h5.66c.07,0,.1.03.09.1Z"/><path class="cls-1" d="M85.68,40.11l-.07.7c0,.07-.04.1-.11.1h-9.34c-.07,0-.1-.03-.09-.1l.06-.7c0-.07.04-.1.11-.1h9.34c.07,0,.1.03.09.1Z"/><path class="cls-1" d="M99.45,51.19c-.11.52-.22.83-.33.95-.12.12-.23.26-.34.44-.11.17-.28.26-.52.26s-.63-.01-1.17-.04l-.63-.04c-.07,0-.07-.01-.02-.04,1.15-.54,2.14-1.06,2.95-1.56.02-.02.04-.02.05-.02.02,0,.02.02,0,.06Z"/><path class="cls-1" d="M45.21,76.5h-1.75c-.1,0-.15.05-.16.14l-.08,1.03c0,.1.04.14.13.14h1.75c.1,0,.15-.05.16-.14l.08-1.03c0-.1-.04-.14-.13-.14Z"/><path class="cls-1" d="M28.97,64.45l-.84.02c.12.03.24.05.37.05.15,0,.3-.02.46-.07Z"/><path class="cls-1" d="M34.03,74.33c-.18.33-.29.74-.33,1.22.32-.39.42-.8.33-1.22Z"/><path class="cls-1" d="M39.1,80.86h-1.75c-.1,0-.15.05-.16.14l-.07,1.06c0,.1.04.14.13.14h1.74c.1,0,.15-.05.16-.14l.08-1.06c0-.1-.04-.14-.13-.14Z"/><path class="cls-1" d="M39.41,76.5h-1.75c-.1,0-.15.05-.16.14l-.07,1.03c0,.1.04.14.14.14h1.75c.1,0,.15-.05.16-.14l.07-1.03c0-.1-.04-.14-.14-.14Z"/><path class="cls-1" d="M44.81,67.73h-5.24c-.1,0-.15.05-.16.14l-.08,1.13c0,.1.04.15.14.15h5.24c.1,0,.15-.05.16-.15l.08-1.13c0-.1-.04-.14-.14-.14Z"/><path class="cls-1" d="M44.89,80.86h-1.74c-.1,0-.15.05-.16.14l-.08,1.06c0,.1.04.14.14.14h1.74c.1,0,.15-.05.16-.14l.08-1.06c0-.1-.04-.14-.14-.14Z"/><path class="cls-1" d="M131.17,73.8h-4.2c-.1,0-.13.05-.1.14.47,1.29,1.11,2.46,1.9,3.51.02.04.05.06.08.06s.06-.02.09-.06c.94-1.11,1.71-2.28,2.3-3.51.05-.1.03-.14-.07-.14Z"/><path class="cls-1" d="M126.84,66.68h-2.2c-.1,0-.15.05-.16.14l-.35,3.13c-.01.1.03.15.13.15h2.19c.1,0,.15-.05.16-.15l.36-3.13c.01-.1-.03-.14-.13-.14Z"/><path class="cls-1" d="M170.63,68.25c-.98-.98-2.31-1.52-3.73-1.52-.07,0-.13,0-.2,0-6.95.25-12.89,2.13-17.64,5.58-2.78,2.02-4.64,4.21-5.99,5.81-1.65,1.95-2.11,2.38-2.76,2.55-.21.05-.43.08-.68.08-.5,0-1.21-.11-2.15-.5-.38-.33-.83-.58-1.33-.76,1.28-1.8,2.21-3.53,2.81-5.23v-.02c.44-1.27.57-2.37.39-3.37-.02-.09-.03-.18-.06-.27.26-.31.5-.65.74-1.04h0s0,0,0,0c.47-.78.91-1.69,1.33-2.79.71-1.83.73-3.41.05-4.72-.02-.03-.03-.06-.05-.09.22-.66.35-1.37.39-2.11,1.17.48,2.29.78,3.37.9.37.04.74.06,1.1.06,2.55,0,4.29-1.02,5.31-1.88.76-.65,1.39-1.43,1.87-2.33.59-1.11.92-2.36.99-3.72.02-.44.02-.9-.01-1.37,1.86.92,3.63,1.48,5.29,1.67.42.05.85.07,1.26.07,2.83,0,4.76-1.13,5.87-2.07.85-.72,1.54-1.59,2.07-2.59.65-1.23,1.03-2.63,1.12-4.16.12-1.88-.2-3.99-.94-6.27-1.3-4.01-3.89-8.48-7.3-12.59-3.42-4.13-7.36-7.52-11.08-9.55-2.13-1.15-4.17-1.85-6.05-2.07-.43-.05-.86-.08-1.28-.08-2.88,0-4.83,1.17-5.96,2.15-.85.74-1.55,1.64-2.07,2.67-.64,1.27-1,2.7-1.06,4.27-.08,1.76.22,3.71.87,5.8-.42-.1-.85-.17-1.26-.22-.38-.04-.75-.07-1.12-.07-2.59,0-4.35,1.06-5.37,1.94-.77.67-1.39,1.47-1.86,2.39-.58,1.13-.89,2.41-.95,3.79-.06,1.47.19,3.08.73,4.79-.05,0-.11,0-.16,0-2.29,0-3.87.95-4.79,1.74-1.54,1.33-2.43,3.27-2.51,5.45-.05,1.31.2,2.72.72,4.2.78,2.21,2.2,4.62,4.03,6.84-.14.02-.27.03-.4.06-.44-.61-1.09-1.23-2.08-1.76l-.86-.48h-.02s-.02-.02-.02-.02c-1.01-.55-2.02-.82-3-.82-.47,0-.93.06-1.37.19-.45.12-.87.31-1.27.55-.7.43-1.3,1.03-1.79,1.78-1.04,1.59-1.02,3-.82,3.9.14.64.41,1.23.8,1.76-1.06.4-1.98,1.17-2.64,2.22-.14-.07-.28-.13-.43-.19.18-.29.38-.62.6-.99,1.24-2.01,1.12-3.62.8-4.62-.3-.95-1.07-2.26-3-3.07h-.01c-.77-.32-1.53-.48-2.27-.48h0c-.38,0-.97.05-1.63.27-.66.22-1.39.62-2.06,1.31-.12-.38-.28-.7-.45-.98.04-.01.08-.03.12-.04.83-.32,1.48-.71,2.01-1.22.06-.06.24-.22.68-.59.22.15.44.29.67.42h0s0,0,0,0c.81.42,1.63.64,2.43.64,1.69,0,3.18-.91,4.09-2.51.88-1.56.75-2.88.48-3.72-.24-.75-.81-1.76-2.13-2.5-.03-.07-.07-.16-.11-.28.65-.77.93-1.54,1.04-2.14.05-.28.07-.56.07-.84.45-.25.8-.54,1.06-.8.82-.83,1.3-1.92,1.44-3.24l.15-1.44c.2-1.88-.48-3.08-1.08-3.76-.6-.68-1.72-1.48-3.6-1.48h-3.1c-.69-1.07-1.89-1.72-3.24-1.72-.79,0-1.6.2-2.56.64h0s0,0,0,0c-.73.34-1.29.68-1.75,1.07h-3.63c-1.32,0-2.29.4-2.96.85-.63-.66-1.73-1.4-3.53-1.4h-8.48c.58-.24,1.11-.57,1.58-.99.8-.71,1.8-2.02,2-4.24.21-2.29-.61-3.72-1.33-4.52-.74-.82-2.13-1.8-4.54-1.8h-26.06c-1.76,0-3.22.5-4.34,1.49-.33.29-.69.69-1.01,1.21-.19-.32-.4-.59-.61-.8-.61-.66-1.37-1.15-2.27-1.45-.69-.23-1.48-.35-2.32-.35h-6.58l.38-5.69c.16-2.45-.71-3.95-1.48-4.78-.75-.81-2.13-1.78-4.43-1.78s-3.61.91-4.37,1.67c-1.06,1.06-1.65,2.52-1.76,4.31l-.38,6.28h-6.99c-1.74,0-3.18.48-4.27,1.43-.81.7-1.79,2-1.91,4.21-.12,2.22.73,3.62,1.47,4.4.62.66,1.39,1.14,2.29,1.44.69.23,1.47.34,2.32.34h6.38l-.39,6.36c-.34.16-.68.33-1.02.52-.8.44-1.59.94-2.37,1.52-1.72-2.77-2.88-4.04-3.28-4.45-.71-.77-1.71-1.24-2.76-1.24-.41,0-.81.07-1.19.21-.82.29-1.49.87-1.9,1.63-.59.98-2.56,4.73-2.88,10.99-1.03.7-1.88,1.52-2.51,2.19-.51.54-.96,1.1-1.3,1.61-.35.52-1.29,1.91-.63,3.6.54,1.39,1.9,2.32,3.38,2.32.26,0,.51-.03.75-.08.13-.02.44-.06.85-.07.56,3.93,1.31,6.05,1.4,6.31,0,.02.01.04.02.06.54,1.39,1.91,2.33,3.4,2.33.4,0,.79-.07,1.16-.2,0,0,0,0,.01,0,.97-.35,1.69-1.08,2.02-2.02.04-.1.07-.2.1-.3.5-1.75,1.07-3.35,1.67-4.77,2.72.34,5.6,1.02,7.29,1.45-1.06.86-1.69,2.13-1.78,3.59-.11,1.83.64,3.03,1.28,3.71.4.42.87.76,1.4,1.02-1.11,1.05-1.64,1.38-1.79,1.46-1.34.73-2.13,2.01-2.18,3.52-.03,1.01.27,2.06.92,3.21v.02s.02.01.02.01c.42.73.82,1.3,1.21,1.74.47.52.94.86,1.39,1.09l-.13,2.01c-.11,1.77.35,3.21,1.37,4.27.66.69,1.85,1.51,3.78,1.51,1.8,0,2.97-.71,3.68-1.38.67.63,1.78,1.29,3.48,1.29,1.1,0,2-.16,2.75-.49.32-.14.62-.32.88-.53h4.39c1.17.91,2.65,1.02,3.71,1.02,1.99,0,3.21-.87,3.89-1.6.76-.82,1.23-1.88,1.4-3.17.47.22,1.01.38,1.59.41.13,1.14.56,2.11,1.29,2.87.65.69,1.83,1.51,3.76,1.51s3.22-.86,3.91-1.59c.87-.92,1.37-2.14,1.5-3.65l.16-1.97c.66-.19,1.27-.55,1.89-1.02.12.08.26.16.4.24-.38.62-.68,1.42-.77,2.45-.19,1.96.55,3.22,1.21,3.93.68.74,1.96,1.62,4.19,1.62,2.88,0,3.88-.2,4.64-.53h.03s.03-.03.03-.03c.8-.38,1.36-.64,1.73-.82.46-.23.88-.54,1.26-.92.88,1.29,2.3,2.04,3.99,2.04.69,0,1.39-.12,2.16-.36,1.79-.58,3.57-1.65,5.46-3.27.76-.65,1.44-1.37,2.05-2.17.1,1.54.5,2.73,1.21,3.67.67.89,1.64,1.53,2.87,1.91.9.28,1.94.41,3.17.41h3.07c3.21,0,5.02-1.39,5.98-2.55,0,0,0,0,0,0,.25.23.55.45.89.65l.02.02h.03c.9.54,1.83.8,2.78.8.61,0,1.52-.12,2.49-.67.06.05.12.1.19.15.79.59,2,1.36,3.46,1.36.73,0,1.42-.19,2.03-.55.68.36,1.46.55,2.3.55.75,0,1.54-.15,2.39-.45h.03s.03-.02.03-.02c.76-.29,1.65-.78,2.71-1.51,3.85,2.7,7.6,4.07,11.19,4.07,1.18,0,2.36-.15,3.49-.45,4.25-1.11,6.64-3.91,8.56-6.16,1.19-1.39,2.31-2.71,3.97-3.91,2.87-2.07,6.67-3.2,11.3-3.37,1.46-.05,2.84-.66,3.88-1.71,1.04-1.05,1.63-2.43,1.65-3.87.02-1.41-.52-2.73-1.5-3.71ZM101.48,64.97c.43-.62.84-1.4,1.2-2.33.48-1.19,1.17-1.78,2.07-1.78.33,0,.68.08,1.05.23,1.41.58,1.65,1.62.73,3.12-.9,1.49-1.53,2.47-1.89,2.94-.69.86-1.37,1.29-2.05,1.29-.36,0-.71-.12-1.07-.36-1.02-.7-1.04-1.73-.06-3.11ZM91.69,41.15l.14-1.44c.02-.25.07-.46.14-.65.26-.69.82-1.03,1.7-1.03h5.35c.07,0,.09-.03.07-.1-.12-.39.31-.81,1.31-1.27.51-.23.91-.34,1.21-.34s.49.11.59.34c.19.45.33.83.4,1.13.04.16.14.24.32.24h5.01c1.12,0,1.62.56,1.51,1.69l-.15,1.44c-.12,1.12-.67,1.68-1.65,1.68s-1.44-.56-1.32-1.68l.04-.4c0-.07-.02-.1-.09-.1h-11.59c-.07,0-.1.03-.11.1l-.04.4c-.11,1.12-.63,1.68-1.58,1.68-.7,0-1.11-.31-1.23-.93-.04-.21-.05-.46-.02-.75ZM92.18,51.64c3.76-1.35,6.1-2.37,7.01-3.05.14-.11.19-.24.16-.4l-.03-.08s-.03-.06-.06-.06c-.01,0-.03,0-.06.02-1,.56-2.99,1.4-5.97,2.52-.39.15-.71.22-.98.22-.5,0-.79-.26-.87-.78-.12-.81.35-1.38,1.42-1.71,2.8-.87,4.63-1.56,5.47-2.07.06-.04.07-.09.04-.14l-.09-.12c-.06-.06-.13-.1-.2-.1-.05,0-.1.01-.15.04-1.56.73-2.93,1.24-4.11,1.53-.29.07-.54.11-.76.11-.44,0-.74-.14-.91-.42-.08-.13-.13-.29-.15-.49-.05-.41.06-.75.32-1,.26-.26.66-.43,1.22-.53.94-.16,2.22-.62,3.84-1.38.05-.03.05-.04-.02-.04h-.98c-1.12,0-1.63-.41-1.55-1.22.08-.81.68-1.22,1.79-1.22h7.7c1.12,0,1.63.41,1.55,1.22-.08.81-.68,1.22-1.8,1.22h-1.97c-.33,0-.63.11-.89.34-.09.07-.31.21-.68.44-.06.04-.06.08-.01.12.53.59.94,1.24,1.26,1.95.01.03.03.05.05.05.02,0,.04,0,.06-.03,1.44-.96,2.26-1.53,2.46-1.71.46-.42.88-.63,1.26-.63.35,0,.66.18.94.55.56.76.34,1.47-.66,2.13l-.39.28c-.14.09-.19.21-.16.36.52,2.27,1.14,3.55,1.85,3.85,1,.44,1.25,1.1.75,1.98-.32.56-.73.85-1.24.85-.29,0-.6-.09-.95-.27-1.21-.65-2.17-2.34-2.88-5.07-.01-.04-.03-.06-.06-.06-.02,0-.03,0-.06.02l-.1.04c-.16.09-.22.23-.2.4.1.97,0,1.95-.29,2.94-.29,1-.5,1.54-.61,1.63-.43.36-.75.63-.94.82-.2.19-.49.36-.89.52-.4.15-.74.23-1.02.24-.28,0-.68,0-1.2,0-.53-.01-.78-.28-.75-.79.02-.51-.12-1.08-.45-1.7-.03-.05-.07-.08-.12-.08-.02,0-.06,0-.09.02-1.57.73-2.67,1.19-3.33,1.38-.31.09-.58.14-.81.14-.6,0-.96-.31-1.06-.93-.16-.86.29-1.48,1.35-1.86ZM90.78,65.2c.26,1.59-.35,2.54-1.83,2.87-.42.09-.79.14-1.1.14-.77,0-1.19-.29-1.25-.88-.09-.82-.4-1.89-.94-3.21-.61-1.46-.28-2.49.97-3.12.4-.2.77-.3,1.11-.3.74,0,1.34.48,1.8,1.44.76,1.61,1.18,2.63,1.23,3.06ZM87.18,37.48c.94,0,1.45.4,1.52,1.19.02.15.01.32,0,.5l-.24,2.58c0,.06-.01.12-.02.18-.15,1-.75,1.5-1.81,1.5h-2.79c-.07,0-.1.03-.11.1l-.11,1.16c0,.07.02.1.09.1h3.72c.7,0,1.16.17,1.39.5.14.2.19.46.16.78-.03.33-.14.59-.32.79-.29.33-.79.5-1.48.5h-3.72c-.07,0-.1.03-.11.1l-.09,1.05c0,.07.02.1.09.1h2.53c1.11,0,1.62.56,1.51,1.67l-.33,3.53c-.11,1.11-.63,1.66-1.58,1.66s-1.44-.14-1.41-.41c0-.07-.02-.1-.09-.1h-5.65c-.07,0-.1.03-.11.1-.02.28-.49.41-1.4.41s-1.34-.55-1.24-1.66l.31-3.53c.1-1.11.71-1.67,1.82-1.67h2.54c.07,0,.1-.03.11-.1l.09-1.05c0-.07-.02-.1-.09-.1h-4.91c-.09,0-.15.05-.17.14-.61,3.49-1.31,5.75-2.1,6.76-.44.56-.89.85-1.35.85-.28,0-.57-.1-.86-.31-.03-.02-.06-.05-.09-.07-.67-.55-.66-1.27.03-2.14.07-.09.14-.23.23-.44.25-.6.57-1.71.97-3.33.35-1.43.62-3.23.81-5.4l.37-4.24c.1-1.13.71-1.69,1.82-1.69h12.07ZM47.35,28.68c.13-1.81,1.15-2.72,3.06-2.72h26.02c1.91,0,2.78.91,2.62,2.72-.16,1.83-1.19,2.74-3.09,2.74h-25.95c-1.9,0-2.79-.91-2.65-2.74ZM44.79,38.34l-.1,1.4c0,.07.03.1.09.1h3.49c.06,0,.11,0,.17,0,1,.04,1.47.51,1.41,1.38-.05.65-.36,1.07-.93,1.26-.24.08-.52.12-.85.12h-2.17c-.07,0-.09.03-.07.1.41,1.44.96,2.84,1.64,4.21.42.81.73,1.41.95,1.8.16.29.26.46.31.51.73.81.69,1.56-.13,2.24-.15.12-.29.23-.41.33-.39.29-.68.43-.88.43-.09,0-.16-.03-.21-.09-.18-.24-.4-.62-.67-1.14-.09-.16-.18-.34-.27-.53.06.16.09.35.07.58-.06.86-.65,1.29-1.76,1.29h-.6c-.07,0-.1.03-.11.1l-.09,1.23c-.08,1.11-.59,1.66-1.53,1.66s-1.37-.55-1.29-1.66l.09-1.23c0-.07-.02-.1-.09-.1h-.48c-1.11,0-1.64-.43-1.58-1.29.06-.85.64-1.27,1.76-1.27h.48c.07,0,.1-.03.11-.1l.27-3.72s0-.05,0-.05-.02.01-.03.05c-.57,1.3-1.09,2.33-1.56,3.07-.47.75-.88,1.38-1.24,1.91-.35.52-.68.93-.99,1.24-.09.09-.2.14-.33.14-.29,0-.67-.25-1.13-.73-.67-.69-.57-1.42.29-2.2.24-.22.81-1.04,1.72-2.45.88-1.34,1.62-2.74,2.23-4.21.03-.07.01-.1-.05-.1h-1.73c-1.12,0-1.64-.46-1.58-1.38.06-.92.66-1.38,1.77-1.38h2.98c.07,0,.1-.03.11-.1l.1-1.4c.08-1.13.59-1.69,1.54-1.69s1.38.56,1.3,1.69ZM32.86,45.8s-.02.01-.04.04c-.12.13-.26.19-.42.19-.24,0-.53-.13-.88-.4-.1-.08-.21-.17-.32-.27-.74-.69-.7-1.45.11-2.28.16-.16.37-.42.62-.79.29-.42.66-.98,1.08-1.67.8-1.3,1.26-2.11,1.39-2.43.32-.83.77-1.25,1.38-1.25.17,0,.36.04.56.1.88.31,1.1.99.66,2.05-.05.13-.29.62-.74,1.44-.21.37-.33.78-.36,1.2l-.82,12.03c-.08,1.11-.57,1.66-1.48,1.66s-1.33-.55-1.26-1.66l.53-7.92s0-.06-.02-.06ZM13.99,31.29c-1.9,0-2.8-.87-2.71-2.61.1-1.74,1.1-2.61,3.01-2.61h9.81c.12,0,.17-.06.18-.17l.57-9.13c.12-1.95,1.09-2.92,2.92-2.92s2.68.98,2.55,2.92l-.59,9.13c0,.12.05.17.16.17h9.98c1.91,0,2.8.87,2.67,2.61-.12,1.74-1.14,2.61-3.04,2.61h-9.95c-.11,0-.17.06-.18.17l-.62,9.54-.17,2.58c-.07,1-.36,1.73-.89,2.2-.48.42-1.14.64-1.99.64-.02,0-.05,0-.07,0-1.75-.02-2.57-.97-2.45-2.84l.21-3.33.55-8.79c0-.11-.05-.17-.16-.17h-9.78ZM15.2,57.91s1.05-4.83,4.17-9.38c-.09.08-6.02,5.35-9.13,16.4h-.02c0,.12-.06.23-.17.27-.04.01-.07.02-.11.02-.13,0-.25-.08-.3-.21,0,0-.99-2.71-1.5-7.98-.97-.43-2.04-.55-2.91-.55-.95,0-1.64.14-1.64.14-.03.01-.06.01-.09.01-.11,0-.22-.07-.26-.18-.12-.31,2.16-3.36,4.63-4.37-.03-7.34,2.54-11.28,2.54-11.29.04-.09.12-.17.22-.21.04-.01.08-.02.12-.02.14,0,.27.08.35.2h.01s1.45,1.37,3.84,5.56c0,0-4.07,4.19-4.74,9.88.13-.65,3.94-7.93,9.77-11.49.84-.52,1.73-.95,2.65-1.28.03-.01.07-.02.1-.02.13,0,.26.08.3.21.06.15-.69,2.17-1.35,4.55-.42,1.54-.81,3.24-.91,4.68,0,0,1.99,2.54,3.64,5.25h0c.27.44.53.89.77,1.33.07.2-.03.42-.22.49-.04.01-.08.02-.12.02-.09,0-.18-.04-.25-.09h0s-.39-.11-1.06-.29c-1.68-.45-5.1-1.29-8.33-1.68ZM49.51,75.61l-.07.95-.43,5.62-.15,1.93c-.12,1.6-.86,2.39-2.21,2.39s-2.01-.29-1.97-.88c0-.09-.04-.14-.13-.14h-7.52c-.1,0-.15.05-.15.14-.04.59-.7.88-1.98.88s-1.89-.8-1.78-2.39l.58-8.51s0-.05,0-.07c-.1.13-.23.26-.38.38-.93.8-1.48,1.2-1.64,1.2-.02,0-.04,0-.04-.02-.07-.12-.42-.55-1.05-1.32-.02-.04-.04-.05-.06-.05-.02,0-.03.03-.03.08l-.56,8.39c-.11,1.59-.85,2.39-2.22,2.39s-2.01-.8-1.9-2.39l.41-6.3c0-.06,0-.09-.04-.09-.02,0-.04.01-.07.03-.72.63-1.25,1.06-1.6,1.28-.05.03-.11.05-.17.05-.34,0-.81-.53-1.42-1.58-.7-1.24-.67-2.07.08-2.49s1.78-1.26,3.08-2.55c1.3-1.29,2.39-2.67,3.27-4.14.05-.08.02-.12-.08-.12h-3.22c-1.64,0-2.42-.63-2.34-1.88.08-1.26.94-1.9,2.58-1.92l1.82-.04c-.56-.16-1.01-.68-1.37-1.57-.03-.07-.05-.13-.08-.2-.51-1.37-.26-2.32.75-2.86.3-.16.58-.24.84-.24.06,0,.11,0,.17.01.61.08,1.14.6,1.58,1.57l.05.12c.67,1.46.43,2.46-.7,3-.14.06-.27.12-.4.15l1.86-.04s.08,0,.13,0c1.08,0,1.98.23,2.7.7.75.5.73,1.46-.05,2.87l-1.87,3.47c-.11.17-.09.33.06.46l1.24,1.04c.56.47.89.92,1,1.36.4-.75,1.17-1.13,2.28-1.13h10.92c1.64,0,2.39.81,2.27,2.42ZM35.53,69.84l.19-2.81c.11-1.62.99-2.44,2.63-2.44h8.3c1.64,0,2.4.81,2.28,2.44l-.21,2.81c-.12,1.62-1,2.43-2.64,2.43h-8.27c-1.64,0-2.4-.81-2.29-2.43ZM50.6,62.03c-.04.51-.22.92-.55,1.21-.43.38-1.11.57-2.04.57h-11.2c-1.64,0-2.42-.59-2.34-1.78.08-1.17.94-1.75,2.59-1.75h11.23c1.39,0,2.17.42,2.32,1.26.03.15.03.32.02.49ZM66.69,69.7c-.11,1.29-.98,1.94-2.62,1.94h-2.05c-.1,0-.15.05-.16.14l-.05.55c-.03.41.1.73.39.98l2.37,2.02c1.23,1.04,1.31,2.04.24,3.02-.82.75-1.39,1.12-1.71,1.12-.1,0-.17-.04-.22-.1-.22-.3-.69-.87-1.42-1.71-.02-.03-.04-.05-.06-.05-.02,0-.03.03-.03.08l-.53,6.47c-.13,1.6-.88,2.39-2.26,2.39s-1.99-.8-1.87-2.39l.52-6.5c0-.05,0-.08-.01-.08s-.02.02-.05.05c-1.44,2.41-2.39,3.84-2.87,4.31-.15.15-.33.22-.53.22-.4,0-.91-.3-1.51-.9-.05-.05-.11-.11-.16-.16-.96-1-.82-2.06.42-3.18.01,0,.02-.02.03-.03,1.17-1.05,2.58-3.08,4.25-6.1.05-.09.02-.14-.08-.14h-1.84c-1.64,0-2.4-.65-2.3-1.94.1-1.29.97-1.94,2.61-1.94h2.69c.1,0,.15-.05.16-.14l.2-2.53c0-.08-.02-.12-.09-.12-.01,0-.03,0-.05,0l-2.28.35c-.32.05-.6.08-.86.08-.98,0-1.55-.38-1.7-1.14-.01-.07-.03-.14-.03-.22-.04-.58.14-1.05.54-1.4.39-.34.99-.57,1.8-.7,3.05-.49,5.51-1.14,7.38-1.96.54-.24,1.02-.35,1.42-.35.77,0,1.3.42,1.59,1.26.44,1.26.45,1.98.01,2.14-.44.16-1.48.46-3.14.89-.22.06-.34.2-.36.41l-.27,3.28c0,.1.04.14.13.14h2.05c1.64,0,2.41.65,2.3,1.94ZM66.15,55.46c-.98,0-1.44-.29-1.39-.89,0-.07-.03-.1-.09-.1h-10.56c-.07,0-.1.03-.11.1-.05.59-.53.89-1.46.89s-1.34-.55-1.26-1.66l.03-.46.42-5.48.28-3.65.06-.81c.06-.8.39-1.31.97-1.54.23-.09.51-.14.83-.14h4.29c.11,0,.17-.05.19-.16l.25-1.14c.02-.07,0-.1-.07-.1h-5.33c-.06,0-.11,0-.17,0-1-.05-1.47-.51-1.4-1.38.03-.36.14-.65.33-.87.29-.33.78-.49,1.45-.49h14.91c1.12,0,1.64.45,1.56,1.36-.08.92-.68,1.38-1.8,1.38h-5.91c-.16,0-.27.08-.34.24l-.43,1.06c-.02.07,0,.1.07.1h5.6c1.12,0,1.63.56,1.53,1.68l-.65,7.72-.23,2.68c-.04.51-.18.91-.42,1.18-.27.32-.67.48-1.19.48ZM67.2,76.73l.98-11.53c.14-1.63.9-2.45,2.29-2.45s1.98.81,1.84,2.45l-1,11.53c-.14,1.61-.89,2.41-2.25,2.41s-2-.8-1.86-2.41ZM79.48,62.18l-.82,9.02s0,.05,0,.08c0,.04,0,.08-.01.13,0,0,0,0,0,.01l-.93,10.23c-.11,1.16-.32,2.05-.64,2.67-.32.62-.65,1.01-.99,1.18-.34.17-.9.44-1.67.8-.38.17-1.49.26-3.33.26-1.62,0-2.37-.71-2.22-2.14.12-1.41.99-2.11,2.59-2.11h.06c.77.02,1.29.03,1.55.03s.41-.24.46-.71l1.72-19.43c.14-1.64.92-2.45,2.33-2.45s2.04.82,1.89,2.45ZM108.43,71.55c-.14,1.33-1.03,1.99-2.66,1.99h-4.87c-.1,0-.15.05-.16.14l-.78,7.67c-.05.53-.04.87.06,1.01.09.14.35.22.78.22h2.04c.43,0,.73-.26.91-.77.18-.52.32-1.12.42-1.82.09-.63.67-.94,1.73-.94.12,0,.24,0,.37.01,1.12.07,1.66.69,1.61,1.89-.01.2-.03.41-.07.63-.14.76-.35,1.45-.63,2.07-.24.54-.54,1.02-.89,1.45-.74.91-1.9,1.37-3.46,1.37h-3.07c-1.8,0-2.97-.36-3.52-1.08-.55-.72-.72-2.05-.53-4l.77-7.7c.01-.1-.04-.14-.13-.14h-3.12c-.14,0-.22.07-.25.2-.38,2.13-.86,3.87-1.44,5.23-.75,1.78-1.82,3.25-3.19,4.44-1.54,1.33-2.99,2.21-4.34,2.65-.44.14-.83.21-1.18.21-.9,0-1.47-.49-1.7-1.46-.3-1.35.26-2.38,1.68-3.08l1.22-.6c.67-.33,1.3-.72,1.88-1.17.48-.36.82-.79,1.02-1.29.33-.78.66-1.56,1.01-2.33.05-.13.22-1.02.52-2.65,0-.1-.04-.14-.13-.14h-4.17c-1.62,0-2.37-.65-2.27-1.94v-.1c.15-1.27,1.03-1.91,2.64-1.91h8.39c.1,0,.15-.05.16-.14l.76-7.81c.16-1.64.96-2.46,2.41-2.46s2.09.82,1.93,2.46l-.78,7.81c-.01.1.03.14.13.14h8.69c1.06,0,1.75.27,2.06.82.14.25.21.55.2.91,0,.07,0,.15-.02.23ZM137.52,23.02c.11-2.4,1.12-3.76,1.95-4.48.72-.62,1.92-1.31,3.75-1.31.29,0,.59.02.91.06,1.48.17,3.12.74,4.89,1.7,3.38,1.83,6.99,4.95,10.17,8.78,3.17,3.81,5.56,7.91,6.74,11.54.62,1.9.89,3.6.8,5.08-.14,2.34-1.15,3.67-1.98,4.37-.72.61-1.91,1.27-3.71,1.27-.28,0-.58-.02-.89-.05-1.45-.16-3.07-.72-4.81-1.65-.65-.34-1.3-.74-1.96-1.18-2.74-1.82-5.56-4.39-8.12-7.43-2.53-3.01-4.59-6.21-5.95-9.24-.35-.78-.65-1.55-.91-2.3-.65-1.92-.94-3.66-.88-5.16ZM145.75,52.12c-.55-.17-1.38-.53-2.52-1.29-1.74-1.16-3.54-2.8-5.2-4.76-1.72-2.03-3.14-4.23-3.99-6.21-.47-1.1-.69-1.92-.77-2.48.55.17,1.39.54,2.55,1.31,1.76,1.17,3.56,2.83,5.23,4.79,1.71,2.03,3.12,4.22,3.96,6.18.46,1.08.67,1.9.75,2.45ZM127.82,36.66c.08-1.99.94-3.14,1.65-3.75.61-.53,1.64-1.12,3.18-1.12.24,0,.49.01.75.04,1.04.12,2.18.48,3.4,1.08.67,1.36,1.45,2.73,2.34,4.1-2.47-1.94-4.83-3.06-6.55-3.06-.7,0-1.29.18-1.74.57-1.74,1.5-.82,5.6,1.97,10.01.77,1.22,1.68,2.46,2.72,3.68,1.26,1.48,2.59,2.78,3.89,3.86,2.62,2.17,5.17,3.42,6.99,3.42.69,0,1.28-.18,1.73-.56,1.56-1.33,1.01-4.74-1.12-8.61,1.19,1.09,2.41,2.07,3.62,2.94.4,1.32.58,2.52.52,3.59-.1,1.96-.96,3.08-1.67,3.68-.61.52-1.63,1.09-3.15,1.09-.24,0-.48-.01-.74-.04-1.17-.13-2.46-.57-3.85-1.31-.19-.1-.37-.2-.56-.31-2.44-1.41-5.01-3.63-7.3-6.33-2.03-2.38-3.67-4.92-4.73-7.32-.24-.53-.44-1.06-.62-1.57-.52-1.51-.76-2.88-.71-4.08ZM138.53,59.76s0,.07,0,.11c-.03,0-.07-.02-.1-.02-.66-.15-1.33-.26-2.01-.31,0-1.06-.45-2.44-1.24-3.94,1.06.93,2.14,1.75,3.21,2.45.12.61.17,1.18.15,1.71ZM131.72,56.16c-.21-.06-.44-.12-.68-.16-.47-.44-.98-.96-1.49-1.56-.96-1.12-1.65-2.16-2.13-3.04.79.61,1.71,1.45,2.67,2.57.67.78,1.2,1.51,1.62,2.18ZM121.62,51.67c-.39-1.11-.57-2.13-.54-3.03.06-1.61.77-2.55,1.36-3.05.51-.44,1.36-.93,2.62-.93.19,0,.39.01.6.04.36.04.73.12,1.11.23.58,1.14,1.26,2.29,2.03,3.42-1.43-.99-2.77-1.55-3.78-1.55-.48,0-.89.13-1.2.39-1.52,1.31-.05,5.52,3.27,9.39.03.03.06.06.08.09-.47.27-.85.59-1.13.88-.17.17-.32.36-.47.55-.04-.04-.07-.08-.11-.13-1.77-2.05-3.13-4.29-3.83-6.3ZM114.47,60.83c.44-.68,1-1.02,1.67-1.02.44,0,.93.14,1.47.44l.89.49c1.42.76,1.7,1.73.82,2.92-.72.99-1.25,1.48-1.61,1.48-.08,0-.15-.02-.2-.07-.33-.26-1.05-.71-2.16-1.35-1.34-.8-1.64-1.76-.89-2.88ZM111.43,69.68c.03-.3.14-.61.34-.94.44-.74,1.03-1.11,1.76-1.11.42,0,.88.12,1.39.36,1.15.54,1.98.97,2.48,1.27.5.31.3,1.06-.61,2.26-.74.96-1.3,1.44-1.66,1.44-.08,0-.15-.02-.21-.07-.34-.26-1.06-.7-2.17-1.31-.55-.31-.93-.65-1.14-1.02-.15-.27-.22-.56-.19-.87ZM114.57,83.92c-.61.96-1.29,1.44-2.04,1.44-.38,0-.77-.12-1.18-.36-.48-.29-.79-.64-.93-1.03-.2-.58-.02-1.26.53-2.05.02-.03.04-.06.07-.09.98-1.35,1.93-2.86,2.85-4.53.59-1.09,1.29-1.64,2.1-1.64.28,0,.58.07.89.2,1.19.52,1.39,1.51.6,2.99-1.13,2.12-2.09,3.81-2.88,5.06ZM166.63,74.39c-5.3.19-9.73,1.54-13.15,4.01-1.98,1.44-3.29,2.97-4.56,4.46-1.79,2.1-3.62,4.26-6.87,5.11-.87.23-1.76.34-2.67.34s-1.78-.11-2.69-.32c-2.31-.53-4.74-1.73-7.26-3.61-.19-.14-.35-.31-.48-.5-.15-.12-.3-.26-.45-.39-.06-.06-.13-.09-.19-.09s-.14.03-.21.09c-.82.64-1.54,1.16-2.17,1.57-.65.42-1.19.72-1.63.88-.49.17-.92.26-1.29.26-.84,0-1.39-.45-1.64-1.35-.36-1.27.18-2.28,1.62-3.02l2.63-1.37c.08-.04.1-.1.05-.17-.93-1.34-1.72-2.89-2.35-4.65-.02-.05-.03-.07-.04-.07s-.02.02-.02.07c-.59,2.79-1.14,4.76-1.67,5.89-.52,1.13-.96,2.05-1.31,2.74-.35.69-.71,1.26-1.08,1.69-.13.16-.31.24-.52.24-.39,0-.92-.25-1.58-.75-1.04-.76-1.03-1.8.02-3.11.31-.38.86-2.01,1.65-4.9.52-1.9.94-4.29,1.26-7.18l.56-5.04c.18-1.63,1.09-2.45,2.74-2.45h3.96c.1,0,.15-.05.16-.14l.12-1.05c.05-.45.15-.84.29-1.17.34-.77.95-1.19,1.81-1.27.72.59,1.43,1.09,2.1,1.48.04.28.03.6-.01.96l-.12,1.05c-.01.1.03.14.13.14l3-.09c.15,0,.29,0,.44,0,.62,0,1.23.05,1.84.16.18.03.36.07.54.11,1.12.25,1.38,1.17.75,2.76,0,.03-.02.05-.03.08-.33.87-.68,1.6-1.03,2.18-.65,1.07-1.37,1.6-2.16,1.6-.27,0-.54-.06-.82-.18-1.09-.48-1.35-1.34-.78-2.58,0,0,0,0,0,0,.04-.09.02-.14-.08-.14h-2.14c-.1,0-.15.05-.16.14l-.36,3.13c-.01.1.03.15.13.15l1.67-.06c.1,0,.2,0,.29,0,.92,0,1.77.17,2.54.5.84.37,1,1.29.49,2.77-.5,1.43-1.32,2.94-2.46,4.53-.54.76-1.16,1.54-1.85,2.34-.07.08-.06.14,0,.2.13.11.26.21.39.31.74.58,1.39,1.01,1.95,1.32.53.32,1.04.6,1.54.84,1.16.55,2.25.88,3.27,1,.26.03.51.04.75.04.52,0,1.03-.06,1.51-.19,1.72-.45,2.72-1.55,4.46-3.61,1.31-1.54,2.94-3.47,5.4-5.25,4.2-3.05,9.51-4.7,15.78-4.93.03,0,.05,0,.08,0,1.21,0,2.18.95,2.17,2.16-.01,1.24-1.04,2.27-2.29,2.32Z"/></g></svg>