<?xml version="1.0" encoding="UTF-8"?><svg id="_图层_2" xmlns="http://www.w3.org/2000/svg" viewBox="0 0 91.7 93.64"><defs><style>.cls-1{fill:#f5f5f5;}</style></defs><g id="_图层_1-2"><path class="cls-1" d="M12.95,4.93c-.09.4-.18.75-.27,1.05-.09.3-.2.55-.31.75-.12.2-.25.35-.41.45-.15.1-.33.15-.54.15h-.18s.25-1.1.25-1.1h.12s.05-.01.08-.04c.03-.03.05-.09.09-.18.03-.09.07-.23.11-.4.04-.17.09-.4.16-.68l.38-1.69h.9s-.38,1.69-.38,1.69Z"/><path class="cls-1" d="M15.77,4.38l-.96.91-.48-.62-.85,3.75h-1.11s1.28-5.67,1.28-5.67h-1.13s.26-1.14.26-1.14h1.13s.33-1.47.33-1.47h1.11s-.33,1.47-.33,1.47h.78s-.26,1.14-.26,1.14h-.78s-.15.64-.15.64l.16-.14c.06.07.14.15.23.25.09.1.18.2.28.3.09.1.18.21.27.31.08.1.16.19.22.27Z"/><path class="cls-1" d="M19.26,1.2h1.93s-.26,1.14-.26,1.14h-5.11s.26-1.14.26-1.14h1.85c-.03-.16-.06-.32-.09-.46-.03-.15-.07-.29-.1-.45l1.28-.29c.04.18.08.36.12.56s.08.41.12.64Z"/><path class="cls-1" d="M19.27,7.11c.04.07.16.1.34.1h.47s-.27,1.19-.27,1.19h-1c-.41,0-.68-.09-.81-.28-.14-.19-.15-.51-.05-.97l.67-2.97h-1.44s-.2.9-.2.9c-.15.66-.3,1.2-.45,1.63-.15.43-.32.77-.5,1.02-.18.25-.38.42-.59.53-.22.1-.46.15-.73.15h-.49s.27-1.19.27-1.19h.33c.11,0,.21-.03.3-.1.09-.07.16-.19.24-.36.08-.18.15-.42.23-.72.08-.3.17-.69.28-1.15l.48-2.14h1.16s-.07.31-.07.31h1.44c.43,0,.72.1.86.29.14.2.16.51.06.96l-.56,2.46c-.04.16-.03.28.01.35Z"/><path class="cls-1" d="M22.68,4.7c-.14.26-.27.48-.39.64l-.9-.42c.11-.16.22-.35.35-.56.13-.22.26-.45.38-.69.13-.24.25-.49.37-.74.12-.25.22-.49.31-.72l.97.22c-.06.17-.15.39-.26.65-.12.26-.25.53-.39.81-.14.28-.28.55-.43.81Z"/><path class="cls-1" d="M29.53.19h1.16s-1.84,8.15-1.84,8.15h-1.16s.8-3.54.8-3.54l-.75.33c-.02-.11-.04-.25-.08-.4-.03-.15-.06-.32-.1-.49-.03-.17-.07-.35-.11-.53-.04-.18-.08-.35-.11-.51l-1.12,4.98h-1.14s.76-3.35.76-3.35l-.72.31c-.02-.1-.04-.22-.06-.36-.03-.14-.05-.28-.09-.44-.03-.15-.07-.31-.1-.47-.04-.16-.07-.32-.1-.47l-.48,2.14c-.22.97-.55,1.69-.98,2.15-.43.46-1.03.7-1.78.7h-.32s.27-1.18.27-1.18h.34c.28,0,.54-.12.77-.35.23-.23.4-.62.52-1.17L24.35.16h1.15s-.53,2.35-.53,2.35l.68-.31c.02.09.05.19.09.32.03.12.07.26.1.4.03.14.07.29.11.44.04.15.08.31.12.45l.76-3.39h1.14s-.48,2.12-.48,2.12l.77-.35c.02.09.05.2.08.33.03.13.07.27.11.42.04.15.08.3.12.46.04.16.08.31.12.46l.83-3.67Z"/><path class="cls-1" d="M11.16,15.91l.09-.42h1.22s-.09.4-.09.4c-.09.4-.22.76-.41,1.09-.18.33-.41.61-.68.84-.27.23-.59.41-.95.54-.37.13-.78.19-1.23.19h-.22s.26-1.18.26-1.18h.27c.48,0,.86-.12,1.15-.37.28-.25.48-.61.59-1.09Z"/><path class="cls-1" d="M17.11,13.36c-.25.24-.5.47-.73.69h1.98s-.25,1.13-.25,1.13h-3.58s-.78,3.45-.78,3.45h-1.24s.78-3.45.78-3.45h-3.53s.25-1.13.25-1.13h1.96c-.07-.11-.14-.23-.21-.36-.07-.12-.15-.24-.22-.36-.07-.11-.14-.22-.2-.32-.06-.1-.12-.19-.16-.27l.68-.47h-1.02s.25-1.13.25-1.13h3.11s.18-.8.18-.8h1.24s-.18.8-.18.8h3.18s-.25,1.13-.25,1.13h-1.03s.44.44.44.44c-.19.18-.41.4-.66.64ZM16.02,12.96c.26-.24.5-.47.71-.68h-1.56s-.4,1.77-.4,1.77h.96s-.42-.47-.42-.47c.21-.17.44-.38.7-.61M13.53,14.05l.4-1.77h-1.5s.8,1.26.8,1.26l-.71.51h1.02"/><path class="cls-1" d="M16.52,17.01c.17.25.49.37.98.37h.27s-.26,1.18-.26,1.18h-.22c-.49,0-.89-.07-1.19-.19-.31-.13-.54-.31-.7-.54-.16-.23-.26-.51-.28-.84-.02-.32.01-.69.1-1.08l.09-.4h1.23s-.09.42-.09.42c-.11.48-.08.84.09,1.09Z"/><polygon class="cls-1" points="23.58 10.63 28.8 10.63 28.57 11.65 23.34 11.65 23.58 10.63"/><path class="cls-1" d="M27.55,11.94c.26.01.44.1.55.26.11.16.13.38.07.66l-.35,1.54h-1.13s.04-.19.04-.19h-2.51s-.04.19-.04.19h-1.1s.6-2.64.6-2.64h1.1s-.04.19-.04.19h2.81ZM26.93,13.31l.1-.44h-2.51s-.1.44-.1.44h2.51"/><path class="cls-1" d="M27.07,14.54c.35,0,.58.07.69.22.11.15.12.41.03.77l-.7,3.13h-1.08s.06-.26.06-.26h-3.07s-.06.26-.06.26h-1.08s.75-3.32.75-3.32l-.58.53c-.07-.09-.14-.18-.2-.27-.06-.09-.13-.18-.2-.27l-.75,3.33h-1.12s.68-3,.68-3c-.13.11-.26.21-.39.32-.13.11-.27.21-.41.32l-.39-1.04c.26-.19.51-.39.75-.62.24-.22.47-.44.68-.67s.41-.45.59-.67c.18-.22.34-.42.49-.6h-1.48s.24-1.08.24-1.08h1.02c-.04-.18-.08-.36-.13-.55-.05-.19-.09-.36-.13-.5l1.11-.41c.02.09.05.19.08.3.03.11.06.23.09.36.03.12.06.25.09.37.03.12.05.23.07.33l-.27.1h.1c.17,0,.31.04.4.11.1.07.16.17.2.28.03.11.04.24,0,.38-.03.14-.09.27-.18.4-.15.21-.31.41-.46.62-.15.21-.32.41-.49.61.11.11.22.24.35.37.12.14.24.27.35.39l.05-.25h4.29ZM24.19,17.47l.12-.55h-.99s-.12.55-.12.55h.99M26.27,17.47l.12-.55h-.98s-.12.55-.12.55h.98M24.53,15.98l.11-.48h-.99s-.11.48-.11.48h.99M26.61,15.98l.11-.48h-.98s-.11.48-.11.48h.98"/><polygon class="cls-1" points="35.09 10.32 34.55 12.73 38.1 12.73 37.83 13.91 34.28 13.91 33.54 17.19 36.48 17.19 36.22 18.36 29.02 18.36 29.28 17.19 32.22 17.19 32.95 13.91 29.41 13.91 29.68 12.73 33.22 12.73 33.76 10.32 35.09 10.32"/><path class="cls-1" d="M61.32,26.24c.41,0,.75.21.9.56.15.35.07.74-.22,1.03-.85.85-2.46,1.37-4.21,1.37-1.78,0-3.35-.54-4.11-1.41-.24-.28-.28-.66-.1-.99.19-.34.56-.56.96-.56h6.77Z"/><path class="cls-1" d="M20.17,58.85c.13,1.49-.47,2.9-1.57,3.78-.1.08-.2.15-.3.22.32.97.34,2.04.05,3.12-.39,1.45-1.36,2.87-2.71,4-1.52,1.28-3.27,1.98-4.93,1.98-1.33,0-2.53-.45-3.47-1.3-.76.61-1.7.95-2.7.95-1.22,0-2.42-.52-3.28-1.42-1.71-1.78-1.68-4.58.06-6.23.15-.14.3-.27.47-.39-.62-1.02-.85-2.21-.63-3.35.35-1.76,1.73-3.07,3.51-3.34.21-.03.43-.05.65-.05.13,0,.26,0,.4.02.2-1.04.77-1.97,1.6-2.6.73-.55,1.6-.84,2.53-.84,1.4,0,2.77.69,3.69,1.84.41-.25.8-.42,1.22-.53.32-.08.65-.12.99-.12.8,0,1.59.23,2.28.67.61.39,1.11.91,1.48,1.51.17.29.32.59.43.91.13.37.21.75.24,1.14ZM14.2,68.26c1.63-1.37,2.44-3.2,1.85-4.72-.11-.29-.27-.57-.49-.83-.16-.19-.34-.36-.53-.5-.25-.19-.52-.33-.81-.44-.29-.1-.6-.16-.91-.19-.1,0-.2-.01-.3-.01-.18,0-.37.01-.56.04-.16.02-.33.05-.49.08-.64.14-1.24.4-1.77.74-.11.07-.22.15-.33.23-.76.58-1.37,1.36-1.72,2.27-.04.11-.08.21-.11.32-.03.1-.06.2-.08.3-.27,1.11-.13,2.2.59,3.06.03.03.06.07.09.1.59.66,1.37.96,2.22.96,1.1,0,2.31-.51,3.38-1.41M7.88,62.28c.02-.12.04-.23.04-.35,0-.18-.01-.36-.05-.54-.1-.49-.36-.98-.74-1.38-.36-.38-.8-.64-1.26-.78-.22-.07-.44-.1-.66-.1-.1,0-.21,0-.31.02-.76.11-1.33.65-1.48,1.41-.15.74.12,1.58.71,2.22.01.02.03.03.04.05.53.56,1.24.88,1.92.88.03,0,.06,0,.09,0,.07,0,.14,0,.21-.02.15-.02.29-.06.42-.11.55-.22.94-.68,1.07-1.3M8.66,56.07c-.48.37-.72.95-.72,1.59,0,.55.2,1.14.58,1.65.29.4.66.69,1.06.88.14.07.28.12.43.16.18.05.37.08.55.08.39,0,.76-.11,1.07-.35.03-.02.06-.05.09-.07.21-.18.36-.4.47-.65.27-.65.2-1.48-.22-2.22-.06-.1-.12-.19-.19-.29-.53-.72-1.31-1.11-2.04-1.11-.39,0-.76.11-1.08.35M5.95,68.82c.74-.71.75-1.92.05-2.8-.05-.06-.1-.12-.15-.18-.08-.09-.17-.17-.26-.24-.42-.33-.93-.5-1.42-.5-.26,0-.53.05-.76.15-.19.08-.38.2-.53.35-.8.76-.75,2.09.1,2.98.47.49,1.09.75,1.68.75.47,0,.92-.16,1.27-.48l.03-.02M17.13,60.93c.52-.38.8-1.04.74-1.78-.07-.77-.5-1.5-1.15-1.92-.34-.22-.72-.33-1.09-.33-.32,0-.63.08-.9.25-.07.05-.14.1-.2.15-.45.39-.68,1.01-.63,1.69,0,.11.03.22.05.33.06.29.18.57.34.82.14.23.32.43.52.6.08.06.15.12.23.17.18.11.36.2.55.25.18.05.36.08.54.08.32,0,.63-.08.9-.25.03-.02.06-.04.09-.06"/><path class="cls-1" d="M64.82,30.18c.67,0,1.16.07,1.55.23.31.13.54.28.64.44.07.11.03.31-.08.5-.02.04-.04.08-.07.11-.54.65-1.16.95-1.6,1.09-.33.1-.55.12-.56.12,0,0-.23-.01-.55-.12-.43-.14-1.02-.44-1.5-1.09-.03-.04-.04-.07-.06-.11-.1-.19-.12-.39-.04-.5.12-.16.36-.31.69-.44.4-.16.9-.23,1.57-.23Z"/><path class="cls-1" d="M60.84,31.33c.16,0,.31.11.35.28.06.24.17.47.33.69.76,1.05,1.75,1.48,2.45,1.65.11.03.14.4.14.48.04.92-.33,1.93-1.14,2.49-.45.31-.99.45-1.52.45-.28,0-.56-.04-.82-.11-.66-.18-1.27-.57-1.67-1.12-.39-.53-.58-1.18-.55-1.85.07-1.39,1.04-2.56,2.32-2.94.04-.01.07-.02.11-.02Z"/><path class="cls-1" d="M75.46,26.24c.41,0,.75.21.9.56.15.35.07.74-.22,1.03-.85.85-2.46,1.37-4.21,1.37-1.78,0-3.35-.54-4.11-1.41-.24-.28-.28-.66-.09-.99.19-.34.56-.56.96-.56h6.77Z"/><path class="cls-1" d="M68.68,31.33s.07,0,.11.02c1.24.39,2.1,1.56,2.04,2.94-.03.67-.29,1.32-.73,1.85-.46.55-1.1.94-1.78,1.12-.27.07-.55.11-.83.11-.53,0-1.06-.14-1.48-.45-.75-.56-1.02-1.58-.9-2.49.01-.09.07-.46.19-.48.72-.16,1.75-.6,2.61-1.65.18-.22.31-.45.39-.69.06-.17.22-.28.38-.28Z"/><path class="cls-1" d="M78.71,59.21c.74.71,1.11,1.63,1.06,2.67-.05,1.04-.51,1.96-1.31,2.67-.68.59-1.5.93-2.38.99l-.22,4.63c-.05,1.07-.52,2.01-1.35,2.74-.77.67-1.7,1.02-2.7,1.02s-1.91-.36-2.61-1.04c-.18-.18-.35-.38-.48-.58-.16.21-.34.41-.55.59-.76.67-1.69,1.03-2.7,1.03-.7,0-1.35-.18-1.95-.52-.57-.34-1.03-.83-1.33-1.41h-1.47c-.35.59-.86,1.07-1.47,1.41-.63.35-1.3.52-2,.52-.35,0-.72-.05-1.09-.16-.45-.13-.86-.34-1.23-.63-.22-.17-.41-.37-.58-.59-.45.34-.94.63-1.46.86-1.02.46-2.16.69-3.39.69-1.06,0-2.06-.21-2.97-.62-.86-.39-1.62-.93-2.27-1.59-.12-.12-.23-.24-.34-.37.18-1.03-.04-2.04-.71-2.79l-1.03-1.16c-.08-.76-.06-1.6.06-2.56.04-.33.1-.65.18-.96,1.65-.58,3.06-2.04,3.45-3.76.07-.33.11-.65.1-.96.45-.28.85-.51,1.28-.69.96-.41,1.97-.62,3.03-.62,1.22,0,2.34.23,3.32.69,1.01.48,1.86,1.16,2.53,2.04.52.71.78,1.54.74,2.4,0,.07-.02.13-.02.2l1.69-3.15c.77-1.41,2.06-2.18,3.64-2.18,1.55,0,2.78.76,3.38,2.08.2-.32.45-.62.74-.89.74-.66,1.66-1.01,2.65-1.01h7.23c.98,0,1.86.34,2.54.99ZM66.7,71.26c.32-.29.5-.65.52-1.08.01-.21-.02-.41-.1-.61l-3.59-8.37c-.25-.6-.75-.92-1.47-.92-.69,0-1.23.32-1.55.92l-4.48,8.37c-.11.21-.17.41-.18.61-.01.28.03.51.14.71.1.19.23.34.38.46.15.12.32.2.5.26.17.05.33.07.48.07.3,0,.59-.08.86-.23.28-.15.49-.38.63-.65l.53-1.06h4.36s.42,1.06.42,1.06c.11.28.3.5.57.66.26.15.54.23.84.23.44,0,.82-.14,1.14-.43M47.32,67.14c-.12-.33-.18-.69-.16-1.07s.11-.74.26-1.07c.16-.33.37-.63.63-.88.26-.25.56-.46.9-.61.34-.15.7-.22,1.08-.22.21,0,.42.03.62.08.2.05.39.12.55.21.17.09.32.19.46.3.14.11.26.22.35.33.31.38.65.57,1.02.57.13,0,.28-.03.47-.1.18-.06.36-.16.54-.28.19-.13.35-.29.48-.49.15-.22.23-.47.24-.75.02-.33-.08-.64-.3-.93-.47-.62-1.08-1.1-1.8-1.44-.72-.34-1.56-.51-2.5-.51-.78,0-1.52.15-2.22.45-.69.3-1.32.72-1.86,1.23-.54.52-.99,1.14-1.32,1.84-.33.71-.52,1.47-.56,2.26-.04.8.08,1.56.34,2.26.26.7.65,1.32,1.14,1.84.49.52,1.08.93,1.74,1.23.67.3,1.4.46,2.18.46.94,0,1.79-.17,2.55-.51.76-.34,1.41-.83,1.94-1.45.24-.29.37-.6.38-.94.01-.22-.04-.43-.14-.63-.09-.18-.22-.35-.36-.5-.15-.15-.32-.26-.51-.35-.19-.09-.38-.13-.56-.13s-.37.05-.56.14c-.18.09-.36.24-.53.44-.2.22-.5.43-.87.62-.36.19-.77.28-1.21.28-.38,0-.74-.07-1.06-.22-.32-.14-.61-.35-.84-.6-.23-.25-.42-.55-.54-.88M77.01,62.9c.31-.27.48-.62.5-1.01s-.12-.74-.4-1.01c-.28-.27-.63-.4-1.05-.4h-7.23c-.41,0-.78.14-1.08.41-.31.27-.47.61-.49,1.01s.11.74.39,1.01c.28.27.63.41,1.04.41h2.02s-.33,6.86-.33,6.86c-.02.43.12.79.42,1.08.3.29.67.43,1.1.43s.82-.15,1.15-.43c.33-.29.51-.66.54-1.08l.33-6.86h2c.41,0,.78-.14,1.09-.4"/><path class="cls-1" d="M45.98,59.35c0,.31-.03.63-.1.96-.39,1.71-1.8,3.18-3.45,3.76-.48.17-.99.26-1.49.26h-5.34c-.15.17-.3.34-.46.51l-.27,1.19c.94-.81,2.12-1.28,3.24-1.28.99,0,1.87.36,2.46,1.02l1.62,1.81,1.03,1.16c.66.74.89,1.75.71,2.79-.18,1.02-.75,2.07-1.67,2.89-.96.85-2.16,1.34-3.31,1.34-.99,0-1.87-.36-2.46-1.03l-2.65-2.96c-.07-.08-.14-.17-.2-.26l-1.53,6.81c-.5,2.22-2.72,4.02-4.94,4.02-2.23,0-3.63-1.8-3.13-4.02l1.18-5.22c-1.2.77-2.45,1.51-3.74,2.21-.73.4-1.52.61-2.27.61-1.4,0-2.52-.71-3-1.89-.76-1.88.38-4.37,2.53-5.54,2.36-1.29,4.5-2.68,6.4-4.16h-3.62c-1.36,0-2.41-.67-2.91-1.7,1.11-.89,1.7-2.29,1.57-3.78-.03-.39-.12-.78-.24-1.14.94-.87,2.16-1.42,3.39-1.42h2.31s7.82,0,7.82,0h1.67s4.39,0,4.39,0h3.24c1.89,0,3.19,1.31,3.23,3.06ZM43.86,60.31c.25-1.11-.45-2.01-1.56-2.01h-7.65s-11.78,0-11.78,0c-1.11,0-2.22.9-2.47,2.01-.25,1.11.45,2.01,1.57,2.01h8.12c-2.84,2.92-6.42,5.56-10.67,7.88-1.08.59-1.64,1.83-1.27,2.77.25.61.83.95,1.5.95.36,0,.76-.1,1.14-.31,2.71-1.48,5.19-3.09,7.42-4.82l-2.15,9.53c-.25,1.11.45,2.01,1.57,2.01s2.22-.9,2.47-2.01l3.18-14.11c.58-.62,1.14-1.25,1.67-1.89h6.46c1.12,0,2.22-.9,2.47-2.01M36,67.44c-.93.83-1.14,2.1-.48,2.84l2.65,2.96c.31.34.75.51,1.23.51.55,0,1.16-.23,1.65-.67.93-.83,1.15-2.1.48-2.84l-2.65-2.96c-.31-.34-.75-.51-1.23-.51-.55,0-1.16.23-1.66.67"/><path class="cls-1" d="M87.82,41.94c.74.71,1.11,1.63,1.06,2.67s-.51,1.96-1.31,2.67c-.68.59-1.5.93-2.39.98l-.22,4.63c-.05,1.07-.52,2.01-1.35,2.74-.77.67-1.7,1.02-2.7,1.02s-1.91-.36-2.61-1.04c-.18-.18-.35-.38-.48-.58-.16.21-.34.41-.55.59-.75.67-1.69,1.03-2.7,1.03-.7,0-1.35-.18-1.95-.53-.58-.34-1.04-.82-1.33-1.41h-1.47c-.35.59-.86,1.07-1.47,1.41-.63.35-1.3.52-2,.52-.35,0-.72-.05-1.09-.16-.45-.13-.87-.34-1.23-.63-.22-.17-.41-.37-.58-.59-.45.34-.94.63-1.46.86-1.02.46-2.16.69-3.39.69-1.05,0-2.05-.21-2.97-.62-.86-.39-1.62-.93-2.27-1.59-.76,1.31-2.19,2.21-3.77,2.21h-3.68c-1.43,0-2.72-.7-3.46-1.89-.21-.33-.36-.7-.46-1.07-.33.41-.63.79-.87,1.09-.45.56-1.01,1.01-1.63,1.33h-4.39c-.3-.17-.59-.36-.84-.59-.25.23-.53.43-.83.59h-7.82c-.56-.32-1.04-.78-1.39-1.35-.22-.35-.37-.72-.47-1.11-.86,1.64-2.47,2.75-4.27,2.97-.37-.61-.87-1.13-1.48-1.51-.69-.44-1.48-.67-2.28-.67-.33,0-.67.04-.99.12-.44-.62-.74-1.35-.86-2.14l-.14-1.54c-.25.12-.51.21-.78.28l-.26.06c-.69.14-1.37.21-2.05.21-5.56,0-9.87-4.51-9.6-10.05.27-5.54,5.01-10.05,10.57-10.05,5.28,0,9.13,3.73,9.57,9.16l3.06-6.55c.74-1.59,2.33-2.61,4.06-2.61h2.51c2.29,0,4.06,1.85,3.95,4.13,0,.08-.02.15-.02.23,1.69.61,2.84,2.24,2.75,4.16-.01.23-.04.45-.09.67,1.02.02,1.96.43,2.65,1.15.4.41.69.91.86,1.44l.86-1.08c.76-.95,1.93-1.52,3.13-1.52.77,0,1.48.23,2.07.63-.11-.41-.16-.85-.13-1.3.12-2.44,2.2-4.42,4.65-4.42,2.45,0,4.34,1.98,4.22,4.42-.04.73-.26,1.42-.6,2.02.39-.25.79-.47,1.22-.66.96-.41,1.97-.62,3.03-.62,1.22,0,2.34.23,3.32.69,1.01.48,1.86,1.16,2.53,2.04.52.71.78,1.54.74,2.4,0,.07-.02.14-.02.2l1.69-3.15c.77-1.41,2.06-2.18,3.64-2.18,1.55,0,2.78.76,3.38,2.08.2-.32.45-.62.74-.89.74-.66,1.66-1.01,2.65-1.01h7.23c.98,0,1.86.34,2.54.99ZM21.88,52.76l7.09-15.2h1.58c1.06,0,1.97-.86,2.02-1.92.05-1.06-.77-1.92-1.84-1.92h-2.51c-.83,0-1.59.49-1.94,1.25l-6.67,14.28-.58-7.73c-.13-4.66-3.14-7.8-7.49-7.8-4.34,0-8.04,3.52-8.25,7.84s3.15,7.84,7.49,7.84c.52,0,1.06-.06,1.6-.16l.16-.03c.87-.22,1.51-.99,1.55-1.87.05-1.07-.78-1.93-1.84-1.93-.12,0-.23.02-.34.04l-.09.02c-.3.06-.58.1-.84.1-2.21,0-3.92-1.79-3.81-3.99.11-2.2,1.99-3.99,4.2-3.99,2.15,0,3.61,1.54,3.82,4.03l.94,10.59c.21,1.41,1.41,2.44,2.85,2.46,1.27,0,2.41-.74,2.94-1.87M75.81,53.98c.32-.29.5-.65.52-1.08,0-.21-.02-.41-.1-.61l-3.59-8.36c-.25-.6-.75-.92-1.47-.92s-1.22.32-1.55.92l-4.48,8.37c-.11.21-.17.41-.18.61-.01.28.03.51.14.71.1.19.23.34.38.46.15.12.32.21.5.26.17.05.33.07.48.07.3,0,.59-.08.86-.23.28-.16.49-.38.63-.65l.53-1.06h4.36s.42,1.06.42,1.06c.11.28.3.5.57.66.26.15.54.23.84.23.44,0,.82-.14,1.13-.43M39.43,53.64c1.4-1.75,4.58-5.72,6.55-8.19.39-.49.48-1.13.23-1.67-.25-.54-.78-.88-1.39-.88-.5,0-.99.24-1.31.64l-4.86,6.08c.09-1.79.18-3.7.24-4.97.02-.47-.14-.9-.45-1.23-.31-.33-.74-.51-1.21-.51-.96,0-1.78.78-1.83,1.74l-.36,7.51c-.07,1.36.99,2.47,2.36,2.47.78,0,1.54-.37,2.03-.99M56.43,49.87c-.12-.33-.18-.69-.16-1.07s.11-.74.26-1.07c.16-.33.37-.63.63-.88.26-.25.57-.46.9-.61.34-.15.7-.22,1.08-.22.21,0,.42.03.62.08.2.05.39.12.55.21.17.09.32.19.46.3.14.11.26.22.35.33.31.38.65.57,1.02.57.13,0,.29-.03.47-.1.18-.06.36-.16.54-.28.19-.13.35-.29.48-.49.15-.21.23-.47.24-.75.02-.33-.08-.64-.3-.93-.47-.62-1.08-1.1-1.8-1.44-.72-.34-1.56-.51-2.5-.51-.78,0-1.52.15-2.22.45-.69.3-1.32.72-1.86,1.23-.54.52-.99,1.14-1.32,1.84-.33.71-.52,1.47-.56,2.26-.04.8.08,1.56.34,2.26.26.7.65,1.32,1.14,1.84.49.52,1.08.93,1.74,1.23.67.3,1.4.45,2.17.45.94,0,1.8-.17,2.55-.51.76-.34,1.41-.83,1.94-1.45.24-.28.37-.6.39-.94.01-.22-.04-.43-.14-.64-.09-.18-.21-.35-.36-.5-.15-.15-.32-.26-.5-.35-.19-.09-.38-.13-.56-.13s-.37.05-.55.14c-.18.09-.36.24-.53.44-.2.22-.5.43-.87.62-.36.19-.77.28-1.21.28-.38,0-.73-.07-1.06-.22-.32-.14-.61-.34-.84-.6-.24-.25-.42-.55-.54-.88M86.12,45.62c.31-.27.48-.62.5-1.01s-.12-.74-.4-1.01c-.28-.27-.63-.4-1.05-.4h-7.23c-.41,0-.78.14-1.08.41-.31.27-.47.61-.49,1.01s.11.74.39,1.01c.28.27.63.41,1.04.41h2.02s-.33,6.86-.33,6.86c-.02.43.12.79.42,1.08.3.29.67.43,1.1.43s.82-.15,1.15-.43c.33-.29.51-.66.54-1.09l.33-6.86h2c.41,0,.78-.14,1.09-.4M31.49,54.62c1.06,0,1.97-.86,2.02-1.92s-.77-1.92-1.84-1.92h-1.24s2.52-5.38,2.52-5.38c.26-.56.23-1.19-.08-1.69-.31-.5-.86-.8-1.46-.8-.73,0-1.4.43-1.72,1.11l-3.64,7.8c-.29.63-.26,1.34.09,1.91.35.57.97.91,1.65.91h3.69M49.72,54.62c1.06,0,1.97-.86,2.02-1.92s-.77-1.92-1.84-1.92h-1.24s2.52-5.38,2.52-5.38c.26-.56.23-1.19-.08-1.69-.31-.5-.86-.8-1.46-.8-.73,0-1.4.43-1.72,1.11l-3.64,7.8c-.29.63-.26,1.34.09,1.91.35.57.97.91,1.66.91h3.69M51.2,42.23c1.22,0,2.27-.99,2.33-2.21.06-1.22-.89-2.21-2.11-2.21s-2.27.99-2.32,2.21c-.06,1.22.89,2.21,2.11,2.21M32.98,42.23c1.22,0,2.27-.99,2.32-2.21s-.89-2.21-2.11-2.21-2.27.99-2.32,2.21.89,2.21,2.11,2.21M13.07,43.24l-.12-1.36c-.08-.97-.44-2.12-1.71-2.12-.99,0-1.83.8-1.87,1.78s.72,1.78,1.7,1.78c.83,0,1.79-.08,2-.08"/><polygon class="cls-1" points="70.95 47.6 71.82 49.81 69.84 49.81 70.95 47.6"/><path class="cls-1" d="M80.34,5.91c.2,0,.39.04.56.12,4.43,2.07,5.38,6.85,5.57,8.41,1.47,1.47,7.78,8.58,4.09,19.66-.12.35-.36.64-.69.82-.21.12-.44.17-.67.17-.13,0-.25-.02-.37-.05-.35-.1-.63-.33-.79-.65-.16-.32-.19-.69-.07-1.03,3.61-10.85-3.64-17.12-3.72-17.18-.27-.23-.44-.57-.46-.93,0-.04-.31-4.61-3.75-6.54-.6.23-2.01,1.03-4.1,3.68-.28.36-.7.56-1.13.56-.21,0-.41-.05-.6-.14-.03-.02-3.28-1.6-8.4-1.6-5.27,0-8.67,1.59-8.7,1.6-.2.1-.41.14-.62.14-.42,0-.82-.2-1.07-.56-1.83-2.66-3.17-3.45-3.74-3.68-3.63,1.92-4.38,6.49-4.38,6.54-.05.36-.25.7-.55.93-.08.06-7.94,6.33-5.38,17.18.08.35.02.72-.17,1.03-.19.32-.5.55-.85.65-.13.03-.25.05-.38.05-.23,0-.46-.06-.66-.17-.31-.18-.53-.47-.61-.82-2.62-11.08,4.37-18.19,5.99-19.66.34-1.56,1.75-6.34,6.38-8.41.18-.08.38-.12.58-.12.57,0,2.62.29,5.44,4.02,1.57-.57,4.64-1.45,8.72-1.45,4.22,0,7.21.88,8.72,1.45,3.18-3.72,5.26-4.02,5.83-4.02Z"/><path class="cls-1" d="M87.7,36.16c.78,0,1.38.63,1.34,1.41s-.7,1.4-1.48,1.4-1.38-.63-1.34-1.4.7-1.41,1.48-1.41Z"/><polygon class="cls-1" points="61.84 64.87 62.71 67.08 60.73 67.08 61.84 64.87"/><path class="cls-1" d="M76.84,75.87c.64,0,1.13.51,1.1,1.15s-.57,1.15-1.21,1.15h-33.88c-.64,0-1.13-.51-1.1-1.15s.57-1.15,1.21-1.15h33.88Z"/><path class="cls-1" d="M76.64,79.94c.64,0,1.13.51,1.1,1.15s-.57,1.15-1.21,1.15h-42.4c-.64,0-1.13-.51-1.1-1.15s.57-1.15,1.21-1.15h42.4Z"/><path class="cls-1" d="M15.92,22.27c.13.15.16.39.09.72l-.8,3.54h-1.24s.07-.32.07-.32h-2s-.59,2.63-.59,2.63h-1.27s.59-2.63.59-2.63h-1.98s-.07.32-.07.32h-1.24s1.07-4.75,1.07-4.75h1.24s-.06.26-.06.26h1.98s.35-1.55.35-1.55h1.27s-.35,1.55-.35,1.55h2.27c.3,0,.52.08.66.22ZM14.32,25.02l.41-1.8h-1.99s-.41,1.8-.41,1.8h2M11.05,25.02l.41-1.8h-1.98s-.41,1.8-.41,1.8h1.98"/><path class="cls-1" d="M18.34,23.08l1.2.29c-.31.67-.62,1.31-.95,1.91-.32.61-.65,1.21-1,1.81l-1.12-.42c.31-.54.63-1.12.96-1.74.33-.61.63-1.24.91-1.86Z"/><path class="cls-1" d="M21.78,22.66c-.09-.29-.17-.57-.25-.84-.08-.27-.15-.48-.2-.63l1.19-.56c.06.16.13.37.21.63.08.26.17.52.26.79.09.28.18.54.26.81.09.26.16.48.22.65l-1.3.64c-.04-.15-.09-.36-.17-.64-.07-.27-.15-.56-.24-.85Z"/><path class="cls-1" d="M25.41,25.62c.06.32.11.61.15.87l-1.33.49c-.03-.22-.06-.49-.11-.8-.04-.31-.09-.63-.15-.96-.06-.33-.11-.65-.17-.96-.06-.31-.11-.57-.16-.79l1.26-.45c.04.18.09.42.15.71.06.29.12.59.18.91.06.32.12.64.18.97Z"/><path class="cls-1" d="M20.22,27.39c.07.08.23.12.48.12h2.9s-.27,1.2-.27,1.2h-3.24c-.28,0-.51-.03-.69-.08-.18-.05-.33-.14-.43-.26s-.16-.27-.18-.45c-.02-.19,0-.42.06-.69l1.11-4.92h1.27s-1.04,4.59-1.04,4.59c-.05.23-.05.39.02.47Z"/><path class="cls-1" d="M13.23,84.8c.17.21.35.43.52.66.17.23.32.45.46.68l-.52.31h3.41s-.16,1.2-.16,1.2h-3.25s-.2,1.48-.2,1.48h2.85s-.16,1.2-.16,1.2h-2.85s-.24,1.77-.24,1.77h3.56s-.16,1.17-.16,1.17h-8.41s.16-1.17.16-1.17h3.57s.24-1.77.24-1.77h-2.86s.16-1.2.16-1.2h2.86s.2-1.48.2-1.48h-3.26s.16-1.2.16-1.2h3.52c-.1-.2-.2-.39-.31-.58-.1-.19-.2-.35-.29-.49l1.01-.58Z"/><path class="cls-1" d="M19.87,88.58l-.04.27h-1.15s.5-3.66.5-3.66h1.15s-.02.14-.02.14h1.36c.34,0,.6.08.76.25.16.16.22.42.17.76l-.34,2.51h-1.16s.04-.27.04-.27h-1.27ZM20.04,87.37l-.05.38h1.27s.05-.38.05-.38h-1.27M20.2,86.18l-.05.36h1.27s.05-.36.05-.36h-1.27"/><path class="cls-1" d="M25.46,86.43c-.04.1-.08.21-.12.31-.04.11-.09.22-.13.32h.67c.34,0,.6.08.76.24.16.16.22.41.17.76l-.33,2.44h-1.06s.34-2.48.34-2.48h-1.92s-.34,2.48-.34,2.48h-1.05s.49-3.59.49-3.59h1.05s-.02.15-.02.15h.13c.05-.11.09-.21.14-.32.04-.1.08-.21.12-.32h-1.46s.14-.99.14-.99h4.17s-.14.99-.14.99h-1.6Z"/><path class="cls-1" d="M24.87,90.13l1.54,1.28-.8.87h.66s-.16,1.15-.16,1.15h-5.06c-.49,0-.9-.06-1.23-.17-.33-.11-.6-.32-.82-.63-.13.32-.3.53-.5.65-.2.11-.46.17-.77.17h-.24s.15-1.1.15-1.1h.24c.08,0,.14-.02.19-.07.05-.05.09-.12.13-.24.04-.11.07-.27.11-.47.03-.2.07-.45.11-.76l.04-.28h1.01s-.04.3-.04.3l-.04.29c.06.18.12.34.18.47.07.13.14.23.23.32l.25-1.82h-1.84s.14-1.01.14-1.01h4.2s-.14,1.01-.14,1.01h-1.29s-.07.54-.07.54h1.16s-.13.97-.13.97h-1.16s-.09.66-.09.66c.06,0,.13,0,.19,0h.21s4.3,0,4.3,0c-.15-.15-.31-.32-.51-.51-.19-.19-.38-.38-.57-.57-.12.2-.26.37-.4.5-.14.13-.29.23-.44.31-.15.07-.3.12-.47.15-.16.03-.32.04-.48.04h-.42s.15-1.12.15-1.12h.29c.16,0,.31-.02.45-.07.14-.04.27-.15.39-.3.12-.16.23-.39.32-.69.09-.31.18-.72.25-1.24l.06-.45h1.06s-.06.48-.06.48c-.07.51-.16.96-.27,1.34Z"/><path class="cls-1" d="M36.3,89.81l-.13.93h-.87s.41.64.41.64c-.2.13-.42.25-.66.38-.24.12-.48.25-.72.37.3.12.7.18,1.19.18h.48s-.14,1.06-.14,1.06h-.64c-.46,0-.88-.05-1.24-.15-.36-.1-.66-.26-.9-.47-.24-.21-.41-.47-.51-.79-.1-.31-.12-.68-.07-1.1l.02-.11h-1.24s-.22,1.6-.22,1.6l1.21-.41.16.99c-.28.08-.56.16-.85.26-.29.1-.58.2-.88.31-.1.04-.2.06-.29.06-.03,0-.05,0-.08,0-.11-.02-.2-.06-.28-.13-.08-.07-.14-.17-.17-.3-.03-.13-.04-.28-.02-.45l.26-1.93h-.46s.13-.93.13-.93h1.39s.07-.5.07-.5h-1.25s.13-.93.13-.93h1.25s.07-.53.07-.53h1.13s-.07.53-.07.53h1.32s.07-.53.07-.53h1.13s-.07.53-.07.53h1.29s-.13.93-.13.93h-1.29s-.07.5-.07.5h1.54ZM34.3,91.08c.2-.11.41-.22.6-.34h-1.26s0,.03,0,.03c-.03.23-.03.45.02.64.23-.11.44-.22.64-.33"/><polygon class="cls-1" points="32.32 89.81 32.39 89.31 33.71 89.31 33.64 89.81 32.32 89.81"/><path class="cls-1" d="M35.08,87.68h-5.08s-.42,3.05-.42,3.05c-.06.47-.15.87-.25,1.21-.1.34-.23.62-.4.84-.16.22-.37.38-.62.49-.25.1-.55.16-.9.16h-.26s.16-1.17.16-1.17h.28c.19,0,.35-.12.48-.36.13-.24.23-.65.31-1.23l.76-5.55h1.2s-.03.23-.03.23h5.07c.4,0,.69.08.87.23.18.15.24.38.2.68l-.23,1.66h-1.18s.03-.23.03-.23ZM30.19,86.27l-.06.48h5.08s.06-.48.06-.48h-5.08"/><path class="cls-1" d="M38.67,88.31c.15,0,.28.03.4.08.12.05.22.13.3.22.08.09.14.21.18.33.04.13.04.26.02.41-.04.3-.17.55-.4.74-.24.2-.51.3-.8.3-.15,0-.28-.02-.4-.07-.12-.05-.22-.13-.31-.23-.17-.22-.24-.47-.2-.74.04-.32.18-.57.41-.75.25-.2.51-.3.78-.3Z"/><path class="cls-1" d="M41.51,88.36c-.1,0-.19.01-.29.01h-.48s.15-1.1.15-1.1h.35c.17,0,.34-.07.49-.22.16-.15.26-.4.31-.75l.16-1.19h1.24s-.66,4.84-.66,4.84h-1.22s.22-1.65.22-1.65c-.09.03-.19.05-.29.06Z"/><path class="cls-1" d="M44.48,88.19c-.14,0-.27,0-.41,0h-.71s.15-1.12.15-1.12h.66c.29,0,.59-.02.88-.06l.26-1.91h1.24s-.22,1.6-.22,1.6c.7-.25,1.38-.64,2.04-1.17l.66.84c-.45.38-.91.69-1.39.94-.48.25-.97.44-1.47.59l-.05.33c-.02.18,0,.31.06.37.06.06.18.09.35.09h2.16s-.15,1.1-.15,1.1h-2.68c-.2,0-.38-.02-.52-.06-.15-.04-.26-.1-.35-.19-.09-.09-.14-.21-.17-.37-.03-.16-.03-.35,0-.58l.06-.46c-.14.01-.28.02-.42.03Z"/><polygon class="cls-1" points="45.17 89.85 45.07 90.56 48.63 90.56 48.47 91.74 44.91 91.74 44.67 93.51 43.41 93.51 43.65 91.74 40.09 91.74 40.25 90.56 43.81 90.56 43.91 89.85 45.17 89.85"/><path class="cls-1" d="M51.62,90.29l.96.68c-.17.19-.37.39-.58.61-.22.22-.45.43-.68.64-.24.21-.48.42-.72.61-.24.2-.48.37-.7.52l-.72-.96c.42-.28.84-.6,1.27-.96.43-.36.82-.74,1.18-1.14Z"/><path class="cls-1" d="M54.12,85.98h4.44s-.16,1.14-.16,1.14h-5.05c-.25.37-.5.71-.74,1.03-.24.32-.45.57-.62.76h1.73s.2-1.45.2-1.45h1.2s-.2,1.45-.2,1.45h2.8s-.15,1.12-.15,1.12h-2.8s-.26,1.9-.26,1.9c-.05.4-.21.73-.47,1-.26.27-.63.5-1.12.7l-.56-1.02c.28-.11.5-.23.67-.36.17-.13.27-.3.3-.5l.24-1.73h-2.27c-.22,0-.4-.05-.53-.13-.13-.09-.22-.2-.26-.33-.05-.13-.05-.27-.02-.41.03-.15.1-.28.2-.4.2-.24.4-.5.61-.77.21-.27.41-.56.62-.87h-1.54s.16-1.14.16-1.14h2.14c.12-.18.24-.37.35-.55.11-.18.23-.37.34-.55l1.2.39-.44.71Z"/><path class="cls-1" d="M57.59,91.82c.19.19.35.37.49.54l-1.05.92c-.16-.2-.33-.41-.51-.61-.18-.21-.36-.41-.53-.6-.18-.19-.35-.38-.52-.55-.17-.18-.32-.33-.46-.47l.93-.78c.15.13.32.28.51.45.19.17.38.35.58.54.19.19.38.38.57.57Z"/><path class="cls-1" d="M68.02,87.03h-3.67s-.23.51-.23.51h1.78c.37,0,.64.09.81.26.17.17.24.45.19.81l-.67,4.89h-1.24s.06-.42.06-.42h-4.14s-.06.42-.06.42h-1.23s.84-6.2.84-6.2h1.23s-.03.23-.03.23h1.11s.24-.51.24-.51h-3.37s.14-1.05.14-1.05h2.13s-.43-.59-.43-.59l1.09-.69.74,1.02-.41.26h1.63c.09-.1.19-.2.29-.31.1-.11.21-.22.31-.33.1-.11.19-.21.28-.31.08-.09.15-.17.2-.24l1.05.54c-.08.09-.18.19-.28.31-.1.11-.22.23-.33.34h2.1s-.14,1.05-.14,1.05ZM65.19,92.04l.07-.49h-4.14s-.07.49-.07.49h4.14M65.4,90.55l.06-.48h-4.14s-.06.48-.06.48h4.14M65.67,88.58h-4.14s-.06.48-.06.48h4.14s.06-.48.06-.48"/><path class="cls-1" d="M76.88,89.81l-.13.93h-.87s.41.64.41.64c-.2.13-.42.25-.66.38-.24.12-.48.25-.72.37.3.12.7.18,1.19.18h.48s-.14,1.06-.14,1.06h-.64c-.47,0-.88-.05-1.24-.15-.36-.1-.66-.26-.9-.47-.24-.21-.41-.47-.51-.79-.1-.31-.12-.68-.07-1.1l.02-.11h-1.24s-.22,1.6-.22,1.6l1.21-.41.16.99c-.28.08-.56.16-.85.26-.29.1-.58.2-.88.31-.1.04-.2.06-.29.06-.03,0-.05,0-.08,0-.11-.02-.2-.06-.28-.13-.08-.07-.14-.17-.17-.3-.03-.13-.04-.28-.02-.45l.26-1.93h-.46s.13-.93.13-.93h1.39s.07-.5.07-.5h-1.25s.13-.93.13-.93h1.25s.07-.53.07-.53h1.13s-.07.53-.07.53h1.32s.07-.53.07-.53h1.13s-.07.53-.07.53h1.29s-.13.93-.13.93h-1.29s-.07.5-.07.5h1.54ZM74.88,91.08c.2-.11.4-.22.6-.34h-1.26s0,.03,0,.03c-.03.23-.03.45.02.64.23-.11.44-.22.64-.33"/><polygon class="cls-1" points="72.9 89.81 72.97 89.31 74.29 89.31 74.22 89.81 72.9 89.81"/><path class="cls-1" d="M75.65,87.68h-5.08s-.42,3.05-.42,3.05c-.06.47-.15.87-.25,1.21-.1.34-.23.62-.4.84-.16.22-.37.38-.62.49-.25.1-.55.16-.9.16h-.26s.16-1.17.16-1.17h.28c.19,0,.35-.12.48-.36.13-.24.23-.65.31-1.23l.76-5.55h1.2s-.03.23-.03.23h5.07c.4,0,.69.08.87.23.18.15.24.38.2.68l-.22,1.66h-1.19s.03-.23.03-.23ZM70.76,86.27l-.06.48h5.08s.06-.48.06-.48h-5.08"/></g></svg>