<?xml version="1.0" encoding="UTF-8"?><svg id="_图层_2" xmlns="http://www.w3.org/2000/svg" viewBox="0 0 100.97 105.98"><defs><style>.cls-1{fill:#303030;}.cls-2{fill:#133e80;stroke:#303030;stroke-miterlimit:10;stroke-width:.66px;}.cls-3{fill:#f5f5f5;}</style></defs><g id="_图层_1-2"><path class="cls-3" d="M71.28,52.78c-1.35,0-3.91-.33-6.22-2.46-1.22,1.15-2.77,1.93-4.43,2.2-.66.11-1.3.16-1.91.16-3.19,0-6.01-1.45-7.72-3.99-1.73-2.56-2.02-5.78-.79-8.85.32-.8.76-1.54,1.3-2.21.66-.81,1.29-1.78,1.85-2.87l.06-.12c-.41-1.28-.6-2.6-.6-3.98v-7.63c0-4.11,1.75-6.72,3.21-8.18,1.36-1.36,3.71-2.97,7.36-3.19v-1.83c0-1.54.42-3.04,1.21-4.36,2.62-4.37,6.56-4.84,8.13-4.84s5.34.45,7.96,4.55h9.95c1.54,0,3.04.42,4.36,1.21,4.36,2.62,4.84,6.56,4.84,8.13,0,1.32-.35,4.66-3.56,7.25l-.05.04c.33,1.46,1.3,6.44-.03,10.5,1.43,2.33,2.61,4.71,3.52,7.06l.31.8.14.85c.67,4.04-.99,6.72-2.03,7.95-1.73,2.04-4.29,3.21-7.03,3.21-1.12,0-2.27-.19-3.42-.58l-1.68-.56c-1.46.97-3.21,1.51-4.97,1.51-1.18,0-2.92-.24-4.7-1.33h-.02s0,.01,0,.01c-2.01,1.33-4.01,1.53-5.04,1.53Z"/><path class="cls-1" d="M72.75,1.27c1.46,0,5.14.44,7.59,4.53v.02h.02c.17.38.52,1.24.54,2.19h.34c-.03-.92-.32-1.74-.51-2.19h9.91c1.42,0,2.81.39,4.03,1.12,4.09,2.46,4.53,6.13,4.53,7.59,0,1.31-.35,4.36-3.32,6.75-.07-.73-.36-2.5-1.48-4.29-2.38-3.83-6.61-4.63-9.74-4.63v.34c4.42,0,7.59,1.5,9.44,4.45,1.21,1.94,1.42,3.91,1.46,4.37-.01.01-.03.02-.04.03,0,0,1.65,6.2-.01,10.83,1.48,2.38,2.69,4.8,3.62,7.21l.29.74.13.79c.63,3.79-.92,6.29-1.89,7.44-1.61,1.9-4,2.99-6.55,2.99-1.05,0-2.13-.18-3.22-.54l-1.63-.54c1.03-1.08,5.23-6.04,2.85-12.72.91-.29,1.66-.75,2.2-1.37l-.26-.23c-1.22,1.41-3.32,1.6-4.4,1.6-.41,0-.68-.03-.69-.03l-.04.34s.31.03.75.03c.34,0,.77-.02,1.25-.09.3-.04.59-.1.86-.17,2.48,6.94-2.34,11.97-2.92,12.54-1.53,1.09-3.27,1.54-4.82,1.54-1.13,0-2.92-.24-4.72-1.46,0,0-.01,0-.02.02-.62-.45-1.86-1.59-1.86-3.57h-.34c0,2.03,1.22,3.25,1.91,3.78-1.88,1.26-3.77,1.45-4.73,1.45-1.17,0-3.75-.28-5.99-2.48.49-.51,2.2-2.5,1.98-5.01l-.34.03c.24,2.69-1.97,4.83-2,4.86h0c-1.17,1.25-2.72,2.07-4.4,2.35-.62.1-1.22.15-1.8.15-2.98,0-5.6-1.35-7.2-3.71-1.61-2.38-1.87-5.39-.72-8.26.3-.74.7-1.43,1.21-2.04.7-.85,1.34-1.85,1.93-2.98.22.37.58.92,1.15,1.49.92.91,2.56,2.04,5.14,2.22l.02-.34c-4.2-.29-5.85-3.17-6.18-3.83-.36-1.09-.61-2.39-.61-3.92v-7.63c0-3.89,1.64-6.35,3.02-7.74,1.36-1.36,3.76-2.97,7.54-3.03v-2.44c0-1.42.39-2.81,1.12-4.03,2.46-4.09,6.13-4.53,7.59-4.53M75.51,24.99c-1.82,0-3.27-.49-3.77-.69-.07-.72-.3-1.2-.32-1.24l-.31.15s.25.54.3,1.3v.02s0,0,0,0c.02.46-.03,1-.25,1.56l.32.13c.22-.55.29-1.09.28-1.55.63.23,2.03.66,3.76.66,1.08,0,2.29-.17,3.52-.65,0,.46.06.99.28,1.55l.32-.13c-.22-.56-.27-1.1-.25-1.57,0,0,0,0,0,0h0c.04-.78.29-1.32.3-1.32l-.31-.15s-.24.52-.32,1.24c-1.24.52-2.46.69-3.55.69M72.75,0c-1.68,0-5.89.5-8.68,5.14-.85,1.41-1.3,3.03-1.3,4.68v1.25c-3.5.36-5.81,1.96-7.17,3.33-1.55,1.55-3.4,4.31-3.4,8.63v7.63c0,1.38.18,2.69.55,3.92-.53,1.01-1.11,1.9-1.72,2.65-.58.71-1.06,1.51-1.4,2.37-1.31,3.26-1,6.7.85,9.44,1.83,2.71,4.84,4.27,8.24,4.27.65,0,1.32-.06,2.01-.17,1.59-.26,3.09-.96,4.32-1.98,2.35,1.94,4.86,2.25,6.22,2.25,1.03,0,2.98-.19,4.99-1.39l.04.03.08-.06c1.78.98,3.48,1.2,4.66,1.2,1.78,0,3.55-.51,5.06-1.44l1.39.46c1.22.4,2.43.61,3.62.61,2.92,0,5.66-1.25,7.51-3.44,1.12-1.32,2.89-4.17,2.18-8.47l-.13-.79-.02-.13-.05-.12-.29-.74c-.89-2.31-2.04-4.63-3.42-6.92,1.15-3.84.42-8.35.04-10.17,3.19-2.72,3.54-6.16,3.54-7.53,0-1.68-.5-5.89-5.14-8.68-1.41-.85-3.03-1.3-4.68-1.3h-9.61c-2.79-4.09-6.69-4.55-8.3-4.55h0Z"/><path class="cls-3" d="M18.56,52.78c-2.97,0-5.75-1.45-7.65-3.97-1.09-1.46-1.69-3.26-1.69-5.08v-1.28c-1.76-.52-3.28-1.53-4.43-2.94-1.04-1.27-2.67-4-1.86-8.02.36-1.77,1.25-3.36,2.59-4.58,1.17-1.07,2.25-2.19,3.22-3.34l-1.28-.77c-4.37-2.62-4.85-6.56-4.85-8.14s.47-5.52,4.85-8.14c1.32-.79,2.82-1.2,4.35-1.2h1.49l.55-.73c1.89-2.52,4.68-3.97,7.65-3.97,2.24,0,4.42.84,6.16,2.37,1.75-1.53,3.93-2.37,6.16-2.37,2.97,0,5.75,1.45,7.65,3.97l.51.68c.73-.1,1.43-.14,2.1-.14,2.78,0,4.98.83,6.56,2.46,1.95,2.02,2.57,4.99,2.5,7.09-.1,2.92-1.39,5.53-3.64,7.37l-.08.06c.18,1.23.43,4.09-.73,5.49,8.43,8.88,4.28,17.63.85,21.06-2.27,2.27-5.26,3.52-8.41,3.52-.16,0-.32,0-.48,0h-6.86c-.26.02-.54.02-.83.02-3.54,0-5.96-1.3-7.47-2.55-1.86,2.01-4.32,3.12-6.93,3.12Z"/><path class="cls-1" d="M33.83,1.27c2.77,0,5.37,1.35,7.14,3.72l.74.98c.86-.13,1.65-.19,2.38-.19,7.56,0,8.51,6.44,8.43,8.9-.09,2.64-1.25,5.14-3.41,6.9-1-1.96-2.43-3.17-4.24-3.59-.49-.11-.98-.16-1.48-.16-1.88,0-3.76.7-5.13,1.38-1.5.74-2.63,1.54-3.04,1.85-1.21-1.23-3.04-1.25-3.12-1.25v.47s1.77.02,2.84,1.16c.62.67.89,1.6.81,2.77l.47.03c.08-1.14-.15-2.09-.69-2.83.83-.61,4.44-3.11,7.86-3.11.47,0,.93.05,1.38.15,1.71.39,3.05,1.56,4,3.48.09.51.61,3.99-.58,5.34-.37-.15-1.29-.5-2.46-.7-.54-.09-1.07-.14-1.57-.14-1.35,0-2.55.33-3.51.97-2.19,1.45-3.25,4.46-3.16,8.93-.68.07-.97.36-.99.38l.33.33s.29-.26,1-.26c.33,0,.75.05,1.27.21l.14-.45c-.5-.15-.92-.22-1.27-.23-.09-4.3.9-7.17,2.95-8.53,1.02-.68,2.2-.89,3.26-.89.54,0,1.04.05,1.48.13.98.16,1.79.44,2.21.61,9.39,9.44,3.6,18.27,1.27,20.6-2.12,2.12-4.92,3.34-7.96,3.34-.15,0-.3,0-.45,0h-6.89c-.28.02-.56.02-.83.02-3.7,0-6.11-1.48-7.53-2.81,0,0,0,0,0,0-.56-.51-4.48-4.35-3.86-10.91h-.06c1.46-1.57,1.49-2.86,1.49-2.94h-.47s-.05,2.47-4.16,4.69l.22.41c1.06-.57,1.86-1.16,2.48-1.73-.41,6.5,3.48,10.31,4.05,10.83-1.74,1.93-4.09,3.02-6.57,3.02-2.77,0-5.37-1.35-7.14-3.72-1.02-1.36-1.57-3.01-1.57-4.7v-1.76c-1.8-.43-3.4-1.42-4.58-2.86-.97-1.18-2.48-3.73-1.73-7.49.33-1.63,1.17-3.11,2.4-4.23h0c1.37-1.25,2.61-2.56,3.71-3.92.96-1.08,3.89-4.01,7.26-4.01.09,0,.18,0,.27,0,2.58.12,3.96,1.24,4.66,2.16.83,1.08,1.19,2.53.94,3.71l.46.1c.23-1.04.08-2.66-1.02-4.1-.77-1-2.26-2.21-5.01-2.34-.1,0-.19,0-.29,0-1.77,0-3.68.77-5.54,2.22-.97.76-1.7,1.52-2.09,1.97l-1.5-.9c-4.1-2.46-4.54-6.13-4.54-7.6s.44-5.14,4.54-7.6c1.22-.73,2.61-1.11,4.03-1.11h1.81l.74-.98c1.77-2.36,4.38-3.72,7.14-3.72,2.19,0,4.27.85,5.93,2.37v1.85h-.02c-1.17,0-1.88.22-1.93.24l.14.45s.68-.21,1.79-.21c.64,0,1.42.07,2.3.28l.11-.46c-.71-.17-1.36-.26-1.93-.29v-1.87c1.65-1.52,3.74-2.37,5.93-2.37M33.83,0c-2.22,0-4.38.77-6.16,2.18-1.79-1.41-3.95-2.18-6.16-2.18-3.17,0-6.14,1.54-8.15,4.22l-.36.47h-1.18c-1.65,0-3.26.45-4.68,1.29C2.48,8.78,1.98,12.99,1.98,14.67s.5,5.89,5.15,8.68l.63.38c-.83.93-1.72,1.84-2.68,2.71-1.44,1.31-2.4,3.01-2.78,4.92-.86,4.27.88,7.19,1.99,8.54,1.13,1.38,2.6,2.41,4.29,3v.82c0,1.96.65,3.9,1.82,5.46,2.01,2.68,4.99,4.22,8.15,4.22,2.61,0,5.06-1.02,6.99-2.9,1.61,1.2,4.03,2.34,7.42,2.34.28,0,.57,0,.86-.02h6.85c.12,0,.29,0,.45,0,3.32,0,6.47-1.32,8.86-3.71,3.54-3.54,7.81-12.47-.49-21.57.86-1.5.77-3.76.6-5.17,2.27-1.94,3.58-4.66,3.68-7.67.04-1.09-.05-4.84-2.68-7.56-1.7-1.76-4.06-2.65-7.02-2.65-.58,0-1.19.04-1.81.1l-.29-.39c-2.01-2.68-4.99-4.22-8.15-4.22h0Z"/><path class="cls-3" d="M69.45,105.15c-4.5,0-6.83-1.84-7.6-2.6l-1.13.38c-1.17.39-2.33.58-3.45.58-2.76,0-5.35-1.18-7.1-3.25-1.06-1.25-2.73-3.96-2.04-8.04.16-.96.48-1.88.96-2.73,1.49-2.68,2.43-5.42,2.87-8.38l.16-1.1c-.38-1.25-.56-2.52-.56-3.86v-11.26c0-4.15,1.76-6.78,3.24-8.26,1.48-1.48,4.11-3.24,8.26-3.24h21.93c4.54,0,7.27,1.97,8.76,3.62,1.95,2.16,2.93,5.08,2.74,8.22v10.63c.12,1.9-.16,3.69-.83,5.31l.05.1c1.45,2.86,2.81,5.86,4.02,8.89.41,1.01.61,2.08.61,3.17,0,6.31-4.74,9.72-9.2,9.72-.94,0-1.89-.14-2.82-.43-.44.82-1.65,2.52-4.25,2.52h-14.62Z"/><path class="cls-1" d="M84.98,54.03c4.3,0,6.89,1.85,8.29,3.41,1.85,2.04,2.75,4.78,2.57,7.76v10.67c.13,2.19-.28,3.95-.9,5.33-.48.74-1.88,2.19-5.54,2.19-.09,0-.19,0-.29,0v.35c.09,0,.19,0,.28,0,3.6,0,5.12-1.33,5.73-2.17,1.44,2.84,2.78,5.8,4,8.84.37.93.57,1.93.57,2.94h0c0,5.9-4.41,9.09-8.56,9.09-.96,0-1.92-.16-2.86-.48.97-3.02,2.91-10.33.46-14.26-.87-1.4-2.23-2.25-4.03-2.51-.78-.11-1.52-.17-2.22-.17-2.26,0-4.04.6-5.33,1.78-2.31,2.12-2.13,5.34-2.13,5.47l.35-.02s-.17-3.19,2.02-5.2c1.22-1.12,2.93-1.68,5.09-1.68.68,0,1.4.06,2.17.17,1.69.24,2.97,1.03,3.78,2.34,2.38,3.82.43,11.08-.52,14.02-.06.17-.06.2-.07.23-.31.68-1.32,2.39-3.79,2.39h-14.63c-4.57,0-6.74-1.97-7.27-2.54-1.66-2.24-2.23-7.72-2.23-7.77l-.35.03c.02.22.54,5.25,2.12,7.69l-1.2.4c-1.1.37-2.19.55-3.25.55-2.58,0-4.99-1.1-6.61-3.02-.99-1.17-2.54-3.69-1.9-7.52.15-.89.45-1.74.88-2.53,1.53-2.75,2.49-5.56,2.95-8.59l.1-.69c.35.55.96,1.24,2.04,1.9,1.12.68,2.51,1.2,4.16,1.55-.17.44-.44,1.64-.07,4.34l.47-.06c-.4-2.91-.02-3.97.08-4.19,1.63.31,3.51.46,5.62.46,1.25,0,2.57-.05,3.98-.16l-.03-.35c-1.41.11-2.7.16-3.88.16-5.48,0-8.5-1.05-10.12-2.03-1.41-.85-1.99-1.77-2.22-2.29-.32-1.05-.53-2.27-.53-3.7v-11.26c0-3.93,1.66-6.42,3.05-7.81,1.39-1.39,3.88-3.06,7.81-3.06h21.93M75,67.67c-1.61-.07-2.84-.49-2.86-.5l-.12.33c.08.03,1.33.46,2.97.53-.07,1.66-.53,2.94-.54,2.96l.33.12c.03-.08.5-1.38.57-3.07.02,0,.03,0,.05,0,.92,0,1.93-.13,2.91-.5l-.12-.33c-.93.35-1.89.47-2.77.47-.02,0-.04,0-.06,0,0-.9-.11-1.89-.47-2.86l-.33.12c.34.92.44,1.86.44,2.73M84.98,52.76h-21.93c-4.37,0-7.15,1.86-8.71,3.43-1.56,1.56-3.42,4.34-3.42,8.7v11.26c0,1.37.18,2.69.54,3.91l-.04.26-.1.69c-.43,2.88-1.35,5.55-2.8,8.17-.51.91-.85,1.9-1.03,2.93-.73,4.33,1.06,7.21,2.18,8.55,1.87,2.21,4.63,3.47,7.58,3.47,1.19,0,2.42-.21,3.65-.61l.78-.26c1.05.92,3.49,2.52,7.76,2.52h14.63c2.52,0,3.9-1.42,4.55-2.41.83.21,1.68.32,2.52.32,4.76,0,9.83-3.63,9.83-10.35,0-1.17-.22-2.32-.66-3.41-1.2-3-2.53-5.95-3.97-8.79.62-1.62.88-3.4.77-5.31v-10.6c.19-3.3-.84-6.37-2.9-8.64-1.58-1.74-4.46-3.82-9.23-3.82h0Z"/><path class="cls-3" d="M34.09,105.35c-.31,0-.63-.01-.94-.03h-8.19c-.21.01-.44.02-.67.02-3.73,0-7.1-1.35-9.5-3.82-1.49.74-3.04,1.12-4.6,1.12-2.67,0-5.23-1.14-7.01-3.12-1.2-1.34-2-2.96-2.37-4.83-.26-1.31-.22-2.69.13-3.98,2.39-8.82,3.51-16.73,3.33-23.51-.06-2.38.87-4.7,2.54-6.38,2.55-2.55,5.27-3.09,7.11-3.09h.21c1.76-1.56,3.96-2.44,6.22-2.49l.75-.36c2.04-.99,4.01-1.49,5.87-1.49,4.73,0,7.4,3.15,8.25,4.37h.03s.01,0,.01,0c.93-.3,1.9-.45,2.88-.45,1.49,0,3.75.36,6.04,2.08,1.47,1.1,2.53,2.6,3.08,4.35,2.56,8.11,4.51,17.17,5.78,26.9.19,1.48,0,2.99-.55,4.37-1.56,3.89-4.98,6.3-8.94,6.3-.12,0-.24,0-.36,0-.08.09-.16.18-.24.26-2.3,2.43-5.45,3.78-8.87,3.78h0Z"/><path class="cls-1" d="M26.97,54.03c5.44,0,8.01,4.51,8.01,4.51.01,0,.02,0,.04-.01.62,1.1.77,2.21.97,4.07l.35-.04c-.21-1.88-.36-3.02-.99-4.15.88-.3,1.83-.45,2.8-.45,1.39,0,3.51.34,5.66,1.95,1.35,1.01,2.35,2.42,2.86,4.03h0c2.55,8.08,4.49,17.09,5.75,26.8.18,1.37,0,2.77-.51,4.05-1.46,3.64-4.66,5.9-8.35,5.9-.13,0-.27,0-.42-.01.42-.56,2.26-3.36,1.69-8.43-.33-2.91-2.41-5.72-5.15-7.04.16-.12.34-.31.5-.61.45-.85.73-2.62-.51-6.26l-.34.11c1.19,3.5.95,5.17.54,5.96-.21.42-.47.57-.58.62-.07-.03-.14-.06-.21-.09-.96-.38-1.94-.56-2.92-.56-1.98,0-3.95.76-5.77,2.24-.02-.95-.13-1.5-.13-1.54l-.35.07s.29,1.44,0,3.73l.35.04c.09-.7.13-1.32.13-1.85,1.81-1.55,3.79-2.34,5.77-2.34.94,0,1.87.18,2.79.54,2.91,1.14,5.18,4.03,5.52,7.01.61,5.42-1.66,8.23-1.69,8.26l.14.11c-.14.16-.28.32-.43.48-2.18,2.31-5.17,3.58-8.41,3.58-.3,0-.6-.01-.9-.03h-8.23c-.23,0-.45.01-.67.01-3.67,0-6.9-1.34-9.2-3.78-.52-.8-2.57-4.39-1.58-9.64l-.35-.07c-.93,4.95.79,8.49,1.49,9.66-1.45.75-2.94,1.12-4.46,1.12-2.49,0-4.88-1.06-6.54-2.91-1.12-1.25-1.87-2.77-2.22-4.53-.24-1.22-.2-2.48.12-3.69h0c2.4-8.88,3.53-16.85,3.35-23.69h0c-.06-2.21.8-4.35,2.36-5.92,2.4-2.4,4.95-2.9,6.66-2.9,0,0,.01,0,.02,0-.58.8-1.59,2.91-1.33,7.66l.37-.02c-.34-6.17,1.54-7.75,1.56-7.77h0c1.69-1.52,3.79-2.36,6-2.36h.02s.07-.04.1-.05c.1,0,.25-.02.43-.02.85,0,2.47.19,3.96,1.42,2.15,1.78,3.3,5.02,3.41,9.63h.36c-.12-4.74-1.31-8.07-3.55-9.91-1.43-1.18-2.94-1.46-3.89-1.5,2.12-1.03,3.98-1.42,5.59-1.42M12.93,83.77l.35-.05c-.31-2.27-.21-9.05-.21-9.12h-.36c0,.27-.1,6.87.21,9.17M26.97,52.76h0c-1.95,0-4.02.52-6.14,1.55l-.63.31c-2.3.08-4.51.95-6.31,2.48-1.97,0-4.85.59-7.53,3.27-1.8,1.8-2.8,4.3-2.73,6.85.18,6.72-.94,14.57-3.31,23.33-.38,1.38-.42,2.86-.14,4.27.4,1.98,1.24,3.71,2.52,5.13,1.9,2.11,4.63,3.33,7.48,3.33,1.52,0,3.02-.33,4.47-.99,2.5,2.38,5.89,3.69,9.63,3.69.23,0,.46,0,.7-.01h8.16c.32.02.63.03.94.03,3.59,0,6.91-1.41,9.33-3.97.02-.02.04-.04.05-.06.03,0,.06,0,.09,0,4.22,0,7.87-2.57,9.52-6.7.59-1.48.8-3.1.59-4.68-1.28-9.78-3.23-18.86-5.8-27.01-.59-1.87-1.74-3.49-3.31-4.66-2.43-1.82-4.83-2.2-6.42-2.2-.87,0-1.72.11-2.54.32l-.03-.05-.13.05c-1.15-1.48-3.92-4.25-8.48-4.25h0Z"/><rect class="cls-2" x="30.07" y="50.79" width="42.51" height="11.52" transform="translate(-6.53 6.71) rotate(-7.03)"/><path class="cls-3" d="M40.39,55.75c-.06.09-.18.2-.38.27l.4,3.26c0,.08-.59.37-.99.42l-.21.03-.1-.83-2.23.27.43,3.47c.02.13-.48.49-.96.55l-.23.03-.48-3.9-2.21.27.07.58c.01.12-.5.46-1,.53l-.18.02-.58-4.72,1.38.35,2.12-.26-.27-2.17,1.62-.05c0,.14-.07.26-.33.33l.21,1.73,2.14-.26.48-.68,1.29.75ZM35.6,59.04l-.33-2.65-2.21.27.33,2.65,2.21-.27ZM39.07,58.61l-.33-2.65-2.23.27.33,2.65,2.23-.27Z"/><path class="cls-3" d="M55.13,52.4c-.06.09-.19.18-.39.26l.95,7.71c0,.1-.5.44-.92.5l-.19.02-.09-.75-5.97.74.05.37c.02.15-.4.49-.89.55l-.2.02-1.13-9.13,1.3.36,5.77-.71.49-.69,1.22.76ZM54.45,59.85l-.89-7.23-5.97.74.89,7.23,5.97-.74ZM51.98,56.7c1.56.13,1.63,1.01,1.24,1.29.21.14.64.41.95.64-.02.11-.11.17-.25.19l-5.19.64-.11-.27,2.08-.26-.28-2.24-1.5.18-.11-.28,1.58-.19-.23-1.84-1.88.23-.11-.26,3.72-.46.45-.77s.67.41,1.08.69c-.02.11-.11.17-.25.19l-1.94.24.23,1.84.54-.07.42-.75s.64.4,1.02.7c0,.11-.1.17-.24.19l-1.7.21.28,2.24.87-.11.36-.62c-.12.01-.26,0-.4-.1-.09-.43-.4-.92-.69-1.2l.09-.07Z"/><path class="cls-3" d="M69.44,55.38s.84.49,1.37.84c-.02.11-.12.18-.27.19l-3.08.38.27,2.18c0,.08-.33.38-.98.46l-.24.03-.31-2.52-4.59.57-.11-.28,1.68-.21-.39-3.2,1.43.35,1.62-.2-.24-1.95-1.83.23c-.67,1.16-1.5,2.08-2.46,2.77l-.11-.08c.76-1.1,1.53-2.87,1.87-4.63l1.71.42c-.03.13-.16.22-.39.23-.14.34-.29.67-.46.98l4.1-.51.58-.94s.82.46,1.37.82c-.02.11-.12.18-.27.19l-2.85.35.24,1.95.99-.12.55-.88s.8.45,1.28.78c-.02.11-.12.18-.27.19l-2.52.31.3,2.41,1.43-.18.59-.95ZM66.17,56.66l-.3-2.41-1.74.22.3,2.41,1.74-.22Z"/></g></svg>