<?xml version="1.0" encoding="UTF-8"?><svg id="_图层_2" xmlns="http://www.w3.org/2000/svg" viewBox="0 0 265.94 72.41"><defs><style>.cls-1{fill:#f5f5f5;}</style></defs><g id="_图层_1-2"><path class="cls-1" d="M49.94,35.74h-19.63c.8-1.02,1.57-2.05,2.3-3.08h13.35c.92,0,1.66-.74,1.66-1.66s-.74-1.66-1.66-1.66h-11.1s0,0,0,0c.61-.95,1.18-1.89,1.72-2.83,0,0,0,0,0,0h13.57c.92,0,1.66-.74,1.66-1.66s-.74-1.66-1.66-1.66h-11.81c.31-.63.59-1.25.86-1.86.36-.84-.02-1.82-.87-2.18-.84-.36-1.82.02-2.18.87-.45,1.03-.96,2.09-1.53,3.18h-12.51c-.92,0-1.66.74-1.66,1.66s.74,1.66,1.66,1.66h10.61s0,0,0,0c-.57.94-1.19,1.88-1.83,2.83,0,0,0,0,0,0h-6.11c-.92,0-1.66.74-1.66,1.66s.74,1.66,1.66,1.66h3.73c-.78,1.03-1.6,2.06-2.45,3.08h-10.77c-2.58,0-5.08,1.33-6.7,3.55-1.49,2.05-1.95,4.47-1.25,6.63.63,1.97,2.15,3.41,4.16,3.97.61.17,1.23.25,1.86.25,1.88,0,3.78-.73,5.35-2.1,3.1-2.7,6.11-5.77,8.87-8.98h13.02c1.57,3.61,4.07,6.91,7.62,10.07.32.28.71.42,1.1.42.46,0,.91-.19,1.24-.56.61-.69.55-1.73-.14-2.34-2.73-2.43-4.76-4.93-6.15-7.59h5.66c.92,0,1.66-.74,1.66-1.66s-.74-1.66-1.66-1.66ZM16.53,45.54c-1.24,1.08-2.82,1.52-4.14,1.15-.66-.18-1.52-.64-1.89-1.79-.37-1.14-.09-2.48.77-3.66.98-1.35,2.52-2.19,4.02-2.19h7.87c-2.11,2.3-4.34,4.49-6.63,6.48Z"/><path class="cls-1" d="M32.82,42.62c-5.09,0-9.77,3.98-10.67,9.05l-.17.94s0,.04-.01.06c0,.02,0,.04,0,.06,0,0,0,.02,0,.02l-.26,1.49c-.45,2.57.15,4.99,1.69,6.83,1.52,1.8,3.74,2.8,6.27,2.8,5.09,0,9.77-3.98,10.67-9.05l.27-1.5s0-.01,0-.02c0-.04.01-.08.02-.12,0,0,0,0,0,0l.16-.91c.45-2.57-.15-4.99-1.69-6.83-1.52-1.8-3.74-2.8-6.27-2.8ZM32.82,45.94c1.53,0,2.85.57,3.73,1.62.83.99,1.18,2.3,1.02,3.74h0s-11.91,0-11.91,0h0c1-2.99,4.07-5.36,7.16-5.36ZM34.41,58.67c-1.35,1.15-3.05,1.87-4.75,1.87-1.53,0-2.85-.57-3.73-1.62-.9-1.07-1.24-2.53-.96-4.12l.04-.2h11.98c-.38,1.56-1.32,2.99-2.57,4.06Z"/><path class="cls-1" d="M91.41,62.43c.36-.84-.03-1.82-.88-2.18-1.37-.58-3.01-1.96-4.91-3.56-2.78-2.33-6.2-5.21-10.54-7,1.74-3.04,3.04-6.28,3.75-9.38h14.59c.92,0,1.66-.74,1.66-1.66s-.74-1.66-1.66-1.66h-13.97s1.85-10.48,1.85-10.48h0s11.66,0,11.66,0c.92,0,1.66-.74,1.66-1.66s-.74-1.66-1.66-1.66h-26.1c-.92,0-1.66.74-1.66,1.66s.74,1.66,1.66,1.66h11.07,0s-1.85,10.48-1.85,10.48h0s-14.56,0-14.56,0c-.92,0-1.66.74-1.66,1.66s.74,1.66,1.66,1.66h13.9c-.71,2.77-1.94,5.63-3.55,8.32-1.62-.41-3.35-.64-5.21-.65-4.28-.08-9.1,2.17-11.73,5.46-1.51,1.9-2.09,3.97-1.63,5.84.32,1.28,1.12,2.36,2.25,3.03,1.32.78,3.03.99,4.69.55,4.17-1.09,8.47-4.31,12.11-9.07.31-.41.62-.83.91-1.25,4.11,1.56,7.4,4.32,10.22,6.69,2.1,1.77,3.92,3.3,5.75,4.07.21.09.43.13.65.13.65,0,1.26-.38,1.53-1.01ZM69.72,51.78c-3.14,4.11-6.91,6.98-10.32,7.87-.81.21-1.6.14-2.16-.19-.38-.22-.62-.55-.73-.97-.28-1.14.51-2.35,1-2.97,1.93-2.42,5.74-4.21,8.92-4.21h.19c1.13,0,2.21.11,3.23.29-.05.06-.09.12-.14.19Z"/><path class="cls-1" d="M103.57,27.96h6.55l-.57,3.23c-.16.9.44,1.76,1.35,1.92.1.02.19.03.29.03.79,0,1.49-.57,1.63-1.37l.67-3.81h1.98c.92,0,1.66-.74,1.66-1.66s-.74-1.66-1.66-1.66h-1.4l.56-3.16c.16-.9-.44-1.76-1.35-1.92-.9-.16-1.76.44-1.92,1.35l-.66,3.74h-7.14c-.92,0-1.66.74-1.66,1.66s.74,1.66,1.66,1.66Z"/><path class="cls-1" d="M120.92,27.96h1.5l-.57,3.23c-.16.9.44,1.76,1.35,1.92.1.02.19.03.29.03.79,0,1.49-.57,1.63-1.37l.67-3.81h7.04c.92,0,1.66-.74,1.66-1.66s-.74-1.66-1.66-1.66h-6.45l.56-3.16c.16-.9-.44-1.76-1.35-1.92-.9-.16-1.76.44-1.92,1.35l-.66,3.74h-2.08c-.92,0-1.66.74-1.66,1.66s.74,1.66,1.66,1.66Z"/><path class="cls-1" d="M99.19,49.49c.3,0,.6-.08.87-.25,1.55-.95,2.97-1.96,4.28-3.03l-3,17.03c-.16.9.44,1.76,1.35,1.92.1.02.19.03.29.03.79,0,1.49-.57,1.63-1.37l3.8-21.57c1.45-1.69,2.68-3.52,3.7-5.49.42-.81.11-1.82-.71-2.24-.81-.42-1.82-.11-2.24.71-2.32,4.48-5.87,8.13-10.84,11.18-.78.48-1.03,1.5-.55,2.28.31.51.86.79,1.42.79Z"/><path class="cls-1" d="M129.71,58.19l.8-4.55c.16-.9-.44-1.76-1.35-1.92-.9-.16-1.76.44-1.92,1.35l-.8,4.55c-.41,2.31-2.69,4.26-4.98,4.26-.99,0-1.84-.36-2.39-1.02-.57-.68-.79-1.63-.61-2.66l1.66-9.43c2.06-1.45,4.03-3.03,5.91-4.72.72-.65,1.33-1.33,1.81-2.02.71-1.02,1.15-2.01,1.32-2.95.22-1.27-.06-2.46-.81-3.36-.8-.95-2.07-1.49-3.49-1.49-.99,0-2.01.26-2.95.75-1.84.96-3.22,2.85-3.58,4.93l-1.22,6.91c-2.03,1.37-4.14,2.61-6.33,3.72-.82.41-1.14,1.41-.73,2.23.41.82,1.41,1.14,2.23.73,1.37-.7,2.72-1.45,4.04-2.25l-1.12,6.36c-.35,2.01.12,3.92,1.34,5.36,1.19,1.43,2.95,2.21,4.94,2.21,3.94,0,7.56-3.07,8.25-7ZM121.58,40.48c.19-1.07.91-2.08,1.85-2.57.46-.24.95-.37,1.41-.37.43,0,.79.12.95.31.11.13.14.35.09.65-.06.32-.24.86-.77,1.63-.34.49-.78.97-1.31,1.45-.92.83-1.87,1.63-2.84,2.41l.62-3.5Z"/><path class="cls-1" d="M144.02,27.96h6.55l-.57,3.23c-.16.9.44,1.76,1.35,1.92.1.02.19.03.29.03.79,0,1.49-.57,1.63-1.37l.67-3.81h1.98c.92,0,1.66-.74,1.66-1.66s-.74-1.66-1.66-1.66h-1.4l.56-3.16c.16-.9-.44-1.76-1.35-1.92-.9-.16-1.76.44-1.92,1.35l-.66,3.74h-7.14c-.92,0-1.66.74-1.66,1.66s.74,1.66,1.66,1.66Z"/><path class="cls-1" d="M173.28,24.64h-6.45l.56-3.16c.16-.9-.44-1.76-1.35-1.92-.9-.16-1.76.44-1.92,1.35l-.66,3.74h-2.08c-.92,0-1.66.74-1.66,1.66s.74,1.66,1.66,1.66h1.5l-.57,3.23c-.16.9.44,1.76,1.35,1.92.1.02.19.03.29.03.79,0,1.49-.57,1.63-1.37l.67-3.81h7.04c.92,0,1.66-.74,1.66-1.66s-.74-1.66-1.66-1.66Z"/><path class="cls-1" d="M152.55,36.76c.42-.81.11-1.82-.71-2.24-.81-.42-1.82-.11-2.24.71-2.32,4.48-5.87,8.13-10.84,11.18-.78.48-1.03,1.5-.55,2.28.31.51.86.79,1.42.79.3,0,.6-.08.87-.25,1.55-.95,2.97-1.96,4.28-3.03l-3,17.03c-.16.9.44,1.76,1.35,1.92.1.02.19.03.29.03.79,0,1.49-.57,1.63-1.37l3.8-21.57c1.45-1.69,2.68-3.52,3.7-5.49Z"/><path class="cls-1" d="M169.61,51.71c-.9-.16-1.76.44-1.92,1.35l-.8,4.55c-.41,2.31-2.69,4.26-4.99,4.26-.99,0-1.84-.36-2.39-1.02-.57-.68-.79-1.63-.61-2.66l1.66-9.43c2.06-1.45,4.03-3.03,5.91-4.72.72-.65,1.33-1.32,1.81-2.02.71-1.02,1.15-2.01,1.32-2.95.22-1.27-.06-2.46-.81-3.36-.8-.95-2.07-1.49-3.49-1.49-.99,0-2.01.26-2.95.75-1.84.96-3.22,2.85-3.58,4.93l-1.22,6.91c-2.03,1.37-4.14,2.61-6.33,3.72-.82.41-1.14,1.41-.73,2.23.41.82,1.41,1.14,2.23.73,1.38-.7,2.72-1.45,4.04-2.25l-1.12,6.36c-.35,2.01.12,3.92,1.34,5.36,1.19,1.43,2.95,2.21,4.93,2.21,3.94,0,7.56-3.07,8.26-7l.8-4.55c.16-.9-.44-1.76-1.35-1.92ZM162.02,40.48c.19-1.07.91-2.08,1.85-2.57.46-.24.95-.37,1.41-.37.43,0,.79.12.95.31.11.13.14.35.09.65-.06.32-.23.86-.77,1.63-.34.49-.78.97-1.31,1.45-.92.83-1.87,1.63-2.84,2.41l.62-3.5Z"/><path class="cls-1" d="M216.18,40.8c-.27-.87-1.21-1.36-2.08-1.08-1.06.33-2.7.96-4.53,1.85l.45-2.55c.22-1.24-.09-2.47-.85-3.38-.75-.89-1.89-1.41-3.12-1.41h-6.52l1.04-5.87h14.04c.91,0,1.66-.74,1.66-1.66s-.74-1.66-1.66-1.66h-10.6c.21-.36.33-.78.33-1.23,0-.52-.16-1.02-.47-1.46.3-.43.46-.93.46-1.45,0-1.37-1.12-2.49-2.51-2.49-.07,0-.15,0-.23.01-.04-.07-.07-.14-.11-.21-.45-.79-1.27-1.26-2.17-1.26s-1.71.47-2.17,1.26c-.04.06-.07.13-.11.21-.08,0-.16-.01-.23-.01-.46,0-.89.12-1.26.33-.37.21-.69.52-.91.91-.45.78-.45,1.72,0,2.51.04.06.08.13.12.19-.3.43-.46.93-.46,1.45,0,.45.12.86.33,1.23h-11.01c-.92,0-1.66.74-1.66,1.66s.74,1.66,1.66,1.66h13.56l-1.04,5.87h-7.1c-2.37,0-4.55,1.85-4.97,4.21l-3.41,19.33c-.16.9.44,1.76,1.35,1.92.1.02.19.02.29.02.79,0,1.49-.57,1.63-1.37l3.41-19.33c.13-.77.95-1.46,1.7-1.46h6.52l-4.53,25.7c-.16.9.44,1.76,1.35,1.92.1.02.2.02.29.02.79,0,1.49-.57,1.63-1.37l4.63-26.27h7.1c.18,0,.42.04.57.22.13.16.17.39.13.67l-.91,5.17c-3.72,2.31-7.25,5.47-7.91,9.18-.34,1.95,0,3.71.95,4.84.64.76,1.52,1.18,2.49,1.18,4.72,0,6.62-7.92,7.22-11.33.1-.55.18-1.13.28-1.81,2.24-1.27,4.54-2.25,6.23-2.78.88-.27,1.36-1.21,1.08-2.08ZM199.33,18.41c.84,0,1.69,1.02.51,3.07.69-1.19,1.42-1.62,2-1.62,1.26,0,1.76,2.04-.64,2.43-.25.04-.53.06-.85.06.35,0,.66.03.93.08,2.31.42,1.8,2.41.56,2.41-.19,0-.4-.05-.62-.16-.44-.21-.92-.66-1.38-1.46.42.73.59,1.33.58,1.8,0,.84-.55,1.27-1.09,1.27s-1.08-.42-1.09-1.27c0-.47.16-1.07.58-1.8-.31.53-.62.91-.93,1.16-.38.32-.75.45-1.07.45-1.39,0-1.86-2.49,1.49-2.49-3.35,0-2.88-2.49-1.49-2.49.57,0,1.31.42,2,1.62-1.18-2.05-.34-3.07.51-3.07ZM201.41,55.48c-.15-.18-.43-.91-.21-2.12.32-1.8,1.85-3.59,3.87-5.19-.95,4.36-2.57,7.22-3.65,7.31Z"/><path class="cls-1" d="M223.31,33.95c.37,0,.74-.12,1.05-.37.79-.64,1.55-1.3,2.28-1.96l-2.06,11.68c-.16.9.44,1.76,1.35,1.92.1.02.19.03.29.03.79,0,1.49-.57,1.63-1.37l2.91-16.48c1.45-1.69,2.71-3.44,3.77-5.22.47-.79.21-1.81-.58-2.28-.79-.47-1.81-.21-2.28.58-2.21,3.71-5.37,7.25-9.41,10.53-.71.58-.82,1.62-.24,2.33.33.4.81.61,1.29.61Z"/><path class="cls-1" d="M255.44,23.73h-5.29c-.01-.5-.17-.96-.46-1.37.3-.43.46-.93.46-1.45,0-1.37-1.12-2.49-2.51-2.49-.07,0-.15,0-.23.01-.04-.07-.07-.14-.11-.21-.45-.79-1.27-1.26-2.17-1.26s-1.71.47-2.17,1.26c-.04.06-.07.13-.11.21-.08,0-.16-.01-.23-.01-.46,0-.89.12-1.26.33-.37.21-.69.52-.91.91-.45.78-.45,1.72,0,2.51.04.06.08.13.12.19-.28.41-.45.88-.46,1.37h-4.85c-.92,0-1.66.74-1.66,1.66s.74,1.66,1.66,1.66h7.95l-.38,2.13h-7.5c-.92,0-1.66.74-1.66,1.66s.74,1.66,1.66,1.66h6.91,0s-.38,2.13-.38,2.13h0s-7.5,0-7.5,0c-.92,0-1.66.74-1.66,1.66s.74,1.66,1.66,1.66h6.91l-.44,2.49h-8.54c-.92,0-1.66.74-1.66,1.66s.74,1.66,1.66,1.66h9.93s0,0,0,0,0,0,0,0h10.21c.92,0,1.66-.74,1.66-1.66s-.74-1.66-1.66-1.66h-8.24l.44-2.49h7.78c.92,0,1.66-.74,1.66-1.66s-.74-1.66-1.66-1.66h-7.2,0s.38-2.13.38-2.13h0s7.78,0,7.78,0c.92,0,1.66-.74,1.66-1.66s-.74-1.66-1.66-1.66h-7.2l.33-1.87c.11-.08.22-.16.31-.26h8.56c.92,0,1.66-.74,1.66-1.66s-.74-1.66-1.66-1.66ZM242.65,19.86c.57,0,1.31.42,2,1.62-1.18-2.05-.34-3.07.51-3.07s1.69,1.02.51,3.07c.69-1.19,1.42-1.62,2-1.62,1.26,0,1.76,2.05-.64,2.43-.25.04-.53.06-.85.06.35,0,.66.03.93.07,1.11.2,1.57.76,1.61,1.3.05.58-.4,1.12-1.05,1.12-.19,0-.4-.05-.62-.16-.34-.16-.7-.47-1.06-.96-.11-.15-.21-.31-.32-.5.1.17.18.34.26.5.78,1.72.01,2.57-.76,2.57s-1.55-.86-.76-2.57c.07-.16.16-.32.26-.5-.11.18-.21.35-.32.5-.2.28-.41.5-.61.67-.38.32-.75.45-1.07.45-.65,0-1.1-.54-1.05-1.12.05-.66.75-1.37,2.54-1.37-3.35,0-2.88-2.49-1.49-2.49Z"/><path class="cls-1" d="M252.28,60.3c-5.64-.19-10.24-1.95-14.7-3.66-.1-.04-.19-.07-.29-.11l.96-5.43h13.84c.92,0,1.66-.74,1.66-1.66s-.74-1.66-1.66-1.66h-13.26l.24-1.37c.16-.9-.44-1.76-1.35-1.92-.9-.16-1.76.44-1.92,1.35l-.34,1.94h-14.15c-.92,0-1.66.74-1.66,1.66s.74,1.66,1.66,1.66h13.18s0,0,0,0c-.57,1.25-1.49,2.44-2.61,3.53-2.11-.62-4.21-1.03-6.4-1.03-5.68,0-9.74,3.04-10.23,5.85-.2,1.13.15,2.36.94,3.29.83.99,2.03,1.54,3.39,1.54,2.31,0,6.58-1.6,10.14-3.81.95-.59,1.98-1.29,2.98-2.1.28.1.57.2.85.3l-.7,3.94c-.16.9.44,1.76,1.35,1.92.1.02.19.03.29.03.79,0,1.49-.57,1.63-1.37l.59-3.33c4.41,1.69,9.41,3.54,15.46,3.75.92.03,1.68-.69,1.72-1.6.03-.92-.68-1.68-1.6-1.72ZM219.58,60.96c-.36,0-.65-.12-.84-.35-.19-.22-.23-.47-.21-.58.13-.75,2.48-3.11,6.96-3.11,1.05,0,2.08.11,3.12.31-3.46,2.29-7.34,3.73-9.03,3.73Z"/><path class="cls-1" d="M170.04,6.36c.37-.06.67-.36.63-.96-.06-.97-1.49-1.33-1.77-.29-.19.73.41,1.36,1.14,1.25Z"/><path class="cls-1" d="M139.47,12.46c.37-.06.67-.36.63-.96-.06-.97-1.49-1.33-1.77-.29-.19.73.41,1.36,1.14,1.25Z"/><path class="cls-1" d="M257.84,35.61c.37-.02.7-.29.72-.9.03-.97-1.35-1.47-1.73-.45-.26.7.28,1.4,1.02,1.35Z"/><path class="cls-1" d="M77.46,5.12c.37-.06.67-.36.63-.96-.06-.97-1.49-1.33-1.77-.29-.19.73.41,1.36,1.14,1.25Z"/><path class="cls-1" d="M220.49,23.87c-.25-.28-.66-.37-1.15-.02-.79.57-.34,1.97.7,1.65.72-.22.93-1.07.45-1.63Z"/><path class="cls-1" d="M124.54,13.52c.37-.06.67-.36.63-.96-.06-.97-1.49-1.33-1.77-.29-.19.73.41,1.36,1.14,1.25Z"/><path class="cls-1" d="M.79,41.96c.36.09.75-.07.95-.65.32-.92-.86-1.8-1.52-.94-.46.59-.15,1.42.57,1.59Z"/><path class="cls-1" d="M214.19,4.42c-.25-.28-.66-.37-1.15-.02-.79.57-.34,1.97.7,1.65.72-.22.93-1.07.45-1.63Z"/><path class="cls-1" d="M38.16,7.82c.37-.06.67-.36.63-.96-.06-.97-1.49-1.33-1.77-.29-.19.73.41,1.36,1.14,1.25Z"/><path class="cls-1" d="M21.87,12.64c.26.06.55-.05.69-.47.23-.67-.62-1.31-1.1-.68-.33.43-.11,1.03.41,1.15Z"/><path class="cls-1" d="M45.16,14.42c.27-.04.48-.26.46-.7-.05-.7-1.08-.97-1.28-.21-.14.53.3.99.83.9Z"/><path class="cls-1" d="M236.42,13.91c-.18-.2-.48-.27-.83-.01-.57.41-.24,1.43.51,1.19.52-.16.68-.78.32-1.18Z"/><path class="cls-1" d="M13.62,71.16c.27,0,.52-.19.55-.63.05-.7-.93-1.11-1.24-.39-.21.5.16,1.02.69,1.01Z"/><path class="cls-1" d="M263.6,41.94c.27-.02.51-.21.52-.65.02-.7-.98-1.06-1.26-.33-.19.51.2,1.01.74.98Z"/><path class="cls-1" d="M259.79,58.93c.27-.02.51-.21.52-.65.02-.7-.98-1.06-1.26-.33-.19.51.2,1.01.74.98Z"/><path class="cls-1" d="M147.98,17.53c-.18-.2-.48-.27-.83-.01-.57.41-.24,1.43.51,1.19.52-.16.68-.78.32-1.18Z"/><path class="cls-1" d="M210.18,13.96c-.18-.2-.48-.27-.83-.01-.57.41-.24,1.43.51,1.19.52-.16.68-.78.32-1.18Z"/><path class="cls-1" d="M94.95,18.03c.27-.04.48-.26.46-.7-.05-.7-1.08-.97-1.28-.21-.14.53.3.99.83.9Z"/><path class="cls-1" d="M111.34,8.79c-.41,1.2-.79,2.37-1.07,3.61-.16.72-.63,2.29-.22,2.96-2.11-3.44-3.13-10.18,1.52-12.16.86,1.72.39,3.78-.23,5.6Z"/><path class="cls-1" d="M101.49,11.41c-.34-.06-.76-.07-.96.22-.09.13-.1.3-.1.46.03,1.09.91,2,1.88,2.5.94.47,1.99.62,2.93,1.06,1.01.47,1.96,1.02,2.83,1.71-.79-3.06-3.5-5.4-6.6-5.95Z"/><path class="cls-1" d="M8.75,28.74c-1.32-.79-2.89-1.22-4.42-1.01-.29,1.04.36,2.15,1.25,2.74,1.98,1.3,4.65.79,6.75,1.8-.67-1.4-2.28-2.73-3.59-3.53Z"/><path class="cls-1" d="M16.84,30.6c-.37-.75-.7-1.51-.98-2.29.33-.62.87-1.13,1.3-1.7,1.04-1.39,1.35-3.29.8-4.94-1.68,1.24-2.63,3.38-2.51,5.45-.41-1.35-.7-2.72-.85-4.12.5-.49,1.16-.8,1.74-1.22,1.41-1.01,2.28-2.74,2.25-4.47-2.04.7-3.63,2.55-4.08,4.65-.09-1.37-.05-2.74.12-4.11.35-.76.84-1.47,1.16-2.25.6-1.49.52-3.24-.23-4.66-.71.81-1.44,1.65-1.78,2.68-.17.5-.24,1.03-.25,1.56-.03.96.11,1.92.4,2.83-.12,1.1-.17,2.2-.13,3.31-.76-1.84-2.43-3.32-4.38-3.77.15,1.73,1.2,3.35,2.7,4.21.58.33,1.23.57,1.76.96.14,1.47.42,2.94.84,4.36-1.27-1.62-3.37-2.6-5.43-2.44.67,1.6,2.15,2.84,3.84,3.21.65.14,1.34.17,1.96.38.31.89.68,1.76,1.1,2.61.2.4.84.14.64-.26Z"/><path class="cls-1" d="M5.64,37.2c.94-.64,1.57-1.6,2.44-2.3.39-.31,1.97-1.51,2.41-1.38-1.19-.35-2.4-.52-3.59-.08-.98.37-1.84,1.12-2.2,2.11-.23.63-.25,1.31-.26,1.98.41.12.84-.08,1.2-.33Z"/><path class="cls-1" d="M170.92,11.92c-1.02-1.22-2.46-2.16-4.04-2.32-1.5-.15-3.04.4-4.51.07.4,1.28,1.57,2.18,2.81,2.7,1.24.51,2.58.73,3.86,1.13,1.57.5,2.76,1.83,4.05,2.83-.76-1.56-1.04-3.05-2.17-4.4Z"/><path class="cls-1" d="M161.95,15.34c.64-.26,1.29-.62,1.97-.78.32-.07,1.54-.39,1.79-.24-2.17-1.26-4.92-1-7.03.35-.21.14-.45.36-.36.6.04.11.15.18.25.24,1.02.57,2.3.27,3.38-.17Z"/><path class="cls-1" d="M176.39,5.87c-.32,1.01-.9,1.92-1.24,2.92-.21.61-.86,1.99-.53,2.64-.94-1.8-1.3-3.89-1.03-5.91.11-.85.39-1.74.79-2.5.1-.19,1.6-2.07,1.68-1.9.7,1.47.82,3.21.32,4.75Z"/><path class="cls-1" d="M11.84,63.34c-.14,0-.28.02-.38.11-.11.1-.13.27-.13.42.02,1.04.93,1.88,1.92,2.2,1.09.35,1.89.08,2.94-.01,1.19-.11,2.45.06,3.59.4-.44-1.19-2.2-1.86-3.28-2.31-1.47-.61-3.07-.9-4.66-.81Z"/><path class="cls-1" d="M64.55,6.09c-.04-1.45.28-2.91.9-4.23.74-1.57,2.94-2.3,4.47-1.44,2.12,1.19,1.34,4.13-.07,5.51-.8.78-1.96,1.2-3.05,1.41"/><path class="cls-1" d="M56.02,7.96c-1.07-.99-1.9-2.23-2.41-3.59-.61-1.63.39-3.71,2.08-4.21,2.34-.69,3.9,1.92,3.9,3.89,0,1.12-.5,2.25-1.11,3.17"/><path class="cls-1" d="M58.29,22.92c1.03-3.7,4.34-6.65,8.13-7.26.03,1.5-.66,2.97-1.71,4.05s-2.42,1.8-3.85,2.24c-1.09.33-2.39.64-2.86,1.68"/><path class="cls-1" d="M58.72,20.46c.24-3.83-1.92-7.71-5.3-9.52-.52,1.41-.35,3.02.29,4.38s1.69,2.49,2.91,3.38c.92.67,2.05,1.39,2.15,2.53"/><path class="cls-1" d="M65.89,6.22c-5,5.98-8.04,13.44-8.55,21.26-.02.38.57.38.59,0,.5-7.72,3.52-15.09,8.48-20.97-.21,0-.4-.12-.53-.29Z"/><path class="cls-1" d="M60.48,15.61c-1.61-2.79-2.69-5.81-3.24-8.96-.19.11-.41.13-.59.03.55,3.24,1.67,6.35,3.32,9.22.19.33.7.03.51-.3Z"/><path class="cls-1" d="M62.5,19.12c-.64.36-1.5.94-2.33,1.71-.83.77-1.48,1.57-1.89,2.18-.14.21-.26.39-.35.55.02.05.05.1.06.16.41-.54,1.22-1.62,2.37-2.68,1.63-1.52,3.27-2.33,3.23-2.41-.02-.03-.44.13-1.09.5Z"/><path class="cls-1" d="M58.84,20.75s0-.49-.23-1.24c-.23-.75-.7-1.73-1.38-2.7-.68-.97-1.41-1.76-1.95-2.32-.54-.55-.89-.87-.92-.85-.03.03.27.4.77.98.5.59,1.19,1.39,1.86,2.34.67.95,1.15,1.9,1.43,2.61.28.71.38,1.18.42,1.17Z"/><path class="cls-1" d="M68.23,2.02c-.08-.03-.59,1.08-1.31,2.4-.71,1.33-1.35,2.37-1.28,2.42.06.04.81-.94,1.53-2.28.72-1.34,1.13-2.51,1.06-2.54Z"/><path class="cls-1" d="M66.46,2.25c-.06-.04-.7.79-1.06,2.02-.37,1.23-.27,2.28-.2,2.27.09,0,.12-1.01.48-2.19.34-1.18.86-2.05.79-2.1Z"/><path class="cls-1" d="M69.63,3.94c-.08-.04-.49.92-1.39,1.78-.89.88-1.85,1.26-1.82,1.34.01.03.27-.02.66-.2.39-.18.89-.49,1.36-.94.47-.46.8-.95.98-1.33.19-.38.25-.64.21-.65Z"/><path class="cls-1" d="M56.62,7.29c.06-.06-.67-.76-1.28-1.82-.63-1.05-.89-2.02-.97-2-.07,0,.07,1.05.72,2.15.64,1.1,1.49,1.73,1.53,1.67Z"/><path class="cls-1" d="M56.95,7.07c.07,0,.03-1.3-.33-2.85-.35-1.55-.88-2.73-.95-2.7-.08.03.32,1.24.67,2.77.36,1.53.53,2.79.61,2.78Z"/><path class="cls-1" d="M57.93,6.61c.07.02.39-1,.34-2.31-.04-1.31-.43-2.31-.5-2.29-.08.02.18,1.03.21,2.3.05,1.27-.14,2.29-.06,2.31Z"/><path class="cls-1" d="M68.84,6.99c-.49.42-1.31.68-1.72.79-.3.08-2.59.67-2.56.78-.38-1.59-.69-3.56.09-5.08.08-.16.24-.47.43-.53,1.21-.33,1.09,2.32,1.09,2.88,0-.12.67-.31.77-.34.29-.08.59-.11.88-.1.43.02,1.19.11,1.37.59.16.4-.03.74-.35,1.02Z"/><path class="cls-1" d="M59.73,5.97c-.57,1.58-2.36,3.68-2,3.89-1.41-.84-3.04-1.99-3.59-3.6-.07-.2-.12-.41-.08-.62.23-1.33,2.54.67,2.89,1.12-.2-.26.88-1.58,1.06-1.77.31-.32,1.02-.82,1.48-.59.06.03.12.07.17.12.33.32.29.84.07,1.45Z"/><path class="cls-1" d="M74.11,12.03c-2.51.3-4.67.33-6.93,1.64.54-2.09,3.67-3.9,5.55-4.58,2.08-.75,4.56-.63,6.31.72-.48.81-1.31,1.36-2.19,1.68s-1.82.43-2.75.54Z"/><path class="cls-1" d="M77.61,16.87c-.07-.1-.13-.21-.2-.31-.28-.42-1.62-2.24-2.1-2.31,1.5.2,3.12.44,4.32,1.42,1.18.97,1.99,2.38,2.22,3.89-.87.24-1.83-.04-2.56-.58-.79-.58-1.18-1.34-1.67-2.11Z"/><path class="cls-1" d="M201.43,10.36c-1.08.92-2.31,1.66-3.39,2.57-.5.42-2.27,2.17-2.01,2.94-.12-.35-.12-.73-.1-1.1.11-1.85.76-4.05,2.1-5.38.63-.62,1.36-1.23,2.11-1.71.25-.15,2.29-1.34,2.5-1.1.47.56.48,1.42.19,2.09s-.84,1.21-1.4,1.69Z"/><path class="cls-1" d="M192.97,3.46c-.68.58-.7,1.65-.36,2.47.82,1.97,2.11,3.52,2.55,5.69.49-1.5.38-2.72.04-4.26-.08-.37-1.77-4.29-2.22-3.9Z"/><path class="cls-1" d="M48.96,11.09c.07-.2.2-.39.33-.56,1.04-1.49,1.59-3.46.94-5.16-.02-.06-.07-.13-.13-.12-.04,0-.06.04-.08.06-1.04,1.37-1.52,3.15-1.34,4.86-.35-1.03-.78-2.01-1.3-2.96.05-.18.14-.35.22-.52.81-1.63,1.06-3.65.17-5.24-.03-.06-.09-.12-.15-.1-.03.01-.05.04-.07.08-.84,1.53-1.04,3.38-.6,5.07-.45-.74-.95-1.44-1.5-2.11-.63-1.85-1.98-3.44-3.71-4.36-.03-.01-.06-.03-.09-.02-.04.01-.06.05-.07.09-.15.45-.09.95.1,1.38s.49.81.82,1.15c.67.69,1.48,1.23,2.3,1.74.65.75,1.23,1.55,1.75,2.39-1.31-1.28-3.14-2.03-4.98-1.98-.04,0-.07,0-.1.03-.05.05-.01.12.02.18,1,1.52,2.92,2.22,4.74,2.25.21,0,.43,0,.63.06.57,1.01,1.04,2.08,1.41,3.19-1.1-1.48-2.82-2.5-4.65-2.73-.04,0-.07,0-.1.01-.05.04-.03.12,0,.18.77,1.65,2.56,2.63,4.35,2.92.19.03.39.06.57.13.23.77.41,1.57.53,2.37.05.31.51.18.47-.13-.11-.72-.27-1.44-.46-2.14Z"/><path class="cls-1" d="M260.36,43.82c-.78,1.11-1.55,2.05-2.6,2.87-.67.52-2.17,2.03-2.2,2.94.08-2.35.46-5.03,1.27-7.24.85-2.34,2.37-4.49,4.51-5.76.12-.07.26-.14.4-.12.19.04.29.25.35.43.75,2.33-.31,4.87-1.71,6.87Z"/><path class="cls-1" d="M261.4,55.03c-.55-.31-4.94-3.58-5.38-3.12,1.83-1.9,4.72-3.13,7.32-3.34.35-.03.76-.02,1,.24-.07.41-.43.69-.77.93-.92.63-1.9,1.18-2.91,1.65,1.24.63,2.58,1.36,3.06,2.66.11.28.16.6.05.88-.17.42-.67.62-1.12.58s-.86-.26-1.25-.48Z"/><path class="cls-1" d="M260,47.18c1.26-1.9,3.67-2.83,5.94-2.71-.59.98-1.73,1.49-2.83,1.8-1.1.31-2.26.51-3.24,1.11"/><path class="cls-1" d="M82.9,13.33c-1.19-.21-2.47-.81-3.67-.78,1.73-1.23,4.48-1.09,6.42-.53.09.03.18.05.25.12.2.18.08.52-.1.72-.34.38-.86.56-1.38.6s-1.02-.05-1.53-.14Z"/><path class="cls-1" d="M242.62,71.12c.22-2.48,1.55-4.84,3.56-6.31.37.79.26,1.74-.12,2.53s-.98,1.44-1.62,2.04c-.64.6-1.31,1.16-1.87,1.83"/><path class="cls-1" d="M246.48,71.95c-.92.21-1.83.32-2.76.46.39-.78,1.15-1.18,1.9-1.55.21-.1,2.71-.87,2.72-.59.02.45-.26.88-.62,1.15s-.8.41-1.24.53Z"/><path class="cls-1" d="M230.13,6.11c-.1.62-.12,1.24-.06,1.87.05.51.03.89-.03,1.39-.02.13,0,.48-.02.84-.83,1.36-1.86,2.61-2.86,3.76-.09.11-.19.21-.28.31.08-.3.17-.6.25-.9.26-.93.51-1.87.48-2.83-.04-.96-.42-1.96-1.2-2.51-.42.69-.83,1.4-1,2.19-.17.81-.05,1.66.19,2.44.22.71.55,1.38.89,2.04-1.3,1.4-2.72,2.69-4.18,3.93.16-.31.33-.61.49-.92.51-.95,1.02-1.92,1.22-2.98.2-1.06.02-2.24-.7-3.04-.63.65-1.26,1.32-1.63,2.15-.38.84-.47,1.8-.39,2.72.07.85.28,1.68.49,2.51-.67.56-1.35,1.11-2.04,1.65-.29.23.02.74.32.5.73-.58,1.45-1.16,2.16-1.76.83.25,1.66.49,2.52.6.92.11,1.88.07,2.73-.28.84-.34,1.54-.94,2.21-1.54-.77-.76-1.94-.98-3.01-.82-1.07.15-2.06.63-3.03,1.1l-.73.35c1.42-1.22,2.79-2.49,4.07-3.86.76.05,1.52.1,2.28.03.82-.08,1.64-.31,2.32-.78.66-.46,1.15-1.12,1.62-1.77-.81-.51-1.88-.47-2.78-.13-.9.34-1.67.95-2.42,1.54-.03.02-.05.04-.08.06.85-.97,1.69-2.03,2.41-3.16.99-.78,1.76-1.94,2.03-3.15.27-1.2.07-2.49-.54-3.55-.04-.06-.08-.13-.15-.15-.06-.02-.13,0-.19.02-.83.33-1.23,1.27-1.38,2.15Z"/><path class="cls-1" d="M222.82,6.61c-.52,1.8-1.91,3.39-3.18,4.72-.99,1.05-1.68,2.19-2.37,3.45-.01-1.06-.22-2.16,0-3.21.28-1.38.72-2.74,1.38-3.99.85-1.6,2.09-3.02,3.66-3.92.75.73.79,1.94.5,2.95Z"/><path class="cls-1" d="M178.91,20.7c-1.03-1.23-1.58-2.8-1.78-4.39-.2-1.59-.05-3.2.18-4.79,1.54.99,2.48,2.84,2.36,4.66-.11,1.69-.96,3.12-.64,4.86"/><path class="cls-1" d="M182.81,18.47c-1.32.66-3.4.36-4.02,2.06.52-1.41,1.32-2.89,2.43-3.93.52-.49,1.12-.9,1.77-1.21.15-.07,1.93-.69,1.93-.61.1,1.5-.77,3.02-2.11,3.69Z"/><path class="cls-1" d="M178.89,20.15c.08-.02-.26-1.39-.44-3.12-.19-1.72-.15-3.14-.23-3.14-.07,0-.24,1.42-.05,3.17.18,1.75.65,3.11.72,3.09Z"/><path class="cls-1" d="M183.67,16.26s-.29.15-.72.41c-.43.27-1.05.59-1.71,1.03-.66.43-1.2.94-1.49,1.38-.3.44-.37.76-.34.77.04.02.18-.27.5-.65.32-.38.84-.84,1.48-1.26.64-.42,1.26-.78,1.67-1.1.41-.31.63-.55.61-.58Z"/><path class="cls-1" d="M179.18,25.03c-.55-3.33.56-6.65,2.31-9.47,1.41-2.27,3.17-4.31,3.62-7.02.07-.43-.59-.62-.66-.18-.5,3.01-2.67,5.25-4.13,7.82-1.54,2.73-2.31,5.93-1.8,9.03.07.44.74.25.66-.18h0Z"/><path class="cls-1" d="M183.57,9.16c.01.9.01,1.83-.36,2.65-.02.04-.06.09-.09.06-1.29-2.01-3.34-3.61-4.15-5.91-.24-.66-.34-1.42-.01-2.04.05-.09.11-.17.2-.2.1-.03.21.02.31.07.89.47,1.72,1.06,2.45,1.76"/><path class="cls-1" d="M184.56,9.55c-.4.4-.72.88-.95,1.4-.13.3-.24.61-.45.85.65-.12,1.37-.17,1.98-.4.55-.21,1.12-.38,1.68-.56,1.14-.36,2.29-.78,3.25-1.52.55-.43,1.06-1.01,1.11-1.71,0-.1,0-.2-.06-.28-.07-.08-.19-.1-.3-.11-1-.09-2.02-.04-3.01.15"/><path class="cls-1" d="M184.23,7.93c-.1,1.38-.43,2.74-.96,4.02.01-.32-.05-.63-.12-.94-.36-1.55-1.02-3-1.46-4.52-.29-1-.5-2.03-.48-3.07,0-.52.08-1.03.22-1.53.08-.26.17-.76.5-.8.29-.03.73.44.91.65.72.87,1.1,2.25,1.33,3.33"/><path class="cls-1" d="M183.37,12.12c1.09-1.54,2.7-2.61,4.13-3.85,1.42-1.24,2.75-2.82,2.88-4.7.04-.59-1.64,0-2.04.14-.87.33-1.63.93-2.12,1.72"/><path class="cls-1" d="M183,12.38c.89-1.66.75-3.65.79-5.53s.39-3.97,1.89-5.11c.17-.13.42-.25.6-.12.09.06.13.17.16.27.57,1.68.33,3.54-.29,5.19s-1.61,3.14-2.6,4.61"/><path class="cls-1" d="M184.79,9.1c.23-.13.9-.24,1,.13s-.8,1.17-1.04,1.41c.3-.07.61-.11.93-.11.38,0,1.3.34.68.79-.22.16-.63.16-.9.23-.96.26-2,.44-2.66,1.27.08-.63-.1-1.31-.5-1.81-.35-.45-.85-.79-.92-1.41.26-.08.55-.03.8.1s.45.31.66.49c-.08-.68-.15-1.41.18-2.01.04-.08.11-.16.2-.18.15-.02.25.14.3.28.19.51.31,1.05.34,1.6.26-.31.58-.58.93-.78Z"/><path class="cls-1" d="M264.47,30.35c-.25.46-.55.88-.91,1.25-.93.96-2.3,1.35-3.22,2.34.13-.89.32-1.78.53-2.65.5-2.03,2.27-3.93,4.25-4.56.14-.05-.13,2.36-.2,2.57-.11.36-.26.71-.44,1.05Z"/></g></svg>