<?xml version="1.0" encoding="UTF-8"?><svg id="_图层_2" xmlns="http://www.w3.org/2000/svg" viewBox="0 0 94.73 122.52"><defs><style>.cls-1{fill:none;stroke:#303030;stroke-linecap:round;stroke-linejoin:round;stroke-width:.36px;}.cls-2{fill:#f5f5f5;}</style></defs><g id="_图层_1-2"><path class="cls-2" d="M72.35,45.67h-4.57c-1.16,0-2.1-1.05-2.1-2.34s.94-2.34,2.1-2.34h4.57c1.16,0,2.1,1.05,2.1,2.34s-.94,2.34-2.1,2.34Z"/><path class="cls-2" d="M81.87,43.48h-5.04c-1.16,0-2.1-1.05-2.1-2.34s.94-2.34,2.1-2.34h5.04c1.16,0,2.1,1.05,2.1,2.34s-.94,2.34-2.1,2.34Z"/><path class="cls-2" d="M90.48,44.45h-4.25c-1.16,0-2.1-1.05-2.1-2.34s.94-2.34,2.1-2.34h4.25c1.16,0,2.1,1.05,2.1,2.34s-.94,2.34-2.1,2.34Z"/><path class="cls-2" d="M81.06,50.76h-3.41c-1.16,0-2.1-1.05-2.1-2.34s.94-2.34,2.1-2.34h3.41c1.16,0,2.1,1.05,2.1,2.34s-.94,2.34-2.1,2.34Z"/><path class="cls-2" d="M81.06,57.01h-3.41c-1.16,0-2.1-1.05-2.1-2.34s.94-2.34,2.1-2.34h3.41c1.16,0,2.1,1.05,2.1,2.34s-.94,2.34-2.1,2.34Z"/><path class="cls-2" d="M77.65,63.26c-1.16,0-2.1-1.05-2.1-2.34v-19.78c0-1.29.94-2.34,2.1-2.34s2.1,1.05,2.1,2.34v19.78c0,1.29-.94,2.34-2.1,2.34Z"/><path class="cls-2" d="M81.06,67.97c-1.16,0-2.1-1.05-2.1-2.34v-19c0-1.29.94-2.34,2.1-2.34s2.1,1.05,2.1,2.34v19c0,1.29-.94,2.34-2.1,2.34Z"/><path class="cls-2" d="M86.09,67.97c-.29,0-.58-.07-.86-.2-1.06-.53-1.53-1.91-1.06-3.1,2.69-6.71,4.06-14.11,4.2-22.6.02-1.29.99-2.32,2.14-2.3,1.16.02,2.08,1.09,2.06,2.38-.15,9.14-1.64,17.13-4.56,24.43-.35.87-1.11,1.39-1.92,1.39Z"/><path class="cls-2" d="M81.87,63.26h-5.04c-1.16,0-2.1-1.05-2.1-2.34s.94-2.34,2.1-2.34h5.04c1.16,0,2.1,1.05,2.1,2.34s-.94,2.34-2.1,2.34Z"/><path class="cls-2" d="M72.35,62.51h-2.29c-1.16,0-2.1-1.05-2.1-2.34s.94-2.34,2.1-2.34h2.29c1.16,0,2.1,1.05,2.1,2.34s-.94,2.34-2.1,2.34Z"/><path class="cls-2" d="M73.05,53.81h-5.97c-1.16,0-2.1-1.05-2.1-2.34s.94-2.34,2.1-2.34h5.97c1.16,0,2.1,1.05,2.1,2.34s-.94,2.34-2.1,2.34Z"/><path class="cls-2" d="M92.63,73.84l-14.23-.11c-2.44,0-4.97-1.05-6.97-2.89-2.23-2.06-3.46-4.79-3.46-7.69v-22.54c0-1.29.94-2.34,2.1-2.34s2.1,1.05,2.1,2.34v22.54c0,3.26,3.41,5.89,6.23,5.89l14.23.11c1.16,0,2.1,1.05,2.1,2.34s-.94,2.34-2.1,2.34Z"/><path class="cls-2" d="M90.7,67.9c-.76,0-1.5-.47-1.87-1.28-2.37-5.17-5.09-11.98-5.14-18.84,0-1.29.92-2.35,2.08-2.36h.02c1.15,0,2.09,1.04,2.1,2.33.04,5.88,2.52,12.04,4.68,16.74.53,1.15.12,2.56-.91,3.15-.31.17-.63.26-.95.26Z"/><path class="cls-2" d="M63.62,73.73c-.28,0-.57-.06-.84-.2-1.06-.52-1.55-1.9-1.08-3.09,1.34-3.43,2.02-7.95,2.07-13.81.01-1.29.95-2.32,2.1-2.32h.02c1.16.01,2.09,1.07,2.08,2.36-.05,6.51-.85,11.63-2.42,15.65-.34.88-1.12,1.4-1.92,1.4Z"/><line class="cls-1" x1="70.69" y1="40.98" x2="73.32" y2="40.98"/><line class="cls-1" x1="74.45" y1="45.67" x2="69.53" y2="45.67"/><path class="cls-1" d="M77.53,43.48h-.7c-1.16,0-2.38-1.05-2.38-2.34"/><line class="cls-1" x1="90.48" y1="44.59" x2="86.23" y2="44.59"/><path class="cls-1" d="M78.42,46.07h2.73c1.16,0,2.1,1.05,2.1,2.34s-.94,2.34-2.1,2.34h-2.73"/><path class="cls-1" d="M78.42,52.32h2.73c1.16,0,2.1,1.05,2.1,2.34s-.94,2.34-2.1,2.34h-2.73"/><path class="cls-1" d="M81.87,63.26h-5.04c-1.16,0-2.1-1.05-2.1-2.34s.94-2.34,2.1-2.34h5.04c1.16,0,2.1,1.05,2.1,2.34s-.94,2.34-2.1,2.34Z"/><path class="cls-1" d="M70.07,57.83h2.29c1.16,0,2.1,1.05,2.1,2.34s-.94,2.34-2.1,2.34h-2.29"/><path class="cls-1" d="M69.53,49.12h3.53c1.16,0,2.1,1.05,2.1,2.34s-.94,2.34-2.1,2.34h-1.43"/><path class="cls-1" d="M90.7,67.9c-.76,0-1.5-.47-1.87-1.28-2.37-5.17-5.09-11.98-5.14-18.84,0-1.29.92-2.35,2.08-2.36,1.17-.01,2.11,1.03,2.11,2.33.04,5.88,2.52,12.04,4.68,16.74.53,1.15.12,2.56-.91,3.15-.31.17-.63.26-.95.26Z"/><path class="cls-1" d="M63.62,73.73c-.28,0-.57-.06-.84-.2-1.06-.52-1.55-1.9-1.08-3.09,1.34-3.43,2.02-7.95,2.07-13.81.01-1.29.95-2.32,2.1-2.32h.02c1.16.01,2.09,1.07,2.08,2.36-.05,6.51-.85,11.63-2.42,15.65-.34.88-1.12,1.4-1.92,1.4Z"/><path class="cls-2" d="M92.22,8.01h-25.87c-1.29,0-2.34-1.05-2.34-2.34s1.05-2.34,2.34-2.34h25.87c1.29,0,2.34,1.05,2.34,2.34s-1.05,2.34-2.34,2.34Z"/><path class="cls-2" d="M71.07,10.45h18.48c1.29,0,2.34,1.05,2.34,2.34s-1.05,2.34-2.34,2.34h-18.48c-1.29,0-2.34-1.05-2.34-2.34"/><path class="cls-2" d="M82.95,22.26h-11.88c-1.29,0-2.34-1.05-2.34-2.34s1.05-2.34,2.34-2.34h11.88c1.29,0,2.34,1.05,2.34,2.34s-1.05,2.34-2.34,2.34Z"/><path class="cls-2" d="M82.95,28.61h-11.88c-1.29,0-2.34-1.05-2.34-2.34s1.05-2.34,2.34-2.34h11.88c1.29,0,2.34,1.05,2.34,2.34s-1.05,2.34-2.34,2.34Z"/><path class="cls-2" d="M71.07,10.41c1.29,0,2.34,1.05,2.34,2.34v20.24c0,1.29-1.05,2.34-2.34,2.34s-2.34-1.05-2.34-2.34V12.75"/><path class="cls-2" d="M65.76,18.35c-.86,0-1.69-.48-2.1-1.3-.58-1.16-.11-2.57,1.05-3.14,5.25-2.62,8.75-5.47,11.1-12.33.42-1.22,1.75-1.88,2.98-1.46,1.22.42,1.88,1.75,1.46,2.98-2.85,8.31-7.44,12.01-13.45,15-.34.17-.69.25-1.04.25Z"/><path class="cls-2" d="M85.42,35.33c-1.29,0-2.34-1.05-2.34-2.34s1.05-2.34,2.34-2.34c.73,0,1.33-.6,1.33-1.33v-10.45c0-1.29,1.05-2.34,2.34-2.34s2.34,1.05,2.34,2.34v10.45c0,3.32-2.7,6.02-6.02,6.02Z"/><path class="cls-1" d="M68.59,19.91c0-1.29,1.06-2.34,2.36-2.34h11.98c1.3,0,2.36,1.05,2.36,2.34s-1.06,2.34-2.36,2.34h-11.03"/><path class="cls-1" d="M71.9,23.93h11.03c1.3,0,2.36,1.05,2.36,2.34s-1.06,2.34-2.36,2.34h-11.98c-1.3,0-2.36-1.05-2.36-2.34"/><path class="cls-1" d="M80.34,3.1c-1.18,3.43-2.73,6.07-4.47,8.2"/><path class="cls-2" d="M41.19,6.3h-6.81c-1.29,0-2.34-1.05-2.34-2.34s1.05-2.34,2.34-2.34h6.81c1.29,0,2.34,1.05,2.34,2.34s-1.05,2.34-2.34,2.34Z"/><path class="cls-2" d="M59.22,9.49h-11.76c-1.29,0-2.34-1.05-2.34-2.34s1.05-2.34,2.34-2.34h11.76c1.29,0,2.34,1.05,2.34,2.34s-1.05,2.34-2.34,2.34Z"/><path class="cls-2" d="M41.19,20.31h-6.81c-1.29,0-2.34-1.05-2.34-2.34s1.05-2.34,2.34-2.34h6.81c1.29,0,2.34,1.05,2.34,2.34s-1.05,2.34-2.34,2.34Z"/><path class="cls-2" d="M34.38,34.32c-1.29,0-2.34-1.05-2.34-2.34V3.95c0-1.29,1.05-2.34,2.34-2.34s2.34,1.05,2.34,2.34v28.02c0,1.29-1.05,2.34-2.34,2.34Z"/><path class="cls-2" d="M34.38,34.32c-1.29,0-2.34-1.05-2.34-2.34s1.05-2.34,2.34-2.34c2.46,0,4.47-2,4.47-4.47V3.95c0-1.29,1.05-2.34,2.34-2.34s2.34,1.05,2.34,2.34v21.21c0,5.05-4.11,9.15-9.15,9.15Z"/><path class="cls-2" d="M47.46,34.58c-1.29,0-2.34-1.05-2.34-2.34s1.05-2.34,2.34-2.34c3.61,0,6.55-2.94,6.55-6.55V2.34c0-1.29,1.05-2.34,2.34-2.34s2.34,1.05,2.34,2.34v21c0,6.2-5.04,11.24-11.24,11.24Z"/><path class="cls-2" d="M50.61,25.03c-.58,0-1.15-.21-1.6-.64-.1-.09-.2-.18-.3-.27-1.62-1.46-2.86-2.97-3.02-7.81v-.08s0-3.06,0-3.06c0-1.29,1.05-2.34,2.34-2.34s2.34,1.05,2.34,2.34v3.02c.11,3.21.63,3.68,1.49,4.45.12.11.24.22.36.33.94.89.99,2.37.1,3.31-.46.49-1.08.74-1.71.74Z"/><path class="cls-1" d="M32.03,3.95c0-1.29,1.05-2.34,2.34-2.34h6.81c1.29,0,2.34,1.05,2.34,2.34s-1.05,2.34-2.34,2.34h-6.81"/><path class="cls-1" d="M55.1,9.49h-7.64c-1.29,0-2.34-1.05-2.34-2.34s1.05-2.34,2.34-2.34h7.58"/><path class="cls-1" d="M34.38,15.62h6.81c1.29,0,2.34,1.05,2.34,2.34s-1.05,2.34-2.34,2.34h-6.81c-1.29,0-2.34-1.05-2.34-2.34"/><path class="cls-1" d="M34.38,34.32c-1.29,0-2.34-1.05-2.34-2.34V3.95"/><path class="cls-1" d="M41.19,1.61c1.29,0,2.34,1.05,2.34,2.34v21.21c0,5.05-4.11,9.15-9.15,9.15-1.29,0-2.34-1.05-2.34-2.34s1.05-2.34,2.34-2.34c2.46,0,4.47-2,4.47-4.47v-4.86"/><path class="cls-1" d="M58.7,9.6v13.74c0,6.2-5.04,11.24-11.24,11.24-1.29,0-2.34-1.05-2.34-2.34s1.05-2.34,2.34-2.34c3.61,0,6.55-2.94,6.55-6.55v-13.85"/><path class="cls-1" d="M50.61,25.03c-.58,0-1.15-.21-1.6-.63-.1-.09-.2-.18-.3-.27-1.62-1.46-2.86-2.97-3.02-7.81v-.08s0-3.06,0-3.06c0-1.29,1.05-2.34,2.34-2.34s2.34,1.05,2.34,2.34v3.02c.11,3.21.63,3.68,1.49,4.45.12.11.24.22.36.33.94.89.99,2.37.1,3.31-.46.49-1.08.74-1.71.74Z"/><path class="cls-2" d="M9.33,6.3H2.52C1.23,6.3.18,5.25.18,3.95S1.23,1.61,2.52,1.61h6.81c1.29,0,2.34,1.05,2.34,2.34s-1.05,2.34-2.34,2.34Z"/><path class="cls-2" d="M27.36,9.49h-11.76c-1.29,0-2.34-1.05-2.34-2.34s1.05-2.34,2.34-2.34h11.76c1.29,0,2.34,1.05,2.34,2.34s-1.05,2.34-2.34,2.34Z"/><path class="cls-2" d="M9.33,20.31H2.52c-1.29,0-2.34-1.05-2.34-2.34s1.05-2.34,2.34-2.34h6.81c1.29,0,2.34,1.05,2.34,2.34s-1.05,2.34-2.34,2.34Z"/><path class="cls-2" d="M2.52,34.32c-1.29,0-2.34-1.05-2.34-2.34V3.95C.18,2.66,1.23,1.61,2.52,1.61s2.34,1.05,2.34,2.34v28.02c0,1.29-1.05,2.34-2.34,2.34Z"/><path class="cls-2" d="M2.52,34.32c-1.29,0-2.34-1.05-2.34-2.34s1.05-2.34,2.34-2.34c2.46,0,4.47-2,4.47-4.47V3.95c0-1.29,1.05-2.34,2.34-2.34s2.34,1.05,2.34,2.34v21.21c0,5.05-4.11,9.15-9.15,9.15Z"/><path class="cls-2" d="M15.61,34.58c-1.29,0-2.34-1.05-2.34-2.34s1.05-2.34,2.34-2.34c3.61,0,6.55-2.94,6.55-6.55V2.34c0-1.29,1.05-2.34,2.34-2.34s2.34,1.05,2.34,2.34v21c0,6.2-5.04,11.24-11.24,11.24Z"/><path class="cls-2" d="M18.75,25.03c-.58,0-1.15-.21-1.6-.64-.1-.09-.2-.18-.3-.27-1.62-1.46-2.86-2.97-3.02-7.81v-.08s0-3.06,0-3.06c0-1.29,1.05-2.34,2.34-2.34s2.34,1.05,2.34,2.34v3.02c.11,3.21.63,3.68,1.49,4.45.12.11.24.22.36.33.94.89.99,2.37.1,3.31-.46.49-1.08.74-1.71.74Z"/><path class="cls-1" d="M.18,3.95C.18,2.66,1.23,1.61,2.52,1.61h6.81c1.29,0,2.34,1.05,2.34,2.34s-1.05,2.34-2.34,2.34H2.52"/><path class="cls-1" d="M23.25,9.49h-7.64c-1.29,0-2.34-1.05-2.34-2.34s1.05-2.34,2.34-2.34h7.58"/><path class="cls-1" d="M2.52,15.62h6.81c1.29,0,2.34,1.05,2.34,2.34s-1.05,2.34-2.34,2.34H2.52c-1.29,0-2.34-1.05-2.34-2.34"/><path class="cls-1" d="M2.52,34.32c-1.29,0-2.34-1.05-2.34-2.34V3.95"/><path class="cls-1" d="M9.33,1.61c1.29,0,2.34,1.05,2.34,2.34v21.21c0,5.05-4.11,9.15-9.15,9.15-1.29,0-2.34-1.05-2.34-2.34s1.05-2.34,2.34-2.34c2.46,0,4.47-2,4.47-4.47v-4.86"/><path class="cls-1" d="M26.84,9.6v13.74c0,6.2-5.04,11.24-11.24,11.24-1.29,0-2.34-1.05-2.34-2.34s1.05-2.34,2.34-2.34c3.61,0,6.55-2.94,6.55-6.55v-13.85"/><path class="cls-1" d="M18.75,25.03c-.58,0-1.15-.21-1.6-.63-.1-.09-.2-.18-.3-.27-1.62-1.46-2.86-2.97-3.02-7.81v-.08s0-3.06,0-3.06c0-1.29,1.05-2.34,2.34-2.34s2.34,1.05,2.34,2.34v3.02c.11,3.21.63,3.68,1.49,4.45.12.11.24.22.36.33.94.89.99,2.37.1,3.31-.46.49-1.08.74-1.71.74Z"/><path class="cls-2" d="M15.55,99.01c-1.28,0-2.32-1.04-2.32-2.32v-6.83c0-1.28,1.04-2.32,2.32-2.32s2.32,1.04,2.32,2.32v6.83c0,1.28-1.04,2.32-2.32,2.32Z"/><path class="cls-2" d="M26.22,99.01H4.89c-1.28,0-2.32-1.04-2.32-2.32s1.04-2.32,2.32-2.32h21.33c1.28,0,2.32,1.04,2.32,2.32s-1.04,2.32-2.32,2.32Z"/><path class="cls-2" d="M26.06,105.96H9.43c-1.28,0-2.32-1.04-2.32-2.32s1.04-2.32,2.32-2.32h16.64c1.28,0,2.32,1.04,2.32,2.32s-1.04,2.32-2.32,2.32Z"/><path class="cls-2" d="M26.22,99.01c-1.28,0-2.32-1.04-2.32-2.32v-5.8c0-1.28,1.04-2.32,2.32-2.32s2.32,1.04,2.32,2.32v5.8c0,1.28-1.04,2.32-2.32,2.32Z"/><path class="cls-2" d="M4.89,99.01c-1.28,0-2.32-1.04-2.32-2.32v-5.8c0-1.28,1.04-2.32,2.32-2.32s2.32,1.04,2.32,2.32v5.8c0,1.28-1.04,2.32-2.32,2.32Z"/><path class="cls-2" d="M3.77,109.91c-1,0-1.92-.65-2.22-1.65-.37-1.23.32-2.52,1.55-2.89,1.72-.52,3.98-1.93,4.72-4.2.4-1.22,1.71-1.89,2.93-1.49,1.22.4,1.89,1.71,1.49,2.93-1.29,3.97-4.87,6.33-7.8,7.21-.22.07-.45.1-.67.1Z"/><path class="cls-2" d="M2.66,122.52c-1.19,0-2.21-.92-2.31-2.13-.11-1.28.84-2.4,2.12-2.51,9.32-.78,16.09-3.96,20.67-9.72.8-1,2.26-1.17,3.26-.37,1,.8,1.17,2.26.37,3.26-5.43,6.81-13.25,10.56-23.92,11.46-.07,0-.13,0-.2,0Z"/><path class="cls-2" d="M15.88,118.97c-.19,0-.38-.02-.57-.07-4.1-1.04-7.15-3.84-8.36-7.68-.38-1.22.3-2.53,1.52-2.91,1.22-.38,2.53.3,2.91,1.52.71,2.27,2.56,3.94,5.06,4.57,1.24.31,2,1.58,1.68,2.82-.27,1.05-1.21,1.75-2.25,1.75Z"/><path class="cls-1" d="M13.23,95.4v-5.54c0-1.28,1.04-2.32,2.32-2.32s2.32,1.04,2.32,2.32v5.54"/><line class="cls-1" x1="23.76" y1="95.4" x2="23.76" y2="90.89"/><line class="cls-1" x1="7.35" y1="90.94" x2="7.35" y2="95.45"/><path class="cls-1" d="M2.94,109.91c-1,0-1.92-.65-2.22-1.65-.37-1.23,1.15-2.52,2.38-2.89,1.72-.52,3.98-1.93,4.72-4.2.4-1.22,1.71-1.89,2.93-1.49,1.22.4,1.89,1.71,1.49,2.93"/><path class="cls-1" d="M11.38,117.17c-2.1-1.42-3.65-3.46-4.43-5.94-.38-1.22.3-2.53,1.52-2.91,1.22-.38,2.53.3,2.91,1.52.71,2.27,2.56,3.94,5.06,4.57"/><path class="cls-2" d="M15.55,60.6c-1.28,0-2.32-1.04-2.32-2.32v-6.83c0-1.28,1.04-2.32,2.32-2.32s2.32,1.04,2.32,2.32v6.83c0,1.28-1.04,2.32-2.32,2.32Z"/><path class="cls-2" d="M26.22,60.6H4.89c-1.28,0-2.32-1.04-2.32-2.32s1.04-2.32,2.32-2.32h21.33c1.28,0,2.32,1.04,2.32,2.32s-1.04,2.32-2.32,2.32Z"/><path class="cls-2" d="M26.06,67.55H9.43c-1.28,0-2.32-1.04-2.32-2.32s1.04-2.32,2.32-2.32h16.64c1.28,0,2.32,1.04,2.32,2.32s-1.04,2.32-2.32,2.32Z"/><path class="cls-2" d="M26.22,60.6c-1.28,0-2.32-1.04-2.32-2.32v-5.8c0-1.28,1.04-2.32,2.32-2.32s2.32,1.04,2.32,2.32v5.8c0,1.28-1.04,2.32-2.32,2.32Z"/><path class="cls-2" d="M4.89,60.6c-1.28,0-2.32-1.04-2.32-2.32v-5.8c0-1.28,1.04-2.32,2.32-2.32s2.32,1.04,2.32,2.32v5.8c0,1.28-1.04,2.32-2.32,2.32Z"/><path class="cls-2" d="M3.77,71.5c-1,0-1.92-.65-2.22-1.65-.37-1.23.32-2.52,1.55-2.89,1.72-.52,3.98-1.93,4.72-4.2.4-1.22,1.71-1.89,2.93-1.49,1.22.4,1.89,1.71,1.49,2.93-1.29,3.97-4.87,6.33-7.8,7.21-.22.07-.45.1-.67.1Z"/><path class="cls-2" d="M2.66,84.11c-1.19,0-2.21-.92-2.31-2.13-.11-1.28.84-2.4,2.12-2.51,9.32-.78,16.09-3.96,20.67-9.72.8-1,2.26-1.17,3.26-.37,1,.8,1.17,2.26.37,3.26-5.43,6.81-13.25,10.56-23.92,11.46-.07,0-.13,0-.2,0Z"/><path class="cls-2" d="M15.88,80.56c-.19,0-.38-.02-.57-.07-4.1-1.04-7.15-3.84-8.36-7.68-.38-1.22.3-2.53,1.52-2.91,1.22-.38,2.53.3,2.91,1.52.71,2.27,2.56,3.94,5.06,4.57,1.24.31,2,1.58,1.68,2.82-.27,1.05-1.21,1.75-2.25,1.75Z"/><path class="cls-1" d="M13.23,56.99v-5.54c0-1.28,1.04-2.32,2.32-2.32s2.32,1.04,2.32,2.32v5.54"/><line class="cls-1" x1="23.76" y1="56.99" x2="23.76" y2="52.48"/><line class="cls-1" x1="7.35" y1="52.53" x2="7.35" y2="57.04"/><path class="cls-1" d="M2.94,71.5c-1,0-1.92-.65-2.22-1.65-.37-1.23,1.15-2.52,2.38-2.89,1.72-.52,3.98-1.93,4.72-4.2.4-1.22,1.71-1.89,2.93-1.49,1.22.4,1.89,1.71,1.49,2.93"/><path class="cls-1" d="M11.38,78.76c-2.1-1.42-3.65-3.46-4.43-5.94-.38-1.22.3-2.53,1.52-2.91,1.22-.38,2.53.3,2.91,1.52.71,2.27,2.56,3.94,5.06,4.57"/><path class="cls-2" d="M34.31,110.06c-1.25,0-2.25-1.04-2.25-2.32v-13.75c0-1.28,1.01-2.32,2.25-2.32s2.25,1.04,2.25,2.32v13.75c0,1.28-1.01,2.32-2.25,2.32Z"/><path class="cls-2" d="M39.17,110.06c-1.25,0-2.25-1.04-2.25-2.32v-13.75c0-1.28,1.01-2.32,2.25-2.32s2.25,1.04,2.25,2.32v13.75c0,1.28-1.01,2.32-2.25,2.32Z"/><path class="cls-2" d="M57.84,111.98c-1.25,0-2.25-1.04-2.25-2.32v-5.39c0-1.28,1.01-2.32,2.25-2.32s2.25,1.04,2.25,2.32v5.39c0,1.28-1.01,2.32-2.25,2.32Z"/><path class="cls-2" d="M33.08,121.95c-.4,0-.81-.11-1.18-.34-1.06-.67-1.39-2.1-.74-3.19,1.27-2.12,3.25-7.24,3.51-11.51v-17.05c0-1.28,1.01-2.32,2.25-2.32s2.25,1.04,2.25,2.32v17.25c-.32,5.42-2.73,11.3-4.18,13.73-.43.71-1.17,1.11-1.92,1.11Z"/><path class="cls-2" d="M40.78,121.95c-.76,0-1.5-.39-1.92-1.11-1.45-2.43-3.86-8.31-4.18-13.73v-.14s0-17.12,0-17.12c0-1.28,1.01-2.32,2.25-2.32s2.25,1.04,2.25,2.32v17.05c.26,4.27,2.25,9.38,3.51,11.51.65,1.09.32,2.52-.74,3.19-.37.23-.78.34-1.18.34Z"/><path class="cls-2" d="M56.26,93.26h-8.52c-1.25,0-2.25-1.04-2.25-2.32s1.01-2.32,2.25-2.32h8.52c1.25,0,2.25,1.04,2.25,2.32s-1.01,2.32-2.25,2.32Z"/><path class="cls-2" d="M57.84,100.57h-12.33c-1.25,0-2.25-1.04-2.25-2.32s1.01-2.32,2.25-2.32h12.33c1.25,0,2.25,1.04,2.25,2.32s-1.01,2.32-2.25,2.32Z"/><path class="cls-2" d="M59.09,111.98h-14.85c-1.25,0-2.25-1.04-2.25-2.32s1.01-2.32,2.25-2.32h14.85c1.25,0,2.25,1.04,2.25,2.32s-1.01,2.32-2.25,2.32Z"/><path class="cls-2" d="M45.51,111.98c-1.25,0-2.25-1.04-2.25-2.32v-11.41c0-1.28,1.01-2.32,2.25-2.32s2.25,1.04,2.25,2.32v11.41c0,1.28-1.01,2.32-2.25,2.32Z"/><path class="cls-2" d="M44,95.8c-.93,0-1.8-.6-2.13-1.55-.41-1.21.2-2.54,1.38-2.96,1.79-.65,2.33-1.61,2.59-2.27.46-1.19,1.77-1.77,2.93-1.3,1.16.47,1.72,1.82,1.26,3.02-.9,2.33-2.67,3.99-5.28,4.94-.25.09-.5.13-.75.13Z"/><path class="cls-2" d="M53,97.79c-.93,0-1.8-.6-2.13-1.55-.41-1.21.2-2.54,1.38-2.96,1-.36,1.58-.89,1.77-2.6.14-1.27,1.25-2.19,2.49-2.05,1.24.14,2.13,1.29,1.99,2.57-.36,3.27-1.96,5.45-4.75,6.46-.25.09-.5.13-.75.13Z"/><path class="cls-2" d="M43.07,121.95c-1,0-1.91-.69-2.18-1.74-.32-1.24.41-2.51,1.61-2.83,4.43-1.19,6.59-3.61,6.99-7.83v-11.3c0-1.28,1.01-2.32,2.25-2.32s2.25,1.04,2.25,2.32v11.62c-.56,6.26-4.04,10.3-10.36,12.01-.19.05-.38.08-.57.08Z"/><path class="cls-2" d="M60.35,121.95c-.19,0-.38-.02-.57-.08-6.32-1.7-9.8-5.74-10.35-12.01-.11-1.28.8-2.41,2.04-2.52,1.24-.11,2.34.83,2.45,2.1.37,4.28,2.53,6.73,7,7.93,1.2.32,1.93,1.59,1.61,2.83-.27,1.04-1.18,1.74-2.18,1.74Z"/><path class="cls-1" d="M36.56,107.73c0,1.28-1.01,2.32-2.25,2.32s-2.25-1.04-2.25-2.32v-13.75c0-1.28,1.01-2.32,2.25-2.32s2.25,1.04,2.25,2.32v1"/><path class="cls-1" d="M55.59,108.11v-3.84c0-1.28,1.01-2.32,2.25-2.32s2.25,1.04,2.25,2.32v3.19"/><path class="cls-1" d="M37.67,114.64c-.85,2.65-1.9,4.91-2.66,6.2-.43.71-1.17,1.11-1.92,1.11-.4,0-.81-.11-1.18-.34-1.06-.67-1.51-2.12-.86-3.21"/><line class="cls-1" x1="54.55" y1="93.26" x2="47.74" y2="93.26"/><path class="cls-1" d="M49.91,88.61h6.35c1.25,0,2.25,1.04,2.25,2.32"/><line class="cls-1" x1="47.76" y1="99.59" x2="47.76" y2="107.94"/><path class="cls-1" d="M43.89,95.92c-.93,0-1.69-.72-2.02-1.67-.41-1.21.2-2.54,1.38-2.96,1.79-.65,2.33-1.61,2.59-2.27.46-1.19,1.77-1.77,2.93-1.3,1.16.47,1.72,1.82,1.26,3.02"/><path class="cls-1" d="M58.51,90.93c-.36,3.27-1.97,5.71-4.76,6.72-.25.09-.5.13-.75.13-.93,0-1.8-.6-2.13-1.55-.41-1.21.2-2.54,1.38-2.96"/><line class="cls-1" x1="49.49" y1="107.94" x2="49.49" y2="99.59"/><path class="cls-1" d="M52.83,114.64c-1.58,3.58-4.65,6.01-9.19,7.23-.19.05-.38.08-.57.08-1,0-1.91-.69-2.18-1.74-.32-1.24.41-2.51,1.61-2.83,3.41-.92,5.5-2.64,6.45-5.26"/><line class="cls-1" x1="54" y1="99.59" x2="54" y2="108.11"/><line class="cls-1" x1="39.34" y1="91.34" x2="39.34" y2="102.83"/><path class="cls-1" d="M39.83,110.31s-.21-.58-.24-1.02"/><path class="cls-2" d="M71.74,94.37c-1.28,0-2.32-1.04-2.32-2.32v-2.19c0-1.28,1.04-2.32,2.32-2.32s2.32,1.04,2.32,2.32v2.19c0,1.28-1.04,2.32-2.32,2.32Z"/><path class="cls-2" d="M82.8,121.99c-1.28,0-2.32-1.04-2.32-2.32v-28.33c0-1.28,1.04-2.32,2.32-2.32s2.32,1.04,2.32,2.32v28.33c0,1.28-1.04,2.32-2.32,2.32Z"/><path class="cls-2" d="M89.39,121.99c-1.28,0-2.32-1.04-2.32-2.32v-19.16c0-1.28,1.04-2.32,2.32-2.32s2.32,1.04,2.32,2.32v19.16c0,1.28-1.04,2.32-2.32,2.32Z"/><path class="cls-2" d="M76.93,94.39h-10.38c-1.28,0-2.32-1.04-2.32-2.32s1.04-2.32,2.32-2.32h10.38c1.28,0,2.32,1.04,2.32,2.32s-1.04,2.32-2.32,2.32Z"/><path class="cls-2" d="M76.93,109.7h-10.38c-1.28,0-2.32-1.04-2.32-2.32s1.04-2.32,2.32-2.32h10.38c1.28,0,2.32,1.04,2.32,2.32s-1.04,2.32-2.32,2.32Z"/><path class="cls-2" d="M68.08,102.55c-1.28,0-2.32-1.04-2.32-2.32v-2.19c0-1.28,1.04-2.32,2.32-2.32s2.32,1.04,2.32,2.32v2.19c0,1.28-1.04,2.32-2.32,2.32Z"/><path class="cls-2" d="M71.61,121.99c-1.28,0-2.32-1.04-2.32-2.32v-13.82c0-1.28,1.04-2.32,2.32-2.32s2.32,1.04,2.32,2.32v13.82c0,1.28-1.04,2.32-2.32,2.32Z"/><path class="cls-2" d="M75.44,102.55c-1.28,0-2.32-1.04-2.32-2.32v-2.19c0-1.28,1.04-2.32,2.32-2.32s2.32,1.04,2.32,2.32v2.19c0,1.28-1.04,2.32-2.32,2.32Z"/><path class="cls-2" d="M77.19,102.57h-11.15c-1.28,0-2.32-1.04-2.32-2.32s1.04-2.32,2.32-2.32h11.15c1.28,0,2.32,1.04,2.32,2.32s-1.04,2.32-2.32,2.32Z"/><path class="cls-2" d="M92.09,102.83h-9.29c-1.28,0-2.32-1.04-2.32-2.32s1.04-2.32,2.32-2.32h9.29c1.28,0,2.32,1.04,2.32,2.32s-1.04,2.32-2.32,2.32Z"/><path class="cls-2" d="M71.61,121.99c-.41,0-.83-.11-1.21-.34l-5.96-3.65c-1.09-.67-1.44-2.1-.77-3.19.67-1.09,2.1-1.44,3.19-.77l5.96,3.65c1.09.67,1.44,2.1.77,3.19-.44.71-1.2,1.11-1.98,1.11Z"/><path class="cls-2" d="M65.66,118.34c-.78,0-1.54-.39-1.98-1.11-.67-1.09-.33-2.52.77-3.19l5.96-3.65c1.09-.67,2.52-.33,3.19.77s.33,2.52-.77,3.19l-5.96,3.65c-.38.23-.8.34-1.21.34Z"/><path class="cls-2" d="M77.61,121.02c-.34,0-.69-.08-1.02-.24-2.6-1.28-5.84-4.69-7.09-7.45-.53-1.17,0-2.54,1.16-3.07,1.17-.53,2.54,0,3.07,1.16.8,1.77,3.28,4.4,4.91,5.2,1.15.57,1.62,1.96,1.06,3.11-.4.82-1.23,1.3-2.09,1.3Z"/><path class="cls-2" d="M86.08,93.73c-1.24,0-2.54-.18-3.88-.54-1.24-.33-1.98-1.6-1.65-2.84.33-1.24,1.6-1.98,2.84-1.65,2.6.69,4.75.44,6.57-.78,1.07-.71,2.51-.43,3.22.64.71,1.07.43,2.51-.64,3.22-1.94,1.3-4.1,1.95-6.46,1.95Z"/><path class="cls-1" d="M69.42,90.5v-.64c0-1.28,1.04-2.32,2.32-2.32s2.32,1.04,2.32,2.32v.64"/><path class="cls-1" d="M91.72,101.6v18.07c0,1.28-1.04,2.32-2.32,2.32s-2.32-1.04-2.32-2.32v-18.07"/><path class="cls-1" d="M65.76,98.68v-.64c0-1.28,1.04-2.32,2.32-2.32s2.32,1.04,2.32,2.32v.64"/><path class="cls-1" d="M69.29,106.36v-.51c0-1.28,1.04-2.32,2.32-2.32s2.32,1.04,2.32,2.32v.51"/><path class="cls-1" d="M73.12,98.68v-.64c0-1.28,1.04-2.32,2.32-2.32s2.32,1.04,2.32,2.32v.64"/><line class="cls-1" x1="87.07" y1="102.77" x2="83.83" y2="102.77"/><line class="cls-1" x1="83.83" y1="98.05" x2="89.39" y2="98.05"/><line class="cls-1" x1="70.83" y1="115.57" x2="67.98" y2="117.32"/><path class="cls-1" d="M73.05,110.55c.28.22.52.52.68.87.8,1.77,3.28,4.4,4.91,5.2,1.15.57,1.62,1.96,1.06,3.11-.4.82-1.23,1.3-2.09,1.3-.34,0-.69-.08-1.02-.24-2.21-1.09-4.88-3.72-6.4-6.18"/><path class="cls-1" d="M86.08,93.93c-1.24,0-2.54-.38-3.88-.74"/></g></svg>