<?xml version="1.0" encoding="UTF-8"?><svg id="_图层_2" xmlns="http://www.w3.org/2000/svg" viewBox="0 0 79.08 105"><defs><style>.cls-1{fill:#f5f5f5;}</style></defs><g id="_图层_1-2"><path class="cls-1" d="M50.27,95.52c-2.27,0-4.55-.02-6.82,0-1.27.02-1.89-.52-1.83-1.81.03-.63.03-1.26,0-1.9-.06-1.23.44-1.94,1.74-1.91,1.51.03,1.94-.82,1.93-2.18-.03-2.65-.03-5.31.01-7.96.06-3.61,2.02-5.78,5.64-6.09,1.88-.16,3.79-.13,5.68-.09,1.55.03,2.34-.53,2.33-2.19-.05-6.52.56-5.36-5.39-5.5-1.18-.03-2.07.22-2.53,1.47-.62,1.68-1.96,2.4-3.7,2.42-.76,0-1.52.02-2.27.02-3.31,0-4.34-1.34-3.32-4.58.15-.47.95-.94,1.51-1.05,1.67-.31,2.39-1.3,2.45-2.88.05-1.45.07-2.91.03-4.36-.03-1.38.61-1.98,1.95-1.9.31.02.63,0,.95,0,2.93,0,3.01,0,3,2.88,0,1.72.75,2.14,2.3,2.13,7.39-.04,14.79-.04,22.18.02.78,0,2.18.44,2.22.8.18,1.51.01,3.09-.19,4.61-.03.2-1,.38-1.54.38-2.78.04-5.56.06-8.34,0-1.3-.03-1.82.44-1.8,1.76.12,6.65-.88,5.88,5.58,5.94,1.39.01,2.78.05,4.17,0,1.55-.05,2.21.68,2.11,2.19,0,.06,0,.13,0,.19.1,3.59.06,3.63-3.46,3.64-2.21,0-4.43.05-6.63-.02-1.34-.04-1.8.51-1.76,1.8.06,2.15.07,4.3,0,6.45-.06,1.61.73,2.11,2.19,2.09,2.72-.03,5.43-.03,8.15.01,2.09.03,2.3.33,2.28,2.95-.01,2.4-.2,2.64-2.34,2.66-2.78.03-5.56.04-8.34,0-1.36-.01-1.96.58-1.93,1.94.04,1.9-.03,3.79,0,5.69.02,1.27-.51,1.85-1.8,1.83-6.61-.07-5.66.8-5.71-5.35-.03-4.61.05-4.07-4.13-4.1-1.52-.01-3.03,0-4.55,0h0ZM58.94,84.79c0-.44,0-.88,0-1.32,0-4.03,0-4.04-3.97-3.86-2.39.11-3.43,1.08-3.59,3.49-.1,1.44.03,2.9-.06,4.35-.12,1.77.57,2.5,2.39,2.48,5.91-.08,5.18.46,5.24-5.13"/><path class="cls-1" d="M2.18,30.33c-1.76-4.7.39-7.21,4.69-8.67-.16-.2-.32-.4-.48-.6-1.04,0-2.12.18-3.1-.06-.6-.15-1.1-.9-1.55-1.45-.16-.19-.05-.61-.05-.93-.06-3.37-.03-3.4,3.29-3.41,1.77,0,3.54-.04,5.31,0,1.4.02,1.67-.82,1.68-1.97,0-1.15-.06-2.22-1.6-2.25-1.01-.02-2.02,0-3.03-.04-2.03-.07-2.16-.32-2.21-3.02-.03-1.6.2-2.82,2.23-2.6.5.05,1.01.01,1.52,0,2.18-.08,3.04-.77,3.04-2.98,0-1.89.81-2.5,2.54-2.3.06,0,.13,0,.19,0q3.2-.02,3.26,3.2c.04,2,.39,2.26,2.37,2.08,1.46-.13,1.39-1.12,1.53-2.15.14-1,.24-2.64.77-2.83,1.23-.44,2.72-.27,4.08-.11.34.04.73.94.82,1.49.56,3.36.77,3.57,4.08,3.59,2.74.02,4.14,2.29,2.85,4.78-.22.43-.99.73-1.54.8-1.06.13-2.15.09-3.22.05-1.51-.05-2.17.59-2.16,2.14.01,1.51.56,2.19,2.14,2.13,2.15-.08,4.3.04,6.45-.03,1.48-.04,2.1.6,1.99,2.04,0,.06,0,.13,0,.19q.1,3.65-3.59,3.65c-1.77,0-3.55-.09-5.31.05-.63.05-1.63.57-1.75,1.05-.26,1.12.4,1.98,1.65,2.03,1.89.08,3.79.06,5.69.07,3.01.01,4.47,2.29,3.13,5.06-.21.42-.99.78-1.52.79-3.85.06-7.71.09-11.57,0-2.33-.05-3.26-1.11-3.33-3.46-.03-1.14,0-2.28-.03-3.41-.06-2.19-.75-2.67-2.71-1.69-3.39,1.7-6.72,3.52-10.07,5.3-2.15,1.14-4.31,2.28-6.5,3.45M21.75,13.13c.1-1.28-.28-2.15-1.82-2.17-1.41-.02-2.06.51-2.04,2,.02,1.36.21,2.3,1.92,2.28,1.51-.01,2.05-.67,1.94-2.1"/><path class="cls-1" d="M49.01,49.63c1.06-1.47,1.81-2.5,2.96-4.07-2.2,0-3.86-.05-5.51.01-1.46.06-2.02-.56-2.02-2.02.04-6.19.04-12.38,0-18.57,0-1.44.52-2.05,2-2.04,8.52.03,17.05,0,25.57.03,2.64.01,3.75,1.21,3.77,3.88.02,5.49-.03,10.99.03,16.48.02,1.61-.53,2.33-2.19,2.24-1.56-.09-3.13-.02-5.23-.02,1.04,1.49,1.79,2.57,2.55,3.67-3.12,1.3-7.16.52-9.33-1.75-.74-.77-1.36-1.79-2.56-.48-.87.96-1.82,2.31-2.91,2.52-2.11.4-4.36.12-7.12.12M50.52,29.41c1.92,1.13,17.91.96,19.03-.12-1.43-1.06-17.48-1.05-19.03.12M69.94,34.01c-.75-.24-1.2-.5-1.64-.51-5.43-.03-10.85-.04-16.28,0-.5,0-1,.39-1.71.68,1.94,1.23,17.96,1.15,19.63-.17M69.69,39.1c-1.86-1.11-17.86-.97-19.01.09,1.49,1.09,17.41,1.1,19.01-.09"/><path class="cls-1" d="M20.98,82.77c0-6.38-.02-12.76,0-19.14.02-3.65,2.26-6.06,5.95-6.21,3.28-.13,6.57-.03,9.85-.06,1.37-.01,1.98.62,1.89,1.97,0,.13,0,.25,0,.38q.07,3.62-3.6,3.63c-1.45,0-2.91-.03-4.36.02-2.48.09-3.51,1.13-3.69,3.62-.28,4.04-.18,4.15,3.85,4.15,2.27,0,4.55.03,6.82,0,1.19-.01,1.75.52,1.72,1.71-.02.88.12,1.8-.05,2.64-.12.57-.6,1.41-1.05,1.51-1.57.34-1.55,1.4-1.55,2.59,0,7.39.03,14.78-.03,22.18,0,.97-.38,2.67-.83,2.76-1.55.31-3.23.15-4.82-.09-.29-.04-.55-1.3-.56-2-.04-7.64,0-15.29-.07-22.93,0-.75-.37-1.86-.92-2.16-1.44-.78-2.51.15-2.52,2.06-.03,5.37-.01,10.74-.02,16.11,0,2.34-.05,4.68.01,7.01.04,1.57-.53,2.29-2.19,2.32-3.75.08-3.85.04-3.86-3.67,0-6.13,0-12.26,0-18.39h0Z"/><path class="cls-1" d="M4.59,75.66c-.58-1.66-1.11-3.26-1.71-4.82-.57-1.49-.12-2.09,1.47-2.11,2.33-.03,4.77-.39,5.04,3.17.48-.44.66-.53.75-.68,1.24-2.26,3.48-3.24,5.86-2.34.37.14.7,1.2.57,1.73-.36,1.53-.97,3-1.45,4.5-.05.16.05.36.11.77.63.06,1.3.21,1.96.16,1.52-.1,2.17.48,2.16,2.07-.04,4.78.18,4.16-4,4.2-.32,0-.73-.11-.93.05-.55.44-1.4,1.01-1.39,1.51.02.52.82,1.31,1.42,1.46,1.01.26,2.13.11,3.21.12,1.07.01,1.56.5,1.67,1.61.39,4.06.22,4.28-3.81,4.37-.54.01-1.08.1-2.25.21,1.37,1.05,2.27,1.77,3.2,2.45,3.15,2.33,3.52,3.33,2.58,7.73-1.91-1.21-3.73-2.36-6.16-3.9,0,1.73,0,2.93,0,4.14-.01,2.58-.16,2.73-2.63,2.76q-3.64.05-3.63-3.64c0-.92,0-1.83,0-3.27-2.26,1.46-4.08,2.64-5.93,3.83-2.42-5.44,2.05-7.28,5.23-9.78-.11-.18-.21-.36-.32-.54-1.16,0-2.32-.04-3.48.01-1.34.06-2.05-.45-1.94-1.87.02-.19,0-.38,0-.57q-.04-3.54,3.52-3.56c.51,0,1.14.16,1.49-.09.56-.39,1.23-1.01,1.3-1.6.05-.41-.77-1.22-1.31-1.33-1.1-.22-2.26-.11-3.4-.1-1.11,0-1.63-.52-1.6-1.62,0-.32,0-.63,0-.95q-.02-3.35,3.21-3.7c.3-.03.59-.17,1.21-.36"/><path class="cls-1" d="M46.17,8.95c-.53-.1-.83-.19-1.13-.21-3.2-.22-4.14-1.52-3.22-4.69.14-.49.89-1.02,1.44-1.12.98-.19,2.01-.11,3.02-.06,1.36.07,2.47-.15,3.01-1.66.15-.42.81-.9,1.27-.94,1.42-.12,2.86-.04,4.38-.04v2.64c1.2,0,2.31.02,3.41,0,1.24-.03,1.87.5,1.87,1.8-.02,4.86-.01,9.73,0,14.59,0,1.06-.45,1.69-1.56,1.7-2.21.01-4.42.02-6.63,0-1.06,0-1.59-.51-1.1-1.57.71-1.53.6-3.57,2.74-4.26.33-.11.57-.93.61-1.45.1-1.13.14-2.28,0-3.4-.07-.54-.6-1.02-.92-1.53-.51.36-1.28.62-1.48,1.11-1.18,2.86-2.21,5.78-3.32,8.67-.84,2.19-3.78,3.4-5.79,2.3-.32-.18-.44-1.22-.26-1.72,1.04-2.91,2.19-5.79,3.29-8.68.15-.4.22-.83.39-1.47"/><path class="cls-1" d="M78.77,12.79c0,2.15-.02,4.29,0,6.44.01,1.19-.55,1.74-1.72,1.74-4.36,0-8.71,0-13.07,0-1.29,0-1.8-.68-1.8-1.9,0-4.8.01-9.6,0-14.4,0-1.27.58-1.82,1.85-1.81,3.53.03,7.07-.07,10.6.05,3.12.1,4.11,1.26,4.13,4.38.01,1.83,0,3.66,0,5.49h-.01ZM73.25,12c-.46-1.06-.63-2.67-1.42-3.07-2.38-1.19-3.91-.01-3.92,2.66,0,.75-.17,1.59.11,2.24.26.61.95,1.34,1.54,1.44,2.87.46,3.3,0,3.69-3.27"/><path class="cls-1" d="M18.13,25.03c.08,1.09.18,1.75.18,2.41.01,5.69.02,11.38,0,17.07-.02,4.04-1.14,5.12-5.22,5.14-2.4.01-4.8-.05-7.2.02-1.6.04-2.26-.57-2.27-2.22-.02-3.39.02-3.52,3.44-3.51,5.72.03,5.36.17,5.35-5.39,0-2.84.07-5.69-.02-8.53-.05-1.55.54-2.49,1.95-3.08,1.19-.5,2.31-1.15,3.8-1.91"/><path class="cls-1" d="M9.68,65.98c-2.52,0-5.04-.04-7.56.01-1.34.03-2.04-.48-1.93-1.88,0-.13,0-.25,0-.38q-.08-3.96,3.82-4c2.5-.02,2.62-.05,2.6-2.51-.01-1.69.72-2.27,2.28-2.17.63.04,1.26.04,1.89,0,1.52-.09,2.14.57,2.15,2.12.02,2.49.14,2.54,2.59,2.55,3.99.02,3.83-.39,3.81,3.77-.01,2.38-.09,2.46-2.45,2.47-2.39.01-4.79,0-7.19,0"/><path class="cls-1" d="M36.14,40.67c0,1.45-.02,2.89,0,4.34.02,1.22-.49,1.81-1.78,1.9-3.97.29-4.13.18-4.13-3.85,0-2.2.03-4.4,0-6.61-.02-1.31.48-1.93,1.86-2.02,3.87-.23,4.07-.09,4.07,3.77,0,.82,0,1.64,0,2.45h-.01Z"/><path class="cls-1" d="M21.43,40.68c0-1.45,0-2.9,0-4.35-.01-1.24.55-1.89,1.82-1.87.69,0,1.39,0,2.08,0,1.14,0,1.77.53,1.77,1.71,0,3.02,0,6.05,0,9.07,0,1.07-.53,1.64-1.62,1.63-.5,0-1.01.02-1.51.02-2.31-.02-2.51-.2-2.55-2.44-.02-1.26,0-2.52,0-3.78h.02Z"/><path class="cls-1" d="M9.49,29.91c0,3.56.03,6.93-.04,10.3,0,.34-.58.73-.96.98-.23.15-.61.09-.92.1-3.8.21-3.92.1-3.92-3.71v-.57c0-4.78.61-5.56,5.85-7.1"/></g></svg>