<?xml version="1.0" encoding="UTF-8"?><svg id="_图层_2" xmlns="http://www.w3.org/2000/svg" xmlns:xlink="http://www.w3.org/1999/xlink" viewBox="0 0 207.65 67.67"><defs><style>.cls-1{fill:url(#_未命名的渐变_9-3);}.cls-1,.cls-2,.cls-3{opacity:.6;}.cls-2{fill:url(#_未命名的渐变_9-2);}.cls-3{fill:url(#_未命名的渐变_9);}.cls-4{fill:#f5f5f5;}</style><linearGradient id="_未命名的渐变_9" x1="36.29" y1="56.44" x2="62.95" y2="10.26" gradientUnits="userSpaceOnUse"><stop offset="0" stop-color="#cb536a" stop-opacity="0"/><stop offset=".86" stop-color="#cb536a" stop-opacity=".86"/><stop offset="1" stop-color="#cb536a"/></linearGradient><linearGradient id="_未命名的渐变_9-2" x1="173.98" y1="-2.27" x2="138.29" y2="33.41" xlink:href="#_未命名的渐变_9"/><linearGradient id="_未命名的渐变_9-3" x1="101.15" y1="67.67" x2="101.15" y2="13.68" xlink:href="#_未命名的渐变_9"/></defs><g id="_图层_1-2"><path class="cls-3" d="M86.61,23.92v19.52c-9.02.36-18.23.56-29.85.66-10.19.09-25.8-3.82-43.06-5.69-3.27-.35-5.43-.18-7.91.42v-2.91c0-1.35.89-2.55,2.2-2.92,9.27-2.65,31.52-2.01,56.08-3.77,7.53-.54,15.04-3.12,22.55-5.31Z"/><path class="cls-2" d="M193.03,16.77c-.29.02-.58.06-.87.13-10.9,2.65-9.76,7.58-26.62,7.77-7.36.24-19.54-2.17-24.45-4.61-5.2-2.59-12.56-4.6-21.85-5.7,14.37-4.92,26.38-6.94,41.08-5.8,14.56,1.13,22.45,2.43,32.7,8.21Z"/><path class="cls-4" d="M83.34,13.01h-12.86c2.2-2.99,5.76-5.02,9.43-5.02h8.95l.46-2.63h-19.63c.71-.88,1.22-1.92,1.41-3.03h-2.63c-.29,1.67-1.89,3.03-3.56,3.03h-15.72l-.46,2.63h23.54c-1.9,1.31-3.54,3.04-4.71,5.02h-15.59l-2.9,16.59h2.63l2.44-13.96h12.19c-.24.7-.43,1.41-.56,2.15l-2.59,14.79h2.63l2.59-14.79c.13-.74.34-1.46.62-2.15h11.23l-1.3,7.45c-.37,2.14-2.42,3.88-4.56,3.88l-.46,2.63c3.59,0,7.02-2.92,7.65-6.51l1.76-10.08Z"/><path class="cls-4" d="M107.22,32.58h2.63l1.8-10.27h6.1c5.41,0,10.58-4.4,11.53-9.81l.82-4.67h-15.92l.96-5.48h-2.63l-.96,5.48h-15.92l-2.53,14.49h15.92l-1.8,10.27ZM127.02,10.44l-.36,2.04c-.69,3.96-4.48,7.19-8.44,7.19h-6.1l1.62-9.23h13.29ZM96.19,19.67l1.62-9.23h13.29l-1.62,9.23h-13.29Z"/><path class="cls-4" d="M160.99,29.95h-3.2c-7.47,0-12.61-5.32-11.47-11.86l1.61-9.2-2.54-.3c-3.91,9.54-9.75,16.81-17.36,21.6l1.14,2.15c5.92-3.73,10.83-8.81,14.68-15.17l-.16.93c-1.4,7.99,4.72,14.49,13.64,14.49h5.83l1.89-10.81h-2.63l-1.43,8.18Z"/><path class="cls-4" d="M177.82,32.34l1.89-2.15c-5.93-4.79-9.23-12.06-9.8-21.6l-1.35-.99c-3.98.73-7.32,2.52-9.96,5.36-.04-4.94-1.32-9.51-3.68-12.95l-2.29,1.72c2.71,3.94,3.83,9.56,3.08,15.44l2.45.44c2.22-3.76,5.23-6.11,9.19-7.14.82,9.57,4.34,16.92,10.48,21.88Z"/><path class="cls-4" d="M10.91,20.03l-4.35,1.35c.76-1.15,1.3-2.44,1.53-3.78l1.04-5.92h3.65l.46-2.63h-3.65l1.33-7.6h-2.63l-1.33,7.6h-3.65l-.46,2.63h3.65l-1.04,5.92c-.45,2.59-2.5,4.88-5.1,5.7l-.37.12.39,2.49,10.9-3.38-.38-2.5Z"/><path class="cls-4" d="M41.9,8.62l.96-2.52c-2.64-1.24-4.27-2.79-4.97-4.73h-2.9l.17.62c.41,1.51,1.23,2.84,2.44,4.01h-6.02c.17-1.45.39-2.97.66-4.55h-2.63c-.27,1.59-.49,3.1-.66,4.55h-12.38l-.24,1.36c-.91,5.18-3.3,18.78-9.75,22.12l.9,2.28c2.32-1.2,4.18-3.25,5.69-5.78h.4c5.72,0,11.19-4.65,12.19-10.37l.47-2.7h-8.36c.32-1.44.61-2.87.87-4.28h9.95c-.49,5.8-.14,10.55,1.06,14.28-2.53,2.33-5.52,4.52-9.05,6.62l1.07,2.19c3.38-2.02,6.34-4.16,8.91-6.44,1.48,3.07,3.69,5.24,6.67,6.56l1.68.74,1.53-8.74h-2.63l-.82,4.66c-1.85-1.22-3.27-2.99-4.26-5.29,3.36-3.41,5.91-7.12,7.68-11.19l-2.43-.66c-1.47,3.38-3.49,6.45-6.12,9.3-.84-3.21-1.05-7.22-.66-12.04h10.58ZM23.14,15.53v.07c-.73,4.09-4.51,7.45-8.58,7.72,1.09-2.39,1.96-5.06,2.68-7.79h5.91Z"/><path class="cls-1" d="M198.78,22.39v45.29H3.52v-25.96c0-1.37.94-2.56,2.27-2.88h0c2.49-.6,4.65-.77,7.91-.42,17.26,1.87,32.87,5.77,43.06,5.69,11.61-.1,20.82-.3,29.85-.66v-21.26c0-1.09.52-2.12,1.41-2.75,6.2-4.38,14.29-5.87,23.14-5.75,2.84.15,5.54.38,8.09.68,9.29,1.09,16.64,3.11,21.85,5.69,4.91,2.44,17.09,4.86,24.45,4.61,16.86-.19,15.73-5.11,26.62-7.77.29-.07.58-.11.87-.13.64-.04,1.27.04,1.86.22,2.34.71,3.89,2.94,3.89,5.39Z"/><path class="cls-4" d="M58.51,34.17h-2.62c-.49,2.82-1.15,5.43-1.96,7.83h-16.84l-.46,2.62h16.31c-3.77,8.98-10.22,14.69-19.8,17.65l.38,2.49c10.35-3.2,17.52-9.52,21.7-19.18.8,9.66,5.75,15.98,14.98,19.18l1.25-2.49c-8.54-2.96-13-8.66-13.63-17.65h16.31l.46-2.62h-16.84c.02-2.4.28-5.01.78-7.83Z"/><path class="cls-4" d="M100.09,34.31l-2-1.36c-2.17,2.78-5.53,4.5-8.77,4.5h-8.91l-.46,2.62h18.17c-7.47,2.25-14.73,5.91-21.3,10.81l1.36,1.99c2.66-1.99,5.45-3.75,8.31-5.3l-.29,1.68h0l-.09.52-2.61,14.92h2.62l1.16-6.61h19.57c.64,0,1.27-.14,1.86-.39v.08c-.44,2.4-2.73,4.36-5.13,4.36h-1.71l-.46,2.62h1.71c3.85,0,7.52-3.13,8.2-6.98l2.44-13.93h-19.04c6.63-2.47,13.52-3.78,20.29-3.78h5.08l.46-2.62h-23.77c1.24-.87,2.37-1.93,3.32-3.14ZM107.3,55.46h-19.57l.63-3.59h19.57c.99,0,1.65.81,1.48,1.8-.17.99-1.12,1.8-2.11,1.8ZM110.12,49.64c-.51-.25-1.09-.39-1.73-.39h-19.57l.49-2.78h21.37l-.55,3.17Z"/><path class="cls-4" d="M157.03,61.35c-3.42-1.44-3.91-9.27-1.45-23.32l.22-1.28h-26.5l-.21,1.29c-1.95,11.83-5.76,20.91-10.45,24.93l1.57,1.79c5.15-4.41,9.14-13.41,11.29-25.45h21.25c-1.99,11.84-2.98,24.85,5.11,24.85h1.31l1.34-7.65h-2.62l-.85,4.84Z"/><path class="cls-4" d="M146.01,41.74c-1.47,2.59-3.11,4.94-4.93,7.05-1.87-2.52-4.06-4.8-6.53-6.81l-1.9,2.07c2.48,2.01,4.64,4.3,6.48,6.85-3.24,3.26-6.96,5.83-11.12,7.69l.76,2.3c4.37-1.96,8.28-4.62,11.71-7.97,1.38,2.22,2.54,4.61,3.47,7.17l2.5-.34c2.31-5.97,2.98-12.01,2.01-17.95l-2.46-.06ZM145.14,55.65c-.78-1.69-1.67-3.31-2.66-4.84,1.32-1.48,2.56-3.07,3.71-4.78.15,3.2-.2,6.41-1.05,9.62Z"/><path class="cls-4" d="M200.77,57.59l1.25-7.17h-29.79l-1.25,7.17h13.58l-.37,2.12c-.23,1.32-1.49,2.4-2.8,2.4h-3.1l-.46,2.64h3.1c2.76,0,5.39-2.26,5.88-5.04l.37-2.12h13.58ZM174.39,53.07h24.55l-.33,1.88h-24.55l.33-1.88Z"/><path class="cls-4" d="M188.34,46.25c.39-.49.71-1.04.95-1.63h13.75l1.69-9.67h-29.79l-1.69,9.67h13.27c-.65.96-1.75,1.63-2.89,1.63h-15.72l-.46,2.64h39.74l.46-2.64h-19.32ZM201.65,37.59l-.77,4.39h-11.49c.45-.66.77-1.4.91-2.19l.23-1.32h-13.58l.15-.87h24.55ZM176.33,41.98l.15-.87h10.52c-.49.53-1.18.87-1.89.87h-8.79Z"/><path class="cls-4" d="M177.67,58.43c-3.54,1.99-7.62,3.11-12.13,3.33l-.33,2.64c4.96-.24,9.48-1.5,13.44-3.72l-.98-2.25Z"/><path class="cls-4" d="M192.27,60.68c3.18,2.22,7.27,3.48,12.14,3.72l.59-2.64c-4.43-.22-8.12-1.34-10.96-3.33l-1.77,2.25Z"/></g></svg>