<?xml version="1.0" encoding="UTF-8"?><svg id="_图层_2" xmlns="http://www.w3.org/2000/svg" viewBox="0 0 177.56 71.8"><defs><style>.cls-1{fill:#f5f5f5;}</style></defs><g id="_图层_1-2"><path class="cls-1" d="M42.61,3.13c-2.45,5.63-5.8,11.95-8.31,15.65l.74.57c3.92-3.02,8.36-7.68,11.89-12.29,1.25.17,2.05-.23,2.34-.85l-6.66-3.08ZM6.32,3.47l-.68.4c2.9,3.76,6.37,9.56,6.94,14.16,4.95,4.16,9.1-6.94-6.26-14.56ZM17.14,26.07c-.95,11.84-4.87,19.67-17.14,25.59l.28.79c15.37-4.72,20.49-12.96,22-26.39h-5.15ZM28.84,22.07V2.22c1.36-.22,1.93-.79,2.05-1.59l-6.78-.63v22.07H.39l.46,1.59h27.98v-1.59h0ZM51.59,45.91l-.17-9.66h-.73c-.85,4.15-1.65,8.13-2.16,9.27-.28.62-.51.79-1.25.85-.85.11-2.62.17-5,.17h-5.41c-2.05,0-2.33-.34-2.33-1.36v-19.11h-4.67v20.24c0,3.53,1.08,4.5,6.09,4.5h6.09c9.33,0,11.27-.8,11.27-2.85,0-.97-.34-1.54-1.71-2.05Z"/><path class="cls-1" d="M49.95,22.75c-.17.63-.73.91-1.47.91h-8.56l.53-.72.63-.87,3.13-3.98s3.64,2.73,5.74,4.66Z"/><path class="cls-1" d="M52.29,15.73l-.48.26c1.74,2.39,4.05,6.05,4.7,8.88,3.4,2.57,6.14-4.52-4.22-9.14Z"/><path class="cls-1" d="M70.64,25.26h2.76c.41,0,.7-.16.79-.51-.79-.92-2.15-2.15-2.15-2.15l-1.2,1.74-.47.92h.28Z"/><path class="cls-1" d="M69.18,24.01v-7.27c1-.18,1.44-.52,1.57-1.17l-4.7-.48v8.93h-5.31l.35,1.26h4.96v7.84c-2.35.74-4.36,1.3-5.53,1.61l2.18,3.61c.39-.18.7-.52.87-1.04.83-.48,1.7-.91,2.48-1.4v8.62c0,.57-.18.7-.83.7s-3.74-.22-3.74-.22v.7c1.48.22,2.31.57,2.78,1.04.44.44.61,1.26.65,2.18,3.79-.35,4.26-1.74,4.26-4.22v-10.58c2.05-1.17,3.66-2.13,5.01-2.96l-.22-.61c-1.66.57-3.22,1.09-4.79,1.53v-6.79"/><path class="cls-1" d="M87.34,16.99c.87.33,1.53.29,1.89-.03l-3.17-2.77c-1.31.95-4,3.24-6.23,4.22,2.69-.26,5.6-.91,7.5-1.42Z"/><path class="cls-1" d="M174.85,53.74c.99.38,1.74.33,2.15-.04l-3.6-3.15c-1.49,1.08-4.55,3.68-7.08,4.81,3.06-.29,6.37-1.04,8.53-1.62Z"/><path class="cls-1" d="M109.35,24.49c1,.38,1.74.34,2.16-.04l-3.61-3.16c-1.49,1.08-4.57,3.69-7.1,4.82,3.07-.29,6.39-1.04,8.56-1.62Z"/><path class="cls-1" d="M89.91,28.87c1.29.36,2.26.31,2.8-.03l-4.68-2.96c-1.93,1.01-5.91,3.46-9.2,4.52,3.98-.27,8.28-.97,11.09-1.52Z"/><path class="cls-1" d="M82.59,31.28h3.18v16.75c0,.22-1.04.87-2.65.87h-.52v-17.62Z"/><path class="cls-1" d="M78.71,18.78l-.42.48.03.69v6.89h0v3.47c-.06,6.15-.86,13.52-7.35,18.58l-.57-.52c4.27-5.48,4.7-12.32,4.7-18.98v-11.83l3.61,1.22Z"/><path class="cls-1" d="M122.32,30.54c-.91,6.05-3.56,11.66-13.13,15.74l-.54-.74c7.22-4.46,9.07-9.65,9.63-15h4.05Z"/><path class="cls-1" d="M129.57,30.54h3.85c-.54,7.24-1.68,11.28-3.52,12.76-1.34,1.04-3.03,1.54-5.01,1.54,0-1.15-.15-2.13-.74-2.63-.65-.55-2.09-1-3.67-1.29v-.8c1.58.1,4.32.35,5.31.35.8,0,1.19-.1,1.59-.45.93-.85,1.71-4.08,2.2-9.48Z"/><polygon class="cls-1" points="127.49 27.46 113.26 27.46 112.37 24.59 127.49 27.46"/><path class="cls-1" d="M135.56,27.22c-.09.09-.19.17-.3.25h-7.3l3.54-3.53,4.07,3.28Z"/><path class="cls-1" d="M117.19,55.22v1.44h6.79v-1.44h-6.79ZM103.09,55.22v1.44h7.04v-1.44h-7.04ZM103.09,55.22v1.44h7.04v-1.44h-7.04ZM117.19,55.22v1.44h6.79v-1.44h-6.79ZM103.09,55.22v1.44h7.04v-1.44h-7.04ZM103.09,55.22v1.44h7.04v-1.44h-7.04ZM117.19,55.22v1.44h6.79v-1.44h-6.79ZM117.19,55.22v1.44h6.79v-1.44h-6.79ZM111.72,50.23v11.69l3.02-1.28c.52-.22.86-.73.86-1.29v-9.12h-3.88ZM103.09,55.22v1.44h7.04v-1.44h-7.04ZM103.09,55.22v1.44h7.04v-1.44h-7.04ZM111.72,50.23v11.69l3.02-1.28c.52-.22.86-.73.86-1.29v-9.12h-3.88ZM117.19,55.22v1.44h6.79v-1.44h-6.79ZM123.53,48.62v-.49l-21.73-.95-4.37-1.88v22.94h.65c1.64,0,3.43-.94,3.43-1.34v-1.94l20.84-.36v-.57l-20.84-.5v-14.9h22.03ZM127.22,44.89l-1.64,1.76v21.29h.65c1.34,0,3.32-.89,3.38-1.19v-17.38c1.04-.2,1.79-.65,2.13-1.04l-4.52-3.43ZM103.09,55.22v1.44h7.04v-1.44h-7.04ZM111.72,50.23v11.69l3.02-1.28c.52-.22.86-.73.86-1.29v-9.12h-3.88ZM117.19,55.22v1.44h6.79v-1.44h-6.79ZM117.19,55.22v1.44h6.79v-1.44h-6.79ZM111.72,50.23v11.69l3.02-1.28c.52-.22.86-.73.86-1.29v-9.12h-3.88ZM103.09,55.22v1.44h7.04v-1.44h-7.04ZM103.09,55.22v1.44h7.04v-1.44h-7.04ZM111.72,50.23v11.69l3.02-1.28c.52-.22.86-.73.86-1.29v-9.12h-3.88ZM117.19,55.22v1.44h6.79v-1.44h-6.79ZM117.19,55.22v1.44h6.79v-1.44h-6.79ZM103.09,55.22v1.44h7.04v-1.44h-7.04ZM103.09,55.22v1.44h7.04v-1.44h-7.04ZM117.19,55.22v1.44h6.79v-1.44h-6.79ZM103.09,55.22v1.44h7.04v-1.44h-7.04ZM117.19,55.22v1.44h6.79v-1.44h-6.79Z"/><path class="cls-1" d="M106.09,32.71l-.48.21c.79,1.17,1.65,2.76,2.24,4.35.24.72.69,2.31.73,3,2.45,2.17,4.79-3.24-2.48-7.55Z"/><path class="cls-1" d="M106.5,38.44c-2.83,1.69-4.8,2.77-9.33,6.7-.3.54-.74.89-1.15,1.09l-2.08-4.31c1.19-.7,1.39-1,1.39-1.89v-14.25l4.37.45-.72.74.03.86v13.01c2.43-.89,4.34-1.59,7.49-2.38Z"/><path class="cls-1" d="M172.52,27.67l-2.22,2.79-.89,1.3h5.98c.61,0,1.04-.22,1.17-.7-1.56-1.48-4.05-3.4-4.05-3.4ZM135.53,49.53l2.35,4c.44-.31.65-.91.61-1.44,1.83-2.26,3.31-4.43,4.52-6.09-3.18,2.35-5.55,3.39-7.48,3.53ZM147.1,30.46l-3.96-1.79v12.32c0,1.09-.08,3.96-.13,5.01-.48,6.66-2.09,13.23-7.01,18.63l.52.48c9.06-6.49,9.97-16.37,9.97-24.16v-9.18l21.12-.33v-.59l-20.51-.38ZM137.05,32.63l-.56.26c1.26,2.18,2.61,5.62,2.61,8.27,2.74,2.74,5.97-3.53-2.05-8.53ZM168.83,33.94l-1.31,1.44v6.44l-11.26.65v.65h11.26v7.35h.53c1.08,0,2.78-.52,2.87-.69v-12.1c.78-.18,1.43-.52,1.7-.83l-3.79-2.91ZM154.24,44.99h0v-4.59h0v-3.48h12.08v-.66l-11.56-.41-3.87-1.78v25.15c0,.83-.22,1.18-1.78,1.92l1.78,3.7c.26-.13.61-.35.87-.74,4.39-2,8.44-4.22,10.58-5.31l-.18-.61c-2.78.74-5.61,1.4-7.92,1.96v-10.92l11.75-.65v-.61h-11.75v-2.97Z"/><path class="cls-1" d="M177.56,61.69l-.05.48c-1.35.31-2.44,1.44-2.83,3.09-7.45-2.56-11.93-7.52-14.36-15.49,1.04,2.22,3.47,5.59,5.3,7.29,3.01,2.61,7.54,3.76,11.94,4.64Z"/><path class="cls-1" d="M160.77,29.75c-.35-.05-.65-.18-1-.39-.57-1.75-2.26-3.92-3.61-5.18l.39-.26c7.71.74,6.57,5.35,4.22,5.84Z"/><path class="cls-1" d="M96.4,51.29v.57c-1.91.31-2.95,1.44-3.23,2.88h-11.42c-4.17,0-8.34-.47-12.28-1.54-4.19-1.14-7.87-2.81-10.83-5.21,1.34.85,2.79,1.51,4.4,2.01,1.11.35,2.3.63,3.58.84,3.25.55,7.12.72,11.94.72,6.24,0,11.38-.05,17.84-.27Z"/><path class="cls-1" d="M60.96,30.97c-.26.39-.87.7-2.09.87v12.39c0,.43-.05.86-.17,1.28,0,0,0,0,0,0-.02.07-.05.14-.07.22-.31,1.04-.72,2.04-1.22,2.99-1.06,2.04-2.62,3.76-4.44,4.9,1.39-1.65,2.24-3.58,2.58-5.55.1-.59.16-1.18.2-1.77v-14.92h-5.53l-.26-1.3h5.14l1.87-2.44,4,3.35Z"/><path class="cls-1" d="M4.77,65.27h.1c-.06,1.85.96,3.17,2.28,3.17,1.04,0,2.15-.55,2.35-1.71.18-1.03-.4-1.35-2.06-2.21-1.34-.69-2.05-1.12-1.8-2.55.26-1.45,1.6-2.79,3.05-2.79.47,0,.75.11,1.18.29.21.09.32.11.42.11.31,0,.43-.24.48-.35h.1l-.44,2.5h-.1c-.11-.85-.34-2.41-1.71-2.41-.65,0-1.71.38-1.91,1.51-.21,1.19.6,1.61,2.11,2.38,1.12.55,2.06,1.03,1.8,2.47-.27,1.52-1.94,2.92-3.48,2.92-.3,0-.72,0-1.32-.23-.5-.19-.67-.25-.92-.25-.38,0-.54.26-.58.35h-.1l.56-3.18Z"/><path class="cls-1" d="M13.76,63.01h-.91l.02-.14h2.16l-.94,5.35h.91l-.02.14h-3.07l.02-.14h.91l.92-5.21ZM15.01,59.05c.45,0,.75.36.67.82-.08.45-.51.82-.96.82s-.75-.38-.67-.82c.08-.44.51-.82.96-.82Z"/><path class="cls-1" d="M21.63,68.22h.91l-.02.14h-2.16l.12-.69c-.18.24-.61.83-1.47.83-1.19,0-2.38-1.22-2.07-2.93.31-1.75,1.99-2.93,3.13-2.93.82,0,1.05.52,1.16.74l.73-4.14h-.91l.02-.14h2.16l-1.61,9.12ZM20.9,63.12c-.21-.23-.5-.35-.84-.35-1.16,0-1.43,1.19-1.68,2.6-.36,2.04-.41,2.98.67,2.98.19,0,.76-.03,1.25-.67.31-.39.46-1.03.66-2.15.28-1.56.34-1.99-.05-2.42Z"/><path class="cls-1" d="M29.07,67.26c-.5.86-1.51,1.33-2.41,1.33-1.5,0-2.59-1.07-2.28-2.83.31-1.75,1.86-3.13,3.24-3.13,1.04,0,2.13.92,1.83,2.67h-3.58l-.08.45c-.24,1.38-.48,2.71.89,2.71.59,0,1.6-.24,2.27-1.25l.12.05ZM28.28,65.16c.31-1.81.21-2.39-.74-2.39-1.14,0-1.38.92-1.65,2.39h2.39Z"/><path class="cls-1" d="M36.68,59.54h-1.13l.02-.14h1.87c.28,0,.56-.01.83-.02.28-.01.56-.03.83-.03,1.79,0,3.18.79,2.91,2.31-.24,1.35-1.62,1.72-2.43,1.95l-.02.09c1.29.24,2.53.87,2.25,2.42-.34,1.92-2.28,2.29-3.83,2.29-.29,0-.59-.01-.88-.03-.3-.01-.59-.02-.89-.02h-2.25l.02-.14h1.13l1.53-8.68ZM36.72,68.19c.32.04.92.08,1.32.08.77,0,1.75-.1,2.13-2.25.37-2.11-.41-2.25-1.31-2.25h-1.36l-.78,4.43ZM37.52,63.63h1.35c.86,0,1.31-.28,1.61-1.99.32-1.81-.04-2.15-1.31-2.15-.13,0-.55.03-.93.05l-.72,4.09Z"/><path class="cls-1" d="M43.39,63.01l.02-.14h3.23l-.02.14h-1.09l.99,3.81,2.04-3.81h-.87l.02-.14h1.72l-.02.14h-.7l-3.28,6.14c-1.35,2.53-1.84,2.65-2.37,2.65s-.78-.44-.72-.78c.04-.24.28-.45.7-.45.24,0,.55.09.5.35-.03.15-.16.33-.18.47-.02.11.05.16.15.16.43,0,1.4-1.71,1.71-2.29l.37-.69-1.51-5.56h-.69Z"/><path class="cls-1" d="M53.98,65.27h.1c-.06,1.85.96,3.17,2.28,3.17,1.04,0,2.15-.55,2.35-1.71.18-1.03-.4-1.35-2.06-2.21-1.34-.69-2.05-1.12-1.8-2.55.26-1.45,1.6-2.79,3.05-2.79.47,0,.75.11,1.18.29.21.09.32.11.42.11.31,0,.43-.24.48-.35h.1l-.44,2.5h-.1c-.11-.85-.34-2.41-1.71-2.41-.65,0-1.71.38-1.91,1.51-.21,1.19.6,1.61,2.11,2.38,1.12.55,2.06,1.03,1.8,2.47-.27,1.52-1.94,2.92-3.48,2.92-.3,0-.72,0-1.32-.23-.5-.19-.67-.25-.92-.25-.38,0-.54.26-.58.35h-.1l.56-3.18Z"/><path class="cls-1" d="M62.97,63.01h-.91l.02-.14h2.16l-.94,5.35h.91l-.02.14h-3.07l.02-.14h.91l.92-5.21ZM64.22,59.05c.45,0,.75.36.67.82-.08.45-.51.82-.96.82s-.75-.38-.67-.82c.08-.44.51-.82.96-.82Z"/><path class="cls-1" d="M70.84,68.22h.91l-.02.14h-2.16l.12-.69c-.18.24-.61.83-1.47.83-1.19,0-2.38-1.22-2.07-2.93.31-1.75,1.99-2.93,3.13-2.93.82,0,1.05.52,1.16.74l.73-4.14h-.91l.02-.14h2.16l-1.61,9.12ZM70.11,63.12c-.21-.23-.5-.35-.84-.35-1.16,0-1.43,1.19-1.68,2.6-.36,2.04-.41,2.98.67,2.98.19,0,.76-.03,1.25-.67.31-.39.46-1.03.66-2.15.28-1.56.34-1.99-.05-2.42Z"/><path class="cls-1" d="M78.28,67.26c-.5.86-1.51,1.33-2.41,1.33-1.5,0-2.59-1.07-2.28-2.83.31-1.75,1.86-3.13,3.24-3.13,1.04,0,2.13.92,1.83,2.67h-3.58l-.08.45c-.24,1.38-.48,2.71.89,2.71.59,0,1.6-.24,2.27-1.25l.12.05ZM77.49,65.16c.31-1.81.21-2.39-.74-2.39-1.14,0-1.38.92-1.65,2.39h2.39Z"/></g></svg>