<?xml version="1.0" encoding="UTF-8"?><svg id="_图层_2" xmlns="http://www.w3.org/2000/svg" viewBox="0 0 152.25 78.02"><defs><style>.cls-1{fill:#f5f5f5;}</style></defs><g id="_图层_1-2"><path class="cls-1" d="M69.81,30.14c.15.59.29,1.26.41,2,.11.81.26,1.31.42,1.48.17.17.4.25.7.24.4-.02.8-.21,1.22-.57.41-.36.73-.82.94-1.39.25-.62.4-1.18.45-1.67.06-.5-.1-1-.46-1.5-.36-.5-.98-1.05-1.85-1.66-.87-.6-4.24-1.39-4.24-1.39.44.48.8.95,1.09,1.4.29.45.55.93.76,1.42.21.49.4,1.04.55,1.63Z"/><path class="cls-1" d="M61.53,33.01c.09.22.21.33.39.32.42-.02.8-.14,1.15-.37.35-.22.74-.66,1.16-1.3.33-.52.66-1.33.65-1.85-.07-3.49-4.58-4.52-4.58-4.52.46,1.25.77,2.34.93,3.28.17.94.23,1.96.2,3.07-.01.7.02,1.16.11,1.38Z"/><path class="cls-1" d="M43.63,32.58c-.4.28-.72.52-.95.73-.23.2-.4.38-.49.52-.09.15-.15.29-.16.42,0,.13,0,.28.06.44.13.51.49.81,1.09.89.59.08,1.19-.04,1.79-.36.57-.31,1.09-.69,1.53-1.11.45-.43.84-.97,1.17-1.63.33-.66.61-1.46.85-2.4.23-.94.43-2.08.6-3.43,0,0-4.43,5.19-5.48,5.93Z"/><path class="cls-1" d="M41.35,56.32c-.33-.3-.63-.53-.88-.71-.26-.18-.53-.36-.8-.54-.3-.18-.64-.25-1.01-.23-.37.03-.64.14-.82.33l-1.09,1.28-11.72.45c-.33-.15-.69-.3-1.08-.45.28-.46.56-.92.85-1.39.28-.47.57-.98.87-1.53l20.99-.85c.53-.02.82-.12.89-.29.06-.17-.04-.45-.31-.84-.22-.3-.45-.59-.7-.88-.25-.29-.59-.62-1-1.01-.31-.3-.57-.43-.78-.39-.21.03-.47.25-.8.64l-1.5,1.81-10.2.42.44-2.81,9.64-.41c.53-.02.82-.12.88-.29.06-.17-.08-.46-.41-.87-.23-.32-.48-.61-.73-.88-.26-.26-.55-.53-.89-.8-.3-.22-.54-.32-.72-.29-.18.03-.43.23-.75.6l-1.26,1.48-5.56.24.45-2.89,12.81-.58c.67-.03,1.04-.12,1.12-.26.07-.15-.06-.43-.4-.84-.26-.32-.56-.64-.89-.96-.33-.32-.66-.6-.97-.85-.3-.22-.54-.32-.72-.3-.18.02-.39.18-.63.47l-1.58,1.89-5.61.26c.92-.75,1.67-1.35,2.23-1.81.57-.45,1.03-.8,1.37-1.04,0,0,0,0,.01,0,.44-.31.94-.51,1.47-.6l2.66-.37s-5.4-1.74-5.92-1.9c-.54,1-1.08,1.95-1.64,2.87-.56.91-1.2,1.9-1.93,2.94l-6.63.3c.61-.29,1.05-.62,1.33-1.01.28-.39.46-.82.54-1.3.05-.31.04-.59-.03-.83-.07-.24-.26-.48-.59-.71-.33-.23-.82-.47-1.48-.72-.66-.25-5.31-.9-5.31-.9.51.59,2.65,1.57,3.59,2.75.58.73.71,1.78,1,2.77l-8.66.4c-.35.02-2.91.12-3.15.11-.24-.01-.52-.05-.83-.1,0,0,4.12,1,4.37.99l10.93-.49-.45,2.88-9.35.41c-.35.02-.64.02-.89,0-.24-.01-2.78.05-3.1,0,0,0,4.1,1.19,4.36,1.18l8.79-.38-.44,2.81-12.48.51c-.35.01-.64.02-.88,0-.24-.01-2.37.05-2.68-.01,0,0,3.55,1.13,3.8,1.12l5.76-.23c-2.46,6.54-16.73,19.44-18.16,20.76,0,0,10.52-7.67,13.6-10.7.77-.76,1.58-1.41,2.28-2.13.69-.73,1.36-1.49,1.99-2.29l-1.39,8.87c-.11.73-.22,1.34-.31,1.85l-.4,1.84c-.02.07-.03.13-.04.18l-1.31,5.95h.51s.03-.03.03-.03l2.48-1.79s0,0,0,0l2.6-1.88h0s-.82-.76-.82-.76l.78-4.17,10.96-.34-.4,2.53c-.02.14,0,.23.05.26.05.03.14.04.26,0,.64-.14,1.28-.29,1.93-.45.65-.16,1.18-.34,1.6-.54.15-.08.24-.23.25-.47.03-.66.1-1.28.19-1.85l1.66-10.51c.86-.34,1.33-.6,1.41-.78.08-.18-.13-.49-.6-.92ZM35.16,68.04l-10.96.35.5-3.19,10.97-.37-.51,3.21ZM35.83,63.84l-10.97.38.42-2.66,10.98-.39-.42,2.67ZM36.41,60.17l-10.98.4.34-2.16h0s.08-.53.08-.53l10.98-.42-.43,2.71Z"/><path class="cls-1" d="M63.99,42.1c.17.51.28,1.02.35,1.53.07.51.09,1.09.07,1.74-.03.64-.07,1.43-.14,2.37-.03.38.01.64.14.77.13.13.31.19.56.18.25-.01.6-.16,1.06-.44.46-.28.87-.76,1.25-1.44.24-.47.41-.91.52-1.35.1-.43.05-.91-.17-1.41-.22-.51-.63-1.09-1.2-1.76-.84-.99-3.73-2.71-3.73-2.71.31.69,1.14,2.01,1.3,2.52Z"/><path class="cls-1" d="M52.75,41.26c.84,1.56-.21,4.52-2.59,7.28,2.74-2.41,5.72-3.53,7.33-2.73-.85-1.56.21-4.53,2.61-7.31-2.76,2.44-5.75,3.56-7.35,2.77Z"/><path class="cls-1" d="M60.33,49.6c-.25-.01-.54-.05-.87-.11,0,0,1.36,1.26,2,1.24l5.41-.22c-.8,1.42-1.56,2.66-2.27,3.72-.71,1.06-1.45,2.06-2.21,3-.76.93-1.58,1.85-2.44,2.75-.86.9-1.85,1.87-2.95,2.91,0,0,4.88-2.33,6.86-4.38.8-.83,1.63-1.57,2.34-2.38.71-.81,1.45-1.71,2.21-2.7l-.17,1.08-2.59,11.53.54-.02.03-.02,2.62-1.86s0,0,0,0l2.75-1.95h0s-.87-.77-.87-.77l.76-8.13.43-2.82c.22,1.16.52,2.28.91,3.36.39,1.09.86,2.1,1.4,3.04.55.94,1.15,1.79,1.8,2.54.65.75,1.35,1.38,2.09,1.89.18.15,9.77-2.01,9.77-2.01-2.04-.41-8.28-1.33-10.82-3.65-1.62-1.48-3.08-3.18-4.12-5.37l9.5-.39c.5-.02.78-.11.84-.26.06-.16-.06-.4-.35-.75-.58-.74-1.3-1.42-2.15-2.05-.38-.29-.64-.44-.79-.44-.15,0-.39.16-.71.51l-1.39,2-5.26.22,7.31-6.67,1.99-.25,1.47-.18-3.85-2.17s-.04-.03-.07-.04c-.28-.18-.61-.36-.98-.55l-2.39,4.01c-.37.55-.81,1.16-1.3,1.83-.67.92-1.55,2.1-2.63,3.54l1.38-9.02c.09-.62.55-1.13,1.16-1.27,1.76-.41,2.47-1.13,2.47-1.13,0,0-5.57-.82-6.29-.93-.05.64-.11,1.25-.19,1.83-.08.59-.19,1.36-.34,2.33l-1.34,8.82-7.78.33c-.37.02-.68.02-.93,0Z"/><path class="cls-1" d="M53.35,66.77c1.35-1.33,2.89-3.44,3.88-6.86.17-.58.42-.94.56-1.15.14-.21.31-.35.52-.43.75-.28.86-.62.34-1.03-.38-.36-.71-.65-.98-.85-.27-.2-.6-.41-.98-.62-.17-.14-.3-.21-.39-.19-.09.02-.21.13-.36.33l-.85,1.05-2.22.08,4.31-6c1-.34,1.56-.59,1.69-.75.13-.16.07-.42-.19-.78-.24-.32-.48-.6-.72-.85-.24-.25-.55-.53-.94-.84-.19-.17-.35-.24-.47-.22-.12.02-.28.12-.48.3l-1.32,1.56-3.13.13c-.34.01-.62.01-.85,0-.23-.02-2.61-.07-2.89-.13,0,0,3.64,1.15,3.91,1.14l3.02-.13-2.98,4.4c-.49.72-.95,1.37-1.36,1.95-.41.58-.82,1.1-1.23,1.56-.23.28-.18.47.17.56.35.09.61.15.78.18.18.03.47.05.87.06.29-.04.54-.22.73-.55l.41-.58,2.98-.11c-.52,1.67-1.03,3.11-1.54,4.3-.51,1.2-1.08,2.26-1.73,3.2-.65.93-1.41,1.8-2.29,2.61-.88.8-3.03,2.29-4.29,3.2,0,0,4.45-1.78,5.65-2.64.24-.17.56-.39.93-.67,16.38,3.45,38.59.53,38.59.53l5.53-6.59c-23.1,4.68-34.82,5.16-42.7,4.85Z"/><path class="cls-1" d="M51.39,24.09l.11-.71,15.68-.9-.27,1.68c-.04.27.04.38.24.35.53-.13,1.03-.26,1.49-.39.46-.13.97-.33,1.52-.57.24-.11.37-.31.39-.6.04-.73.12-1.42.22-2.08l1.13-7.05c.5-.22.89-.41,1.16-.56.27-.15.45-.28.54-.4.09-.11.11-.22.05-.31-.06-.09-.17-.19-.32-.31-.74-.56-1.66-1.1-2.75-1.64-.39-.19-.73-.12-1.02.21l-1.04,1.26-5.72.36.67-4.19,3.22-.21,10.95-.5-.11-.51-.03-.02-6.19-2.82.84,1.86-6.29.93-2.2.15.11-.7h0c.51-1.43.82-2.38.92-2.83.11-.49.99-.99.99-.99l5.62-1.41s-7.77-.55-10.02-1.18c-.03.74-.1,1.49-.19,2.23-.07.46-1.66,10.41-1.66,10.41l-5.82.37c-.57-.32-1.14-.58-1.69-.79-.55-.2-1.18-.39-1.87-.56-.04.55-.09,1.05-.15,1.49-.06.44-.14.97-.23,1.57,0,0-1.84,11.26-1.84,11.29l4.61-1.17-1.07-.76ZM53.56,14.27l6.64-.42c4.02-.25,7.13,3.15,6.46,7.07l-6.69.39c-4,.23-7.07-3.15-6.41-7.05Z"/><path class="cls-1" d="M19.23,37.23l2.6-1.93h0s-.82-.74-.82-.74l1.46-13.38s.07.02.12.03c-.04-.02-.08-.03-.11-.05l.07-.63.74-4.76,11.52-.72-.47,2.96c-2.01,1.64-4.75,3.18-7.18,3.33-.65.04-2.33.02-3.24-.21,1.23.5,4.32,1.69,5.99,1.59,1.3-.08,2.62-.42,3.84-.97l-.35,2.22c-2.16,1.5-5.15,2.88-7.65,2.79-.65-.02-2.31-.21-3.19-.53,1.17.62,4.12,2.1,5.78,2.17,1.5.06,3.07-.24,4.49-.83l-.6,3.82c-.04.29-.16.47-.35.55-.19.08-.54.13-1.04.16-.51.03-4.44.01-6.77-.31l6.5,3.33-1.01,1.67s2.11-.87,3.2-1.41c1.09-.54,1.78-1,2.05-1.38.27-.38.48-1.01.62-1.89l2.6-16.51c1.03-.54,1.56-.93,1.6-1.17.04-.24-3.17-2.35-3.32-2.34-.15,0-.32.13-.5.35l-1.09,1.56-10.85.69c.93-1.21,1.99-2.69,3.17-4.43l17.67-.98-.1-.5-.03-.02-5.96-2.77.81,1.83-11.76,1.34c1.12-1.63,1.81-2.69,2.09-3.18.27-.49,1.28-.99,1.28-.99l5.76-1.4s-7.08-.58-8.97-1.22c-.9,2.32-2.08,4.66-3.53,7.01l-10.44.7c-.67.04-4.35.23-4.81.15,0,0,4.37.93,5,.89l9.67-.64C20.64,15.73,6.39,27.2,0,32.52c0,0,9.65-4.97,19.72-13.07l-3.5,19.67.51-.02.03-.02,2.47-1.84s0,0,0,0Z"/><path class="cls-1" d="M53.58,32.18c-.1.79-.13,1.29-.07,1.49.05.2.17.3.37.29.46-.02.9-.16,1.33-.41.42-.25.8-.61,1.11-1.08.35-.52.69-.99.72-1.44.33-4.79-3.8-5.03-3.8-5.03.15.54.28,1.04.38,1.48.1.45.16.91.18,1.37.02.46.01.97-.02,1.51-.04.54-.1,1.15-.18,1.82Z"/><path class="cls-1" d="M107.34,46.18c-.23,2.24-3.08,3.75-6.4,3.92-2.79.14-4.51-.76-4.9-2.51l2.72-1.11c-.42,1.92,1.59,2.95,4.43,2.8,1.47-.08,2.65-.66,2.77-1.68.07-.67-.32-1.3-.8-1.82-.97.5-2.14.81-3.3.87-3.06.17-5.22-1.35-5.01-3.28.19-1.95,2.72-3.67,5.77-3.86l4.81-.18-.09.47-1.93,2.03c-.05-1.08-3.24-1.55-4.93-1.45-1.35.08-2.2.7-2.28,1.56-.07.66.29,1.3.78,1.82.97-.52,2.11-.83,3.29-.9,3-.18,5.27,1.39,5.08,3.31ZM104.01,45.73c.31-.02.65-.07.97-.16-1-.94-2.89-1.89-4.84-1.77-.33.02-.65.07-.96.17.97.92,2.87,1.87,4.83,1.76Z"/><path class="cls-1" d="M117.06,43.68c-.18,1.71-1.76,3.3-4.25,3.44-1.19.06-2.31-.3-2.92-.98l-.33,3.21-1.67.09.86-8.31,1.42,1.04c.76-.84,2.03-1.4,3.31-1.48,2.49-.15,3.76,1.28,3.58,2.99ZM116.05,44.98c.09-.94-.4-1.98-1.22-2.59-.68-.52-1.78-1.01-2.88-.95-1.13.07-1.6.65-1.68,1.4-.1.93.4,1.96,1.21,2.58.68.51,1.77,1.02,2.88.96,1.14-.06,1.62-.64,1.69-1.4Z"/><path class="cls-1" d="M121.69,45.29c-.46.03-.87-.02-1.28-.13l.96,1.12c.25.31.69.47,1.22.44l.67-.04,2.01,1.92-2.2.11c-.94-1.23-1.93-2.45-2.95-3.64-.22-.07-.42-.17-.59-.28l-.44,4.12-1.7.09.88-8.4,1.21.87c.76-.74,1.96-1.27,3.15-1.34,1.87-.11,3.24.87,3.1,2.23-.15,1.47-2.01,2.8-4.04,2.91ZM119.9,43.69c-.06.62.16,1.47,1.22,1.41,1.78-.1,3.18-2.28,3.29-3.37.07-.62-.15-1.48-1.22-1.41-1.8.11-3.18,2.29-3.29,3.37Z"/><path class="cls-1" d="M128.41,40l-.88,8.51-1.16.06.13-6.73-.4-.29,2.1-1.53h.21Z"/><path class="cls-1" d="M138.68,39.38l-.92,8.59-1.83.09-4.22-6.6-.72,6.85-1.75.09.9-8.51.87-.05,5.02,7.83.74-6.91,1.91-1.38Z"/><path class="cls-1" d="M150.62,42.99l-.47,4.36h-.22s-1-.7-1-.7c-1.11.63-2.45,1.03-3.79,1.1-3.43.17-5.8-1.76-5.55-4.15.26-2.4,3.09-4.63,6.54-4.83,1.99-.12,5.1.56,6.11,1.65l-2.75.64c-1.08-1.07-2.94-1.61-5-1.48-2.18.13-3.67,1.32-3.84,2.83-.26,2.36,2.76,4.74,6.16,4.56.65-.03,1.33-.17,1.93-.44l-.73-.51.5-.34.25-2.42-1.82.1-1.71,1.21h-.22s.14-1.27.14-1.27l5.45-.3Z"/><path class="cls-1" d="M132.47,61.92l-1.94.07c0-1.47-2.19-3.17-4.21-3.08-.96.04-1.6.52-1.68,1.23-.1.97,1.02,1.73,2.12,1.99l-2.99.11c-.05-.34-.16-.61-.12-.97.08-.88.7-1.73,1.67-2.32l2.54-5.04-.21-.57,1.81-.57c.93,3.06,1.91,6.12,3,9.15ZM127.87,58.19c.55-.02,1.08.04,1.59.2l-1.49-4.24-2.31,4.62c.69-.35,1.45-.55,2.21-.58Z"/><path class="cls-1" d="M142.26,53.37l-.86,8.22-1.71.06-3.94-6.39-.68,6.56-1.63.06.85-8.15.81-.04,4.69,7.59.7-6.62,1.79-1.3Z"/><path class="cls-1" d="M152.23,56.91c-.22,2.02-2.2,4.46-5.33,4.58-1.1.04-1.97-.3-2.47-.97l-1.45,1.03h-.2s.69-6.6.69-6.6l-.36-.26,2-1.45h.2s-.08.81-.08.81l.98-.84c.33-.05.65-.09.97-.1,3.16-.14,5.29,1.51,5.05,3.8ZM151.3,56.03c.17-1.61-.62-2.51-2.85-2.41-1.13.05-2.36.51-3.28,1.04l-.25,2.38c-.03.33.45.63.77.81-.57.53-.97,1.43-1.05,2.07-.07.64.18,1.06,1.18,1.03,2.74-.1,5.3-3.16,5.49-4.92Z"/><path class="cls-1" d="M135.51,74.13l-1.94.04c0-1.47-2.19-3.2-4.21-3.14-.96.03-1.6.5-1.68,1.2-.1.96,1.02,1.74,2.13,2.02l-2.99.07c-.05-.34-.16-.61-.12-.97.08-.88.7-1.72,1.67-2.3l2.54-5.01-.21-.58,1.81-.54c.93,3.07,1.91,6.15,3,9.2ZM130.91,70.34c.55-.01,1.08.06,1.59.22l-1.49-4.26-2.31,4.59c.69-.34,1.45-.53,2.21-.55Z"/><path class="cls-1" d="M143.76,71.89l-.26,1.84c-.76.33-1.66.52-2.56.54-1.16.02-2.25-.27-2.99-.78l-1.18.7h-.26s1.13-8.26,1.13-8.26l1.19-.03-.12,6.58.45.3-1.03.61c.3.19.75.27,1.2.26,1.63-.03,3.42-.94,4.41-1.74Z"/><path class="cls-1" d="M152.25,71.53l-.27,1.85c-.77.33-1.69.53-2.6.54-1.19.02-2.29-.27-3.05-.79l-1.2.7h-.26s1.15-8.34,1.15-8.34l1.22-.03-.12,6.64.46.3-1.05.62c.31.19.76.27,1.22.26,1.66-.03,3.48-.95,4.49-1.76Z"/></g></svg>