<?xml version="1.0" encoding="UTF-8"?><svg id="_图层_2" xmlns="http://www.w3.org/2000/svg" viewBox="0 0 133.53 93.96"><defs><style>.cls-1{fill:#000003;}.cls-2{fill:#0024ff;}.cls-3{fill:#f5f5f5;}</style></defs><g id="_图层_1-2"><path class="cls-3" d="M47.29,19.05c-1.84,0-3.56-1.14-4.22-2.97-.83-2.33.38-4.89,2.71-5.72,1.9-.68,4.68-4.55,5.96-7.08,1.11-2.21,3.79-3.1,6-2,2.21,1.11,3.11,3.8,2,6.01-.05.09-1.14,2.26-2.87,4.65-2.58,3.55-5.3,5.85-8.09,6.85-.5.18-1.01.26-1.51.26"/><path class="cls-3" d="M83.35,15.81h-30.51c-2.75,0-4.97-2.23-4.97-4.97s2.23-4.97,4.97-4.97h30.51c2.75,0,4.97,2.23,4.97,4.97s-2.23,4.97-4.97,4.97"/><path class="cls-3" d="M83.35,25.93h-34.82c-2.75,0-4.97-2.38-4.97-5.31s2.23-5.31,4.97-5.31h34.82c2.75,0,4.97,2.38,4.97,5.31s-2.23,5.31-4.97,5.31"/><path class="cls-3" d="M83.35,35.54h-34.82c-2.75,0-4.97-2.23-4.97-4.97s2.23-4.97,4.97-4.97h34.82c2.75,0,4.97,2.23,4.97,4.97s-2.23,4.97-4.97,4.97"/><path class="cls-3" d="M48.03,47.49c-.86,0-1.74-.22-2.53-.7-2.36-1.4-3.14-4.45-1.74-6.82l5.8-9.78c1.4-2.36,4.45-3.14,6.82-1.74,2.36,1.4,3.14,4.45,1.74,6.82l-5.8,9.78c-.93,1.57-2.58,2.44-4.28,2.44"/><path class="cls-3" d="M61.63,47.88c-2.08,0-4.02-1.35-4.72-3.47l-2.82-8.64c-.87-2.66.54-5.54,3.15-6.43,2.61-.89,5.42.55,6.29,3.21l2.82,8.64c.87,2.66-.54,5.54-3.15,6.43-.52.18-1.05.26-1.57.26"/><path class="cls-3" d="M72.17,47.88c-2.11,0-4.08-1.35-4.78-3.47l-2.86-8.64c-.88-2.66.55-5.54,3.19-6.43,2.64-.89,5.5.55,6.38,3.21l2.86,8.64c.88,2.66-.55,5.54-3.19,6.43-.53.18-1.07.26-1.6.26"/><path class="cls-3" d="M82.85,47.49c-2.08,0-4.02-1.32-4.72-3.4l-3.65-8.46c-.87-2.61.54-5.42,3.15-6.29,2.61-.87,5.42.54,6.29,3.15l3.65,8.46c.87,2.61-.54,5.42-3.15,6.29-.52.17-1.05.26-1.57.26"/><path class="cls-3" d="M54.33,30.9c-2.75,0-4.97-2.23-4.97-4.97v-9.45c0-2.75,2.23-4.97,4.97-4.97s4.97,2.23,4.97,4.97v9.45c0,2.75-2.23,4.97-4.97,4.97"/><path class="cls-3" d="M62.13,30.9c-2.75,0-4.97-2.23-4.97-4.97v-9.45c0-2.75,2.23-4.97,4.97-4.97s4.97,2.23,4.97,4.97v9.45c0,2.75-2.23,4.97-4.97,4.97"/><path class="cls-3" d="M69.92,30.9c-2.75,0-4.97-2.23-4.97-4.97v-9.45c0-2.75,2.23-4.97,4.97-4.97s4.97,2.23,4.97,4.97v9.45c0,2.75-2.23,4.97-4.97,4.97"/><path class="cls-3" d="M77.71,30.9c-2.75,0-4.97-2.23-4.97-4.97v-9.45c0-2.75,2.23-4.97,4.97-4.97s4.97,2.23,4.97,4.97v9.45c0,2.75-2.23,4.97-4.97,4.97"/><path class="cls-1" d="M46.61,35.16l2.64-4.44s-2.68,4.06-2.81,4.36l.17.08Z"/><path class="cls-1" d="M52.64,35.54c1.27.26,4.56.34,5.75,0h-5.75Z"/><path class="cls-1" d="M72.62,35.54c1.27.26,4.56.34,5.75,0h-5.75Z"/><path class="cls-1" d="M82.42,30.09s1.09.89,1.83,3l.91,2.1.2-.09s-.7-1.56-.86-2.06c-.17-.5-1.02-2.44-2.08-2.96"/><path class="cls-1" d="M49.36,19.02l.17-2.04c.17-2.82,2.11-5.14,4.86-5.14,1.37,0,2.72.65,3.68,1.62.04.04-.03-.28-.24-.51-.85-.95-2.16-1.45-3.53-1.44-2.75.02-4.94,2.33-4.94,5.08v2.44Z"/><path class="cls-1" d="M57.07,16.8s.57-4.97,5.03-4.97c1.41,0,2.81.68,3.77,1.71,0,0,0-.01,0-.03-.13-.23-.68-.91-1.17-1.22-.77-.49-1.66-.79-2.64-.79-2.74,0-4.98,2.34-4.98,5.08v.22Z"/><path class="cls-1" d="M64.94,16.8s.57-4.97,5.03-4.97c1.41,0,2.81.68,3.77,1.71,0,0,0-.01,0-.03-.13-.23-.68-.91-1.17-1.22-.77-.49-1.66-.79-2.64-.79-2.74,0-4.98,2.34-4.98,5.08v.22Z"/><path class="cls-1" d="M72.81,16.8s.57-4.97,5.03-4.97c1.41,0,2.81.68,3.77,1.71,0,0,0-.01,0-.03-.13-.23-.68-.91-1.17-1.22-.77-.49-1.66-.79-2.64-.79-2.74,0-4.98,2.34-4.98,5.08v.22Z"/><path class="cls-1" d="M82.77,25.59s-.57,4.97-5.03,4.97c-1.41,0-2.81-.68-3.77-1.71,0,0,0,.01,0,.03.13.23.68.91,1.17,1.22.77.49,1.66.79,2.64.79,2.74,0,4.98-2.34,4.98-5.08v-.22Z"/><path class="cls-1" d="M74.9,25.59s-.57,4.97-5.03,4.97c-1.41,0-2.81-.68-3.77-1.71,0,0,0,.01,0,.03.13.23.68.91,1.17,1.22.77.49,1.66.79,2.64.79,2.74,0,4.98-2.34,4.98-5.08v-.22Z"/><path class="cls-1" d="M67.03,25.59s-.57,4.97-5.03,4.97c-1.41,0-2.81-.68-3.77-1.71,0,0,0,.01,0,.03.13.23.68.91,1.17,1.22.77.49,1.66.79,2.64.79,2.74,0,4.98-2.34,4.98-5.08v-.22Z"/><path class="cls-1" d="M59.31,25.59s-.57,4.97-5.03,4.97c-1.41,0-2.81-.68-3.77-1.71,0,0,0,.01,0,.03.13.23.68.91,1.17,1.22.77.49,1.66.79,2.64.79,2.74,0,4.98-2.34,4.98-5.08v-.22Z"/><path class="cls-3" d="M116.88,26.65h-13.58c-6.79,0-12.3-5.51-12.3-12.3s5.51-12.3,12.3-12.3h13.58c6.79,0,12.3,5.51,12.3,12.3s-5.51,12.3-12.3,12.3"/><path class="cls-3" d="M93.35,37.74c-2.31,0-4.38-1.61-4.86-3.96-.56-2.68,1.16-5.31,3.84-5.88.23-.06,2.16-.66,8.82-5.1,3.69-2.46,6.93-4.84,6.96-4.86,2.21-1.63,5.33-1.15,6.95,1.06,1.63,2.21,1.15,5.33-1.06,6.95-.14.1-3.52,2.59-7.48,5.22-7.63,5.08-10.5,6.12-12.14,6.46-.34.07-.68.11-1.02.11"/><path class="cls-3" d="M128.56,37.74c-.37,0-.74-.04-1.11-.13-1.53-.35-4.12-1.39-11.69-6.42-3.95-2.63-7.39-5.11-7.54-5.21-2.23-1.61-2.73-4.71-1.13-6.94,1.61-2.23,4.72-2.73,6.94-1.13,6.03,4.35,13.75,9.4,15.69,10.02,2.64.64,4.29,3.29,3.68,5.94-.53,2.31-2.58,3.87-4.84,3.87M129.66,27.92s0,0,0,0c0,0,0,0,0,0"/><path class="cls-3" d="M96.5,47.95c-2.32,0-4.4-1.64-4.87-4-.47-2.35.8-4.65,2.93-5.55,1.39-.77,7.56-5,8.33-9.69.45-2.71,3.01-4.54,5.72-4.09,2.71.45,4.54,3.01,4.09,5.72-.72,4.34-3.32,8.66-7.53,12.49-1.62,1.47-3.14,2.58-4.14,3.24-2.28,1.53-3.05,1.68-3.55,1.78-.33.07-.66.1-.98.1M95.52,38.1s0,0,0,0c0,0,0,0,0,0M95.53,38.1h0s0,0,0,0Z"/><path class="cls-3" d="M117.12,48.17c-2.98,0-5.39-2.41-5.39-5.39v-14.49c0-2.98,2.41-5.39,5.39-5.39s5.39,2.41,5.39,5.39v14.49c0,2.98-2.41,5.39-5.39,5.39"/><path class="cls-1" d="M108.47,17.83h-5.42c-2.36,0-4.27-1.91-4.27-4.27,0-2.12,1.54-3.87,3.56-4.21-2.32.09-4.17,2-4.17,4.34s1.94,4.34,4.34,4.34h5.28c.54,0,1.06-.1,1.54-.28-.28.06-.57.09-.86.09"/><path class="cls-1" d="M105.03,14.18v-2.01c0-2.75,2.23-4.98,4.98-4.98h.47c1.16,0,2.23.4,3.07,1.06-.89-.85-2.1-1.38-3.44-1.38h-.47c-2.75,0-4.98,2.23-4.98,4.98v.91l.36,1.42Z"/><path class="cls-1" d="M111.71,9.54h5.42c2.36,0,4.27,1.91,4.27,4.27,0,2.12-1.54,3.87-3.56,4.21,2.32-.09,4.17-2,4.17-4.34s-1.94-4.34-4.34-4.34h-5.28c-.54,0-1.06.1-1.54.28.28-.06.57-.09.86-.09"/><path class="cls-1" d="M115.14,13.31v2.01c0,2.75-2.23,4.98-4.98,4.98h-.47c-1.16,0-2.23-.4-3.07-1.06.89.85,2.1,1.38,3.44,1.38h.47c2.75,0,4.98-2.23,4.98-4.98v-.91l-.36-1.42Z"/><path class="cls-1" d="M94.97,26.64s5.97-3.54,6.28-3.91c0,0-6.11,3.63-7.33,3.69-1.22.07.58.32.58.32l.47-.11Z"/><path class="cls-1" d="M122.87,23.97s4.12,2.57,4.19,2.61c.07.04,1.48-.42,1.48-.42,0,0-.95-.05-1.93-.46-1.51-.65-3.35-1.48-3.7-1.73"/><path class="cls-1" d="M96.45,37.14s2.79-2.25,3.02-2.62c0,0-4.78,3.18-5.98,3.23l.86.36,2.11-.96Z"/><path class="cls-1" d="M111.73,36.12v-4.61s-.44,5.12-.88,6.05l.34.53.54-1.98Z"/><path class="cls-3" d="M33.11,24.74H12.66c-3.84,0-6.95-3.11-6.95-6.95s3.11-6.95,6.95-6.95h20.45c3.84,0,6.95,3.11,6.95,6.95s-3.11,6.95-6.95,6.95"/><path class="cls-3" d="M22.73,12.41c-2.75,0-4.97-2.23-4.97-4.97v-2.47c0-2.75,2.23-4.97,4.97-4.97s4.97,2.23,4.97,4.97v2.47c0,2.75-2.23,4.97-4.97,4.97"/><path class="cls-3" d="M39.47,14.61H5.31c-2.36,0-4.27-2.23-4.27-4.97s1.91-4.97,4.27-4.97h34.15c2.36,0,4.27,2.23,4.27,4.97s-1.91,4.97-4.27,4.97"/><path class="cls-3" d="M21.82,34.79c-1.8,0-3.46-1.16-4.03-2.94h-6.37c-2.34,0-4.24-1.9-4.24-4.24s1.9-4.24,4.24-4.24h20.81c2.11,0,3.91,1.56,4.2,3.65.29,2.09-1.01,4.08-3.04,4.66l-10.4,2.94c-.39.11-.77.16-1.16.16"/><path class="cls-3" d="M38.6,41.46H6.42c-2.22,0-4.02-2.23-4.02-4.97s1.8-4.97,4.02-4.97h32.18c2.22,0,4.02,2.23,4.02,4.97s-1.8,4.97-4.02,4.97"/><path class="cls-3" d="M22.93,48.51c-3.19,0-5.15-1.34-6.23-2.47-2.39-2.49-2.39-5.75-2.36-6.38l7.8.31s0-.03,0-.09c0,.25.09.61.18.73.05.02.22.08.61.08.06,0,.1,0,.13,0,.11-.2.22-.63.23-.94,0,.04,0,.06,0,.06h7.81c0,.34-.04,2.12-.87,3.98-1.33,2.99-3.99,4.71-7.3,4.71"/><path class="cls-1" d="M21.09,21.45h-4.66c-2.03,0-3.68-1.65-3.68-3.68,0-1.82,1.33-3.33,3.07-3.62-1.99.08-3.59,1.72-3.59,3.73s1.67,3.74,3.73,3.74h4.54c.47,0,.91-.09,1.32-.24-.24.05-.49.07-.74.07"/><path class="cls-1" d="M24.88,14.95h4.26c1.86,0,3.36,1.5,3.36,3.36,0,1.66-1.21,3.05-2.8,3.31,1.82-.07,3.28-1.57,3.28-3.41s-1.53-3.41-3.41-3.41h-4.15c-.43,0-.83.08-1.21.22.22-.04.45-.07.68-.07"/><path class="cls-1" d="M27.35,25.22l-6.97,1.97c-1.91.54-3.14,2.46-2.74,4.41.14.66.44,1.24.85,1.71-.33-.45-.57-.98-.67-1.58-.33-1.92.9-3.76,2.77-4.29l9.17-2.59h-.27c-.73.05-1.45.17-2.15.37"/><path class="cls-1" d="M14.85,43.66l-.57-3.21c-.24-2.31,1.44-4.39,3.76-4.63h.02c1.55-.16,3.08.88,3.93,2.06-.76-1.53-2.41-2.5-4.21-2.31-2.31.24-4,2.31-3.75,4.63l.47,2.87c.08.76.36,1.46.78,2.03-.22-.44-.37-.93-.42-1.45"/><path class="cls-1" d="M35.33,30.49s-.75.9-2.19,1.26c-1.07.3-1.56.44-1.56.44,0,0,3.08-.42,3.72-.85,1.31-.89.92-1.38.92-1.38l-.88.53Z"/><rect class="cls-3" x="20.14" y="78.99" width="6.78" height="4.35"/><path class="cls-3" d="M14.23,61.55c-1.18,0-2.36-.49-3.2-1.46-.33-.38-.58-.81-.75-1.25h-4.63c-2.33,0-4.22-1.89-4.22-4.22s1.89-4.22,4.22-4.22h11.72c1.76,0,3.34,1.1,3.96,2.75.62,1.65.14,3.51-1.19,4.67l-3.14,2.71c-.8.69-1.78,1.03-2.76,1.03"/><path class="cls-3" d="M11.88,83.06h0c-5.27,0-9.54-4.27-9.54-9.54v-4.43c0-5.27,4.27-9.54,9.54-9.54s9.54,4.27,9.54,9.54v4.43c0,5.27-4.27,9.54-9.54,9.54"/><path class="cls-3" d="M5.05,88.24c-1.82,0-3.54-1.11-4.23-2.91-.89-2.33.28-4.95,2.61-5.84l15.66-5.98c2.33-.89,4.95.28,5.84,2.61.89,2.34-.28,4.95-2.61,5.84l-15.66,5.98c-.53.2-1.08.3-1.61.3"/><path class="cls-3" d="M17.41,91.68c-3.06,0-5.54-2.03-5.54-4.52v-8.94c0-2.5,2.48-4.53,5.54-4.53s5.54,2.03,5.54,4.53v8.94c0,2.5-2.48,4.52-5.54,4.52"/><path class="cls-3" d="M23.34,69.76c-1.93,0-3.67-1.33-4.12-3.29-.47-2.06.66-4.11,2.57-4.86.25-.4.82-1.54,1.32-4.23.39-2.14.5-4.02.5-4.04.13-2.33,2.12-4.11,4.45-3.99,2.33.13,4.11,2.11,3.99,4.44,0,.13-.17,3.15-.87,6.34-.46,2.07-1.85,8.38-6.89,9.52-.31.07-.63.1-.94.1M22.41,61.42s0,0,0,0c0,0,0,0,0,0"/><path class="cls-3" d="M39.65,62.92h-10.4c-2.33,0-4.22-1.89-4.22-4.22s1.89-4.22,4.22-4.22h10.4c2.33,0,4.22,1.89,4.22,4.22s-1.89,4.22-4.22,4.22"/><path class="cls-1" d="M4.89,72.72c0-1.17.8-2.16,1.88-2.45-1.08-.29-1.88-1.28-1.88-2.45,0-.97.55-1.82,1.35-2.25-1,.31-1.72,1.24-1.72,2.34s.77,2.08,1.8,2.36c-1.04.28-1.8,1.23-1.8,2.36s.72,2.03,1.72,2.34c-.8-.43-1.35-1.27-1.35-2.25"/><path class="cls-1" d="M19.09,72.72c0-1.17-.79-2.16-1.88-2.45,1.08-.29,1.88-1.28,1.88-2.45,0-.97-.55-1.82-1.35-2.25,1,.31,1.72,1.24,1.72,2.34s-.76,2.08-1.8,2.36c1.04.28,1.8,1.23,1.8,2.36s-.72,2.03-1.72,2.34c.8-.43,1.35-1.27,1.35-2.25"/><path class="cls-3" d="M19.46,66.64H4.53c-2.5,0-4.53-2.03-4.53-4.52s2.03-4.53,4.53-4.53h14.93c2.5,0,4.53,2.03,4.53,4.53s-2.03,4.52-4.53,4.52"/><path class="cls-3" d="M40.2,91.26c-5.45,0-9.67-4.25-11.69-6.29-.13-.13-.24-.24-.35-.35-.94-.93-2.52-2.65-3.87-4.43-2.28-3.01-3.3-5.31-3.3-7.47v-10.57c0-2.54,2.06-4.6,4.6-4.6s5.44,1.99,5.44,4.53v10.24c.44,1.1,2.56,3.82,4.43,5.67.12.12.26.26.41.41.88.88,2.7,3.64,4.32,3.64,2.54,0,4.6,2.06,4.6,4.6s-2.06,4.6-4.6,4.6"/><path class="cls-3" d="M22.84,91.26c-2.54,0-4.6-2.06-4.6-4.6s2.06-4.6,4.6-4.6c1.62,0,3.2-2.69,4.08-3.57.15-.15.29-.29.41-.41,1.88-1.85,3.99-4.57,4.43-5.67v-12.01c0-2.54,3.15-4.6,5.69-4.6s4.6,2.06,4.6,4.6v12.34c0,2.16-1.02,4.46-3.3,7.47-1.35,1.78-2.93,3.5-3.87,4.43-.1.1-.22.22-.35.35-2.03,2.04-6.25,6.29-11.69,6.29"/><path class="cls-1" d="M10.83,54.82c-.45.34-.78.83-.89,1.39-.21,1.01-.14,2.5.86,3.66.07.09.15.16.23.24-1.42-1.76-1.2-4.35.53-5.84l-.72.55Z"/><path class="cls-1" d="M11.88,85.95v-4.83s-.39,4.55-.92,5.18l.39.45.53-.81Z"/><path class="cls-1" d="M20.28,57.67l-1.94,1.68s2.22-1.63,2.37-1.58c.15.05.32-.2.32-.2l-.75.1Z"/><path class="cls-1" d="M21.42,82.37s-3.17,1.43-3.17,4.5,3.06,4.13,3.06,4.13c0,0-3.44-1.12-3.44-4.13,0-3.95,3.55-4.5,3.55-4.5"/><path class="cls-1" d="M20.99,73.42c.94.02,2.01.39,2.85,1.19,2.86,2.72.52,5.75.52,5.75,0,0,2.04-4.53-1.98-6.54-.51-.25-1.39-.4-1.39-.4"/><path class="cls-3" d="M80.62,63.94h-28.33c-3.93,0-7.12-3.19-7.12-7.12s3.19-7.12,7.12-7.12h28.33c3.93,0,7.12,3.19,7.12,7.12s-3.19,7.12-7.12,7.12"/><path class="cls-3" d="M66.45,92.41c-3.63,0-6.58-2.94-6.58-6.57v-28.77c0-3.63,2.94-6.58,6.58-6.58s6.57,2.94,6.57,6.58v28.77c0,3.63-2.94,6.57-6.57,6.57"/><path class="cls-3" d="M82.77,82.24c-2.12.03-4.14-1.14-5.32-2.99-.3-.47-.65-.92-1.04-1.32-.09-.09-.19-.2-.3-.31-3.03-3.09-11.98-12.2-11.98-12.2-5.7-5.64,3.29-14.48,8.83-8.66,1.24,1.45,14.87,14.57,15.1,16.11,2.53,3.96-.65,9.49-5.3,9.37"/><path class="cls-3" d="M48.76,82.24c-6.63.23-8.56-9.83-2.15-11.98,0,0,.78-.29.78-.29l12.67-13.16c5.47-5.86,14.56,2.87,8.91,8.58-4.02,3.28-14.13,17.55-20.21,16.86"/><path class="cls-1" d="M59.88,75.06v-5.81s-.48,6.25-.82,6.89l.82-1.08Z"/><path class="cls-1" d="M73.03,75.06v-5.81s.48,6.25.82,6.89l-.82-1.08Z"/><path class="cls-1" d="M53.2,63.94l3.17-3.29s-3.75,3.17-4.57,3.27c-.82.1-.45.39-.45.39l1.85-.37Z"/><path class="cls-1" d="M80.02,63.94l-3.17-3.29s3.75,3.17,4.57,3.27c.82.1.45.39.45.39l-1.85-.37Z"/><path class="cls-1" d="M48.15,69.99c2.95,0,5.42,2.02,6.11,4.75-.41-2.88-2.89-5.1-5.88-5.1-1.67,0-3.18.69-4.26,1.8,1.09-.91,2.49-1.45,4.02-1.45"/><path class="cls-3" d="M121.52,65.06h-21.13c-2.14,0-3.87-1.73-3.87-3.87s1.73-3.87,3.87-3.87h21.13c2.14,0,3.87,1.73,3.87,3.87s-1.73,3.87-3.87,3.87"/><path class="cls-3" d="M124.18,93.95c-.78.08-5.87-.95-6.74-1.05-7.65-1.19-7.91-11.68-.48-13.33v-16.57h-12.43v22.94c-.15,9.47-14.27,9.49-14.42,0v-30.16c0-3.98,3.23-7.21,7.21-7.21h26.85c3.98,0,7.21,3.23,7.21,7.21v30.95c.08,3.87-3.35,7.3-7.21,7.21"/><path class="cls-1" d="M100.07,55.4h21.52c1.39,0,2.3.71,3.01,1.3-.68-1.09-1.9-1.82-3.28-1.82h-21.13c-1.38,0-2.6.73-3.28,1.82.71-.6,1.61-1.3,3.16-1.3"/><path class="cls-3" d="M116.89,61.94h-12.27c-4.81,0-8.72,3.91-8.72,8.72s3.91,8.72,8.72,8.72h12.27c4.81,0,8.72-3.91,8.72-8.72s-3.91-8.72-8.72-8.72M108.34,76.25c-.67-.4-1.71-1.43-2.05-2.35.12.1.18.16.24.22.09.09.18.18.27.27,1.15,1.11,2.64,1.05,3.68-.17.3-.35.55-.76.72-1.19.69-1.76.59-3.51-.14-5.23-.07-.16-.11-.39-.33-.4-.26,0-.27.25-.33.43-.28.78-.91,1.14-1.65.96-.32-.08-.56-.25-.75-.52-.46-.67-.38-1.59.18-2.19.11-.11.33-.2.22-.4-.11-.2-.33-.12-.5-.09-.77.14-1.32.61-1.76,1.22-.09.13-.18.27-.27.4-.02-.01-.04-.02-.06-.03.03-.12.06-.24.11-.35.32-.79.78-1.51,1.4-2.1,1.57-1.51,3.71-1.62,5.44-.29.61.47,1.12,1.03,1.5,1.7,1.37,2.43,1.55,4.95.53,7.54-.32.81-.8,1.52-1.45,2.11-1.44,1.31-3.3,1.48-4.96.46M106.99,71.24c.07.18.11.33.19.46.17.27.32.57.54.79.39.38.87.37,1.29,0,.3-.26.47-.59.6-.96.05-.14.09-.29.15-.47.41.19.58.54.71.91.35,1.01-.11,1.86-.95,2.38-.77.49-1.76.3-2.42-.41-.16-.17-.31-.36-.45-.56-.47-.65-.34-1.58.33-2.16"/><path class="cls-1" d="M127.63,70.66c0-3.85-2.65-6.23-5.61-7.37,3.52.61,6.2,3.68,6.2,7.37s-2.68,6.76-6.2,7.37c2.96-1.14,5.61-3.51,5.61-7.37"/><path class="cls-1" d="M93.89,70.66c0-3.85,2.65-6.23,5.62-7.37-3.52.61-6.2,3.68-6.2,7.37s2.68,6.76,6.2,7.37c-2.96-1.14-5.62-3.51-5.62-7.37"/><path d="M115.64,68.75c-.26-1.41-.81-2.71-1.76-3.8-.87-.99-1.92-1.69-3.25-1.83-1.69-.18-3.03.52-4.08,1.79-1.19,1.45-1.65,3.16-1.68,5.26.03.29.06.84.16,1.38.32,1.81,1.07,3.39,2.49,4.6,1.77,1.52,4.12,1.55,5.9.08.57-.46,1-1.03,1.36-1.67,1.03-1.83,1.24-3.79.87-5.82M114.75,73.67c-.32.81-.8,1.52-1.45,2.11-1.44,1.31-3.3,1.48-4.96.46-.67-.4-1.71-1.43-2.05-2.35.12.1.18.16.24.22.09.09.18.18.27.27,1.15,1.11,2.64,1.05,3.68-.17.3-.35.55-.76.72-1.19.69-1.76.59-3.51-.14-5.23-.07-.16-.11-.39-.33-.4-.26,0-.27.25-.33.43-.28.78-.91,1.14-1.65.96-.32-.08-.56-.25-.75-.52-.46-.67-.38-1.59.18-2.19.11-.11.33-.2.22-.4-.11-.2-.33-.12-.5-.09-.77.14-1.32.61-1.76,1.22-.09.13-.18.27-.27.4-.02-.01-.04-.02-.06-.03.03-.12.06-.24.11-.35.32-.79.78-1.51,1.4-2.1,1.57-1.51,3.71-1.62,5.44-.29.61.47,1.12,1.03,1.5,1.7,1.37,2.43,1.55,4.95.53,7.54M106.99,71.24c.07.18.11.33.19.46.17.27.32.57.54.79.39.38.87.37,1.29,0,.3-.26.47-.59.6-.96.05-.14.09-.29.15-.47.41.19.58.54.71.91.35,1.01-.11,1.86-.95,2.38-.77.49-1.76.3-2.42-.41-.16-.17-.31-.36-.45-.56-.47-.65-.34-1.58.33-2.16"/><path class="cls-3" d="M109.53,74.36c-.77.49-1.76.3-2.42-.41-.16-.17-.31-.36-.45-.56-.47-.65-.34-1.58.33-2.16.07.18.11.33.19.46.17.27.32.57.54.79.39.38.87.37,1.29,0,.3-.26.47-.59.6-.96.05-.14.09-.29.15-.47.41.19.58.54.71.91.35,1.01-.11,1.86-.95,2.38"/><path class="cls-2" d="M114.75,73.67c-.32.81-.8,1.52-1.45,2.11-1.44,1.31-3.3,1.48-4.96.46-.67-.4-1.71-1.43-2.05-2.35.12.1.18.16.24.22.09.09.18.18.27.27,1.15,1.11,2.64,1.05,3.68-.17.3-.35.55-.76.72-1.19.69-1.76.59-3.51-.14-5.23-.07-.16-.11-.39-.33-.4-.26,0-.27.25-.33.43-.28.78-.91,1.14-1.65.96-.32-.08-.56-.25-.75-.52-.46-.67-.38-1.59.18-2.19.11-.11.33-.2.22-.4-.11-.2-.33-.12-.5-.09-.77.14-1.32.61-1.76,1.22-.09.13-.18.27-.27.4-.02-.01-.04-.02-.06-.03.03-.12.06-.24.11-.35.32-.79.78-1.51,1.4-2.1,1.57-1.51,3.71-1.62,5.44-.29.61.47,1.12,1.03,1.5,1.7,1.37,2.43,1.55,4.95.53,7.54"/><path class="cls-1" d="M118.33,79.39c3.19,0,5.86,2.19,6.61,5.14-.44-3.12-3.12-5.51-6.36-5.51-1.8,0-3.43.75-4.6,1.94,1.18-.98,2.7-1.57,4.35-1.57"/></g></svg>