<?xml version="1.0" encoding="UTF-8"?><svg id="_图层_2" xmlns="http://www.w3.org/2000/svg" viewBox="0 0 252.35 113.49"><defs><style>.cls-1{fill:#4d4d4d;}.cls-2{fill:#0024ff;}.cls-3{fill:#dbdbdb;}.cls-4{fill:none;stroke:#0024ff;stroke-miterlimit:10;stroke-width:.42px;}.cls-5{fill:#f5f5f5;}</style></defs><g id="_图层_1-2"><path class="cls-1" d="M246.36,39.61c-1.45-.9-2.81-1.33-4.02-1.28-.74-.05-1.48.2-2,.65-.01,0-.05.04-.06.05-.03.03-.06.05-.09.08-.1.09-.2.19-.28.3-.03.04-.07.09-.11.13l-1.99-4.38,2.68-7.12c.15-.39.05-.83-.25-1.12l-4.94-4.79c-4.37-3.76-12.44-8.1-26.1-7.39-15.1.79-26.5,6.09-35.66,10.36-1.64.76-3.18,1.48-4.69,2.15l-9.21,1.34c.81-1,1.43-2.14,1.53-3.35.09-1.16-.32-2.27-1.18-3.19-1.14-1.21-2.71-1.82-4.57-1.77-3.53.11-7.09,2.52-8.91,4.71-.96,1.15-2.59,4.29-3.46,6.01l-14.64,4.26c-.81-1.96-1.71-3.86-2.58-5.71-1.78-3.78-3.46-7.34-4.39-11.16-.67-2.73.57-6,2.1-8.04,1.08-1.44,2.31-2.33,3.28-2.38,1.12-.04,2.01.37,2.32,1.1.43.98-.17,2.39-1.58,3.77-1.97,1.91-2.93,3.7-2.85,5.33.05,1.15.63,2.19,1.66,3.01,1.12.89,2.71,1.17,4.26.75,3.71-1,7.07-3.52,8.76-6.56,1.26-2.27,1.54-4.74.82-7.14-1.51-5.01-5.63-7.92-11.6-8.19-8.33-.37-17.78,4.64-20.24,10.74-3.24,8.05-.33,13.72,2.48,19.21,1.66,3.25,3.38,6.6,3.84,10.49l-7.65,2.91h-.02c.21-.37.32-.79.27-1.27-.1-.79-.51-1.47-1.15-1.93-1.07-.77-2.75-.92-4.98-.45-5.72,1.19-13.42,6.53-16.61,13.46l-6.05,2.64c.17-.33.33-.66.48-.99.4-.85.78-1.66,1.36-2.22.32-.08.68-.13,1.06-.17,1-.12,2.14-.26,2.92-1.21.05-.06.09-.12.13-.19.35-.69.26-1.46-.24-2.02-.4-.45-1-.7-1.64-.73.43-.85,1.26-2.1,1.68-2.73.65-.98.96-1.46,1.1-1.83.46-.75.87-1.44,1.25-2.05.02-.04.05-.08.07-.13.58-1.29.02-2.11-.24-2.41-.87-.96-2.55-.99-3.86-.58-3.49.59-4.78,3.08-5.93,5.27-.11.21-.22.43-.33.64-.53.78-.96,1.66-1.38,2.51-.57,1.15-1.15,2.33-1.96,3.26-.2.05-.42.08-.66.12-.85.14-1.9.31-2.56,1.29-.34.57-.98,1.62-.36,2.46.35.47.85.58,1.4.54-.13.26-.27.51-.4.77-.49.94-.98,1.88-1.45,2.84l-1.17.22c.03-.05.06-.1.08-.15.75-1.38,1.11-2.58,1.11-3.68,0-1.14-.55-1.77-1.01-2.1-.5-.36-1.11-.61-1.8-.74-.63-.12-1.32-.15-2.05-.09-.19.01-.37.03-.54.04.06-.26.08-.53.08-.79,0-.93-.5-1.63-1.32-1.87-.56-.16-1.18-.16-1.85.01-1.44.37-2.66,1-3.63,1.89-1.08.99-1.61,1.94-1.6,2.92,0,.37.13,1.28,1.32,1.75.23.09.49.15.79.19-.38.65-.78,1.32-1.18,1.99-.02-.31-.07-.64-.16-.97-.51-1.99-2.19-4.25-4.75-4.96.18-9.37,3.87-18.36,7.44-27.08,1.92-4.67,3.9-9.5,5.34-14.37.13-.45-.05-.94-.45-1.19-7.82-4.87-19.63,14.06-28.25,27.88-2.48,3.98-4.65,7.45-6.09,9.29-8.65-.64-20.75-.5-28.51,6.93-.12.12-.21.26-.27.42-.88,2.55-.48,7.62,1.51,10.81,1.01,1.61,2.33,2.57,3.82,2.76.45.06.88-.18,1.08-.59,3.3-6.95,11.1-9.58,16.59-10.57-5.9,10.02-12.68,15.97-20.16,17.72-.9.21-1.67.79-2.1,1.6-.42.79-.49,1.72-.17,2.56,3.22,8.62,6.78,13.24,10.88,14.11,2.67.57,5.47-.52,8.3-3.23l6.45,2.35c-1.78.58-2.75.93-2.81.95-.49.18-.77.68-.67,1.19.1.51.56.85,1.07.84.23,0,.46-.01.69-.01,14.36,0,36.97,18.78,37.2,18.97.19.16.43.24.67.24.07,0,.15,0,.22-.02.32-.07.58-.28.72-.57.05-.09,4.79-9.36,31.97-19.31,11.11-4.07,32.36-6.81,54.86-9.71,34.7-4.48,74.03-9.55,92.06-21.07,6.49-4.15,9.77-8.65,9.74-13.4-.03-4.48-3.11-7.99-5.99-9.79M152.15,27.93c.77-1.36,1.46-1.86,1.87-2.05.2-.09.39-.13.59-.13.19,0,.38.04.58.12-.41.5-1.58,1.28-3.04,2.06M220.99,59.7c-14.87,5.06-46.6,11.47-80.06,12.46,20.36-3.58,60.91-9.08,80.06-12.46M242.87,48.37l-1.24-3.81c.22-.36.45-.72.69-1.11.58,1.3.92,2.95.55,4.91M43.91,49.12c-.21-.05-.43-.11-.67-.16l-1.43-2.27c.99-1.79,1.95-3.63,2.88-5.4.51-.97,1.01-1.93,1.51-2.88-.85,3.19-1.59,6.67-2.28,10.72M89.46,76.15c-4.19.34-8.62.73-10.71,1.01-3.16.43-7.81,1.2-13.07,2.12,9.52-3.03,14.19-4.74,15.86-6.05,1.17,1.02,3.63,1.62,7.92,2.91M47.52,82.57c-5.07.94-9.82,1.84-13.53,2.55,1.76-1.57,3.69-3.22,4.88-6.47,1.48,1.66,4.08,3.31,8.65,3.93M61.54,55.93c-.29.45-.64.95-1.05,1.49.31-.6.6-1.16.85-1.66.08,0,.17-.01.27-.02.02,0,.04,0,.06,0-.04.06-.08.12-.12.19M54.06,61.06l-2.57.48c-.09-.5-.11-.89-.11-.89,0-.07,0-.14,0-.21,1.22.54,2.13.61,2.8.46-.04.05-.08.11-.11.16"/><path class="cls-3" d="M59.91,54.6c-.99.1-1.7.07-2.12-.09-.42-.17-.64-.42-.64-.76,0-.65.41-1.35,1.24-2.1.83-.75,1.86-1.29,3.11-1.61.48-.12.9-.13,1.27-.02.37.11.55.39.55.85,0,.34-.06.68-.19,1.02-.13.34-.28.66-.47.95.11-.03.21-.05.3-.05.09,0,.17-.02.25-.04.48-.03,1.03-.07,1.66-.11.63-.05,1.21-.02,1.74.08.53.1.98.28,1.35.55.37.26.55.67.55,1.23,0,.89-.32,1.93-.96,3.11-.64,1.18-1.34,2.35-2.09,3.51s-1.45,2.24-2.09,3.24c-.64,1.01-.96,1.79-.96,2.34,0,.09.03.18.08.26.06.08.16.1.3.06.59-.15,1.31-.61,2.18-1.38.86-.77,1.73-1.63,2.59-2.57.86-.95,1.65-1.89,2.37-2.83.72-.94,1.24-1.66,1.57-2.16.49.26.73.38,1.22.64-.37.57-.86,1.31-1.49,2.21-.62.9-1.33,1.87-2.12,2.92-.79,1.05-1.64,2.12-2.56,3.22-.92,1.1-1.84,2.12-2.75,3.06-.92.94-1.83,1.75-2.73,2.43-.9.68-1.72,1.12-2.45,1.31-.63.16-1.18.16-1.66,0-.48-.16-.88-.43-1.22-.78-.33-.36-.58-.77-.75-1.25-.17-.48-.25-.95-.25-1.41,0-.86.22-1.79.66-2.8.44-1.01,1-2.03,1.68-3.07.68-1.04,1.41-2.07,2.2-3.09.79-1.02,1.52-1.96,2.2-2.83.68-.86,1.24-1.64,1.68-2.32.44-.68.66-1.2.66-1.57,0-.06-.08-.11-.25-.15-.17-.03-.36-.05-.58-.06-.22,0-.45,0-.69.01-.24.01-.43.03-.58.03"/><path class="cls-3" d="M80.17,51.55c-1.33,1.1-1.72,2.99-2.62,4.31-1.4,2.83-3.21,5.87-3.74,8.55.65,3.47,9.67-7.17,9.47-7.09,2.07-.8,1.12.82.39,2.09-1.86,2.73-14.95,19.06-17.04,10.06.54-5.48,3.98-11.21,6.6-16.43-1.74.35-3.29,1.11-2.03-.96.55-.83,1.84-.67,2.83-1.01,1.65-1.74,2.35-4.22,3.58-6.01,1.23-2.27,2.2-4.78,5.49-5.31,1.54-.5,3.59-.17,2.84,1.51-.39.63-.82,1.34-1.3,2.12-.13.73-4.71,6.36-2.44,6,.93-.34,2.02.26,1.59,1.1-.78.95-2.36.67-3.62,1.09"/><path class="cls-3" d="M62.13,50.66s-6.33,12.03-8.43,13.06c-2.09,1.02-2.34-3.31-2.34-3.36-.01-.61-.01-1.26,0-1.97,7.03,4.6,5.4-5.11-.15-5.76-.06-14.62,8.44-27.77,12.55-41.67-9.1-5.67-26.92,29.83-32.6,36.55-9.46-.74-20.53-.34-27.64,6.45-1.13,3.28.27,11.41,4.37,11.92,3.41-7.18,11.55-10.29,19.09-11.23-5.08,9.2-11.98,17.46-21.43,19.66-1.22.28-1.94,1.55-1.5,2.72,12.53,33.57,27.36-5.05,34.08-22.29,2.32.33,4.6.71,6.83,1.38.02,2.08-2.91,16.37.55,17.83.26.11,1.08.54,1.4.62,4.79,1.16,16.38-23.82,16.38-23.82l-1.18-.1ZM45.88,50.37c-1.55-.54-3.84-.88-5.44-1.28,3.83-6.43,6.91-13.58,10.87-19.36-2.72,6.76-4.2,13.19-5.44,20.64"/><path class="cls-3" d="M104.54,75.28c12.43-.75,26.07-15.02,25.13-28.2-.75-10.65-7.5-18.58-9.77-27.86-1.18-4.83,2.88-11.3,6.21-11.46,3.33-.16,5.08,3.04,1.48,6.51-2.93,2.83-3.17,5.09-1.24,6.62.87.69,2.1.87,3.26.55,5.05-1.37,10.42-6.27,8.66-12.11-3.82-12.69-25.41-6.87-29.21,2.58-4.97,12.35,5.59,18.41,6.34,29.47.4,5.89-2.61,14.94-9.77,13.86-6.62-1-6.49-7.6-1.67-10.72.83-.54,2.18-1.28,2.07-2.22-.13-1.09-1.24-2.19-4.77-1.45-7.52,1.57-17.6,10.39-16.79,19.11.98,10.48,10.69,15.88,20.06,15.31"/><path class="cls-3" d="M242.57,40.62c-1.5-.94-2.63-1.14-3.41-1.1-.46-.04-.94.1-1.32.42-.01.01-.02.02-.02.02,0,0,0,0,0,0-.08.07-.15.14-.22.22-.6.75-1.6,1.55-2.39,2.62-3.57,4.84-9.28,9.91-7.85,4.16.97-3.88,4.5-11.03,6.84-15.08,1.37-2.36.78-4.69-1.8-4.5-1.21.09-2.3.89-2.85,2.05-.92,1.96-9.73,20.95-13.85,20.35-3.86-.56,7.25-19.35,7.76-20.26.35-.64-.06-1.4-.75-1.32-1.26.16-1.89.24-3.15.41-1.23.14-2.34,1.02-2.88,2.22-1.82,4.05-4.81,9.37-6.87,14.45-.26.22-.52.44-.79.63-.43.31-.84.51-1.24.6.59-1.43,1.03-2.84,1.33-4.21.3-1.37.43-2.63.41-3.76-.02-1.13-.33-2.11-.93-2.91-.6-.81-1.57-1.12-2.9-.92-1.12.16-2.3.62-3.54,1.38-1.24.76-2.46,1.71-3.67,2.87-1.21,1.15-2.36,2.43-3.44,3.84-1.08,1.41-2.03,2.83-2.86,4.26-.56.98-1.04,1.94-1.44,2.89-2.04,2.67-3.25,7.47-8.36,6.39-2.76-1.09-4.08-2.82-3.86-4.85,3.37-2.05,8.43-4.61,11.96-6.46,4.3-2.25-1.22-4.28-2.68-3.47-1.12.62-6.49,4.34-8.96,6.07l.21-1.17.9-1.99c2.28-4.73,2.77-4.85,5.22-8.57,1.59-3.17-5.5-.92-6.4.01-2.43,3.56-7.03,10.52-9.61,16.82-2.62,3.86-8.76,8.55-12.19,4.5-.15-.39-.2-.9-.14-1.54,13.9,2.54,10.13-18.18-1.1-7.55-2.35,2.43-4.67,5.66-5.06,9.07-.83.97-1.82,1.71-2.88,1.86,0,0,3.85-9.26,1.37-10.88-2.48-1.62-5.36.05-6.33.87-.97.83-2.66,2.96-2.55,2.2.07-.43,5.03-11.98,7.2-16.13,9.51-.26,23.28-1.28,31.9-4.82,7.69-3.16,42.27-15.17,55.76-2.91,0,0-6.78-12.07-28.33-10.95-21.55,1.12-35.1,11.7-46.4,14.91-1.59.45-5.69,1.15-10.03,1.83,4.1-1.53,10.82-6.39,7.49-9.92-3-3.19-8.96-.42-11.66,2.83-.79.95-2.37,3.82-4.1,7.38-1.87.76-3.66,1.41-4.71,1.61-.3.04-.46.06-.46.06,0,0,.52.71,2.16.48.43-.06,1.21-.18,2.15-.34-2.56,5.37-12.15,25.16-11.46,30.73.47,3.82,7.6,3.01,7.64,2.49.02-.27-1.32-3.59-.47-6.2,1.72-5.25,4.51-8.27,4.83-7.96,1.44,1.4-3.72,11.75,1.72,12.38,3.07.36,6.37-2.75,7.27-4.21.29-.47.49-.88.64-1.18,2.7,3.6,7.98,3.55,11.46,1.2,1.6-.98,3.16-2.36,4.54-3.93-.24,1.58-.19,3,.26,4.15.62.79,3.15,1.27,3.57-.2.76-2.98,1.4-4.37,2.97-7.38.14,2.02,6.73,7.72,10.28,6.9,2.09-.48,4.2-2.3,5.88-4.47.22.33.47.64.77.91.48.43,1.05.73,1.71.91.66.17,1.39.19,2.18.06,1.2-.2,2.34-.61,3.44-1.25,1.09-.63,2.14-1.43,3.14-2.38s1.92-2.02,2.76-3.21c.85-1.19,1.6-2.42,2.26-3.68.74-.14,1.43-.37,2.08-.7-.73,2.24-1.19,4.38-1.17,6.26.14,10.05,13.66-6.15,13.67-6.14,0,0,.7,11.72,6.17,7.63,4.85-3.62,8.54-9.11,11.78-14.51,1.87,2.66,4.07,8.62-4.79,16.62-7.51,6.79-68.99,20.01-132.39,20.55-39.69.34-75.75,15.09-75.75,15.09,14.57-.64,37.51,16.01,37.51,16.01,0,0,4.09-8.12,31.6-18.2,27.51-10.08,114.49-11.46,143.52-30.01,14.15-9.04,8.74-17.79,3.68-20.94M162.08,46.57c5.26.12-2.96,7.61-5.06,7.67.82-2.65,1.76-6.61,5.06-7.67M154.31,25.36c3.35,1.33-5.43,5.09-5.43,5.09.17-.42,2.08-6.42,5.43-5.09M207.14,41c-1.3.36-2.43,1.06-3.39,2.09-.5.47-.92,1.03-1.27,1.68-.35.66-.55,1.32-.56,1.95,0,.1,0,.22,0,.35,0,.12.02.25.06.39.12.3.27.55.45.76.19.2.41.37.66.51-.82.94-1.67,1.74-2.56,2.41-.89.67-1.81,1.08-2.75,1.23-.4.06-.76-.04-1.1-.3-.33-.27-.51-.7-.52-1.3-.02-.96.27-2.19.87-3.71.6-1.52,1.38-3.02,2.33-4.5.95-1.48,1.99-2.78,3.13-3.9,1.14-1.11,2.23-1.75,3.28-1.9.65-.09,1.09.1,1.32.58.23.48.35.94.35,1.36.02.74-.1,1.51-.33,2.29"/><path class="cls-5" d="M103.53,41.35c.59.07,1.85-.13,1.99.96.11.94-1.89,2.06-2.72,2.6-4.82,3.12-5,10.12,1.62,11.12,1.64.25,4.07-.21,5.3-.71,0,0-9.48,5.33-11.8-2.05-.68-4.47,2.61-8.08,3.77-8.84.49-.32,2.5-1.28,2.71-1.82.29-.74-.86-1.27-.86-1.27"/><path class="cls-5" d="M160.33,33.88c6.58-.7,13.64-2.29,18.6-4.32,7.32-3,38.79-13.95,53.46-4.43,0,0-9.23-7.16-27.53-5.07-11.71,1.34-25.52,6.19-34.37,10.7-2.41,1.23-10.15,3.12-10.15,3.12"/><path class="cls-5" d="M6.6,79.49s4.2,10.39,8.88,9.86c9.01-1.02,19.26-28.84,20.35-32.26,0,0-12.11,24.54-20.12,26.2-4.66.96-9.1-3.8-9.1-3.8"/><path class="cls-5" d="M7.55,65.23s-3.1-1.55-2.19-3.88c.58-1.48,12.33-8.62,21.24-7.6,0,0-15.95,2.73-19.05,11.47"/><path class="cls-5" d="M51.32,29.34s-6.52,6.15-12.45,19.55c0,0,2.75-8.66,5.11-12.8,3.78-6.65,7.35-6.75,7.35-6.75"/><path class="cls-5" d="M66.63,53.61s2.73.44,0,4.68c-2.73,4.23-5.69,8.52-4.68,9.29.7.53,1.8-.24,1.8-.24,0,0-2.26,2.4-3.44,1.56-1.37-.98,3.65-8.76,5.4-11.42,1.33-2.02.93-3.87.93-3.87"/><path class="cls-5" d="M55.9,67.48s-2.05,5.16,1.5,6.08c1.71.33,3.86-1.84,3.86-1.84,0,0-2.56,1.25-3.93.61-2.06-.96-1.43-4.85-1.43-4.85"/><path class="cls-5" d="M67.83,65.88s-2.27,4.87,1.28,5.8c1.71.33,4.02-1.81,4.02-1.81,0,0-2.72,1.22-4.09.58-2.06-.96-1.22-4.57-1.22-4.57"/><path class="cls-5" d="M79.57,51.7c.09-.09-1.63,2.37-2.41,3.8-.78,1.43-5.21,9.08-3.53,10.04.88.5,2.12-.25,2.12-.25,0,0-2.1,2.49-3.73,1.37-1.91-1.32,2.41-9.92,7.56-14.96"/><path class="cls-5" d="M85.84,59.56s-.95,13.74,17.67,14.77c14.56.81,28-19.53,24.72-31.64-3.08-11.38-6.28-14.39-6.28-14.39,0,0,8.83,18.8-1.55,31.41-6.06,7.36-13.43,8.88-19.09,8.34-12.23-1.17-15.47-8.5-15.47-8.5"/><path class="cls-5" d="M146.2,34.62s-6.51,13.37-6.06,15.87c0,0,6.38-14.56,6.49-14.76.1-.2-.43-1.11-.43-1.11"/><path class="cls-5" d="M146.38,48.2s3.35-.75,3.11,2.41c-.25,3.25-2.27,8.48-2.13,8.65.25.32,1.05.13,1.64-.21,0,0-1.28,2.06-2.34,1.25-1.14-.86,1.9-7.6,1.85-9.76-.04-1.81-2.13-2.34-2.13-2.34"/><path class="cls-5" d="M140.34,54.89s-3.61,5.19-4.25,7.97c-.45,2,.23,4.08.45,5,.05.21-.08.41-.28.47-.49.12-1.31.3-1.44.18-.18-.18-1.86-5.87,5.51-13.61"/><path class="cls-5" d="M156.94,23.18s6.27,3.25-7.16,9.81c0,0,6.19-3.87,7.16-6.72.6-1.75,0-3.08,0-3.08"/><path class="cls-5" d="M164.84,47.09s1.75,3.76-.84,6.46c-2.37,2.47-6.28,1.87-6.28,1.87,0,0,4.14-.26,6.21-3.51.77-1.21,1.02-2.46.91-4.83"/><path class="cls-5" d="M141.58,64.73s3.11,5.08,9.53-3.32c0,0-2.42,2.04-4.9,3.32-1.51.78-3.31.64-4.63,0"/><path class="cls-5" d="M152.94,61.91s3.25,3.54,8.54.99c2.11-1.02,4.81-3.86,4.81-3.86,0,0-3.87,2.39-5.95,3.18-3.39,1.28-5.92.18-7.4-.31"/><path class="cls-5" d="M182.15,34.93s2.26-.65,2.53,0c.4.96-.78,2.35-2.46,4.58-2.31,3.06-3.3,6.73-3.55,7.41,0,0-.6-3.72,3.77-9.38,2.36-2.81-.28-2.62-.28-2.62"/><path class="cls-5" d="M176.77,57.86s4.01,3.95,7.02,3.69c3.79-.33,6.39-4.58,6.39-4.58,0,0-2.76,2.3-6.54,2.96-3.11.54-6.86-2.07-6.86-2.07"/><path class="cls-5" d="M204.83,48.43s4.03.27,5.97-2.08c1.95-2.36,2.19-2.94,2.19-2.94,0,0-3.52,4.15-8.16,5.02"/><path class="cls-5" d="M190.36,55.23s0,3.62,3.68,3.81c6.94-.27,12.08-9.53,12.08-9.53,0,0-6.74,7.95-10.94,7.99-3.28.03-4.81-2.28-4.81-2.28"/><path class="cls-5" d="M207.48,35.2s3.98,1.44.09,10.73c0,0,.89-4.16.84-6.55-.04-2.19-.46-3.79-.93-4.17"/><path class="cls-5" d="M220.57,33.54s-9.86,14.66-6.76,17.76c2.09,1.33,5.32-2.36,5.63-3.01,0,0-3.27,2.71-4.67,1.75-2.34-1.61,5.79-16.5,5.79-16.5"/><path class="cls-5" d="M232.39,34.36s-9.92,13.91-6.83,17c2.09,1.33,5.44-2.43,5.76-3.07,0,0-3.02,2.68-4.47,1.81-2.07-1.23,5.54-15.74,5.54-15.74"/><path class="cls-5" d="M207.87,53.85s-.01,3.24,1.49,3.56c1.86.4,5.96-3.29,5.96-3.29,0,0-3.23,2.3-5.29,2.39-1.6.07-2.15-2.67-2.15-2.67"/><path class="cls-5" d="M80.94,90.87c-25.68,10.88-38.56.58-38.56.58l3.5-2.73-15.11,4.37s6.64.57,13.66,3.89c6.7,3.17,13.73,6.5,18.78,11.2,0,0,13.09-17.03,53.74-23.01,41.45-6.1,67.81-9.42,67.81-9.42,0,0-76.27,3.46-103.82,15.12"/><path class="cls-5" d="M51.91,42.35s-6.44,24.2-.02,24.36c3.05-.66,4.59-4.76,4.59-4.76,0,0-2.49,3.4-4.42,2.71-2.74-.98-1.73-14.25-.16-22.31"/><path class="cls-2" d="M133.57,88.75c.25,1.23.35,2.78.28,3.84l-1.71.53c.03-.27.05-.58.04-.91-1.76.27-3.62.54-5.06.74l.04-1.98c.68-.06,1.5-.16,2.4-.26l.4-2.27h-.33l-.09.48h-1.59l1.08-6.1h1.92l.45-2.54h1.88l-.45,2.54h1.95l-.99,5.62h-1.97l-.36,2.04.64-.07c-.03-.41-.09-.81-.14-1.17l1.6-.49ZM129.93,86.76h.52l.4-2.28h-.52l-.4,2.28ZM132.87,84.48h-.52l-.4,2.28h.52l.4-2.28ZM138.55,91.71c.52,0,.67-.31,1.04-2.01.37.31,1.14.63,1.64.76-.61,2.32-1.25,3.04-2.8,3.04h-1.89c-1.82,0-2.2-.59-1.86-2.47l1.01-5.75h-1.15l.53-3h2.71c-.08-.54-.24-1.23-.37-1.75l2.01-.51c.22.63.42,1.47.52,2.01l-.86.26h3.38l-.53,3h-1.98l.22-1.27h-3.52l-.18,1h1.22l-.44,2.52c.99-.48,2.02-1.07,2.77-1.58l1.16,1.4c-1.35.74-2.96,1.53-4.26,2.03l-.29,1.66c-.11.6-.05.68.5.68h1.43Z"/><path class="cls-2" d="M157.4,81.6l-2.11,11.97h-2.33l.2-1.13h-7.29l-.2,1.13h-2.21l2.11-11.97h11.83ZM153.53,90.31l1.16-6.59h-7.29l-1.16,6.59h7.29Z"/><path class="cls-2" d="M171.21,84.62c-1.03,1.94-2.24,3.55-3.67,4.88,1.27,1.03,2.9,1.78,4.93,2.24-.56.46-1.35,1.37-1.77,1.94-2.14-.57-3.8-1.46-5.09-2.64-1.8,1.23-3.88,2.13-6.29,2.75-.15-.5-.61-1.47-.94-1.96,2.31-.48,4.26-1.23,5.92-2.28-.97-1.37-1.61-3.01-2.02-4.94h-2.3l.36-2.03h5.99c-.04-.57-.18-1.3-.35-1.87l2.39-.66c.25.67.5,1.57.54,2.17l-1.24.36h6.11l-.36,2.03h-2.2ZM164.47,84.62c.34,1.31.9,2.48,1.7,3.5,1.03-.97,1.92-2.13,2.65-3.5h-4.35Z"/><path class="cls-2" d="M185.23,91.5c.57,0,.77-.56,1.28-2.87.47.4,1.34.84,1.92.98-.72,2.84-1.45,3.95-3.33,3.95h-1.89c-1.98,0-2.4-.73-1.99-3.08l.16-.9c-.55.28-1.07.53-1.59.74-.16-.31-.51-.76-.85-1.14l-.81,4.61h-2.24l1.26-7.12c-.31.28-.61.56-.91.8-.16-.51-.64-1.64-.96-2.14,1.64-1.21,3.37-3.18,4.51-5.16l2.03.69c-.55.9-1.18,1.84-1.88,2.72l-.87,4.92c.88-.39,1.82-.88,2.76-1.48l1.16-6.58h2.3l-.83,4.69c1.16-.94,2.26-2,3.22-3.15l1.78,1.38c-1.69,1.84-3.62,3.42-5.51,4.69l-.43,2.45c-.15.87-.12.98.41.98h1.31Z"/><path class="cls-2" d="M194.59,83.56h-2.92l.35-1.98h2.92l.23-1.31h2.18l-.23,1.31h3.01l.23-1.31h2.18l-.23,1.31h2.94l-.35,1.98h-2.94l-.17.94h-2.18l.17-.94h-3.01l-.17.94h-2.18l.17-.94ZM200.57,91.39c.71,0,1.1-.23,1.49-2.03.54.33,1.23.56,1.85.67-.74,2.78-1.73,3.37-3.91,3.37h-4.76c-2.46,0-3.48-.91-3.24-2.35.17-.97.57-1.83,4.94-3.92h-4.5l.34-1.91h8.74l.43-.07,1.3,1.14c-.1.07-.27.19-.47.26-7.85,3.17-8.49,3.81-8.57,4.31-.07.4.38.54,1.23.54h5.12Z"/><path class="cls-2" d="M215.73,85.75c.89,1.8,2.49,3.64,4.12,4.76-.61.43-1.54,1.28-2.03,1.87-1.3-1.13-2.49-2.78-3.37-4.56l-1.06,6.01h-2.34l.93-5.28c-1.48,1.63-3.21,3.01-5.03,3.95-.28-.54-.86-1.4-1.29-1.84,2.38-1.06,4.71-2.94,6.23-4.91h-4.73l.36-2.04h5.31l.61-3.44h2.34l-.61,3.44h2.58c-.38-.58-1.26-1.5-1.9-2.13l1.79-1.26c.63.57,1.6,1.43,2.03,2l-1.87,1.38h2.56l-.36,2.04h-4.28Z"/><path class="cls-2" d="M228.07,86.57l.21-1.21c-.68.56-1.45,1.07-2.25,1.53h5.28l.45-.1,1.07,1.11c-.91.53-1.95,1.08-3.02,1.54h5.36l-.31,1.77h-5.47l-.12.66c-.17.94-.48,1.4-1.27,1.67-.79.26-1.75.26-2.94.26-.02-.54-.21-1.3-.41-1.8.76.04,1.88.04,2.15.04.28-.01.37-.06.41-.24l.1-.58h-5.49l.31-1.77h5.49l.12-.66c.25-.09.52-.2.77-.31h-3.55l.2-1.13c-.65.31-1.31.58-1.96.8-.21-.46-.66-1.18-1.02-1.57,1.43-.37,2.93-1,4.13-1.74h-3.32l.3-1.73h5.38l.11-.6c-1.4.09-2.79.13-4.1.14.04-.46-.06-1.21-.18-1.63,3.28-.04,7.02-.28,9.24-.77l1.48,1.44c-1.32.29-2.79.5-4.34.66l-.13.76h5.51l-.3,1.73h-3.39c.96.69,2.22,1.26,3.55,1.6-.5.39-1.22,1.14-1.6,1.63-1.62-.56-3.12-1.55-4.16-2.75l-.22,1.27h-2.08Z"/><path class="cls-3" d="M132.32,88.14c.25,1.23.35,2.78.28,3.84l-1.71.53c.03-.27.04-.58.04-.91-1.77.27-3.62.54-5.06.74l.04-1.98c.68-.06,1.5-.16,2.4-.26l.4-2.27h-.33l-.09.48h-1.59l1.08-6.1h1.92l.45-2.54h1.88l-.45,2.54h1.95l-.99,5.62h-1.97l-.36,2.04.64-.07c-.03-.41-.09-.81-.14-1.17l1.6-.48ZM128.68,86.16h.52l.4-2.28h-.52l-.4,2.28ZM131.62,83.88h-.52l-.4,2.28h.52l.4-2.28ZM137.3,91.11c.52,0,.67-.31,1.04-2.01.37.31,1.14.63,1.64.76-.61,2.33-1.25,3.04-2.81,3.04h-1.89c-1.82,0-2.2-.58-1.86-2.47l1.01-5.75h-1.15l.53-3h2.71c-.08-.54-.24-1.23-.37-1.75l2.01-.51c.22.63.42,1.47.52,2.01l-.86.26h3.38l-.53,3h-1.98l.22-1.27h-3.52l-.18,1h1.22l-.44,2.52c.99-.48,2.02-1.07,2.77-1.58l1.16,1.4c-1.35.74-2.96,1.53-4.26,2.03l-.29,1.66c-.11.6-.05.68.5.68h1.43Z"/><path class="cls-4" d="M132.32,88.14c.25,1.23.35,2.78.28,3.84l-1.71.53c.03-.27.04-.58.04-.91-1.77.27-3.62.54-5.06.74l.04-1.98c.68-.06,1.5-.16,2.4-.26l.4-2.27h-.33l-.09.48h-1.59l1.08-6.1h1.92l.45-2.54h1.88l-.45,2.54h1.95l-.99,5.62h-1.97l-.36,2.04.64-.07c-.03-.41-.09-.81-.14-1.17l1.6-.48ZM128.68,86.16h.52l.4-2.28h-.52l-.4,2.28ZM131.62,83.88h-.52l-.4,2.28h.52l.4-2.28ZM137.3,91.11c.52,0,.67-.31,1.04-2.01.37.31,1.14.63,1.64.76-.61,2.33-1.25,3.04-2.81,3.04h-1.89c-1.82,0-2.2-.58-1.86-2.47l1.01-5.75h-1.15l.53-3h2.71c-.08-.54-.24-1.23-.37-1.75l2.01-.51c.22.63.42,1.47.52,2.01l-.86.26h3.38l-.53,3h-1.98l.22-1.27h-3.52l-.18,1h1.22l-.44,2.52c.99-.48,2.02-1.07,2.77-1.58l1.16,1.4c-1.35.74-2.96,1.53-4.26,2.03l-.29,1.66c-.11.6-.05.68.5.68h1.43Z"/><path class="cls-3" d="M156.14,80.99l-2.11,11.97h-2.33l.2-1.13h-7.29l-.2,1.13h-2.21l2.11-11.97h11.83ZM152.28,89.69l1.16-6.59h-7.29l-1.16,6.59h7.29Z"/><path class="cls-4" d="M156.14,80.99l-2.11,11.97h-2.33l.2-1.13h-7.29l-.2,1.13h-2.21l2.11-11.97h11.83ZM152.28,89.69l1.16-6.59h-7.29l-1.16,6.59h7.29Z"/><path class="cls-3" d="M169.96,84.02c-1.03,1.94-2.24,3.55-3.67,4.88,1.27,1.03,2.9,1.78,4.93,2.24-.56.46-1.35,1.37-1.77,1.94-2.14-.57-3.8-1.46-5.09-2.64-1.8,1.23-3.88,2.13-6.29,2.75-.14-.5-.61-1.47-.94-1.96,2.31-.48,4.26-1.23,5.92-2.28-.97-1.37-1.61-3.01-2.03-4.94h-2.3l.36-2.03h5.99c-.04-.57-.18-1.3-.35-1.87l2.39-.66c.25.67.49,1.57.53,2.17l-1.24.36h6.11l-.36,2.03h-2.2ZM163.22,84.02c.34,1.31.9,2.48,1.7,3.49,1.03-.97,1.92-2.12,2.65-3.49h-4.35Z"/><path class="cls-4" d="M169.96,84.02c-1.03,1.94-2.24,3.55-3.67,4.88,1.27,1.03,2.9,1.78,4.93,2.24-.56.46-1.35,1.37-1.77,1.94-2.14-.57-3.8-1.46-5.09-2.64-1.8,1.23-3.88,2.13-6.29,2.75-.14-.5-.61-1.47-.94-1.96,2.31-.48,4.26-1.23,5.92-2.28-.97-1.37-1.61-3.01-2.03-4.94h-2.3l.36-2.03h5.99c-.04-.57-.18-1.3-.35-1.87l2.39-.66c.25.67.49,1.57.53,2.17l-1.24.36h6.11l-.36,2.03h-2.2ZM163.22,84.02c.34,1.31.9,2.48,1.7,3.49,1.03-.97,1.92-2.12,2.65-3.49h-4.35Z"/><path class="cls-3" d="M183.98,90.89c.57,0,.77-.56,1.28-2.87.47.4,1.34.84,1.92.98-.72,2.84-1.45,3.95-3.33,3.95h-1.89c-1.98,0-2.4-.73-1.99-3.08l.16-.9c-.55.28-1.07.53-1.59.74-.16-.31-.51-.76-.85-1.14l-.81,4.61h-2.24l1.25-7.12c-.31.29-.61.56-.91.8-.16-.51-.64-1.64-.96-2.14,1.64-1.21,3.37-3.18,4.51-5.16l2.03.68c-.55.9-1.18,1.84-1.88,2.72l-.87,4.92c.88-.39,1.81-.88,2.76-1.48l1.16-6.58h2.3l-.83,4.69c1.16-.94,2.26-2,3.22-3.15l1.78,1.38c-1.69,1.84-3.62,3.42-5.51,4.69l-.43,2.45c-.15.87-.12.98.41.98h1.31Z"/><path class="cls-4" d="M183.98,90.89c.57,0,.77-.56,1.28-2.87.47.4,1.34.84,1.92.98-.72,2.84-1.45,3.95-3.33,3.95h-1.89c-1.98,0-2.4-.73-1.99-3.08l.16-.9c-.55.28-1.07.53-1.59.74-.16-.31-.51-.76-.85-1.14l-.81,4.61h-2.24l1.25-7.12c-.31.29-.61.56-.91.8-.16-.51-.64-1.64-.96-2.14,1.64-1.21,3.37-3.18,4.51-5.16l2.03.68c-.55.9-1.18,1.84-1.88,2.72l-.87,4.92c.88-.39,1.81-.88,2.76-1.48l1.16-6.58h2.3l-.83,4.69c1.16-.94,2.26-2,3.22-3.15l1.78,1.38c-1.69,1.84-3.62,3.42-5.51,4.69l-.43,2.45c-.15.87-.12.98.41.98h1.31Z"/><path class="cls-3" d="M193.34,82.95h-2.92l.35-1.98h2.92l.23-1.31h2.18l-.23,1.31h3.01l.23-1.31h2.18l-.23,1.31h2.94l-.35,1.98h-2.94l-.17.94h-2.18l.17-.94h-3.01l-.17.94h-2.18l.17-.94ZM199.32,90.78c.71,0,1.1-.23,1.49-2.03.54.33,1.23.56,1.85.67-.74,2.78-1.73,3.37-3.91,3.37h-4.76c-2.46,0-3.48-.91-3.24-2.35.17-.97.57-1.83,4.94-3.92h-4.5l.34-1.91h8.74l.43-.07,1.3,1.14c-.1.07-.27.19-.47.26-7.85,3.17-8.48,3.81-8.57,4.31-.07.4.38.54,1.23.54h5.12Z"/><path class="cls-4" d="M193.34,82.95h-2.92l.35-1.98h2.92l.23-1.31h2.18l-.23,1.31h3.01l.23-1.31h2.18l-.23,1.31h2.94l-.35,1.98h-2.94l-.17.94h-2.18l.17-.94h-3.01l-.17.94h-2.18l.17-.94ZM199.32,90.78c.71,0,1.1-.23,1.49-2.03.54.33,1.23.56,1.85.67-.74,2.78-1.73,3.37-3.91,3.37h-4.76c-2.46,0-3.48-.91-3.24-2.35.17-.97.57-1.83,4.94-3.92h-4.5l.34-1.91h8.74l.43-.07,1.3,1.14c-.1.07-.27.19-.47.26-7.85,3.17-8.48,3.81-8.57,4.31-.07.4.38.54,1.23.54h5.12Z"/><path class="cls-3" d="M214.48,85.14c.89,1.8,2.49,3.64,4.12,4.76-.61.43-1.54,1.28-2.03,1.87-1.3-1.13-2.49-2.78-3.37-4.56l-1.06,6.01h-2.34l.93-5.28c-1.48,1.63-3.21,3.01-5.03,3.95-.28-.54-.86-1.4-1.29-1.84,2.38-1.06,4.71-2.94,6.23-4.91h-4.73l.36-2.04h5.31l.61-3.44h2.34l-.61,3.44h2.58c-.38-.58-1.26-1.5-1.9-2.13l1.79-1.26c.63.57,1.6,1.43,2.03,2l-1.87,1.38h2.56l-.36,2.04h-4.28Z"/><path class="cls-4" d="M214.48,85.14c.89,1.8,2.49,3.64,4.12,4.76-.61.43-1.54,1.28-2.03,1.87-1.3-1.13-2.49-2.78-3.37-4.56l-1.06,6.01h-2.34l.93-5.28c-1.48,1.63-3.21,3.01-5.03,3.95-.28-.54-.86-1.4-1.29-1.84,2.38-1.06,4.71-2.94,6.23-4.91h-4.73l.36-2.04h5.31l.61-3.44h2.34l-.61,3.44h2.58c-.38-.58-1.26-1.5-1.9-2.13l1.79-1.26c.63.57,1.6,1.43,2.03,2l-1.87,1.38h2.56l-.36,2.04h-4.28Z"/><path class="cls-3" d="M226.82,85.96l.21-1.21c-.68.56-1.45,1.07-2.25,1.53h5.28l.45-.1,1.07,1.11c-.91.53-1.95,1.08-3.02,1.54h5.35l-.31,1.77h-5.47l-.12.66c-.17.94-.48,1.4-1.27,1.67-.79.26-1.75.26-2.94.26-.02-.54-.21-1.3-.41-1.8.76.04,1.88.04,2.15.04.28-.01.37-.06.41-.24l.1-.58h-5.49l.31-1.77h5.49l.12-.66c.25-.09.52-.2.77-.31h-3.55l.2-1.13c-.65.31-1.31.58-1.96.8-.21-.46-.66-1.18-1.02-1.57,1.43-.37,2.93-1,4.13-1.74h-3.32l.3-1.73h5.38l.11-.6c-1.4.09-2.79.13-4.1.14.04-.46-.06-1.21-.18-1.63,3.28-.04,7.02-.28,9.24-.77l1.48,1.44c-1.32.29-2.79.5-4.34.66l-.13.76h5.51l-.3,1.73h-3.39c.96.69,2.22,1.26,3.55,1.6-.51.39-1.22,1.14-1.6,1.63-1.62-.56-3.12-1.55-4.16-2.75l-.22,1.27h-2.08Z"/><path class="cls-4" d="M226.82,85.96l.21-1.21c-.68.56-1.45,1.07-2.25,1.53h5.28l.45-.1,1.07,1.11c-.91.53-1.95,1.08-3.02,1.54h5.35l-.31,1.77h-5.47l-.12.66c-.17.94-.48,1.4-1.27,1.67-.79.26-1.75.26-2.94.26-.02-.54-.21-1.3-.41-1.8.76.04,1.88.04,2.15.04.28-.01.37-.06.41-.24l.1-.58h-5.49l.31-1.77h5.49l.12-.66c.25-.09.52-.2.77-.31h-3.55l.2-1.13c-.65.31-1.31.58-1.96.8-.21-.46-.66-1.18-1.02-1.57,1.43-.37,2.93-1,4.13-1.74h-3.32l.3-1.73h5.38l.11-.6c-1.4.09-2.79.13-4.1.14.04-.46-.06-1.21-.18-1.63,3.28-.04,7.02-.28,9.24-.77l1.48,1.44c-1.32.29-2.79.5-4.34.66l-.13.76h5.51l-.3,1.73h-3.39c.96.69,2.22,1.26,3.55,1.6-.51.39-1.22,1.14-1.6,1.63-1.62-.56-3.12-1.55-4.16-2.75l-.22,1.27h-2.08Z"/></g></svg>