<?xml version="1.0" encoding="UTF-8"?><svg id="_图层_2" xmlns="http://www.w3.org/2000/svg" viewBox="0 0 128.03 104.86"><defs><style>.cls-1{fill:#f5f5f5;}</style></defs><g id="_图层_1-2"><polygon class="cls-1" points="89.61 65.28 64.27 104.86 43.93 73.09 44.41 72.5 44.52 72.5 44.52 72.35 48.79 67.05 64.27 91.24 80.89 65.28 89.61 65.28"/><path class="cls-1" d="M84.63,9.09l.49-1.83c.16-.61.59-1.12,1.15-1.39h-4.94l.7-2.61h2.53l.8-1.02c.7-.89,1.66-1.56,2.74-1.92h-14.95l-.79,2.93h4.06l-.7,2.61h-4.16l-.86,3.22h4.16l-4.74,17.71h5.61l4.74-17.71h4.16Z"/><polygon class="cls-1" points="70.54 10.21 66.09 26.8 69.06 26.8 73.51 10.21 70.54 10.21"/><path class="cls-1" d="M85.23,10.21h-4.01l-4.44,16.58h3.01l3.99-14.89c.2-.76.74-1.38,1.45-1.69Z"/><polygon class="cls-1" points="83.46 14.2 83.33 16.45 87.53 16.45 92.09 .87 88.36 .87 84.36 14.2 83.46 14.2"/><path class="cls-1" d="M100.89,6.81l1.2-1.92h-.8l.7-3.49c.12-.58.48-1.08,1-1.36h-4.53l-1.38,6.77h3.8Z"/><path class="cls-1" d="M104.03.87l-1.5,5.61-7.58,5.61,3.24-12.09h-5.43l-4.58,17.1-5.52,4.08-1.5,5.62,5.53-4.14-1.12,4.17h15.03l.41-.59c.7-1,1.67-1.77,2.79-2.24h-12.04l1.72-6.43,4.47-3.35.02,5.61h4.27l.39-.61c.46-.72,1.13-1.27,1.93-1.56h-2.03l-.14-6.76,4.24-3.18,1.33-4.98c.23-.85.83-1.54,1.64-1.88h-5.6Z"/><path class="cls-1" d="M58.34,11.99h-15.82l.15-.8h-6.81l-.65,3.37-.03.14h-.54l.58-.14-1.01-3.77-2.54.65-1.34-5h2.72l-.9-3.37h-2.72L28.59.03h-7.14c.69.32,1.2.94,1.4,1.67l.37,1.37h-3.78c.53.17.94.6,1.08,1.14l.6,2.22h3.01l1.74,6.48-2.81.72,1.01,3.77,2.81-.72,1.88,7.02h-1.06c-.52,0-1.02-.16-1.44-.47,1.03,1.51,1.71,2.51,2.47,3.62h7.06l-3.12-11.66.71-.18,1.99,3.26h6.12l.47-2.82h1.81l-.72,5.43-.55-2.06h-7.3c1.12.53,1.95,1.52,2.27,2.71l1.14,4.24h15.19l-2.05-3.01h-8.19l-.41-1.52h5.11l.32-2.46,1.64,2.46h4.56l.79,2.97h-2.48c.72.39,1.34.95,1.81,1.62l.72,1.03h6.7l-3.99-14.88ZM52.44,16.73h-3.62l.16-1.27h4.24l1.1,4.09-1.88-2.82Z"/><path class="cls-1" d="M54.78.07h-24.31c1.09.47,1.91,1.41,2.22,2.56l2.16,8.08h22.78L54.78.07ZM38.66,3.3h11.04l.22.83h-11.05l-.22-.83ZM39.87,7.78l-.21-.8h11.04l.21.8h-11.04Z"/><path class="cls-1" d="M22.74,11.96c-.61-2.27-.42-1.57-.85-3.19h-3.01l-1.11-4.13-17.77-.02,21.07,32.91v-7.3h4.05L13.42,11.96h9.32Z"/><polygon class="cls-1" points="68.9 4.62 58.48 4.62 60.45 11.96 66.93 11.96 68.9 4.62"/><polygon class="cls-1" points="128.03 4.62 108.82 34.62 102 34.62 102 31.66 114.61 11.96 104.75 11.96 104.75 11.92 108.65 9 109.82 4.62 128.03 4.62"/><path class="cls-1" d="M82.15,33.27h-9.11l-2.66,3.97h-2.06l-3.19,4.76-1.13,1.69h10.54l-2.14,3.41h-3.59l1.92,2.67-7.39,11.77-6.41-9.26,5.88-7.31h-8.25l-1.45,1.8h0s-2.67-3.86-2.67-3.86h12.37l-1.29-1.91-3.05-4.53-3.65-5.41h-9.02c.64.2,1.19.62,1.56,1.17l2.86,4.24h-4.24l-2.5-3.61h-9.34c.91.3,1.71.88,2.25,1.67l1.34,1.93h-7.65v-3.61h-6.44v15.46h-10.05c.83.18,1.55.69,1.98,1.43l2.92,5.01h16.49v8.25h-8.6c-1.4,0-3.27-.51-4.88-2.38l6.14,9.08h14.05v-21.39h-11.6v-5.41h12.11l6.47,9.34h.01s-5.77,7.15-5.77,7.15v10.31l9.59-11.92,6.92,10,3.65,5.27,3.92-6.25,4.63-7.38v8.24l6.7-8.66v-5.65h3.24l-3.24-4.51v-.11h0s3.18-5.07,3.18-5.07v-6.44h-2.87l1.78-2.65c.42-.62,1.03-1.09,1.75-1.32Z"/><path class="cls-1" d="M99.4,37.24v-6.19h-6.7v6.19h-10.31v25.26h10.31v17.21l6.7-9.99v-7.22h4.51l13.69-22.93c.57-.96,1.39-1.77,2.36-2.33h-20.55ZM94.73,51.74l1.51,4.31h-7.14v-12.37h7.19l-1.55,4.44-5.17,1.81,5.17,1.81ZM106.42,46.64c-4.56,7.63-3.38,5.66-5.62,9.41h-3.96l1.51-4.31,5.17-1.81-5.17-1.81-1.55-4.44h11.39l-1.77,2.96Z"/></g></svg>