<?xml version="1.0" encoding="UTF-8"?><svg id="_图层_2" xmlns="http://www.w3.org/2000/svg" viewBox="0 0 96.34 66.7"><defs><style>.cls-1{fill:#fff;}</style></defs><g id="_图层_1-2"><path class="cls-1" d="M51.87,44.46c0,12.28,9.95,22.23,22.23,22.23v-14.82c-4.09,0-7.41-3.32-7.41-7.41s3.32-7.41,7.41-7.41v-14.82c-12.28,0-22.23,9.95-22.23,22.23Z"/><path class="cls-1" d="M22.23,22.23v14.82c4.09,0,7.41,3.32,7.41,7.41s-3.32,7.41-7.41,7.41v14.82c12.28,0,22.23-9.95,22.23-22.23s-9.95-22.23-22.23-22.23Z"/><path class="cls-1" d="M0,22.23v22.23h0c8.19,0,14.82-6.64,14.82-14.82V0H0v22.23Z"/><rect class="cls-1" y="51.87" width="14.82" height="14.82"/><polygon class="cls-1" points="96.34 5.56 90.78 5.56 90.78 0 79.66 0 79.66 5.56 74.11 5.56 74.11 16.67 79.66 16.67 79.66 22.23 90.78 22.23 90.78 16.67 96.34 16.67 96.34 5.56"/></g></svg>