<?xml version="1.0" encoding="UTF-8"?><svg id="_图层_2" xmlns="http://www.w3.org/2000/svg" viewBox="0 0 193.71 121.56"><defs><style>.cls-1{fill:none;stroke:#fff;stroke-miterlimit:10;stroke-width:.2px;}.cls-2{fill:#ffffe4;}.cls-3{fill:#0024ff;}.cls-4{fill:#f5f5f5;}</style></defs><g id="_图层_1-2"><polygon class="cls-3" points="24.65 102.72 27.64 102.63 25.89 105.06 26.9 107.88 24.05 106.96 21.68 108.79 21.67 105.8 19.2 104.11 22.04 103.18 22.88 100.31 24.65 102.72"/><path class="cls-4" d="M.6,28.56c9,0,6.42,6.8,3.25,5.18-.4-1.86-2.14-3.74-3.63-4.75l.38-.42Z"/><path class="cls-2" d="M11.22,26.59c-1.6,4.89-4.65,13.91-5.18,15.89-.38,1.29-.64,2.57-.65,3.61-.05,2,1.17,3.62.85,7.15-.17,1.89-1.2,3.14-2.71,3.34-.77.1-1.39-.52-1.5-1.84.81-4.33.8-7.86-.11-8.36-.51-.31-1.08-.36-1.93-.33l.04-.92,1.75-.23c.53-.07.69-.09,1.14-.98q.76-1.47,7.56-17.4l.73.07Z"/><path class="cls-4" d="M.42,16.46c9.42.52,13.46,9.78,7.05,7.88-.48-1.93-5.87-6.34-7.48-7.5l.42-.39Z"/><path class="cls-4" d="M25.49,40.81c2.54,4.77,7.4,8.49,11.91,10.02l-.14.48c-1.32.42-2.42,1.56-2.99,3.25-4.06-2.46-7.51-6.99-9.42-12.96l-.74,16.22c-.02.42-1.44,1.31-2.62,1.46l-.61.08.65-14.35c-3.24,5.35-7.88,10.06-13.48,13.86l-.42-.57c5.19-4.53,9.49-10.77,12.03-16.74l-9.09,1.18-.27-1.21,11.46-1.49.31-6.84,4.62-.06c-.15.56-.49.98-1.52,1.28l-.24,5.21,6.12-.79,2.21-3.02s2.28,1.61,3.64,2.84c-.14.47-.52.73-1.09.8l-10.32,1.34Z"/><path class="cls-4" d="M15.71,25.86c.34,7.63-6.71,6.63-3.77,2.65,1.38-1.01,2.36-2.92,2.62-5.98l.61-.08c.21.76.34,1.49.43,2.18l17.33-2.25,2.01-2.21,3.23,2.94c-.34.38-.79.52-1.53.65-1.11,1.31-3,3.62-4.19,4.9l-.52-.18c.3-1.16.8-3.3,1.19-4.88l-17.41,2.26Z"/><path class="cls-4" d="M11.54,39.22c2.48-2.85,5.7-7.58,8.05-12.16l3.83,2.24c-.3.45-.89.78-1.73.64-2.85,3.77-6.33,7.29-9.68,9.71l-.47-.44Z"/><path class="cls-4" d="M26.41,26.8c11.15,2.66,8.9,10.29,5.45,8.58-.85-2.79-3.69-6.24-5.87-8.24l.42-.34Z"/><path class="cls-4" d="M53.19,57.57c-2.77,2.06-6.84,5.12-12.48,8.83-.11.55-.49,1.02-.91,1.24l-1.81-3.83c1.2-.45,3.26-1.34,5.79-2.49l.63-13.76-4.93.64-.27-1.13,5.26-.68.49-10.72,4.71-.11c-.15.6-.5,1.1-1.52,1.36l-.41,9.05,1.1-.14,1.96-2.99s1.99,1.69,3.07,2.88c-.1.43-.52.69-1.09.76l-5.1.66-.58,12.68c1.9-.87,3.93-1.8,5.96-2.76l.14.52Z"/><path class="cls-2" d="M55.32,34.78l4.55-.13c-.11.59-.45,1.05-1.48,1.35l-.72,15.81c-.41,8.18-2.61,15.51-9.84,21.14l-.51-.43c5.24-5.7,6.85-12.5,7.21-20.34l.79-17.39Z"/><path class="cls-4" d="M63.32,30.06l4.46-.08c-.11.55-.45.97-1.43,1.27l-1.25,27.53c-.02.42-1.44,1.26-2.54,1.41l-.61.08,1.37-30.2Z"/><path class="cls-4" d="M76.51,20.97c-.15.56-.45,1.01-1.48,1.31l-1.58,45.75c-.02.42-1.48,1.44-2.67,1.59l-.61.08,1.71-48.63,4.62-.1Z"/><path class="cls-4" d="M112.21,33.09s2.56,1.74,4.12,3.03c-.1.47-.56.74-1.13.81l-6.73.87c-1.93,6.8-4.17,12.27-7.69,16.75,14.53,4,12.13,9.62,8.6,8.75-2.37-2.3-6.36-4.44-10.82-6.22-4.67,4.67-11.23,8.09-21.09,10.91l-.17-.64c8.41-3.12,14.33-6.67,18.6-11.33-4.11-1.5-8.43-2.68-12.09-3.45,1.63-2.95,3.87-7.63,5.95-12.34l-10.97,1.42-.31-1.16,11.83-1.53c2.03-4.58,6.4-14.16,7.29-16.81l4.71.72c-.19.52-.57.94-1.75,1.06-.92,2.4-5,10.96-6.63,14.57l15.86-2.06,2.42-3.34ZM93.35,39.77c-1.94,4.27-4.09,8.78-5.95,12.3,4.07.51,7.49,1.1,10.38,1.72,3.23-4.19,5.32-9.19,6.91-15.49l-11.34,1.47Z"/><path class="cls-4" d="M132.54,32.67c-1.6,1.33-3.67,3.09-6.11,5.1l-1.36,17.15c-.12,2.59-.67,4.07-4.56,4.99-.07-1.03-.2-1.8-.67-2.28-.46-.48-1.3-.74-2.88-.79l.03-.63s3.37-.23,4.11-.33c.65-.08.82-.27.85-.81l1.25-14.69c-1.09.85-2.23,1.7-3.44,2.64-.1.51-.41,1.05-.83,1.31l-2.02-3.68c1.28-.62,3.65-1.84,6.44-3.41l.35-7.8,1.7-.06c1.14-1.93,2.32-4.7,3.14-6.67l-21.1,2.67-.27-1.17,21.38-2.71,2.01-2.25,3.28,2.81c-.3.33-.75.47-1.57.62-1.5,1.81-3.74,4.67-5.86,6.69l1.83-.07c-.11.64-.54,1.06-1.48,1.31l-.22,4.8c1.87-1.07,3.79-2.15,5.78-3.28l.22.51ZM128.19,55.95c8.83-5.29,16.43-11.92,22.09-22.27l4.29,1.89c-.35.5-.76.72-1.77.6-2.18,3.27-4.49,6.14-7.09,8.71,10.7,2.63,8.38,9.98,4.85,8.24-.94-2.45-3.49-5.35-5.74-7.42-4.79,4.56-10.22,8.04-16.38,10.87l-.25-.63ZM132.16,34.75s.7-.22,1.03-.47c2.52-1.99,5.83-6.93,7.04-9.45l4.36,1.22c-.18.4-.68.79-1.54.82-1.93,2.37-5.11,5.47-7.97,7.67,2.21-.41,5.4-.99,8.75-1.67.96-1.45,1.88-3.02,2.76-4.63l4.1,1.71c-.27.49-.68.67-1.65.63-5.01,7.7-11.51,13.31-19.4,17.53l-.34-.58c5.15-3.61,9.72-7.81,13.49-13.19-2.31.92-5.32,2.06-8.41,3.17-.31.5-.69.84-1.06,1.01l-1.17-3.74ZM152.03,19.44s2.2,1.58,3.56,2.73c-.14.47-.56.74-1.13.81l-22.92,2.97-.27-1.17,18.59-2.41,2.16-2.93ZM140.03,16.69c8.53,1.38,5.19,7.99,2.24,5.97-.28-1.91-1.55-4.28-2.7-5.62l.46-.35Z"/><path class="cls-2" d="M154.02,47.56c3.42-5.67,6.93-14.29,9.01-22.48l4.99.89c-.19.52-.69.96-1.59,1.04-1.2,3.27-2.52,6.42-4.07,9.36l1.88.46c-.18.4-.56.74-1.3.96l-1.12,24.61c-.1.3-1.48,1.27-2.7,1.43l-.65.09,1.02-22.52c-1.53,2.44-3.13,4.55-4.87,6.48l-.59-.3Z"/><path class="cls-4" d="M168.38,27.27l4.67-.11c-.11.64-.5,1.1-1.61,1.45l-1.3,28.57c-.02.42-1.4,1.34-2.62,1.5l-.57.07,1.43-31.49Z"/><path class="cls-4" d="M170.74,16.07c8.58,2.12,5.76,8.79,2.89,6.92-.34-2.28-2-5.01-3.31-6.58l.42-.34Z"/><path class="cls-4" d="M193.71,17.89c-.3.37-.97.83-1.79,1.06l-1.26,35.75c-.11,2.5-.71,4.07-5.14,5.1-.07-1.03-.32-1.82-.87-2.21-.67-.45-1.79-.72-3.86-.74l.03-.63s4.67-.27,5.61-.4c.86-.11,1.07-.39,1.1-1.1l1.27-35.95-9.75,1.26-.31-1.16,9.7-1.26,1.68-2.21,3.58,2.48Z"/><line class="cls-1" x1="147.97" y1="17.06" x2="176.48" y2="13.26"/><line class="cls-1" x1="130.94" y1="67.24" x2="159.45" y2="63.44"/><line class="cls-1" x1="38.55" y1="29.77" x2="67.78" y2="26.14"/><path class="cls-4" d="M76.97,73.28s2.61,1.91,3.97,3.26c-.11.5-.57.78-1.22.86l-27.48,3.65-.26,4.98c-.02.45-1.42,1.24-3,1.44l-.57.07.32-6.06-10.32,1.26-.28,5.25c-.02.45-1.59,1.18-2.91,1.34l-.57.07.33-6.24-11.33,1.39-.24-1.31,11.64-1.43.33-6.32,4.98-.12c-.12.59-.49,1.09-1.64,1.4l-.24,4.62,10.32-1.26.33-6.32,5.02-.13c-.12.59-.49,1.09-1.6,1.4l-.24,4.62,22.13-2.99,2.53-3.43ZM56.13,86.58l3.61,2.68c-.33.4-.82.68-1.75.93-.69,9.71-1.38,14.61-3.18,16.39-1.11,1.16-2.76,1.85-4.69,2.09.06-1.08-.02-2.05-.61-2.47-.54-.51-2.14-.76-3.66-.84l.04-.72c1.62-.06,4.33-.17,5.17-.27.75-.09,1.06-.22,1.38-.62.93-.96,1.43-5.61,2.03-13.62l-11.81,1.45-1.25,23.64c-.01.22-1.28,1.18-3.17,1.41l-.66.08,1.3-24.67-21.24,2.2-.33-1.3,36.74-4.1,2.08-2.26Z"/><path class="cls-4" d="M93,82.6c-.28.44-.96.88-1.85,1.16l-1.74,32.97c-.06.32-1.91,1.48-3.23,1.64l-.57.07.2-3.81-19.63,2.4-.14,2.69c-.02.45-1.39,1.55-3.02,1.75l-.66.08,2.02-38.26,3.86,1.31,18.84-2.31,2.05-2.48,3.87,2.78ZM85.89,113.33l.77-14.53-19.63,2.4-.77,14.53,19.63-2.4ZM67.83,85.95l-.74,13.95,19.63-2.4.74-13.95-19.63,2.4Z"/><path class="cls-4" d="M100.25,77.69c1.07,4.55.3,8.39-.94,10.28-.81,1.3-2.59,1.92-3.28.98-.57-.87-.07-2,.77-2.95,1.26-1.54,2.67-5.18,2.66-8.26l.79-.05ZM108.14,68.57c-.12.64-.49,1.13-1.65,1.45l-2.02,38.35c-.02.45-1.47,1.38-2.79,1.54l-.7.09,2.18-41.4,4.97-.03ZM121.82,88.82c1.05,5.62,4.69,10.25,14.32,12.15l-.12.55c-1.77.53-2.92,1.47-3.33,3.57-8.67-2.77-11.01-9.57-11.71-16.17l-.18.02c-1.67,8.54-5.39,14.56-15.3,19.56l-.45-.66c7.76-4.92,10.9-10.65,12.36-18.49l-10.06,1.23-.28-1.21,10.58-1.3c.52-3.27.8-6.96,1.02-11.09l-7.33.9-.32-1.3,7.73-.95c.14-2.65.25-5.47.41-8.52l5.07-.09c-.16.64-.63,1.15-1.6,1.45-.13,2.38-.29,4.63-.4,6.73l5.71-.7,1.95-2.15,3.58,2.46c-.33.4-1.05.84-1.9,1.17l-.55,10.45.66-.08,2.05-3.23s2,1.85,3.15,3.18c-.16.46-.56.74-1.18.81l-13.88,1.7ZM107.36,75.97c6.93,3.47,3.38,9.48,1.01,7.23.17-2.34-.68-5.22-1.6-6.93l.58-.29ZM122.16,76.57c-.26,4.13-.54,7.78-1.11,11.1l6.67-.82.58-11.03-6.15.75Z"/><path class="cls-4" d="M151.94,93.61c-.24.52-.88.91-1.83.85-3.9,6.23-9.01,11.17-14.11,14.43l-.45-.48c4.08-3.8,8.77-10.03,11.83-16.69l4.57,1.89ZM160.09,87.13l-.87,24.1c-.15,2.78-.84,4.43-5.74,5.47-.08-1.06-.25-1.89-.97-2.33-.67-.5-1.83-.75-4.1-.79l.04-.72s5.07-.22,6.08-.34c.88-.11,1.11-.4,1.15-1.08l.86-23.88-10.98,1.34-1.53,1.75-3.48-1.94c.41-.36.91-.73,1.45-1.07,1.19-4.34,2.82-12.11,3.28-15.87l4.68.68c7.42-1.76,15.8-4.3,20.57-6.26l3.32,3.34c-.46.41-1.33.47-2.41.12-6.1,1.5-14.96,3.21-22.95,4.15-.67,3.65-1.95,9.69-2.95,13.77l11.06-1.35.57-10.86,5.02-.03c-.12.64-.49,1.04-1.55,1.35l-.48,9.1,9.75-1.19,2.44-3.2s2.53,1.7,4.03,3.03c-.11.51-.61.79-1.18.86l-15.1,1.85ZM162.2,90.56c15.85,4.34,14.12,14.21,9.73,12.25-1.76-4.06-6.64-8.85-10.24-11.78l.51-.47Z"/><polygon class="cls-3" points="176.92 17.12 178.46 26.8 169.84 22.13 161.11 26.58 162.89 16.95 155.96 10.02 165.67 8.73 170.12 0 174.35 8.84 184.02 10.37 176.92 17.12"/><polygon class="cls-4" points="170.12 0 174.35 8.84 170.68 11.6 170.12 0"/><polygon class="cls-4" points="176.92 17.12 178.46 26.8 175.23 16.24 184.02 10.37 176.92 17.12"/></g></svg>