<?xml version="1.0" encoding="UTF-8"?><svg id="_图层_2" xmlns="http://www.w3.org/2000/svg" viewBox="0 0 135.32 107.58"><defs><style>.cls-1{fill:#0024ff;}.cls-2{fill:#f5f5f5;}</style></defs><g id="_图层_1-2"><path class="cls-2" d="M73.03,43.04h-20.47v9.98h39.72c-2.28-6.12-9.44-9.98-19.25-9.98"/><path class="cls-2" d="M0,75.05h6.39c.19,1.99,1.92,3.32,4.38,3.32,2.23,0,3.72-.96,3.72-2.39,0-1.83-2.27-2.17-4.93-2.54-3.94-.53-8.87-1.49-8.87-6.83,0-4.62,3.97-7.7,9.93-7.7,5.4,0,9.31,3.2,9.77,8.01h-6.39c-.06-1.77-1.55-2.95-3.75-2.95-1.8,0-2.98.84-2.98,2.08,0,1.52,2.11,1.92,4.69,2.26,4.03.56,9.12,1.61,9.12,6.92,0,4.9-4.19,8.19-10.46,8.19-5.9,0-10.15-3.35-10.61-8.38"/><polygon class="cls-2" points="44.37 59.23 44.37 83.12 37.89 83.12 37.89 73.5 29.85 73.5 29.85 83.12 23.36 83.12 23.36 59.23 29.85 59.23 29.85 68.57 37.89 68.57 37.89 59.23 44.37 59.23"/><polygon class="cls-2" points="66.46 78.19 66.46 83.12 47.78 83.12 47.78 59.23 66.09 59.23 66.09 64.16 54.27 64.16 54.27 68.47 64.98 68.47 64.98 73.41 54.27 73.41 54.27 78.19 66.46 78.19"/><polygon class="cls-2" points="90.92 83.12 83.37 83.12 78.22 73.22 78.16 73.22 75.49 76.95 75.49 83.12 69.01 83.12 69.01 59.23 75.49 59.23 75.49 68.5 75.55 68.5 82.26 59.23 89.42 59.23 82.78 68.29 90.92 83.12"/><path class="cls-2" d="M89.18,71.18c0-7.35,4.75-12.26,11.85-12.26s11.85,4.9,11.85,12.26-4.75,12.26-11.85,12.26-11.85-4.9-11.85-12.26M106.18,71.18c0-4.31-2.05-7.2-5.15-7.2s-5.15,2.89-5.15,7.2,2.05,7.2,5.15,7.2,5.15-2.89,5.15-7.2"/><path class="cls-2" d="M114.99,74.22v-14.99h6.49v15.27c0,2.33,1.55,3.88,3.85,3.88s3.85-1.55,3.85-3.88v-15.27h6.14v14.99c0,5.52-4.06,9.22-10.18,9.22s-10.15-3.69-10.15-9.22"/><path class="cls-2" d="M20.83,91.42h16.12v15.38h-16.12v-15.38ZM24.1,103.91h9.58v-9.6h-9.58v9.6Z"/><path class="cls-2" d="M63.78,107.51h-2.96v-8.21c-.15.2-.38.51-.68.91-.41.56-.74.99-.99,1.29-.05-.2-.1-.53-.15-.99-.1-.66-.3-1.72-.61-3.19,1.72-2.18,3.12-4.84,4.18-7.98l3.12,1.14c-.51,1.37-1.14,2.71-1.9,4.03v5.47c1.27-.66,2.43-1.32,3.5-1.98v-8.44h3.27v6.16c1.57-1.22,2.94-2.53,4.11-3.95l2.36,2.36c-1.82,1.98-3.98,3.85-6.46,5.63v3.65c-.05.66.28.96.99.91h.61c.86.05,1.32-.33,1.37-1.14,0-.1.02-.3.08-.61.1-.96.18-1.72.23-2.28,1.37.51,2.43.89,3.19,1.14,0,.15-.03.35-.08.61-.2,1.32-.41,2.31-.61,2.96-.15,1.52-1.37,2.23-3.65,2.13h-2.05c-2.38.2-3.5-.89-3.34-3.27v-2.05c-.36.25-.86.56-1.52.91-.2.1-.36.18-.46.23-.56-1.01-1.06-1.85-1.52-2.51v7.07Z"/><path class="cls-2" d="M78.07,93.9v-2.81h4.03v-1.75h3.19v1.75h3.73v-1.75h3.19v1.75h4.11v2.81h-4.11v1.14h-3.19v-1.14h-3.73v1.14h-3.19v-1.14h-4.03ZM96.32,101.28c-.25,1.67-.46,2.79-.61,3.35-.41,1.77-2.13,2.63-5.17,2.58h-6.84c-3.09.05-4.59-.81-4.49-2.58-.05-1.06.76-2.15,2.43-3.27,1.22-.91,3.01-1.87,5.4-2.89h-7.53v-2.81h13.83v2.89c-5.22,2.33-8.46,3.95-9.73,4.87-.41.2-.61.46-.61.76,0,.25.35.38,1.06.38h6.23c1.57.05,2.41-.46,2.51-1.52.05-.3.13-.78.23-1.44.05-.51.1-.91.15-1.22l3.12.91Z"/><path class="cls-2" d="M114.64,105.61c-2.99-1.57-5.14-3.45-6.46-5.63v7.6h-3.12v-7.53c-1.42,2.28-3.52,4.21-6.31,5.78l-1.44-2.96c3.19-1.67,5.55-3.85,7.07-6.54h-6.23v-2.96h6.92v-4.03h3.12v4.03h3.19l-2.13-2.05,1.83-1.75,2.96,2.43-1.44,1.37h2.66v2.96h-6.39c1.47,2.69,3.83,4.71,7.07,6.08l-1.29,3.19Z"/><path class="cls-2" d="M121.41,105.31h2.66c.76,0,1.11-.28,1.06-.84v-.15h-8.13v-2.36h8.13v-.08l2.05-.84h-6.84v-1.67c-.3.15-1.57.63-2.28.84l-1.22-2.59c2.79-.46,4.89-1.11,6.31-1.98h-5.7v-2.28h7.3v-.99l-5.85.08-.46-2.28c6.49-.1,11.48-.23,14.98-.38l.38,2.36-6.23.15v1.06h7.3v2.28h-5.85c1.42.86,3.52,1.44,6.31,1.75l-1.14,2.66c-.96-.3-1.88-.61-2.74-.91v1.9l-1.82.91h5.63v2.36h-6.99v.76c0,1.47-.79,2.25-2.36,2.36-.66.05-1.98.08-3.95.08l-.53-2.2ZM130.91,98.92c-1.52-.61-2.64-1.22-3.35-1.82v1.52h-2.81v-1.52c-.91.66-2,1.27-3.27,1.82h9.43Z"/><path class="cls-2" d="M57.55,104.47c-2.74-.56-5.02-1.39-6.84-2.51,1.72-1.67,3.01-4,3.88-6.99h2.74v-2.89h-7.07l-.36-2.58h-3.67l.61,2.58h-7.68v2.89h2.74c.91,2.79,2.18,5.12,3.8,6.99-1.72,1.06-3.95,2-6.69,2.81l1.9,2.81c2.99-1.06,5.42-2.2,7.3-3.42,1.98,1.27,4.46,2.36,7.45,3.27l1.9-2.96ZM45.23,94.96h5.93c-.56,1.98-1.55,3.65-2.96,5.02-1.27-1.37-2.26-3.04-2.96-5.02"/><path class="cls-2" d="M10.95,93.98h4.56v1.75h2.81v-4.33h-3.34c-.14-.56-.28-1.17-.42-1.82h-3.38l.53,1.82h-3.5v4.33h2.74v-1.75Z"/><path class="cls-2" d="M18.55,101.88l-2.89-.68c-.1,1.06-.2,1.85-.3,2.36-.1.76-.53,1.12-1.29,1.06h-1.06c-.76.05-1.14-.35-1.14-1.22v-1.82c2.08-.76,4.08-1.75,6.01-2.96l-1.75-2.28c-1.27.91-2.69,1.72-4.26,2.43v-2.58h-2.81v7.91c-.05,2.08.94,3.09,2.96,3.04h2.59c1.87.05,2.99-.63,3.34-2.05l.61-3.19Z"/><path class="cls-2" d="M7.91,101.81l-1.83.23.23,1.52-.84.08v-2.28h2.2v-8.9h-2.2v-3.04h-2.58v3.04H.61v8.9h2.28v2.53l-2.89.28.46,2.58c1.52-.25,3.6-.58,6.23-.98l.23,1.44,2.05-.38-1.06-5.02ZM5.02,95.05h.76v3.65h-.76v-3.65ZM2.51,95.05h.84v3.65h-.84v-3.65Z"/><path class="cls-1" d="M13.12,8.99L15.73.87c.14-.43-.18-.87-.63-.87H3.75c-.22,0-.42.14-.5.35L.32,8.47c-.16.43.16.89.63.89h11.66c.23,0,.44-.15.51-.37"/><path class="cls-1" d="M31.93,5.11c-.09-.26-.35-.44-.63-.44h-13.38c-.28,0-.53.18-.62.44L3.7,42.78c-.16.43.16.89.63.89h27.62c.23,0,.44.15.51.37l2.75,8.53c.09.28.34.46.63.46h12.38c.46,0,.78-.46.63-.89L31.93,5.11ZM19.15,33.75l4.96-15.51h.13l4.96,15.51h-10.05Z"/><path class="cls-1" d="M134.65,4.68h-38.29c-.37,0-.67.3-.67.67v8.65c0,.37.3.66.67.66h12.05c.29,0,.53.24.53.53v37.17c0,.37.3.67.66.67h11.79c.37,0,.67-.3.67-.67V15.19c0-.29.24-.53.53-.53h12.05c.37,0,.66-.3.66-.66V5.34c0-.37-.3-.67-.66-.67"/><path class="cls-1" d="M84.39,17.77c5.4-2.7,8.67-7.41,8.67-13.37,0-1.39-.21-2.71-.62-3.94-.09-.27-.35-.45-.64-.45h-15.64c-.14,0-.25.11-.25.25v.31c0,.1.07.2.17.23,2.11.75,3.42,2.17,3.42,4.55,0,3.26-2.39,5.4-5.9,5.4h-7.38c-.29,0-.53-.24-.53-.53V.67c0-.37-.3-.67-.66-.67h-11.79c-.37,0-.67.3-.67.67v37.04c0,.37.3.67.67.67h11.79c.37,0,.66-.3.66-.67v-17.08c0-.29.24-.53.53-.53h5.35c.21,0,.39.12.48.3l8.34,17.59c.11.23.34.38.6.38h13.05c.5,0,.82-.53.59-.97l-10.23-19.62Z"/></g></svg>