<?xml version="1.0" encoding="UTF-8"?><svg id="_图层_2" xmlns="http://www.w3.org/2000/svg" viewBox="0 0 144.69 139.82"><defs><style>.cls-1{fill:#fff;}.cls-2{fill:#ff4e00;}</style></defs><g id="_图层_1-2"><path class="cls-1" d="M51.16,33.93s2.39-.48,2.59-2.27l-.03,2.27h-2.56Z"/><path class="cls-1" d="M19.17,75.19s-.52,2.33-2.36,2.5h2.32s.03-2.5.03-2.5Z"/><polygon class="cls-1" points="53.62 41.66 34.45 41.66 34.56 33.93 53.72 33.93 53.62 41.66"/><polygon class="cls-1" points="53.3 64.25 34.14 64.25 34.24 56.52 53.41 56.52 53.3 64.25"/><polygon class="cls-1" points="44.5 77.73 42.56 77.73 43.07 41.55 45 41.55 44.5 77.73"/><path class="cls-1" d="M43.07,41.55h-1.63s1.63.54,1.61,1.6l.02-1.6Z"/><path class="cls-1" d="M45,41.55h1.63s-1.64.54-1.66,1.6l.02-1.6Z"/><path class="cls-1" d="M19.74,33.93l-.1,6.95v.78s-.41,28.3-.41,28.3l-.02,1.1-.09,6.63h13.32l.09-6.63.02-1.1.4-28.3v-.78s.11-6.95.11-6.95h-13.32ZM29.07,69.96h-6.35c-.86,0-1.55-.68-1.54-1.52l.35-25.26c.01-.84.72-1.52,1.58-1.52h6.35c.86,0,1.55.68,1.54,1.52l-.35,25.26c-.01.84-.72,1.52-1.58,1.52Z"/><path class="cls-1" d="M53.35,42.08l-.18,12.77h-11.43s11.49-4.47,11.6-12.77Z"/><path class="cls-1" d="M34.7,42.08l-.18,12.77h11.43s-11.36-4.47-11.25-12.77Z"/><path class="cls-1" d="M42.69,68.37c-.04,2.82-3.08,9.37-7.24,9.37h7.11l.13-9.37Z"/><path class="cls-1" d="M95.06,75.19s-.52,2.33-2.36,2.5h2.32s.03-2.5.03-2.5Z"/><polygon class="cls-1" points="129.17 43.26 113.57 43.26 113.68 35.52 129.28 35.52 129.17 43.26"/><path class="cls-1" d="M95.61,35.34l-.1,6.95v.78s-.39,26.89-.39,26.89l-.02,1.1-.09,6.63h16.77l.09-6.63.02-1.1.38-26.89v-.78s.11-6.95.11-6.95h-16.77ZM97.08,68.41l.09-6.47c.01-.86.73-1.55,1.61-1.55h9.72c.88,0,1.58.7,1.57,1.55l-.09,6.47c-.01.86-.73,1.55-1.61,1.55h-9.72c-.88,0-1.58-.7-1.57-1.55ZM108.62,52.65h-9.72c-.88,0-1.58-.7-1.57-1.55l.09-6.47c.01-.86.73-1.55,1.61-1.55h9.72c.88,0,1.58.7,1.57,1.55l-.09,6.47c-.01.86-.73,1.55-1.61,1.55Z"/><path class="cls-1" d="M102.38,35.52s1.05,0,1.08-2.27c0,0,2.18-.18,2.14,2.27h-3.23Z"/><path class="cls-1" d="M116.24,35.52s-2.38-.48-2.53-2.27l-.03,2.27h2.56Z"/><polygon class="cls-1" points="128.69 77.7 126.75 77.7 127.24 43.26 129.17 43.26 128.69 77.7"/><path class="cls-1" d="M127.24,43.26h-1.63s1.63.54,1.61,1.6l.02-1.6Z"/><path class="cls-1" d="M126.88,68.37c-.04,2.82-3.08,9.37-7.24,9.37h7.11l.13-9.37Z"/><path class="cls-1" d="M115.57,49.59l-.18,12.77h11.43s-11.36-4.47-11.25-12.77Z"/><path class="cls-1" d="M74.37,33.93s-2.38-.48-2.53-2.27l-.03,2.27h2.56Z"/><path class="cls-1" d="M59.78,33.93s-2.38-.48-2.53-2.27l-.03,2.27h2.56Z"/><path class="cls-1" d="M56.65,75.19s-.52,2.33-2.36,2.5h2.32s.03-2.5.03-2.5Z"/><polygon class="cls-1" points="87.79 41.66 71.71 41.66 71.81 33.93 87.9 33.93 87.79 41.66"/><polygon class="cls-1" points="76.3 77.7 74.36 77.7 74.87 41.66 76.8 41.66 76.3 77.7"/><path class="cls-1" d="M74.87,41.66h-1.63s1.63.54,1.61,1.6l.02-1.6Z"/><polygon class="cls-1" points="89.84 53.37 80.12 53.37 80.23 45.64 89.95 45.64 89.84 53.37"/><path class="cls-1" d="M57.22,33.93l-.1,6.95v.78s-.41,28.3-.41,28.3l-.02,1.1-.09,6.63h13.32l.09-6.63.02-1.1.4-28.3v-.78s.11-6.95.11-6.95h-13.32ZM66.53,69.96h-6.3c-.87,0-1.57-.69-1.56-1.54l.35-25.22c.01-.85.73-1.54,1.6-1.54h6.3c.87,0,1.57.69,1.56,1.54l-.35,25.22c-.01.85-.73,1.54-1.6,1.54Z"/><path class="cls-1" d="M85.43,44.16s.52-2.33,2.36-2.5h-2.32s-.03,2.5-.03,2.5Z"/><path class="cls-1" d="M79.76,56.07s-3,21.62,10.84,21.62l.18-13.02s-.02,1.59-4.48,1.59c-3.6,0-6.55-10.19-6.55-10.19Z"/><path class="cls-1" d="M74.45,71.89c-.02,1.76-1.92,5.84-4.51,5.84h4.43l.08-5.84Z"/><path class="cls-1" d="M78.08,68.4l-.13,9.54s11.99-9.5,11.9-24.57c0,0-1.57,15.82-11.76,15.03Z"/><path class="cls-1" d="M85.46,23.91s.17.87.86.94h-.87s.01-.94.01-.94Z"/><polygon class="cls-1" points="85.45 24.85 79.62 24.85 79.66 21.95 85.49 21.95 85.45 24.85"/><polygon class="cls-1" points="84.87 14.51 80.89 24.85 77.92 24.85 81.91 14.51 84.87 14.51"/><path class="cls-1" d="M80.51,8.46h1.03s.15,7.77-2.98,9.12l-2.51-2.47s4.39-2.23,4.46-6.66Z"/><path class="cls-1" d="M85.99,8.46h-1.03s-.37,7.77,2.73,9.12l2.58-2.47s-4.33-2.23-4.27-6.66Z"/><path class="cls-1" d="M85.53,19.03s0,5.82,4.59,5.82l.07-4.88s-.12.91-1.6.91-3.06-1.85-3.06-1.85Z"/><path class="cls-1" d="M116.07,23.67s-.2.87-.88.94h.87s.01-.94.01-.94Z"/><path class="cls-1" d="M127.84,18.35s.89-.18.97-.85v.85s-.97,0-.97,0Z"/><path class="cls-1" d="M127.8,21.75s.89-.18.97-.85v.85s-.97,0-.97,0Z"/><path class="cls-1" d="M127.98,8.21s.89-.18.97-.85v.85h-.97Z"/><polygon class="cls-1" points="128.71 24.61 116.06 24.61 116.1 21.71 128.75 21.71 128.71 24.61"/><polygon class="cls-1" points="128.77 20.51 116.12 20.51 116.15 18.35 128.8 18.35 128.77 20.51"/><polygon class="cls-1" points="122.79 21.71 122.07 21.71 122.13 16.86 122.86 16.86 122.79 21.71"/><path class="cls-1" d="M122.13,16.86h-.61s.61.2.6.6v-.6Z"/><path class="cls-1" d="M122.86,16.86h.61s-.61.2-.62.6v-.6Z"/><path class="cls-1" d="M122.79,21.71h.61s-.61-.2-.6-.6v.6Z"/><path class="cls-1" d="M122.07,21.71h-.61s.61-.2.62-.6v.6Z"/><path class="cls-1" d="M116.29,8.21l-.02,1.45-.02,1.45-.04,2.85v.85s-.04,2.05-.04,2.05h12.65l.03-2.05v-.85s.05-2.85.05-2.85l.02-1.45.02-1.45h-12.65ZM128.18,11.11v.75h-5.25v-.75h5.25ZM122.21,11.11v.75h-5.25v-.75h5.25ZM116.94,13.21h5.24v.75h-5.25v-.75ZM122.9,13.96v-.75h5.25v.75h-5.25Z"/><path class="cls-1" d="M95.45,24.61h.87v-.94s-.18.87-.87.94Z"/><path class="cls-1" d="M108.24,8.21h-11.7l-.04,2.6h0l-.15,10.89h0l-.04,2.9h12.65l.04-2.48h0l.15-11.01h0l.04-2.9v-.85c-.06.67-.96.85-.96.85ZM108.29,21.71h-11.21l.15-10.6h11.21l-.15,10.6Z"/><polygon class="cls-1" points="107.32 11.75 98.33 11.75 98.3 13.91 107.29 13.91 107.32 11.75"/><polygon class="cls-1" points="97.91 16.57 107.6 16.57 107.63 14.41 97.94 14.41 97.91 16.57"/><path class="cls-1" d="M105.78,18.16c-1.3,0-2.7-1.48-2.7-1.48,0,0,0,4.65,4.05,4.65l.05-3.9s-.11.73-1.41.73Z"/><path class="cls-1" d="M98.3,17.43l-.05,3.9c4.04,0,4.18-4.65,4.18-4.65,0,0-1.44,1.48-2.74,1.48s-1.39-.73-1.39-.73Z"/><path class="cls-1" d="M37.89,9.05s-.89-.18-.95-.85v.85s.95,0,.95,0Z"/><path class="cls-1" d="M48.85,9.05s.89-.18.97-.85v.85h-.97Z"/><polygon class="cls-1" points="49.77 11.92 36.89 11.92 36.93 9.03 49.81 9.03 49.77 11.92"/><polygon class="cls-1" points="49.58 24.85 38.34 24.85 38.38 21.95 49.62 21.95 49.58 24.85"/><polygon class="cls-1" points="49.64 20.9 38.34 20.9 38.36 18.95 49.67 18.95 49.64 20.9"/><path class="cls-1" d="M43.11,9.05s.39,0,.41-.85c0,0,.82-.07.8.85h-1.21Z"/><polygon class="cls-1" points="37.44 24.85 36.71 24.85 36.9 11.3 37.63 11.3 37.44 24.85"/><path class="cls-1" d="M36.76,21.34c-.01,1.06-1.15,3.51-2.71,3.51h2.66l.05-3.51Z"/><path class="cls-1" d="M40.89,13.24s-.02,4.65,2.39,4.65l.05-3.9s-.07.73-.84.73-1.6-1.48-1.6-1.48Z"/><path class="cls-1" d="M40.89,13.24s-.11,4.65-2.52,4.65l.05-3.9s.05.73.82.73,1.64-1.48,1.64-1.48Z"/><path class="cls-1" d="M47.3,13.24s-.02,4.65,2.39,4.65l.05-3.9s-.07.73-.84.73-1.6-1.48-1.6-1.48Z"/><path class="cls-1" d="M47.3,13.24s-.11,4.65-2.52,4.65l.05-3.9s.05.73.82.73,1.64-1.48,1.64-1.48Z"/><polygon class="cls-1" points="44.36 21.95 43.64 21.95 43.76 13.14 44.48 13.14 44.36 21.95"/><path class="cls-1" d="M44.36,21.95h.61s-.61-.2-.6-.6v.6Z"/><path class="cls-1" d="M43.64,21.95h-.61s.61-.2.62-.6v.6Z"/><path class="cls-1" d="M43.76,13.14v-.67s.23.67.72.67h-.72Z"/><path class="cls-1" d="M70.01,9.03s.89-.18.97-.85v.85h-.97Z"/><path class="cls-1" d="M69.92,15.53s.89-.18.97-.85v.85h-.97Z"/><path class="cls-1" d="M69.83,21.95s.89-.18.97-.85v.85h-.97Z"/><path class="cls-1" d="M60.77,23.91s-.2.87-.88.94h.87s.01-.94.01-.94Z"/><polygon class="cls-1" points="70.93 11.92 58.05 11.92 58.09 9.03 70.97 9.03 70.93 11.92"/><polygon class="cls-1" points="70.84 18.43 60.85 18.43 60.89 15.53 70.88 15.53 70.84 18.43"/><polygon class="cls-1" points="70.75 24.85 60.76 24.85 60.8 21.95 70.79 21.95 70.75 24.85"/><path class="cls-1" d="M61.53,9.05s.39,0,.41-.85c0,0,.82-.07.8.85h-1.21Z"/><polygon class="cls-1" points="59.13 24.85 58.4 24.85 58.56 13.84 59.28 13.84 59.13 24.85"/><path class="cls-1" d="M58.45,21.34c-.01,1.06-1.15,3.51-2.71,3.51h2.66l.05-3.51Z"/><path class="cls-1" d="M62.14,9.03s-.34,8.1-6.13,8.1l.07-4.88s-.09,1.08,1.58,1.08c3.49,0,4.49-4.31,4.49-4.31Z"/><polygon class="cls-1" points="66.15 21.95 65.43 21.95 65.55 13.14 66.28 13.14 66.15 21.95"/><path class="cls-1" d="M66.15,21.95h.61s-.61-.2-.6-.6v.6Z"/><path class="cls-1" d="M65.43,21.95h-.61s.61-.2.62-.6v.6Z"/><path class="cls-1" d="M65.55,13.14v-.67s.23.67.72.67h-.72Z"/><path class="cls-1" d="M30.64,16.08s.89-.18.97-.85v.85h-.97Z"/><polygon class="cls-1" points="31.56 18.97 18.91 18.97 18.95 16.08 31.6 16.08 31.56 18.97"/><path class="cls-2" d="M44.81,137.32v-.43c.06-.29.13-.76.22-1.42.09-.66.16-1.05.22-1.16,0-.12.07-.39.22-.82.14-.43.3-.92.47-1.47.17-.55.35-1.08.52-1.6.17-.52.32-.92.43-1.21.06-.06.14-.19.26-.39.11-.2.17-.33.17-.39.11-.17.26-.53.43-1.08.17-.55.32-.91.43-1.08,0-.06.06-.26.17-.6.11-.34.2-.58.26-.69.06-.12.19-.46.39-1.03.2-.58.36-.92.47-1.04,0-.06.06-.2.17-.43.11-.23.2-.37.26-.43,0-.06.06-.26.17-.6.11-.34.17-.58.17-.69.29-.52.52-.92.69-1.21.17-.29.32-.56.43-.82.11-.26.17-.42.17-.47.52-1.15,1.01-2.27,1.47-3.36.46-1.09.95-2.21,1.47-3.36.06-.06.16-.2.3-.43.14-.23.29-.5.43-.82.14-.31.27-.59.39-.82.11-.23.17-.37.17-.43.06-.06.14-.23.26-.52.11-.29.24-.6.39-.95.14-.34.27-.66.39-.95.11-.29.2-.46.26-.52.06-.11.19-.37.39-.78.2-.4.42-.85.65-1.34.23-.49.45-.93.65-1.34l.39-.78c.06-.06.16-.24.3-.56.14-.31.27-.67.39-1.08.11-.4.23-.76.35-1.08.11-.32.2-.53.26-.65,0-.06.06-.2.17-.43.11-.23.2-.37.26-.43.06-.11.19-.46.39-1.04.2-.57.36-.95.47-1.12,0-.06.06-.26.17-.6.11-.34.2-.55.26-.6,0-.06.06-.2.17-.43.11-.23.2-.37.26-.43.29-.8.56-1.57.82-2.29.26-.72.53-1.51.82-2.37h-1.29c-.06.06-.26.2-.6.43-.34.23-.55.37-.6.43-.29.17-.69.42-1.21.73-.52.32-.83.5-.95.56-.12.06-.45.19-.99.39-.55.2-.91.33-1.08.39-.12.06-.4.14-.86.26-.46.12-.75.17-.86.17-.17.17-.46.32-.86.43-.17,0-.62.01-1.34.04-.72.03-1.19.04-1.42.04-.35,0-.86-.01-1.55-.04-.69-.03-1.07-.04-1.12-.04-.12,0-.5-.11-1.16-.34-.66-.23-1.14-.4-1.42-.52l-.43-.43c-.12-.11-.45-.39-.99-.82-.55-.43-.91-.7-1.08-.82-.06,0-.14.06-.26.17-.12.12-.17.2-.17.26-.06.12-.2.53-.43,1.25-.23.72-.37,1.14-.43,1.25,0,.06-.06.2-.17.43-.12.23-.2.37-.26.43,0,.12-.06.4-.17.86-.12.46-.2.75-.26.86-.17.46-.46,1.29-.86,2.5-.4,1.21-.82,2.49-1.25,3.84-.43,1.35-.85,2.63-1.25,3.84-.4,1.21-.69,2.04-.86,2.5,0,.06-.04.19-.13.39-.09.2-.19.33-.3.39-.06.12-.19.22-.39.3-.2.09-.33.13-.39.13-.12,0-.27-.04-.47-.13-.2-.09-.33-.19-.39-.3-.12-.11-.27-.39-.47-.82-.2-.43-.33-.7-.39-.82,0-.06-.01-.22-.04-.47-.03-.26-.04-.44-.04-.56s.01-.31.04-.6c.03-.29.04-.46.04-.52s.06-.27.17-.65c.11-.37.24-.78.39-1.21.14-.43.29-.83.43-1.21.14-.37.24-.62.3-.73,0-.11.06-.46.17-1.04.11-.57.2-.92.26-1.04,0-.06.06-.2.17-.43.11-.23.2-.37.26-.43,0-.11.06-.37.17-.78.11-.4.26-.85.43-1.34.17-.49.32-.93.43-1.34.11-.4.17-.66.17-.78.29-.75.52-1.35.69-1.81.17-.46.32-.89.43-1.29.11-.4.17-.63.17-.69,0-.11.06-.4.17-.86.11-.46.2-.75.26-.86,0-.06.06-.26.17-.6.11-.34.2-.57.26-.69.06-.17.13-.45.22-.82.09-.37.17-.76.26-1.17.09-.4.17-.78.26-1.12s.13-.57.13-.69v-1.21c-.06-.11-.14-.47-.26-1.08-.12-.6-.17-.96-.17-1.08-.06-.06-.09-.34-.09-.86v-2.16c0-.46.03-.72.09-.78,0-.11.1-.5.3-1.16.2-.66.36-1.11.47-1.34.06-.11.19-.33.39-.65.2-.32.36-.53.47-.65.11.12.4.33.86.65.46.32.75.53.86.65l.43.43c0,.06.06.26.17.6.11.35.2.55.26.6,0,.12.09.33.26.65.17.32.36.66.56,1.03.2.37.39.73.56,1.08.17.35.26.55.26.6s.01.14.04.26c.03.12.04.23.04.34s-.03.34-.09.69c0,.12-.04.37-.13.78-.09.4-.19.72-.3.95,0,.06-.06.26-.17.6-.12.34-.2.55-.26.6v.43c.11.4.4,1.01.86,1.81.46.81.75,1.35.86,1.64.06.06.19.19.39.39.2.2.36.33.47.39.11.12.33.27.65.47.32.2.53.33.65.39.23,0,.72.01,1.47.04.75.03,1.24.04,1.47.04.4,0,.98-.01,1.73-.04.75-.03,1.15-.04,1.21-.04.23,0,.6-.11,1.12-.34.69-.23,1.18-.4,1.47-.52.29-.11.69-.29,1.21-.52.75-.46,1.52-.88,2.33-1.25.8-.37,1.29-.62,1.47-.73.06-.06.2-.19.43-.39.23-.2.47-.43.73-.69s.52-.52.78-.78c.26-.26.47-.47.65-.65.06-.11.3-.49.73-1.12.43-.63.73-1.12.91-1.47.11-.11.33-.46.65-1.03.32-.57.53-.92.65-1.04.06-.06.13-.14.22-.26.09-.11.16-.17.22-.17.06-.17.17-.5.35-.99.17-.49.34-1.01.52-1.55.17-.55.35-1.06.52-1.55.17-.49.29-.82.34-.99,0-.11.06-.43.17-.95.11-.52.26-1.05.43-1.6.17-.55.32-1.08.43-1.6.11-.52.17-.83.17-.95,0-.06.07-.2.22-.43.14-.23.22-.37.22-.43.06-.11.13-.46.22-1.04.09-.57.16-.92.22-1.04l.86-1.73.43-.43c0-.06.06-.2.17-.43.11-.23.2-.34.26-.34,0-.06.06-.09.17-.09h.09c.06,0,.11.03.17.09.23.17.35.29.35.34.06.12.2.34.43.69.23.34.37.55.43.6.06.06.14.13.26.22.11.09.17.16.17.22v2.16c0,.06-.06.26-.17.6-.12.34-.2.55-.26.6,0,.12-.06.4-.17.86-.12.46-.26.95-.43,1.47-.17.52-.32,1.01-.43,1.47-.12.46-.17.75-.17.86-.06.06-.14.2-.26.43-.12.23-.17.37-.17.43-.06.12-.14.4-.26.86-.12.46-.17.75-.17.86-.12.23-.27.68-.47,1.34-.2.66-.33,1.05-.39,1.16,0,.06-.07.23-.22.52-.14.29-.29.6-.43.95-.14.35-.29.66-.43.95-.14.29-.22.46-.22.52-.4,1.04-.73,2.04-.99,3.02-.26.98-.62,1.96-1.08,2.93-.12.17-.32.55-.6,1.12-.29.58-.6,1.19-.95,1.85-.35.66-.66,1.28-.95,1.85-.29.58-.46.92-.52,1.04,0,.12-.06.34-.17.69-.12.35-.17.55-.17.6-.06.06-.14.2-.26.43-.12.23-.17.37-.17.43-.06.06-.14.26-.26.6-.12.34-.17.58-.17.69-.06.12-.22.42-.47.91-.26.49-.53,1.02-.82,1.6-.29.58-.56,1.11-.82,1.6-.26.49-.42.79-.47.91-.06.12-.16.36-.3.73-.14.37-.32.78-.52,1.21-.2.43-.37.83-.52,1.21-.14.37-.25.62-.3.73-.92,2.01-1.8,3.95-2.63,5.82-.83,1.87-1.65,3.84-2.46,5.91-.06,0-.13.06-.22.17-.09.11-.16.2-.22.26-.06.11-.19.39-.39.82-.2.43-.36.7-.47.82,0,.11-.06.34-.17.69-.12.35-.2.55-.26.6-.06.11-.2.4-.43.86-.23.46-.34.75-.34.86-.06.06-.13.2-.22.43-.09.23-.17.49-.26.78-.09.29-.17.56-.26.82-.09.26-.13.42-.13.47-.06.06-.14.2-.26.43-.12.23-.17.37-.17.43-.12.23-.27.6-.47,1.12-.2.52-.33.83-.39.95-.12.29-.3.78-.56,1.47-.26.69-.52,1.45-.78,2.29-.26.83-.5,1.61-.73,2.33-.23.72-.37,1.22-.43,1.51-.06.11-.19.56-.39,1.34-.2.78-.36,1.34-.47,1.68-.06.11-.13.4-.22.86-.09.46-.16.72-.22.78-.12.11-.37.39-.78.82-.4.43-.72.73-.95.91h-.43c-.12-.06-.26-.19-.43-.39-.17-.2-.29-.36-.34-.47-.06-.06-.14-.26-.26-.6-.12-.34-.17-.58-.17-.69v-.35Z"/><path class="cls-2" d="M81.64,105.14l-2.93,2.93c-.12.12-.37.32-.78.6-.4.29-.81.55-1.21.78-.29.23-.59.37-.91.43-.32.06-.62.17-.91.34h-2.16c-.12-.06-.33-.19-.65-.39-.32-.2-.5-.36-.56-.47-.06-.17-.13-.47-.22-.91-.09-.43-.17-.91-.26-1.42s-.17-.99-.26-1.42c-.09-.43-.13-.73-.13-.91v-1.29c.11-.69.22-1.25.3-1.68.09-.43.17-.86.26-1.29s.19-.76.3-.99c.23-.8.52-1.54.86-2.2.34-.66.75-1.34,1.21-2.03.23-.34.56-.85.99-1.51.43-.66.68-1.02.73-1.08l2.07-2.07c.11-.11.46-.33,1.03-.65.57-.32.95-.53,1.12-.65.06-.06.26-.13.6-.22s.55-.16.6-.22c.06,0,.2-.06.43-.17.23-.11.37-.17.43-.17,0-.06.06-.09.17-.09.46,0,.69.03.69.09.23.23.37.35.43.35.06.06.31.2.78.43.8.58,1.32.99,1.55,1.25.23.26.57.76,1.04,1.51,0-.11.06-.26.17-.43.11-.17.2-.31.26-.43.11-.17.39-.47.82-.91s.7-.68.82-.73c.23-.06.37-.09.43-.09s.2.03.43.09c.11.06.27.19.47.39.2.2.33.36.39.47v.78c-.06.12-.27.4-.65.86-.37.46-.59.75-.65.86-.23.29-.55.76-.95,1.42-.4.66-.63,1.02-.69,1.08-.06.12-.14.4-.26.86-.12.46-.17.75-.17.86-.06.06-.13.22-.22.47s-.17.55-.26.86c-.09.32-.17.62-.26.91-.09.29-.13.46-.13.52s-.01.43-.04,1.12c-.03.69-.04,1.24-.04,1.64,0,.12.03.32.09.6.06.29.11.6.17.95.06.35.11.66.17.95.06.29.09.46.09.52.11.17.34.52.69,1.04s.66.83.95.95h.17c.11-.06.37-.14.78-.26.4-.11.66-.23.78-.34.17-.11.52-.46,1.03-1.04.52-.57.89-.92,1.12-1.03l.43-.52h.43c.46.4.72.83.78,1.29.06.46-.23,1.01-.86,1.64l-.78.95c-.17.06-.37.2-.6.43-.23.23-.4.4-.52.52-.29.29-.73.52-1.34.69s-1.11.32-1.51.43h-1.64c-.58-.52-1.19-.98-1.85-1.38-.66-.4-.99-1.01-.99-1.81-.06-.11-.14-.44-.26-.99-.12-.55-.17-.91-.17-1.08h-1.29ZM73.19,106.01c.06.12.19.26.39.43.2.17.36.29.47.34,0,.06.06.09.17.09h.78c.17,0,.29-.03.34-.09.06,0,.19-.04.39-.13.2-.09.36-.16.47-.22.17-.11.44-.29.82-.52.37-.23.73-.46,1.08-.69.34-.23.66-.43.95-.6.29-.17.46-.29.52-.35.11-.06.37-.3.78-.73.4-.43.69-.73.86-.91.11-.11.33-.4.65-.86.31-.46.53-.75.65-.86l.43-.43c.11-.29.22-.8.3-1.55.09-.75.13-1.29.13-1.64v-3.36c-.12-.29-.26-.7-.43-1.25-.17-.55-.32-.82-.43-.82h-1.29c-.06,0-.4.32-1.04.95s-1.12,1.15-1.47,1.55c-.12.12-.27.33-.47.65-.2.32-.33.53-.39.65-.81,1.38-1.35,2.49-1.64,3.32-.29.83-.43,1.48-.43,1.94,0,.06-.01.26-.04.6-.03.34-.04.6-.04.78,0,.23.01.53.04.91.03.37.04.59.04.65s.06.2.17.43c.11.23.2.37.26.43,0,.06-.01.12-.04.17-.03.06-.04.12-.04.17-.12,0-.26.01-.43.04-.17.03-.29.04-.34.04-.12,0-.42-.13-.91-.39-.49-.26-.91-.56-1.25-.91v2.16Z"/><path class="cls-2" d="M93.03,107.47c0-.06.11-.36.34-.91.23-.55.4-.96.52-1.25,0-.06.06-.23.17-.52.11-.29.26-.59.43-.91.17-.32.32-.62.43-.91.11-.29.17-.49.17-.6.06-.11.14-.4.26-.86.11-.46.17-.75.17-.86.06-.06.14-.19.26-.39.11-.2.17-.33.17-.39.06-.23.23-.79.52-1.68.29-.89.6-1.82.95-2.8.34-.98.66-1.9.95-2.76.29-.86.46-1.41.52-1.64.06-.06.14-.2.26-.43.11-.23.17-.37.17-.43.06-.11.14-.39.26-.82.11-.43.17-.7.17-.82.06-.17.14-.42.26-.73.11-.31.17-.5.17-.56.06-.11.2-.33.43-.65.23-.32.37-.53.43-.65,0-.06.03-.24.09-.56.06-.32.1-.66.13-1.04.03-.37.07-.73.13-1.08.06-.34.09-.57.09-.69,0-.06.06-.27.17-.65.11-.37.24-.78.39-1.21.14-.43.29-.83.43-1.21.14-.37.24-.62.3-.73,0-.06.01-.23.04-.52.03-.29.07-.6.13-.95.06-.34.1-.66.13-.95.03-.29.04-.46.04-.52.06-.11.14-.33.26-.65.11-.31.17-.53.17-.65.06-.11.14-.46.26-1.03.11-.57.17-.92.17-1.04.11-.34.27-.83.47-1.47.2-.63.33-1.01.39-1.12.06-.06.24-.19.56-.39.31-.2.56-.33.73-.39l.17-.09c.06,0,.1.01.13.04.03.03.07.04.13.04l.34.35c.11.06.27.14.47.26.2.12.33.17.39.17.06.23.14.66.26,1.29.11.63.17,1.07.17,1.29v2.07c-.12,0-.27.06-.47.17-.2.12-.33.2-.39.26-.06.12-.19.37-.39.78-.2.4-.33.72-.39.95-.06.06-.13.2-.22.43-.09.23-.17.49-.26.78-.09.29-.17.56-.26.82s-.13.42-.13.47c-.06.12-.16.33-.3.65-.14.32-.32.68-.52,1.08-.2.4-.39.76-.56,1.08-.17.32-.29.5-.35.56-.06.12-.19.56-.39,1.34-.2.78-.36,1.31-.47,1.6,0,.12-.06.47-.17,1.08-.12.6-.17.96-.17,1.08-.06.06-.14.26-.26.6-.12.34-.17.58-.17.69,0,.06-.03.2-.09.43-.06.23-.1.49-.13.78-.03.29-.07.56-.13.82-.06.26-.09.42-.09.47-.06.06-.14.26-.26.6-.12.35-.17.58-.17.69-.06.12-.14.39-.26.82-.12.43-.23.88-.34,1.34-.12.46-.25.89-.39,1.29-.14.4-.25.63-.3.69,0,.12-.06.34-.17.69-.12.34-.2.55-.26.6,0,.12-.06.4-.17.86-.12.46-.2.75-.26.86-.06.17-.19.58-.39,1.21-.2.63-.42,1.29-.65,1.98-.23.69-.45,1.34-.65,1.94-.2.6-.33.99-.39,1.17,0,.06-.03.23-.09.52-.06.29-.1.6-.13.95-.03.35-.07.66-.13.95-.06.29-.09.46-.09.52,0,.46-.14.75-.43.86-.29.12-.72.26-1.29.43h-.78c-.06,0-.13-.06-.22-.17-.09-.11-.16-.2-.22-.26-.12-.17-.27-.46-.47-.86-.2-.4-.33-.66-.39-.78v-.86Z"/><path class="cls-2" d="M106.14,107.47c0-.06.11-.36.34-.91.23-.55.4-.96.52-1.25,0-.06.06-.23.17-.52.11-.29.26-.59.43-.91.17-.32.32-.62.43-.91.11-.29.17-.49.17-.6.06-.11.14-.4.26-.86.11-.46.17-.75.17-.86.06-.06.14-.19.26-.39.11-.2.17-.33.17-.39.06-.23.23-.79.52-1.68.29-.89.6-1.82.95-2.8.34-.98.66-1.9.95-2.76.29-.86.46-1.41.52-1.64.06-.06.14-.2.26-.43.11-.23.17-.37.17-.43.06-.11.14-.39.26-.82.11-.43.17-.7.17-.82.06-.17.14-.42.26-.73.11-.31.17-.5.17-.56.06-.11.2-.33.43-.65.23-.32.37-.53.43-.65,0-.06.03-.24.09-.56.06-.32.1-.66.13-1.04.03-.37.07-.73.13-1.08.06-.34.09-.57.09-.69,0-.06.06-.27.17-.65.11-.37.24-.78.39-1.21.14-.43.29-.83.43-1.21.14-.37.24-.62.3-.73,0-.06.01-.23.04-.52.03-.29.07-.6.13-.95.06-.34.1-.66.13-.95.03-.29.04-.46.04-.52.06-.11.14-.33.26-.65.11-.31.17-.53.17-.65.06-.11.14-.46.26-1.03.11-.57.17-.92.17-1.04.11-.34.27-.83.47-1.47.2-.63.33-1.01.39-1.12.06-.06.24-.19.56-.39.31-.2.56-.33.73-.39l.17-.09c.06,0,.1.01.13.04.03.03.07.04.13.04l.34.35c.11.06.27.14.47.26.2.12.33.17.39.17.06.23.14.66.26,1.29.11.63.17,1.07.17,1.29v2.07c-.12,0-.27.06-.47.17-.2.12-.33.2-.39.26-.06.12-.19.37-.39.78-.2.4-.33.72-.39.95-.06.06-.13.2-.22.43-.09.23-.17.49-.26.78-.09.29-.17.56-.26.82s-.13.42-.13.47c-.06.12-.16.33-.3.65-.14.32-.32.68-.52,1.08-.2.4-.39.76-.56,1.08-.17.32-.29.5-.35.56-.06.12-.19.56-.39,1.34-.2.78-.36,1.31-.47,1.6,0,.12-.06.47-.17,1.08-.12.6-.17.96-.17,1.08-.06.06-.14.26-.26.6-.12.34-.17.58-.17.69,0,.06-.03.2-.09.43-.06.23-.1.49-.13.78-.03.29-.07.56-.13.82-.06.26-.09.42-.09.47-.06.06-.14.26-.26.6-.12.35-.17.58-.17.69-.06.12-.14.39-.26.82-.12.43-.23.88-.34,1.34-.12.46-.25.89-.39,1.29-.14.4-.25.63-.3.69,0,.12-.06.34-.17.69-.12.34-.2.55-.26.6,0,.12-.06.4-.17.86-.12.46-.2.75-.26.86-.06.17-.19.58-.39,1.21-.2.63-.42,1.29-.65,1.98-.23.69-.45,1.34-.65,1.94-.2.6-.33.99-.39,1.17,0,.06-.03.23-.09.52-.06.29-.1.6-.13.95-.03.35-.07.66-.13.95-.06.29-.09.46-.09.52,0,.46-.14.75-.43.86-.29.12-.72.26-1.29.43h-.78c-.06,0-.13-.06-.22-.17-.09-.11-.16-.2-.22-.26-.12-.17-.27-.46-.47-.86-.2-.4-.33-.66-.39-.78v-.86Z"/><path class="cls-1" d="M16.81,77.7c-2.52-.02-5.03-.47-7.42-1.24-2.38-.78-4.7-1.95-6.51-3.71C1.04,71.01-.05,68.51,0,65.98c.01-.63.07-1.26.18-1.88.12-.62.35-1.22.64-1.77.59-1.12,1.39-2.11,2.26-3.02,1.76-1.81,3.82-3.29,5.97-4.61,2.15-1.31,4.41-2.44,6.73-3.43,4.63-1.98,9.49-3.42,14.43-4.42,9.88-1.98,20.12-2.16,30.07-.52,4.98.8,9.86,2.12,14.63,3.74,4.81,1.49,9.76,2.5,14.77,2.99,10,1,20.27-.03,29.74-3.48,4.72-1.74,9.24-4.09,13.21-7.18,3.96-3.08,7.4-6.94,9.57-11.5,2.18-4.53,2.97-9.74,2.13-14.7-.43-2.48-1.38-4.86-2.77-6.96-1.38-2.1-3.19-3.91-5.26-5.35-4.13-2.87-9.29-4.28-14.31-3.76-2.5.25-4.96,1.01-7.15,2.25-2.19,1.24-4.1,2.96-5.6,4.99,1.5-2.02,3.4-3.75,5.6-4.99,2.19-1.24,4.65-2,7.16-2.26,5.02-.53,10.18.88,14.33,3.75,2.07,1.43,3.89,3.25,5.28,5.35,1.39,2.1,2.35,4.49,2.79,6.98.86,4.98.07,10.19-2.11,14.74-2.17,4.57-5.61,8.44-9.58,11.53-3.98,3.11-8.5,5.47-13.23,7.21-9.48,3.47-19.77,4.52-29.79,3.52-5.02-.51-9.98-1.52-14.79-3.02-4.77-1.63-9.64-2.95-14.61-3.75-9.93-1.64-20.16-1.47-30.04.49-4.93.99-9.79,2.43-14.42,4.4-2.31.99-4.57,2.12-6.72,3.42-2.14,1.31-4.21,2.79-5.96,4.6-.87.9-1.67,1.89-2.26,3.01-.29.56-.52,1.15-.64,1.77-.11.62-.17,1.25-.18,1.88-.05,2.53,1.03,5.02,2.86,6.75,1.81,1.76,4.12,2.93,6.5,3.72,2.39.78,4.9,1.23,7.42,1.25Z"/></g></svg>