<?xml version="1.0" encoding="UTF-8"?><svg id="_图层_2" xmlns="http://www.w3.org/2000/svg" viewBox="0 0 236.9 52.84"><defs><style>.cls-1{fill:#fff;}.cls-2{fill:#e82c2a;}</style></defs><g id="_图层_1-2"><path class="cls-1" d="M10.22,13.12l1.34-1.06V1.4l-1.34-1.06v-.12h5.73c3.99,0,7.36,2.22,7.36,6.32,0,3.84-2.68,6.71-6.79,6.71h-6.3v-.12ZM13.9,1.08v10.9c.39.18,1.18.41,2.38.41,2.62,0,4.49-2.4,4.49-5.75,0-3.54-2.34-5.59-5.23-5.59-.37,0-1.02,0-1.63.02"/><polygon class="cls-1" points="24.13 13.12 25.47 12.06 25.47 1.4 24.13 .33 24.13 .22 33.05 .22 33.05 2.81 32.93 2.81 31.47 1.08 27.81 1.08 27.81 5.92 31.61 5.92 32.63 4.55 32.73 4.55 32.73 8.15 32.63 8.15 31.61 6.79 27.81 6.79 27.81 12.36 31.87 12.36 33.38 10.19 33.5 10.19 33.5 13.24 24.13 13.24 24.13 13.12"/><path class="cls-1" d="M42.3.35v2.36h-.12c-.77-1.02-1.61-1.85-2.74-1.85-.92,0-1.69.59-1.69,1.59,0,1.26.81,1.85,2.32,2.95,1.87,1.36,3.13,2.42,3.13,4.31,0,2.11-1.61,3.72-4.23,3.72-1.65,0-2.83-.43-3.48-.77-.1-.69-.22-2.5-.16-3.68h.16c.63,1.57,1.52,3.5,3.48,3.5,1.18,0,2.03-.86,2.03-2.05,0-1.32-.71-2.05-2.32-3.13-1.97-1.36-2.97-2.48-2.97-4.11C35.7,1.18,37.38,0,39.66,0c1.36,0,2.32.26,2.64.35"/><polygon class="cls-1" points="44.4 13.12 45.74 12.06 45.74 1.4 44.4 .33 44.4 .22 49.42 .22 49.42 .33 48.08 1.4 48.08 12.06 49.42 13.12 49.42 13.24 44.4 13.24 44.4 13.12"/><path class="cls-1" d="M57.45,13.46c-4.23,0-7.22-2.77-7.22-6.67,0-3.62,2.77-6.79,7.28-6.79,1.83,0,3.6.39,4.21.55v2.54h-.12c-.94-1.1-2.4-2.18-4.29-2.18-2.62,0-4.53,2.38-4.53,5.63,0,3.44,2.14,6,4.9,6,.95,0,1.77-.28,2.22-.59v-4.29l-1.59-1.06v-.12h4.94v.12l-1.06,1.06v4.76c-.98.26-2.46,1.04-4.74,1.04"/><path class="cls-1" d="M64.03,13.12l1.42-1.12V1.87c-.57-.63-1.34-1.38-1.53-1.53v-.12h3.23l8.36,9.45V1.46l-1.63-1.12v-.12h4.15v.12l-1.44,1.12v11.79h-.92l-9.11-10.17v8.93l1.69,1.12v.12h-4.21v-.12Z"/><path class="cls-1" d="M6.98,39.71v2.36h-.12c-.77-1.02-1.61-1.85-2.74-1.85-.92,0-1.69.59-1.69,1.59,0,1.26.81,1.85,2.32,2.95,1.87,1.36,3.13,2.42,3.13,4.31,0,2.1-1.61,3.72-4.23,3.72-1.65,0-2.83-.43-3.48-.77-.1-.69-.22-2.5-.16-3.68h.16c.63,1.57,1.51,3.5,3.48,3.5,1.18,0,2.03-.86,2.03-2.05,0-1.32-.71-2.05-2.32-3.13-1.97-1.36-2.97-2.48-2.97-4.11,0-2.03,1.67-3.21,3.95-3.21,1.36,0,2.32.26,2.64.35"/><path class="cls-1" d="M15.68,39.34c3.68,0,6.71,2.64,6.71,6.59s-3.11,6.91-6.65,6.91-6.71-2.62-6.71-6.57,3.05-6.93,6.65-6.93M15.72,51.91c2.16,0,4.11-2.24,4.11-5.8s-2.01-5.86-4.15-5.86-4.07,2.3-4.07,5.86,1.99,5.8,4.11,5.8"/><path class="cls-1" d="M23.72,46.15c0-3.66,2.81-6.79,7.28-6.79,1.69,0,3.31.39,3.95.55v2.58h-.12c-.91-1.1-2.38-2.22-4.11-2.22-2.52,0-4.43,2.44-4.43,5.65,0,3.64,2.2,6,4.72,6,2.13,0,3.5-1.63,4.07-2.36h.12v2.42c-.61.32-2.2.85-4.27.85-4.09,0-7.22-2.58-7.22-6.67"/><polygon class="cls-1" points="36.58 52.48 37.91 51.42 37.91 40.75 36.58 39.69 36.58 39.57 41.59 39.57 41.59 39.69 40.26 40.75 40.26 51.42 41.59 52.48 41.59 52.6 36.58 52.6 36.58 52.48"/><polygon class="cls-1" points="43.4 52.48 44.74 51.42 44.74 40.75 43.4 39.69 43.4 39.57 52.32 39.57 52.32 42.17 52.2 42.17 50.74 40.44 47.08 40.44 47.08 45.28 50.88 45.28 51.9 43.9 52 43.9 52 47.5 51.9 47.5 50.88 46.15 47.08 46.15 47.08 51.71 51.14 51.71 52.65 49.55 52.77 49.55 52.77 52.6 43.4 52.6 43.4 52.48"/><polygon class="cls-1" points="65.68 42.43 65.54 42.43 63.91 40.46 61.02 40.46 61.02 51.4 62.45 52.48 62.45 52.6 57.2 52.6 57.2 52.48 58.65 51.4 58.65 40.46 55.74 40.46 54.13 42.43 53.99 42.43 53.99 39.57 65.68 39.57 65.68 42.43"/><polygon class="cls-1" points="74.84 39.57 78.46 39.57 78.46 39.69 77.3 40.75 73.87 46.09 73.87 51.4 75.21 52.48 75.21 52.6 70.19 52.6 70.19 52.48 71.53 51.4 71.53 46.46 67.79 40.75 66.65 39.69 66.65 39.57 71.79 39.57 71.79 39.69 70.43 40.75 73.32 45.26 76.17 40.79 74.84 39.69 74.84 39.57"/><path class="cls-2" d="M16.65,33.11l-1.08-1.14c.3-.42.44-.89.44-1.4v-5.08h-1.59v-1.59h3.24v6.03c.51-.51,1.02-1.04,1.52-1.59.21.64.4,1.17.57,1.59-.21.21-.55.55-1.02,1.02-.55.51-.97.91-1.27,1.21-.3.34-.57.66-.83.95M17.48,22.63c-.09-.08-.21-.23-.38-.44-.47-.59-1.06-1.38-1.78-2.35l1.4-.89c.85.89,1.61,1.8,2.29,2.73l-1.52.95ZM19.07,33.99c-.09-.13-.23-.38-.44-.76-.21-.34-.36-.59-.45-.76,1.82-.42,3.32-.95,4.51-1.59-.97-.89-1.86-2.1-2.67-3.62l.57-.32h-1.08v-1.52h9.08v1.65c-.85,1.52-1.86,2.82-3.05,3.87,1.1.59,2.5,1.04,4.19,1.33-.34.59-.61,1.12-.82,1.59-2.16-.68-3.77-1.31-4.83-1.91-1.31.8-2.98,1.48-5.02,2.03M19.95,25.04c-.17-.25-.55-.68-1.14-1.27,1.48-.64,2.16-1.59,2.03-2.86v-1.46h6.79v2.6c-.04.59.23.87.83.83h1.4l-.25,1.46h-1.84c-1.23,0-1.82-.51-1.78-1.52v-1.84h-3.49v.38c.13,1.52-.72,2.75-2.54,3.68M21.67,26.95c.68,1.23,1.48,2.24,2.41,3.05,1.06-.76,1.95-1.78,2.67-3.05h-5.08Z"/><path class="cls-2" d="M33.29,33.87l-1.14-1.4c.38-.34.57-.83.57-1.46v-5.46h-1.78v-1.59h3.49v6.73c.63-.42,1.42-.97,2.35-1.65.17.8.34,1.42.51,1.84-1.19.8-2.24,1.52-3.18,2.16-.17.13-.36.32-.57.57-.13.13-.21.21-.25.25M34.49,22.63c-.8-.93-1.63-1.84-2.48-2.73l1.4-1.02c.29.3.72.72,1.27,1.27.59.59,1.02,1.04,1.27,1.33l-1.46,1.14ZM36.02,25.61v-1.71h4.19v-5.08h1.84v5.08h4.19v1.71h-4.19v8.32h-1.84v-8.32h-4.19Z"/><path class="cls-2" d="M46.78,21.36v-1.59h14.03v1.59h-9.84l-.32,2.03h8.57l-.51,8.26h2.6v1.46h-14.99v-1.46h10.54l.13-2.22h-8.95l1.08-8.06h-2.35ZM57.32,24.98h-6.86l-.44,2.86h7.11l.19-2.86Z"/><path class="cls-2" d="M62.61,21.17v-1.4h6.48v1.4h-.83v8.45l1.14-.19v1.46l-1.14.19v2.86h-1.4v-2.6c-1.74.34-3.13.61-4.19.83l-.19-1.59.95-.13v-9.27h-.83ZM64.9,23.26h1.97v-2.1h-1.97v2.1ZM64.9,26.57h1.97v-2.03h-1.97v2.03ZM64.9,30.18l1.97-.32v-2.03h-1.97v2.35ZM69.47,23.58v-1.46h3.94c.72-1.14,1.33-2.22,1.84-3.24l1.52.57c-.51.89-1.06,1.78-1.65,2.67h2.16v1.46h-3.24v2.48h3.75v1.52h-3.68c.51,2.2,1.78,3.77,3.81,4.7-.09.21-.23.49-.44.83-.21.34-.38.59-.51.76-1.95-1.23-3.2-2.73-3.75-4.51-.34,1.61-1.55,3.15-3.62,4.64-.34-.38-.72-.87-1.14-1.46,2.29-1.27,3.56-2.92,3.81-4.95h-3.24v-1.52h3.37v-2.48h-2.92ZM71.44,21.99c-.51-.85-1.04-1.67-1.59-2.48l1.33-.64c.34.47.89,1.27,1.65,2.41l-1.4.7Z"/><path class="cls-1" d="M156.77,52.33c-12.2,0-22.13-9.93-22.13-22.13s9.93-22.13,22.13-22.13,22.13,9.93,22.13,22.13-9.93,22.13-22.13,22.13ZM156.77,16.89c-7.34,0-13.31,5.97-13.31,13.31s5.97,13.31,13.31,13.31,13.31-5.97,13.31-13.31-5.97-13.31-13.31-13.31Z"/><path class="cls-1" d="M109.43,52.33c-12.2,0-22.13-9.93-22.13-22.13s9.93-22.13,22.13-22.13,22.13,9.93,22.13,22.13c0,2.44-1.97,4.41-4.41,4.41h-30.28c1.82,5.18,6.77,8.9,12.56,8.9,4,0,7.75-1.78,10.29-4.87,1.55-1.88,4.32-2.15,6.21-.61,1.88,1.55,2.15,4.32.61,6.21-4.22,5.14-10.46,8.09-17.11,8.09ZM96.86,25.79h25.12c-1.82-5.18-6.77-8.9-12.56-8.9s-10.74,3.72-12.56,8.9Z"/><path class="cls-1" d="M173.83,34.56c-2.18-.32-3.75-2.28-3.75-4.49V4.69c0-2.07,1.37-3.96,3.4-4.41,2.88-.64,5.42,1.53,5.42,4.3v25.63c0,2.65-2.34,4.76-5.07,4.36Z"/><path class="cls-1" d="M205,52.33c-12.2,0-22.13-9.93-22.13-22.13v-13.21c0-2.44,1.97-4.41,4.41-4.41s4.41,1.97,4.41,4.41v13.21c0,7.34,5.97,13.31,13.31,13.31s13.31-5.97,13.31-13.31v-13.21c0-2.44,1.97-4.41,4.41-4.41s4.41,1.97,4.41,4.41v13.21c0,12.2-9.93,22.13-22.13,22.13Z"/><circle class="cls-1" cx="232.06" cy="5.06" r="4.84"/></g></svg>