<?xml version="1.0" encoding="UTF-8"?><svg id="_图层_2" xmlns="http://www.w3.org/2000/svg" viewBox="0 0 149.13 98.17"><defs><style>.cls-1{fill:#f5f5f5;}</style></defs><g id="_图层_1-2"><path class="cls-1" d="M57.71,84.22h4.23v-2.07h-2.65c.44-.49,1.22-1.32,1.54-1.71l-1.07-.98h1.77v-2.07h-4.56v-1.07l-2.27-.06v1.12h-4.57v2.07h1.78l-1.1.96c.43.39,1.07,1.18,1.47,1.72h-2.55v2.07h4.18c-1.22.96-2.84,1.77-4.63,2.37l1.07,2.17c1.67-.71,3.16-1.6,4.34-2.6v3.03h2.27v-3c1.18,1,2.67,1.88,4.3,2.56l1.07-2.15c-1.79-.6-3.39-1.38-4.62-2.37ZM54.7,82.15h-1.89l1.25-1.12c-.32-.39-.89-1.04-1.43-1.56h2.07v2.68ZM56.96,79.47h2.07c-.46.53-1.11,1.24-1.42,1.55l1.22,1.14h-1.88v-2.68Z"/><rect class="cls-1" x="68.79" y="76.65" width="7.8" height="1.92"/><path class="cls-1" d="M68.69,82.97c-.34-.26-.82-.6-1.16-.84.29-.51.53-1.03.71-1.56v-2.31h-.72l-.31-1.91-2.1.15c.11.36.26,1.16.33,1.75h-1.25v2.21h1.74c-.4,1.04-1.32,2.04-2.18,2.91l.32,2.85c.38-.32.78-.65,1.17-1.06v4h2.03v-4.69c.32.24.59.47.75.63l.5-1.1v4.98h7.61v-6.03h-7.44ZM71.51,87.32h-.92v-.96h.92v.96ZM71.51,85.27h-.92v-.95h.92v.95ZM74.07,87.32h-.93v-.96h.93v.96ZM74.07,85.27h-.93v-.95h.93v.95Z"/><path class="cls-1" d="M68.89,79.19v3.17h6.83v-3.17h-6.83ZM73.69,81.12h-2.75v-.72h2.75v.72Z"/><path class="cls-1" d="M86.32,83.54v-1.1h3.24v-1.7h1.06v-3.67h-4.49l-.18-.81h-2.45c.07.24.14.51.21.81h-4.75v3.67h1.03v1.7h3.94v1.1h-5.31v2.24h5.31v.25c0,.57-.14.77-.79.82l-1.03.08.67,2.32,1.54-.11c1.24-.07,2.02-.6,2.02-2.2v-1.17h4.64v-2.24h-4.64ZM81.13,80.32v-1.11h7.26v1.11h-7.26Z"/><path class="cls-1" d="M101.17,77.2l-.22-.93h-2.7c.1.24.18.59.28.93h-4.99v3.94h.9v8.01h10.62v-8.01h.88v-3.94h-4.78ZM98.59,87.14h-1.87v-1.46h1.87v1.46ZM98.59,83.84h-1.87v-1.08h1.87v1.08ZM102.76,87.14h-1.84v-1.46h1.84v1.46ZM102.76,83.84h-1.84v-1.08h1.84v1.08ZM103.65,80.74h-2.73v-.98h-2.33v.98h-2.86v-1.39h7.92v1.39ZM74.07,96.26c-2.23-.06-4.47-.19-6.68-.49l-.83-.1-.82-.14c-.55-.09-1.1-.17-1.64-.28l-1.63-.34c-.54-.1-1.08-.26-1.61-.39l-.81-.21c-.27-.07-.53-.16-.79-.24-.53-.16-1.06-.31-1.58-.49l-1.55-.56c-.26-.09-.52-.19-.77-.3l-.76-.32c-2.02-.86-3.98-1.84-5.8-3.03-3.68-2.32-6.9-5.3-9.5-8.73-1.29-1.72-2.47-3.53-3.46-5.45-.53-.94-.95-1.94-1.41-2.91-.22-.49-.41-1-.61-1.5-.2-.5-.41-1-.57-1.51-1.44-4.08-2.38-8.35-2.92-12.68-.53-4.34-.67-8.73-.55-13.13h-6.21c.14,4.66.55,9.33,1.39,13.95.84,4.62,2.12,9.19,3.95,13.56.21.55.47,1.09.72,1.62.26.54.49,1.07.76,1.61.57,1.04,1.09,2.11,1.73,3.11,1.2,2.05,2.62,3.97,4.15,5.79,3.08,3.62,6.81,6.68,10.93,8.96,2.05,1.17,4.21,2.11,6.4,2.9l.82.29c.27.1.55.19.83.27l1.67.5c.56.15,1.13.28,1.69.42.28.07.56.14.85.2l.86.17c.57.1,1.13.24,1.71.31l1.72.26c.57.08,1.15.13,1.72.2l.86.09.86.06c2.3.19,4.59.19,6.89.12,4.6-.17,9.16-1.01,13.48-2.48,4.32-1.47,8.4-3.57,12.09-6.2-3.83,2.41-7.99,4.25-12.32,5.46-4.33,1.2-8.82,1.76-13.27,1.67Z"/><path class="cls-1" d="M110.89,80.94v.31c-.57-.5-1.47-1.19-2.18-1.64l-1.28,1.65c.6.45,1.6,1.2,2.24,1.88l1.22-1.82v2.27h8.72v-2.64h-8.72ZM113.49,82.65h-.78v-.81h.78v.81ZM115.56,82.65h-.81v-.81h.81v.81ZM117.56,82.65h-.79v-.81h.79v.81Z"/><path class="cls-1" d="M109.31,83.55c-.27,1.47-.76,3.55-1.28,5.17l2.21.6c.34-1.32.91-3.92,1.14-5.18l-2.06-.59Z"/><path class="cls-1" d="M118.31,87.16c.56-.39,1.04-.87,1.5-1.43v-1.49h-8.06v1.43h1.57l-.95.73c.38.28.75.54,1.12.77-.77.13-1.64.24-2.71.34l.95,1.78c1.76-.32,3.1-.59,4.17-.97,1.17.41,2.42.67,4.05.94l.87-1.84c-.95-.07-1.79-.15-2.52-.27ZM115.83,86.55c-.62-.24-1.14-.51-1.6-.88h3.34c-.6.38-1.14.65-1.74.88Z"/><path class="cls-1" d="M111.49,76.55v3.83h7.72v-3.83h-7.72ZM117.03,79.56h-3.4v-.49h3.4v.49ZM117.03,78.11h-3.4v-.45h3.4v.45Z"/><path class="cls-1" d="M111.77,77.87c-.67-.52-1.63-1.17-2.26-1.5l-1.22,1.67c.56.34,1.7,1.19,2.3,1.71l1.18-1.88Z"/><path class="cls-1" d="M124.84,81.12c-.53-.38-1.42-.99-2.14-1.45l-1.11,1.82c.6.4,1.67,1.15,2.22,1.6l1.03-1.97Z"/><path class="cls-1" d="M133.14,83.44v-.23l.96-.84v-2.27h-2.92l.35-.7h2.84v-2.31h-1.99c.07-.24.12-.46.18-.69l-2.1-.14c-.21.84-.54,1.7-1,2.59v-1.08h-1.03c-.07-.5-.17-1.03-.23-1.46l-2.22.08.23,1.38h-1.18l.04-.07c-.56-.45-1.43-1-2.1-1.38l-1.06,1.77c.53.33,1.57,1.1,2.11,1.51l.88-1.6v1.94h.42v2.37c0,2.67-.42,4.25-1.31,6.12l1.82.97c.37-.78.64-1.49.85-2.43l.65,2.2.45-.04c1.11-.11,1.4-.28,1.45-1.54.04-.78.06-3.84.06-6.78h-1.94v-.85h1.73l.83.49v1.76h2l-.89.84v.4h-1.31v2.21h1.31v.55c0,.51-.14.64-.79.74l-.43.06.74,2.31,1.03-.14c1.21-.15,1.59-.36,1.59-1.79v-1.72h1.49v-2.21h-1.49ZM127.65,82.92l-.04,3.16c-.04.49-.18.58-.61.62l-.26.03c.21-1,.28-2.18.32-3.81h.6Z"/><path class="cls-1" d="M123.42,83.45c-.15,1.49-.55,3.79-.93,5.18l1.99.63c.27-1.35.72-3.95.9-5.24l-1.97-.58Z"/><path class="cls-1" d="M146.72,84.07v-.76c.5.26,1,.53,1.54.75l.86-2c-1.27-.35-2.27-.72-3.16-1.24h2.64v-1.72h-4.92v-.72c1.63-.04,3.13-.08,4.18-.12l-.37-1.73c-2.63.18-6.81.29-10.18.29l.26,1.7c1.12-.01,2.51-.02,3.96-.07v.65h-4.92v1.72h2.61c-.93.57-1.99.99-3.12,1.31l.82,1.95c.65-.28,1.28-.61,1.85-.94v.94h4.6l-1.67.68v.04h-5.1v2.02h5.1c-.04.41-.31.54-.81.6l-1.1.12.65,1.77,1.33-.11c1.77-.15,2.24-.51,2.24-1.7v-.68h4.57v-2.02h-3.7l1.79-.72ZM139.7,82.54c.76-.54,1.37-1.07,1.85-1.61v1.4h2.14v-1.32c.49.54,1.08,1.04,1.79,1.53h-5.78Z"/><path class="cls-1" d="M20.66,49.36c-.55-1.26-1.3-2.36-2.25-3.32-.95-.95-2.06-1.7-3.32-2.25s-2.61-.82-4.06-.82H1.07v28.73h6.15v-7.84h3.82c1.45,0,2.8-.27,4.06-.82s2.36-1.3,3.32-2.25c.95-.95,1.7-2.05,2.25-3.31.55-1.26.82-2.61.82-4.06s-.28-2.8-.82-4.06ZM14.99,55.08c-.23.52-.54.98-.92,1.37s-.84.7-1.37.93c-.52.23-1.08.34-1.67.34h-3.82v-8.6h3.82c.59,0,1.15.12,1.67.34.52.23.98.54,1.37.92.39.39.7.84.92,1.37s.34,1.08.34,1.67-.11,1.15-.34,1.67Z"/><path class="cls-1" d="M142.83,71.59c1.18-.36,2.2-.87,3.07-1.53.87-.66,1.55-1.43,2.03-2.33.48-.9.72-1.88.72-2.95,0-1.15-.26-2.12-.78-2.91-.52-.79-1.22-1.46-2.09-2.01-.87-.55-1.88-1.01-3.03-1.39-1.15-.37-2.36-.71-3.62-1-.8-.19-1.53-.39-2.19-.6-.66-.21-.98-.47-.98-.76,0-.27.09-.49.26-.66s.4-.31.68-.4c.28-.09.59-.15.92-.18.33-.03.68-.04,1.02-.04.21,0,.47.02.76.06.29.04.58.12.86.24.28.12.54.31.76.56.23.25.39.58.5.98l.12.64,6.15-.96c-.11-1.07-.42-2.06-.94-2.95-.52-.9-1.19-1.67-2.01-2.33-.82-.66-1.75-1.17-2.81-1.53-1.06-.36-2.19-.54-3.39-.54-1.39,0-2.66.17-3.8.52-1.14.35-2.11.83-2.91,1.45-.8.62-1.43,1.37-1.87,2.25-.44.88-.66,1.85-.66,2.89,0,1.12.21,2.06.64,2.79.43.74,1.04,1.37,1.85,1.89.8.52,1.77.96,2.89,1.31,1.12.35,2.38.7,3.78,1.04.37.08.77.17,1.18.28.42.11.8.23,1.14.36.35.13.64.29.86.46.23.17.34.36.34.54,0,.46-.3.84-.9,1.14-.6.31-1.41.46-2.43.46s-1.82-.2-2.41-.6c-.59-.4-.91-.94-.96-1.61l-.04-.8-6.23.92c.08,1.18.37,2.24.88,3.19.51.95,1.18,1.77,2.03,2.47.84.7,1.84,1.23,2.99,1.61,1.15.37,2.4.56,3.74.56s2.68-.18,3.86-.54Z"/><path class="cls-1" d="M113.06,23.22c-4.24-6.1-9.9-11.13-16.35-14.56-6.44-3.45-13.65-5.28-20.84-5.38-7.19-.13-14.32,1.51-20.64,4.66-3.33,1.66-6.44,3.74-9.23,6.15v23.06h9.49v6.3h-15.79V12.12c4.07-3.53,8.68-6.39,13.61-8.42C60.52.71,68.39-.49,76.03.18c7.64.64,15.07,3.12,21.46,7.14,6.4,4.01,11.77,9.52,15.57,15.91Z"/><path class="cls-1" d="M10.78,95.54c-1.56,0-3.12-.07-4.53-.38-.7-.15-1.37-.36-1.89-.64-.27-.16-.4-.24-.54-.39-.14-.13-.24-.3-.31-.47-.12-.3-.05-.65.06-.92l.02-.05.03-.09c.01-.05.05-.12.08-.18.06-.12.1-.24.17-.37l.2-.38.24-.38c.64-1.03,1.49-2.04,2.38-3.01,1.79-1.95,3.83-3.75,5.93-5.47,4.23-3.42,8.79-6.48,13.5-9.17l-3.31-5.26c-4.74,3.28-9.21,6.87-13.36,10.86-2.07,2.01-4.06,4.1-5.87,6.44-.9,1.18-1.76,2.39-2.49,3.8l-.27.54-.24.57c-.08.19-.15.4-.22.6-.03.1-.07.2-.1.31l-.1.37c-.08.28-.1.54-.14.81-.04.27-.03.54-.02.8v.2c.02.07.03.13.04.2l.08.39c.07.26.17.5.27.74.16.26.31.53.51.76.1.12.19.24.29.35l.34.31c.45.4,1.03.72,1.48.91.94.4,1.86.58,2.74.69,1.78.22,3.46.14,5.13,0,3.32-.31,6.52-.98,9.69-1.75,6.32-1.57,12.46-3.64,18.52-5.88-6.23,1.71-12.51,3.24-18.85,4.24-3.16.49-6.35.87-9.48.89Z"/><rect class="cls-1" x="60.68" y="21.8" width="6.3" height="21.56"/><path class="cls-1" d="M83.71,20.61v-6.3c-4.96,0-8.99,4.03-8.99,8.99v.26h-2.35v6.3h2.35v13.51h6.3v-13.51h2.42v-6.3h-2.42v-.26c0-1.48,1.21-2.69,2.69-2.69Z"/><path class="cls-1" d="M83.54,72.17v-11.79c0-6.3-5.13-11.43-11.43-11.43s-11.43,5.13-11.43,11.43v11.43h6.3v-11.43c0-2.83,2.3-5.13,5.13-5.13s5.13,2.3,5.13,5.13v11.79h6.3Z"/><circle class="cls-1" cx="63.83" cy="15.34" r="3.8"/><circle class="cls-1" cx="5.51" cy="86.47" r="3.8"/><path class="cls-1" d="M124.62,71.81v-6.3c-1.49,0-2.69-1.21-2.69-2.69l.08-7.59h2.49v-6.3h-2.42l.03-5.32h-6.3l-.03,5.32h-2.35v6.3h2.28l-.08,7.59c0,2.47,1,4.72,2.63,6.34,1.33,1.33,3.07,2.25,5.02,2.54.44.07.89.1,1.35.1Z"/><path class="cls-1" d="M148.24,23.69c-.11-.17-.23-.34-.34-.5-.14-.15-.28-.3-.42-.45-.15-.14-.3-.25-.46-.37-.16-.12-.32-.2-.48-.31-.65-.37-1.33-.62-1.99-.79-1.33-.36-2.64-.47-3.94-.52-2.59-.09-5.13.12-7.65.42-5.02.61-9.95,1.62-14.84,2.74-2.92.68-5.83,1.41-8.72,2.18-2.02-3.79-6-6.26-10.44-6.26-6.52,0-11.83,5.31-11.83,11.83s5.31,11.83,11.83,11.83c3.64,0,7.03-1.64,9.28-4.5l-4.94-3.9c-1.06,1.34-2.64,2.11-4.34,2.11-1.2,0-2.31-.39-3.22-1.05.83-.32,1.66-.65,2.48-.97,2.3-.89,4.62-1.75,6.94-2.6,4.64-1.68,9.31-3.28,14.02-4.73,4.71-1.44,9.45-2.77,14.25-3.7,2.39-.46,4.8-.82,7.18-.91,1.18-.03,2.37,0,3.46.2,1.08.2,2.08.6,2.53,1.29.21.33.35.7.37,1.12.02.43-.04.9-.19,1.37-.28.95-.81,1.9-1.41,2.8-1.22,1.8-2.74,3.46-4.34,5.03-1.6,1.57-3.29,3.05-5.03,4.48-1.74,1.43-3.53,2.81-5.37,4.11,1.93-1.17,3.82-2.42,5.67-3.73,1.85-1.31,3.66-2.68,5.4-4.15,1.73-1.48,3.41-3.04,4.86-4.89.71-.93,1.39-1.92,1.84-3.11.22-.59.38-1.24.39-1.95.02-.7-.17-1.46-.53-2.1ZM96.36,29.79c-.96.29-1.91.59-2.86.88.46-2.59,2.72-4.57,5.44-4.57,1.56,0,3,.65,4.02,1.73-2.21.63-4.41,1.28-6.61,1.95Z"/><path class="cls-1" d="M98.94,66.32c-1.15,0-2.21-.35-3.1-.95,5.27-1.94,10.22-3.63,15.12-5.14l-.56-2.4s0,0,0,0c-.33-1.28-.87-2.47-1.56-3.54-2.14-3.26-5.82-5.34-9.89-5.34-6.52,0-11.83,5.31-11.83,11.83s5.3,11.83,11.83,11.83c3.64,0,7.03-1.64,9.29-4.5l-4.94-3.9c-1.06,1.34-2.64,2.11-4.34,2.11ZM98.94,55.25c1.26,0,2.44.43,3.38,1.15-2.87.97-5.8,2-8.76,3.09.58-2.43,2.77-4.25,5.38-4.25Z"/><path class="cls-1" d="M50.22,49.51v1.13c-1.51-.75-3.22-1.18-5.02-1.18-6.24,0-11.32,5.08-11.32,11.32s5.08,11.32,11.32,11.32c1.8,0,3.51-.43,5.02-1.18v1.24h6.3v-22.66h-6.3ZM45.2,65.81c-2.77,0-5.02-2.25-5.02-5.02s2.25-5.02,5.02-5.02,5.02,2.25,5.02,5.02-2.25,5.02-5.02,5.02Z"/><rect class="cls-1" x="60.68" y="49.51" width="6.3" height="22.66"/><path class="cls-1" d="M35.76,21.5c-3.52.32-6.32,3.13-6.64,6.65,0,.04-.06.04-.06,0-.32-3.52-3.13-6.33-6.65-6.65-.04,0-.04-.06,0-.06,3.52-.32,6.33-3.12,6.65-6.64,0-.04.06-.04.06,0,.32,3.52,3.12,6.32,6.64,6.64.04,0,.04.06,0,.06Z"/><path class="cls-1" d="M26.02,35.37c-2.24.26-4.01,2.04-4.27,4.27,0,.04-.06.04-.06,0-.26-2.24-2.04-4.02-4.27-4.27-.04,0-.04-.06,0-.06,2.24-.25,4.02-2.03,4.27-4.27,0-.04.06-.04.06,0,.25,2.24,2.03,4.01,4.27,4.27.04,0,.04.06,0,.06Z"/><path class="cls-1" d="M19.77,26.13c-1.59.18-2.86,1.45-3.04,3.04,0,.03-.04.03-.04,0-.18-1.59-1.45-2.86-3.04-3.04-.03,0-.03-.04,0-.04,1.59-.18,2.86-1.45,3.04-3.04,0-.03.04-.03.04,0,.18,1.59,1.45,2.86,3.04,3.04.03,0,.03.04,0,.04Z"/></g></svg>