<?xml version="1.0" encoding="UTF-8"?><svg id="_图层_2" xmlns="http://www.w3.org/2000/svg" viewBox="0 0 306.94 54.83"><defs><style>.cls-1{fill:#f5f5f5;}.cls-2{fill:#002bff;}</style></defs><g id="_图层_1-2"><path class="cls-1" d="M11.53,46.79H.8c-.63,0-.96-.51-.73-1.14L15.86,2.27c.23-.63.93-1.14,1.56-1.14h10.73c.63,0,.96.51.73,1.14l-15.79,43.38c-.23.63-.93,1.14-1.56,1.14Z"/><path class="cls-1" d="M54.85,46.79h-10.73c-.63,0-.96-.51-.73-1.14L59.18,2.27c.23-.63.93-1.14,1.56-1.14h10.73c.63,0,.96.51.73,1.14l-15.79,43.38c-.23.63-.93,1.14-1.56,1.14Z"/><path class="cls-1" d="M141.49,46.79h-10.73c-.63,0-.96-.51-.73-1.14l15.79-43.38c.23-.63.93-1.14,1.56-1.14h10.73c.63,0,.96.51.73,1.14l-15.79,43.38c-.23.63-.93,1.14-1.56,1.14Z"/><path class="cls-1" d="M184.81,46.79h-10.73c-.63,0-.96-.51-.73-1.14l15.79-43.38c.23-.63.93-1.14,1.56-1.14h10.73c.63,0,.96.51.73,1.14l-15.79,43.38c-.23.63-.93,1.14-1.56,1.14Z"/><path class="cls-1" d="M202.27,12.61l3.76-10.34c.23-.63.93-1.14,1.56-1.14h20.32c.63,0,.96.51.73,1.14l-3.76,10.34c-.23.63-.93,1.14-1.56,1.14h-20.32c-.63,0-.96-.51-.73-1.14Z"/><path class="cls-1" d="M196.26,29.13l3.76-10.34c.23-.63.93-1.14,1.56-1.14h20.32c.63,0,.96.51.73,1.14l-3.76,10.34c-.23.63-.93,1.14-1.56,1.14h-20.32c-.63,0-.96-.51-.73-1.14Z"/><path class="cls-1" d="M190.24,45.65l3.76-10.34c.23-.63.93-1.14,1.56-1.14h20.32c.63,0,.96.51.73,1.14l-3.76,10.34c-.23.63-.93,1.14-1.56,1.14h-20.32c-.63,0-.96-.51-.73-1.14Z"/><path class="cls-1" d="M158.89,12.61l3.76-10.34c.23-.63.93-1.14,1.56-1.14h20.32c.63,0,.96.51.73,1.14l-3.76,10.34c-.23.63-.93,1.14-1.56,1.14h-20.32c-.63,0-.96-.51-.73-1.14Z"/><path class="cls-1" d="M152.88,29.13l3.76-10.34c.23-.63.93-1.14,1.56-1.14h20.32c.63,0,.96.51.73,1.14l-3.76,10.34c-.23.63-.93,1.14-1.56,1.14h-20.32c-.63,0-.96-.51-.73-1.14Z"/><path class="cls-1" d="M16.74,45.65l3.76-10.34c.23-.63.93-1.14,1.56-1.14h20.32c.63,0,.96.51.73,1.14l-3.76,10.34c-.23.63-.93,1.14-1.56,1.14h-20.32c-.63,0-.96-.51-.73-1.14Z"/><path class="cls-2" d="M60.58,44.99l4.4-12.09c.16-.44.56-.85,1.03-1.03L140.32,2.08c.89-.36,1.55.2,1.25,1.03l-4.4,12.09c-.16.44-.56.85-1.03,1.03l-74.31,29.79c-.89.36-1.55-.2-1.25-1.03Z"/><path class="cls-2" d="M225.87,44.99l4.4-12.09c.16-.44.56-.85,1.03-1.03L305.61,2.08c.89-.36,1.55.2,1.25,1.03l-4.4,12.09c-.16.44-.56.85-1.03,1.03l-74.31,29.79c-.89.36-1.55-.2-1.25-1.03Z"/><path class="cls-1" d="M239.5,11.96l-2.36,6.49h-1.54l2.36-6.49h1.54ZM240.86,9.53l.44-1.2h-2.02l.74-2.02h6.11l-.74,2.02h-2.02l-.44,1.2h2.02l-.74,2.02h-2.02l-2.51,6.9h-2.07l2.51-6.9h-2.02l.74-2.02h2.02ZM246.7.98c.27,0,.45.1.53.3.08.2.07.43-.03.7l-.45,1.25c-.06.15-.06.25-.02.28.04.04.12.06.24.06h.32l-.83,2.27h-1.54c-.44,0-.69-.09-.76-.28-.07-.19-.01-.53.16-1.01l.48-1.32h-1.07l-.48,1.32c-.18.48-.36.82-.56,1.01-.2.19-.52.28-.98.28h-1.61l.83-2.27h.32c.12,0,.21-.02.28-.06.07-.04.13-.13.18-.28l.45-1.25c.1-.27.26-.51.48-.7.22-.2.47-.3.74-.3h3.31ZM244.07,11.96l-2.36,6.49h-1.54l2.36-6.49h1.54ZM253.25.64l-4.6,12.64h.39l-.91,2.5h-.39l-.97,2.68h-2.36l.97-2.68h-2.02l.91-2.5h2.02l4.6-12.64h2.36ZM246.89,8.51c.24,0,.42.08.52.25.11.17.11.37.03.61-.09.24-.24.44-.47.6-.22.16-.46.24-.7.24-.23,0-.39-.08-.5-.24-.11-.16-.12-.36-.03-.6.09-.24.25-.45.47-.61.23-.17.45-.25.68-.25ZM248.79,3.29c.24,0,.42.08.52.25.11.17.11.37.03.61-.08.23-.24.42-.46.59-.23.17-.46.25-.7.25-.23,0-.39-.08-.5-.25-.11-.17-.12-.36-.03-.59.09-.24.25-.45.47-.61.23-.17.45-.25.68-.25Z"/><path class="cls-1" d="M250.26,18.46h-1.09l4.63-12.71h1.09l-4.63,12.71ZM258.9,2.81h1.09l-.86,2.36h-1.09l-.81,2.22.74,1.27-.84.61-.37-.61-3.56,9.78h-2.43l4.83-13.28h-1.61l.86-2.36h1.61l.78-2.16h2.43l-.78,2.16ZM265.95,3.61h-1.57l-4.49,12.33h1.57l-.92,2.52h-5.88l.92-2.52h1.57l4.49-12.33h-1.57l.93-2.57h5.88l-.93,2.57Z"/><path class="cls-1" d="M265.61,12.96l-2,5.49h-1.09l2-5.49h1.09ZM267.02,10.26l.5-1.36h-1.52l.8-2.2h.73l.57-2.2h1.82l-.57,2.2h.57l1.03-2.2h1.82l-1.03,2.2h.68l-.8,2.2h-1.45l-.5,1.36h1.45l-.81,2.22h-1.45l-2.17,5.97h-2.63l2.17-5.97h-1.52l.81-2.22h1.52ZM270.13,12.96l-2,5.49h-1.04l2-5.49h1.04ZM274.19,1.79l-.8,2.2h-5.61l.8-2.2h5.61ZM277.52,1c.27,0,.56,0,.88-.01.31,0,.62-.02.91-.03.29-.01.57-.04.82-.08.26-.04.46-.08.61-.12l-.87,2.38c-.28.14-.68.22-1.22.26-.54.04-1.09.06-1.67.06h-.41l-.5,1.38h3.18l-.91,2.5h-.52l-4.05,11.12h-2.16l4.05-11.12h-.5l-4.05,11.12h-2.13l6.35-17.46h2.18ZM272.01.05c.21,0,.36.07.46.22.09.14.1.32.02.53-.08.21-.21.39-.41.52-.19.14-.4.2-.61.2s-.36-.07-.45-.2c-.09-.14-.09-.31-.01-.52.08-.21.21-.39.4-.53.19-.14.39-.22.6-.22Z"/><path class="cls-1" d="M290,11.69h-4.13l-1.53,4.2h4.13l-.93,2.57h-11.21l.93-2.57h3.97l1.53-4.2h-3.95l.95-2.61h3.95l1.53-4.2h-3.95l.96-2.63h11.19l-.96,2.63h-4.13l-1.53,4.2h4.13l-.95,2.61ZM288.58,0c.26,0,.45.09.57.28.12.19.13.41.04.67-.1.27-.28.5-.54.69-.26.19-.52.28-.77.28-.27,0-.47-.09-.59-.28-.12-.19-.13-.42-.03-.69.09-.26.27-.48.53-.67.26-.19.52-.28.8-.28Z"/><path class="cls-1" d="M299.53,1c.29,0,.49.09.62.27.12.18.13.42.02.73l-1.86,5.11c-.09.26-.24.47-.45.64-.2.17-.45.25-.74.25h-1.32l-.87,2.38h1.2c.36,0,.59.07.69.22.1.14.09.39-.04.74l-2.15,5.9c-.3.82-.87,1.23-1.72,1.23h-3.25l.92-2.52h2.18l1.05-2.88h-1.54c-.24,0-.39-.05-.44-.16-.05-.11-.03-.3.07-.57l2.22-6.11c.19-.53.49-.79.9-.79h1.61l.69-1.91h-2.22l.92-2.52h3.5ZM298.88,6.76h.54l2.22-6.11h2.38l-2.22,6.11h3.7l-.85,2.34h-.75l-2.09,5.74c-.14.35-.19.61-.15.78.04.17.21.27.51.28l-.93,2.54h-.36c-.95,0-1.53-.24-1.73-.73-.2-.48-.15-1.13.14-1.95l2.43-6.67h-.77l-2.22,6.11c-.08.23-.09.37,0,.43.08.06.2.09.36.09l-.99,2.72h-1.54c-.48,0-.79-.12-.92-.37-.13-.25-.1-.62.07-1.1l2.87-7.88h-.54l.85-2.34ZM305.8,1.48c.36,0,.62.13.78.39.16.26.17.56.04.91-.13.36-.37.67-.71.92-.34.25-.69.37-1.06.37s-.61-.12-.77-.37c-.17-.25-.18-.56-.05-.92.13-.35.37-.65.72-.91.35-.26.7-.39,1.05-.39Z"/><path class="cls-1" d="M229.05,35.82l1.03-2.84c.27,0,.48-.06.61-.18.13-.12.26-.33.37-.64l1.24-3.4h2.72l-.83,2.29h1.16l.83-2.29h2.95l-.83,2.29h4.24l-.92,2.52h-4.24l-1.6,4.4h4.24l-.97,2.66h-4.24l-1.26,3.45h4.24l-.9,2.47h-11.78l.9-2.47h4.59l1.26-3.45h-4.59l.97-2.66h4.59l1.6-4.4h-1.16l-.12.32c-.26.71-.6,1.21-1.01,1.5-.42.29-.99.43-1.71.43h-1.38Z"/><path class="cls-1" d="M241.92,46.56h-3.02l2.72-7.47c.12-.32.25-.63.41-.94.16-.31.34-.61.54-.89.2-.28.42-.53.67-.75.25-.22.52-.4.81-.53l1.2,2.25c-.13.15-.26.31-.38.49-.12.17-.27.48-.43.92l-2.52,6.92ZM252.61,38.2c.27,0,.46.09.57.28.1.19.11.42,0,.69l-2.35,6.45c-.09.26-.25.48-.47.66-.22.18-.46.27-.73.27h-6.11c-.27,0-.45-.09-.53-.27-.08-.18-.07-.4.02-.66l2.35-6.45c.1-.27.25-.5.47-.69.21-.19.46-.28.73-.28h1.57l.62-1.7h-2.41l.99-2.72h2.41l.76-2.09h-2.41l.94-2.59h3.13c.32,0,.7,0,1.14-.02.44-.01.89-.03,1.35-.06.45-.02.89-.06,1.3-.1.41-.05.75-.1,1.01-.16l-.89,2.45c-.38.12-.78.21-1.22.27-.44.06-.88.11-1.33.14l-.78,2.16h2.41l-.99,2.72h-2.41l-.62,1.7h1.48ZM245.81,32.23c.39,0,.68.14.86.42.18.28.2.62.05,1.01-.14.39-.41.73-.79,1.01-.38.28-.77.42-1.16.42s-.68-.14-.86-.42c-.18-.28-.2-.62-.05-1.01.14-.39.41-.73.79-1.01.38-.28.77-.42,1.16-.42ZM247.16,28.53c.39,0,.68.14.86.42.18.28.2.62.05,1.01-.14.39-.41.73-.79,1.01-.38.28-.77.42-1.16.42s-.68-.14-.86-.42c-.18-.28-.2-.62-.05-1.01.14-.39.41-.73.79-1.01.38-.28.77-.42,1.16-.42ZM249.67,40.61h-1.82l-1.29,3.54h1.82l1.29-3.54Z"/><path class="cls-1" d="M257.09,38.66l1-2.75h-1.7l.85-2.34h1.7l.78-2.13c-.35.02-.68.02-.98.02h-.75l.86-2.36c.29,0,.7,0,1.23-.01.53,0,1.09-.02,1.67-.03.58-.01,1.14-.04,1.67-.08.54-.04.95-.09,1.25-.17l-.83,2.29c-.28.09-.7.16-1.28.2l-.83,2.27h2.04l1.69-4.63h2.72l-1.69,4.63h2.32l-.85,2.34h-2.32l-.98,2.7c.22-.06.38-.16.48-.3.1-.14.22-.33.34-.59h1.82l-.38,1.04c-.31.85-.74,1.45-1.3,1.82-.56.36-1.19.56-1.89.59l-.43,1.18c-.2.54-.24.92-.14,1.12.11.2.37.31.8.31h1.14l-1.02,2.79h-2.54c-.83,0-1.37-.23-1.62-.69-.25-.46-.18-1.21.2-2.26l.89-2.45h-.68l.91-2.5h.68l1.01-2.77h-2.04l-1,2.75h.75l-.92,2.52h-.75l-1.07,2.95c-.34.92-.8,1.56-1.4,1.92-.6.36-1.35.53-2.26.53h-1.7l1.03-2.84h.64c.23,0,.41-.01.56-.05.15-.03.28-.09.38-.18.11-.09.2-.22.28-.37.08-.16.17-.37.26-.62l.49-1.34h-1.7l.92-2.52h1.7ZM269.35,30.03c.26,0,.45.09.57.28.12.19.13.41.04.67-.1.27-.28.5-.54.69-.26.19-.52.28-.77.28-.27,0-.47-.09-.59-.28-.12-.19-.13-.42-.03-.69.09-.26.27-.48.53-.67.26-.19.52-.28.8-.28Z"/><path class="cls-1" d="M279.89,39.79h-4.13l-1.53,4.2h4.13l-.93,2.57h-11.21l.93-2.57h3.97l1.53-4.2h-3.95l.95-2.61h3.95l1.53-4.2h-3.95l.96-2.63h11.19l-.96,2.63h-4.13l-1.53,4.2h4.13l-.95,2.61ZM278.47,28.1c.26,0,.45.09.57.28.12.19.13.41.04.67-.1.27-.28.5-.54.69-.26.19-.52.28-.77.28-.27,0-.47-.09-.59-.28-.12-.19-.13-.42-.03-.69.09-.26.27-.48.53-.67.26-.19.52-.28.8-.28Z"/><path class="cls-1" d="M283.23,46.53h-3.75l.95-2.61h.59l3.21-8.81h-.59l.97-2.68h.59l1.22-3.36h2.59l-1.22,3.36h.57l-.97,2.68h-.57l-3.21,8.81h.57l-.95,2.61ZM291.87,44.67c-.26.73-.56,1.22-.89,1.48-.33.26-.82.39-1.47.39h-1.41l1.02-2.81c.23,0,.38-.05.47-.14.09-.09.16-.23.23-.41l2.45-6.72h-.59l-2.45,6.72c-.16.44-.33.86-.5,1.27-.17.41-.37.77-.61,1.08-.23.31-.51.56-.84.74-.32.18-.71.27-1.17.27l.89-2.45c.15-.09.3-.26.43-.5.13-.24.3-.65.51-1.23l2.15-5.9h-.59l-2.45,6.72c-.16.44-.33.86-.51,1.27-.18.41-.39.77-.64,1.08-.25.31-.54.56-.88.74-.34.18-.76.27-1.26.27l.89-2.45c.29-.09.5-.26.62-.5.13-.24.29-.65.5-1.23l2.15-5.9h-.5l.85-2.34,4.34-2.7h-3.36l.84-2.32h6.36c.17,0,.29.06.36.17.07.11.08.25.02.42l-.63,1.73-4.37,2.7h3.22c.17,0,.29.06.37.17.08.11.09.25.03.42l-3.63,9.97Z"/><path class="cls-1" d="M222.46,54.75l1.57-4.31h.76l-1.57,4.31h-.76ZM224.26,52.24h.57l-.2.54h-.57l.2-.54ZM224.91,50.44h.85l-.19.53h-.85l.19-.53Z"/><path class="cls-1" d="M225.1,54.75l1.57-4.31h.76l-1.57,4.31h-.76ZM226.89,52.25h.24c.08,0,.16-.02.22-.07s.13-.1.18-.17c.05-.07.09-.14.13-.21.04-.07.06-.14.08-.19.02-.05.04-.12.06-.19s.03-.14.02-.2c0-.06-.02-.12-.05-.16-.03-.04-.08-.07-.16-.07h-.27l.21-.57h.11c.2,0,.38.02.52.07.14.04.25.11.33.2.08.09.12.21.12.35,0,.14-.03.31-.1.51-.04.1-.08.2-.12.3-.04.1-.1.2-.17.29-.07.09-.15.18-.26.26-.1.08-.23.15-.38.21l-.16,2.11h-.78l.23-2.01h-.17l.18-.48Z"/><path class="cls-1" d="M228.37,54.75l1.57-4.31h.76l-1.57,4.31h-.76ZM229.45,54.21h.85l-.19.53h-.85l.19-.53ZM230.17,52.24h.57l-.2.54h-.57l.2-.54ZM230.82,50.44h.85l-.19.53h-.85l.19-.53Z"/><path class="cls-1" d="M231.04,54.75l1.57-4.31h.76l-1.57,4.31h-.76ZM232.12,54.21h.85l-.19.53h-.85l.19-.53ZM232.84,52.24h.57l-.2.54h-.57l.2-.54ZM233.5,50.44h.85l-.19.53h-.85l.19-.53Z"/><path class="cls-1" d="M237.79,50.37h.42l-2.98,4.38h-.41l2.98-4.38Z"/><path class="cls-1" d="M240.07,54.75h-.75l.51-1.41.23-2.91h.7l-.4,3.49-.3.82ZM240.69,52.2l.95-1.77h.84l-1.93,2.99.14-1.22Z"/><path class="cls-1" d="M244.19,50.95c-.09,0-.16.04-.23.08-.07.04-.13.1-.18.17-.05.07-.1.14-.14.22-.04.08-.07.16-.1.23l-.69,1.89c-.03.08-.05.16-.07.23-.02.08-.02.15-.02.22,0,.07.03.12.06.16.04.04.09.07.17.08l-.22.6c-.22,0-.39-.05-.51-.13-.12-.08-.2-.18-.24-.32-.04-.13-.05-.28-.03-.46.02-.17.07-.36.15-.56l.56-1.53c.07-.2.16-.39.26-.57.1-.18.22-.33.36-.47.14-.13.3-.24.48-.32.18-.08.38-.12.6-.13l-.22.6ZM244.52,50.36c.22,0,.39.05.51.13.12.08.2.19.24.32.04.13.05.29.03.46-.03.18-.08.37-.15.57l-.55,1.51c-.07.2-.16.39-.26.56-.1.18-.22.33-.36.46-.14.13-.3.24-.48.32-.18.08-.38.13-.61.13l.22-.6c.09,0,.17-.04.23-.08.07-.04.13-.1.18-.16.05-.07.1-.14.14-.22.04-.08.07-.16.1-.23l.69-1.89c.03-.08.05-.16.07-.23.02-.08.02-.15.02-.22,0-.07-.03-.12-.06-.16-.04-.04-.09-.07-.17-.08l.22-.6Z"/><path class="cls-1" d="M246.23,54.83c-.16,0-.3-.03-.41-.07-.11-.04-.19-.1-.25-.17-.06-.07-.1-.15-.12-.25-.02-.1-.02-.2-.01-.32.01-.11.03-.24.07-.36.04-.13.08-.26.13-.4l1.03-2.83h.77l-1.03,2.82c-.06.16-.1.3-.14.41-.03.12-.05.22-.05.3,0,.08.02.14.05.18.04.04.1.07.18.08l-.22.6ZM246.57,54.24c.1,0,.18-.03.24-.07.07-.04.13-.1.18-.18s.11-.18.16-.3c.05-.12.1-.26.16-.42l1.03-2.82h.76l-1.03,2.83c-.05.14-.1.27-.16.4-.06.13-.12.25-.2.37-.07.12-.15.22-.24.32s-.19.18-.3.25c-.11.07-.24.13-.37.17-.14.04-.29.06-.46.07l.22-.59Z"/><path class="cls-1" d="M250.7,50.43v.25s-1.47,4.06-1.47,4.06h-.66l1.57-4.31h.55ZM250.73,50.98l.16,1.67-.56,1.54-.13-1.74.54-1.47ZM250.33,54.49l1.48-4.06h.64l-1.57,4.31h-.53v-.25Z"/><path class="cls-1" d="M253.03,54.83s-.02,0-.03,0h-.03c-.14,0-.26-.02-.36-.06-.1-.04-.17-.1-.23-.17-.06-.07-.1-.15-.12-.24s-.03-.19-.03-.29c0-.1.02-.21.04-.32.03-.11.06-.21.09-.32l.58-1.58c.07-.2.16-.39.26-.57.1-.18.22-.33.36-.47.14-.13.3-.24.48-.32.18-.08.38-.12.61-.13l-.22.6c-.09,0-.17.04-.24.08-.07.05-.13.1-.19.16-.05.06-.1.13-.14.21-.04.08-.07.15-.1.23l-.7,1.92c-.03.07-.05.15-.06.22-.02.07-.02.14-.02.21,0,.06.03.12.06.16.04.04.09.07.17.08l-.22.6ZM253.36,54.23c.09,0,.17-.03.24-.08.07-.05.13-.1.19-.17.05-.07.1-.14.14-.22.04-.08.07-.15.1-.22l.16-.43h-.31l.2-.55h1.08l-.8,2.18h-.51v-.33c-.08.1-.19.18-.32.25-.12.07-.25.11-.38.14l.21-.58ZM254.79,50.36c.21,0,.38.05.5.12.12.07.2.18.24.3.04.13.05.28.03.45-.02.17-.07.36-.15.56l-.07.21h-.74l.09-.24c.03-.09.06-.18.09-.27.03-.09.04-.17.04-.25s-.02-.14-.05-.19c-.04-.05-.1-.08-.19-.09l.22-.6Z"/><path class="cls-1" d="M259.52,50.37h.42l-2.98,4.38h-.41l2.98-4.38Z"/><path class="cls-1" d="M262.99,51.13l-1.32,3.62h-.77l1.32-3.62h.77ZM261.8,50.44h2.11l-.21.58h-2.11l.21-.58Z"/><path class="cls-1" d="M263.24,54.75l1.57-4.31h.76l-1.57,4.31h-.76ZM265.04,52.25h.24c.08,0,.16-.02.22-.07s.13-.1.18-.17c.05-.07.09-.14.13-.21.04-.07.06-.14.08-.19.02-.05.04-.12.06-.19s.03-.14.02-.2c0-.06-.02-.12-.05-.16-.03-.04-.08-.07-.16-.07h-.27l.21-.57h.11c.2,0,.38.02.52.07.14.04.25.11.33.2.08.09.12.21.12.35,0,.14-.03.31-.1.51-.04.1-.08.2-.12.3-.04.1-.1.2-.17.29-.07.09-.15.18-.26.26-.1.08-.23.15-.38.21l-.16,2.11h-.78l.23-2.01h-.17l.18-.48Z"/><path class="cls-1" d="M266.52,54.75l1.57-4.31h.76l-1.57,4.31h-.76ZM267.6,54.21h.85l-.19.53h-.85l.19-.53ZM268.32,52.24h.57l-.2.54h-.57l.2-.54ZM268.97,50.44h.85l-.19.53h-.85l.19-.53Z"/><path class="cls-1" d="M271.31,50.43v.25s-1.47,4.06-1.47,4.06h-.66l1.57-4.31h.55ZM271.34,50.98l.16,1.67-.56,1.54-.13-1.74.54-1.47ZM270.95,54.49l1.48-4.06h.64l-1.57,4.31h-.53v-.25Z"/><path class="cls-1" d="M272.54,54.75l1.57-4.31h.76l-1.57,4.31h-.76ZM273.63,54.2h.02c.12,0,.22,0,.3-.02.08-.02.15-.04.21-.08.06-.04.11-.09.15-.16.04-.07.08-.15.12-.25l.81-2.24c.03-.09.05-.16.05-.22,0-.06-.02-.11-.05-.15-.03-.04-.09-.06-.15-.08-.07-.02-.15-.03-.25-.03h-.03l.2-.55h.03c.27,0,.48.03.64.08.16.06.26.14.32.26.06.11.08.26.06.43-.02.17-.08.37-.16.6l-.54,1.49c-.06.16-.12.3-.18.43-.06.13-.13.25-.21.36-.08.11-.16.2-.26.28-.09.08-.2.15-.32.21-.12.06-.26.1-.41.13-.15.03-.33.04-.52.04h-.02l.2-.54Z"/><path class="cls-1" d="M279.97,50.37h.42l-2.98,4.38h-.41l2.98-4.38Z"/><path class="cls-1" d="M282.91,52.05l-.67,1.28h.44l-.1.45h-.56l-.54.97h-.76l2.48-4.31-.3,1.62ZM283.33,50.44h.59l-.65,4.31h-.74l.52-2.75.29-1.57Z"/><path class="cls-1" d="M284.18,54.75l1.57-4.31h.76l-1.57,4.31h-.76ZM285.98,52.25h.24c.08,0,.16-.02.22-.07s.13-.1.18-.17c.05-.07.09-.14.13-.21.04-.07.06-.14.08-.19.02-.05.04-.12.06-.19s.03-.14.02-.2c0-.06-.02-.12-.05-.16-.03-.04-.08-.07-.16-.07h-.27l.21-.57h.11c.2,0,.38.02.52.07.14.04.25.11.33.2.08.09.12.21.12.35,0,.14-.03.31-.1.51-.04.1-.08.2-.12.3-.04.1-.1.2-.17.29-.07.09-.15.18-.26.26-.1.08-.23.15-.38.21l-.16,2.11h-.78l.23-2.01h-.17l.18-.48Z"/><path class="cls-1" d="M290.01,51.13l-1.32,3.62h-.77l1.32-3.62h.77ZM288.82,50.44h2.11l-.21.58h-2.11l.21-.58Z"/></g></svg>