<?xml version="1.0" encoding="UTF-8"?><svg id="_图层_2" xmlns="http://www.w3.org/2000/svg" viewBox="0 0 120.49 112.49"><defs><style>.cls-1{fill:#303030;}.cls-2{fill:none;stroke:#ff4e00;stroke-linecap:round;stroke-linejoin:round;stroke-width:.57px;}.cls-3{fill:#f5f5f5;}</style></defs><g id="_图层_1-2"><line class="cls-2" x1="60.31" y1="28.76" x2="60.31" y2="30.14"/><line class="cls-2" x1="60.31" y1="22.39" x2="60.31" y2="27.12"/><line class="cls-2" x1="62.55" y1="28.85" x2="64.14" y2="10.22"/><line class="cls-2" x1="64.77" y1="2.5" x2="64.38" y2="7.21"/><line class="cls-2" x1="64.3" y1="29.11" x2="69.13" y2=".9"/><line class="cls-2" x1="70.43" y1="23.26" x2="69.63" y2="27.92"/><line class="cls-2" x1="66.49" y1="29.57" x2="71.19" y2="11.48"/><line class="cls-2" x1="73.12" y1="3.98" x2="71.95" y2="8.56"/><line class="cls-2" x1="68.17" y1="30.12" x2="77.68" y2="3.13"/><line class="cls-2" x1="80.26" y1="25.83" x2="78.69" y2=".29"/><line class="cls-2" x1="70.25" y1="30.95" x2="77.94" y2="13.91"/><line class="cls-2" x1="81.1" y1="6.84" x2="79.17" y2="11.16"/><line class="cls-2" x1="71.81" y1="31.78" x2="85.74" y2="6.78"/><line class="cls-2" x1="89.52" y1="30.01" x2="87.22" y2="4.14"/><line class="cls-2" x1="73.72" y1="32.94" x2="84.18" y2="17.45"/><line class="cls-2" x1="88.49" y1="11.02" x2="85.86" y2="14.94"/><line class="cls-2" x1="75.12" y1="34.03" x2="93.07" y2="11.73"/><line class="cls-2" x1="97.93" y1="5.69" x2="94.97" y2="9.38"/><line class="cls-2" x1="76.81" y1="35.5" x2="89.73" y2="21.98"/><line class="cls-2" x1="95.07" y1="16.36" x2="91.81" y2="19.79"/><line class="cls-2" x1="78.01" y1="36.79" x2="99.46" y2="17.85"/><line class="cls-2" x1="105.27" y1="12.72" x2="101.73" y2="15.85"/><line class="cls-2" x1="79.43" y1="38.53" x2="94.44" y2="27.39"/><line class="cls-2" x1="100.64" y1="22.75" x2="96.86" y2="25.58"/><line class="cls-2" x1="80.39" y1="40.01" x2="104.73" y2="24.96"/><line class="cls-2" x1="111.32" y1="20.88" x2="107.3" y2="23.37"/><line class="cls-2" x1="81.49" y1="41.96" x2="98.16" y2="33.51"/><line class="cls-2" x1="105.06" y1="29.99" x2="100.85" y2="32.14"/><line class="cls-2" x1="82.19" y1="43.58" x2="108.72" y2="32.85"/><line class="cls-2" x1="115.9" y1="29.95" x2="111.52" y2="31.72"/><line class="cls-2" x1="82.95" y1="45.69" x2="100.81" y2="40.18"/><line class="cls-2" x1="108.2" y1="37.87" x2="103.69" y2="39.28"/><line class="cls-2" x1="83.36" y1="47.41" x2="111.32" y2="41.31"/><line class="cls-2" x1="118.89" y1="39.65" x2="114.27" y2="40.66"/><line class="cls-2" x1="83.75" y1="49.61" x2="102.29" y2="47.19"/><line class="cls-2" x1="109.96" y1="46.17" x2="105.28" y2="46.79"/><line class="cls-2" x1="83.87" y1="51.38" x2="112.46" y2="50.08"/><line class="cls-2" x1="120.2" y1="49.72" x2="115.48" y2="49.94"/><line class="cls-2" x1="83.88" y1="53.62" x2="102.56" y2="54.35"/><line class="cls-2" x1="110.3" y1="54.64" x2="105.58" y2="54.47"/><line class="cls-2" x1="83.7" y1="55.37" x2="112.1" y2="58.91"/><line class="cls-2" x1="119.79" y1="59.88" x2="115.1" y2="59.29"/><line class="cls-2" x1="83.34" y1="57.59" x2="101.63" y2="61.47"/><line class="cls-2" x1="109.21" y1="63.05" x2="104.58" y2="62.08"/><line class="cls-2" x1="82.86" y1="59.29" x2="110.26" y2="67.57"/><line class="cls-2" x1="117.68" y1="69.81" x2="113.15" y2="68.44"/><line class="cls-2" x1="82.13" y1="61.4" x2="99.5" y2="68.31"/><line class="cls-2" x1="106.71" y1="71.16" x2="102.31" y2="69.42"/><line class="cls-2" x1="81.38" y1="63" x2="106.99" y2="75.79"/><line class="cls-2" x1="113.92" y1="79.24" x2="109.69" y2="77.13"/><line class="cls-2" x1="80.3" y1="64.97" x2="96.26" y2="74.7"/><line class="cls-2" x1="102.88" y1="78.72" x2="98.84" y2="76.27"/><line class="cls-2" x1="79.28" y1="66.42" x2="102.37" y2="83.34"/><line class="cls-2" x1="108.62" y1="87.91" x2="104.81" y2="85.12"/><line class="cls-2" x1="77.89" y1="68.17" x2="91.98" y2="80.45"/><line class="cls-2" x1="97.83" y1="85.53" x2="94.26" y2="82.44"/><line class="cls-2" x1="76.65" y1="69.42" x2="96.55" y2="89.99"/><line class="cls-2" x1="101.94" y1="95.56" x2="98.65" y2="92.16"/><line class="cls-2" x1="74.98" y1="70.92" x2="86.79" y2="85.41"/><line class="cls-2" x1="91.7" y1="91.39" x2="88.71" y2="87.74"/><line class="cls-2" x1="73.54" y1="71.94" x2="89.69" y2="95.58"/><line class="cls-2" x1="94.06" y1="101.97" x2="91.39" y2="98.07"/><line class="cls-2" x1="71.65" y1="73.14" x2="80.84" y2="89.41"/><line class="cls-2" x1="84.67" y1="96.14" x2="82.34" y2="92.03"/><line class="cls-2" x1="70.05" y1="73.9" x2="81.99" y2="99.92"/><line class="cls-2" x1="85.21" y1="106.97" x2="83.24" y2="102.67"/><line class="cls-2" x1="67.99" y1="74.76" x2="74.31" y2="92.35"/><line class="cls-2" x1="76.95" y1="99.63" x2="75.34" y2="95.19"/><line class="cls-2" x1="66.29" y1="75.25" x2="73.66" y2="102.91"/><line class="cls-2" x1="75.65" y1="110.39" x2="74.44" y2="105.83"/><line class="cls-2" x1="64.1" y1="75.75" x2="67.37" y2="94.15"/><line class="cls-2" x1="68.74" y1="101.77" x2="67.9" y2="97.12"/><line class="cls-2" x1="62.35" y1="75.94" x2="64.95" y2="104.44"/><line class="cls-2" x1="65.65" y1="112.16" x2="65.22" y2="107.45"/><line class="cls-2" x1="60.11" y1="76.06" x2="60.22" y2="94.75"/><line class="cls-2" x1="60.29" y1="102.49" x2="60.25" y2="97.77"/><line class="cls-2" x1="58.34" y1="75.95" x2="56.1" y2="104.49"/><line class="cls-2" x1="55.49" y1="112.21" x2="55.86" y2="107.5"/><line class="cls-2" x1="56.12" y1="75.7" x2="53.08" y2="94.14"/><line class="cls-2" x1="51.84" y1="101.78" x2="52.6" y2="97.12"/><line class="cls-2" x1="54.4" y1="75.29" x2="47.37" y2="103.04"/><line class="cls-2" x1="45.47" y1="110.55" x2="46.63" y2="105.97"/><line class="cls-2" x1="52.25" y1="74.66" x2="46.14" y2="92.33"/><line class="cls-2" x1="43.63" y1="99.66" x2="45.16" y2="95.19"/><line class="cls-2" x1="50.62" y1="73.98" x2="39.02" y2="100.15"/><line class="cls-2" x1="35.88" y1="107.22" x2="37.79" y2="102.9"/><line class="cls-2" x1="48.61" y1="72.99" x2="39.61" y2="89.37"/><line class="cls-2" x1="35.9" y1="96.17" x2="38.16" y2="92.03"/><line class="cls-2" x1="47.12" y1="72.05" x2="31.27" y2="95.88"/><line class="cls-2" x1="26.98" y1="102.33" x2="29.6" y2="98.39"/><line class="cls-2" x1="45.3" y1="70.73" x2="33.67" y2="85.36"/><line class="cls-2" x1="28.86" y1="91.44" x2="31.8" y2="87.73"/><line class="cls-2" x1="43.99" y1="69.55" x2="24.35" y2="90.37"/><line class="cls-2" x1="19.03" y1="96" x2="22.28" y2="92.56"/><line class="cls-2" x1="42.42" y1="67.95" x2="28.49" y2="80.41"/><line class="cls-2" x1="22.73" y1="85.58" x2="26.24" y2="82.42"/><line class="cls-2" x1="41.33" y1="66.56" x2="18.46" y2="83.77"/><line class="cls-2" x1="12.27" y1="88.42" x2="16.05" y2="85.58"/><line class="cls-2" x1="40.06" y1="64.72" x2="24.22" y2="74.64"/><line class="cls-2" x1="17.67" y1="78.78" x2="21.66" y2="76.26"/><line class="cls-2" x1="39.22" y1="63.16" x2="13.77" y2="76.26"/><line class="cls-2" x1="6.88" y1="79.81" x2="11.08" y2="77.65"/><line class="cls-2" x1="38.27" y1="61.14" x2="20.98" y2="68.25"/><line class="cls-2" x1="13.83" y1="71.22" x2="18.19" y2="69.41"/><line class="cls-2" x1="37.7" y1="59.46" x2="10.41" y2="68.08"/><line class="cls-2" x1="3.02" y1="70.42" x2="7.53" y2="68.99"/><line class="cls-2" x1="37.11" y1="57.3" x2="18.87" y2="61.4"/><line class="cls-2" x1="11.32" y1="63.12" x2="15.93" y2="62.07"/><line class="cls-2" x1="36.83" y1="55.55" x2="8.48" y2="59.45"/><line class="cls-2" x1=".8" y1="60.51" x2="5.48" y2="59.86"/><line class="cls-2" x1="36.61" y1="53.33" x2="17.95" y2="54.29"/><line class="cls-2" x1="10.21" y1="54.71" x2="14.93" y2="54.46"/><line class="cls-2" x1="36.64" y1="51.56" x2="8.03" y2="50.61"/><line class="cls-2" x1=".29" y1="50.36" x2="5.01" y2="50.52"/><line class="cls-2" x1="36.79" y1="49.33" x2="18.23" y2="47.13"/><line class="cls-2" x1="10.54" y1="46.24" x2="15.23" y2="46.78"/><line class="cls-2" x1="37.12" y1="47.59" x2="9.08" y2="41.83"/><line class="cls-2" x1="1.49" y1="40.27" x2="6.12" y2="41.22"/><line class="cls-2" x1="37.65" y1="45.41" x2="19.72" y2="40.11"/><line class="cls-2" x1="12.29" y1="37.94" x2="16.82" y2="39.27"/><line class="cls-2" x1="38.26" y1="43.76" x2="11.59" y2="33.35"/><line class="cls-2" x1="4.37" y1="30.53" x2="8.78" y2="32.25"/><line class="cls-2" x1="39.15" y1="41.7" x2="22.38" y2="33.45"/><line class="cls-2" x1="15.41" y1="30.05" x2="19.66" y2="32.13"/><line class="cls-2" x1="40.03" y1="40.16" x2="15.5" y2="25.41"/><line class="cls-2" x1="8.86" y1="21.43" x2="12.91" y2="23.86"/><line class="cls-2" x1="41.26" y1="38.29" x2="26.11" y2="27.33"/><line class="cls-2" x1="19.82" y1="22.81" x2="23.66" y2="25.57"/><line class="cls-2" x1="42.38" y1="36.93" x2="20.69" y2="18.25"/><line class="cls-2" x1="14.82" y1="13.2" x2="18.41" y2="16.29"/><line class="cls-2" x1="43.91" y1="35.29" x2="30.83" y2="21.93"/><line class="cls-2" x1="25.39" y1="16.41" x2="28.71" y2="19.78"/><line class="cls-2" x1="45.25" y1="34.14" x2="27.02" y2="12.07"/><line class="cls-2" x1="22.09" y1="6.1" x2="25.1" y2="9.74"/><line class="cls-2" x1="47.03" y1="32.78" x2="36.39" y2="17.41"/><line class="cls-2" x1="31.96" y1="11.05" x2="34.66" y2="14.93"/><line class="cls-2" x1="48.54" y1="31.87" x2="34.3" y2="7.04"/><line class="cls-2" x1="30.44" y1=".32" x2="32.79" y2="4.42"/><line class="cls-2" x1="50.52" y1="30.83" x2="42.63" y2="13.88"/><line class="cls-2" x1="39.34" y1="6.87" x2="41.35" y2="11.15"/><line class="cls-2" x1="52.17" y1="30.19" x2="42.32" y2="3.32"/><line class="cls-2" x1="39.65" y1="26.04" x2="41.28" y2=".48"/><line class="cls-2" x1="54.3" y1="29.49" x2="49.38" y2="11.46"/><line class="cls-2" x1="47.32" y1="3.99" x2="48.58" y2="8.55"/><line class="cls-2" x1="56.03" y1="29.14" x2="50.85" y2=".99"/><line class="cls-2" x1="49.45" y1="23.37" x2="50.31" y2="28.02"/><line class="cls-2" x1="58.25" y1="28.82" x2="56.44" y2="10.22"/><line class="cls-2" x1="55.67" y1="2.51" x2="56.14" y2="7.21"/><path class="cls-3" d="M94.77,65.9c5-2,12.52-7.81,12.73-15.62.05-1.85-.87-3.59-2.42-4.6-1.55-1.01-3.52-1.14-5.19-.35-.05.02-5.15,2.05-11.87-3.68-.6-.51-1.18-1-1.76-1.49-.05-.04-.09-.08-.14-.12.84-.92,1.92-2.13,3.02-3.39,4.71-5.43,5.63-7.14,5.9-8.92.53-3.44-1.64-7.07-6.45-10.77-1.29-.99-2.39-1.63-3.51-1.95-1.84-4-6.49-6.47-8.18-7.26-4-1.87-7.9-.15-9.68,2.52-.58.87-.89,1.9-.89,2.95,0,.31-.12.74-.38,1.24-1.3.1-3.38.47-5.32,1.65-1.9-1.14-4.24-2.07-6.91-2.71-3.39-.81-9.89-1.38-16.14-.7-3.53.38-6.54,1.12-8.95,2.19-4.57,2.03-6.35,5.01-7.03,7.15-1.58,4.91-.02,9.79,4.28,13.38.47.39.94.75,1.41,1.07-7.33,7.09-12.36,14.5-13.86,20.43-1.22,4.83.23,8.12,1.67,10.03,4.03,5.37,12.18,5.63,15.67,5.75.19,0,.41.01.57.02.13.02.26.04.4.05-.22.23-.45.48-.67.74-1.76,2.02-3.87,5.21-4.5,8.1-2.22,10.19,8.04,12.67,11.9,13.61,3.55.86,7.2-.18,10.28-2.92,1.45-1.29,2.79-2.94,4.06-5.01.14.15.29.31.44.46,2.81,2.91,6.49,3.96,10.1,2.9.43-.13.83-.27,1.22-.44,5.76,5.04,13.48,6.43,21.13,7.09.63.05,1.24.08,1.83.08,4.33,0,7.68-1.45,9.98-4.34,2.09-2.62,2.68-5.72,3.11-7.99.11-.61.22-1.18.33-1.6,2.16-8.08-3.59-12.1-5.48-13.43-1.93-1.35-4.18-1.78-6.35-1.22-3.62.94-5.45,4.24-5.93,5.22-.54,1.12-.66,2.34-.4,3.48-1.13.16-2.43.27-3.89.29-.61,0-1.13,0-1.58-.05,4.26-5.83,5.96-10.77,5.3-15.37.82.76,1.58,1.4,2.34,1.95,3.24,2.34,6.54,2.86,9.82,1.55M42.05,83.97c-.78-.33-1.58-.92-2.15-1.82-.04-.06-.07-.12-.11-.19.04-.04.08-.09.13-.13.2.04.4.1.6.17.87.31,1.51.83,1.96,1.35-.09.14-.19.29-.28.43-.02.03-.04.07-.07.1-.03.03-.05.06-.08.08"/><path class="cls-1" d="M60.32,24.84c1.57-1.7-1.83-4.83-7.83-6.26-6-1.43-23.61-1.83-25.82,5.09-2.22,6.91,6.91,10.17,6.91,10.17-3.13-9.78,21.65-9.13,21.65-9.13-16.69,5.61-34.6,21.89-37.21,32.19-2.61,10.3,15.42,14.33,16.2,14.72-13.84-32.81,24.53-45.09,26.1-46.78"/><path class="cls-1" d="M42.19,83.79c-1.7,2.61-3.78,4.83-4.17,1.83-.33-2.57,3.92-5.62,5.15-6.45.28-.19.64-.25.95-.12,1.05.46-.44,2.45-1.92,4.74M69.34,65.41c-.98,2.59-4.5,6.37-5.68,6.89-1.17.52-5.32-3.7-5.74-7.12-.95-7.8,4.08-1.48,6.8-3.25,4.05-2.64,5.79.35,4.61,3.49M68.41,52.23c-.29-2.94,1.08-6.32,2.99-9.42,1.12,1.36,2.37,2.76,3.71,4.19-.73-.56-1.43-.89-1.74-.89-.91,0-4.17,14.09-4.96,6.13M54.96,45.32c-.64.94-1.06,1-2.14,2.32h0c.79-.7,2.39.18,1.65,3.55-.91,4.18-.13,4.04,2.74,5.74,2.87,1.7,3.65-6.78,4.83-8.61,1.17-1.82,1.7-1.7.91,3-.78,4.69,8.62,6.64,8.62,6.64,0,0-10.6-2.74-14.97,1.2-7.78,7.01,4.31,15.04,3.22,15.91-4.17,2.84-7.69,1.7-7.69,1.7,0,0,1.05,3.26,4.96,7.3,3.91,4.04,6.84-.98,7.49-1.37,5.32,10.11,14.1,11,22.08,10.73,9.03-.3,10.94-7.22,11.09-11.26.15-4.3-1.29-6.21-3.9-8.04-2.58-1.8-5.8,2.16-5.85,2.25.08-.07,1.71-.77,2.95.83,1.78,2.29-3.61,5.83-11.95,5.96-8.35.13-9-3.91-9.13-4.57,8.37-10.97,8.13-16.21,7.22-18.69-.91-2.48-4.99-1.05-4.86-2.48.13-1.43,2.6-1.65,4.55-5.04.83-1.44.5-2.78-.21-3.86,9.65,11.12,13.1,15.81,16.98,14.25,3.91-1.57,9.1-7.83,9.22-12.65,0,0-8.52,3.82-18.17-4.39-3.01-2.56-5.72-4.79-8.07-7.04-.71-.68-.7-1.81,0-2.49,1.88-1.81,3.63-2.64,4-2.45,1.06.53,0,6.03,0,6.03,0,0,9.02-11.13,9.28-12.83.26-1.7-2.74-4.43-4.44-5.74-1.7-1.3-1.96-1.3-3.78-.78-1.25.35-5.94,8.94-8.76,14.29-1.44-1.8-2.65-3.74-3.61-5.94,1.71-2.36,3.1-4.62,3.5-4.97.92-.78.45,6.47.45,6.47,1.15-4.88,7.25-9.08,7.38-11.69.13-2.61-3.91-5.09-5.87-6-1.96-.92-3,.65-3,.65,0,3.46-2.8,6.54-4.49,8.08-.08-.51-.15-1.02-.21-1.56,0,0-5.87-.13-5.35,4.82.17,1.59.73,3.55,1.73,5.82-1.64,1.91-6.78,4.48-3.24,5.72.68.24,3.95-1.8,4.85-2.51.91,1.64,1.54,3.15,2.86,5-.83-.33-1.21-.3-1.78-.33-3.15-.17-1.77,5.8-3.88,8.8-.65.92-.76-2.43-.1-3.99.65-1.56,1.46-3.02.56-4.23-1.04-1.4-3.78-1.56-5.08-1.04-1.31.52-1.77,2.97-1.93,4.9-.09,1.04.04,1.57-.67,2.62M50.77,35.07c-2.74-.91-3.09-1.61-4.39,1.39-1.07,2.46-6.61,6.23-8.06,7.5-.21.18-.11.52.16.56.6.09,1.65.2,3.37.27,3.13.13,5.33-2.16,5.72-.85.39,1.3.44.49-.55,4.94-.77,3.42-2.96,3.72-4.37,3.24-1.15-.4-7.18-.64-6.92.67.26,1.31,1.6,3.46.62,8.6-.86,4.55.36,8.7,1.01,10.4.65,1.7,6.65,2.61,6.78,1.43.05-.41.21-.88.4-1.3.32-.72,1.39-.53,1.44.25.09,1.81-.79,4.19-.79,4.19,0,0-1.83-1.7-4.96-2.35-3.13-.65-7.83,5.74-8.48,8.74-.65,3-.13,5.35,7.96,7.3,8.08,1.96,13.17-16.04,13.82-18.52.65-2.48-.52-1.31-1.7-1.05-1.17.26.52-4.09.78-6.7.26-2.61.26-3.68-2.09-3.8-2.35-.13-3.81-2.63-4.04,1.06-.27,4.3-.21,5.22-2.61,6.64-1.35.8-.26-4.12,0-8.68.26-4.57.65-3.65,4.18-2.35,2.75,1.02,3.75-3.55,4.68-6.58.27-1.77.41-2.05.41-2.87-.26.47-.48.02-.3-2.18.11-1.39,1.17-5.25,2.47-6.69,1.3-1.43-1.83-2.34-4.57-3.26"/></g></svg>