<?xml version="1.0" encoding="UTF-8"?><svg id="_图层_2" xmlns="http://www.w3.org/2000/svg" viewBox="0 0 81.84 86.61"><defs><style>.cls-1{fill:#fff;}.cls-2{fill:#fe7761;}</style></defs><g id="_图层_1-2"><path class="cls-1" d="M66.37,86.61h-10.36c-1.92,0-3.47-1.56-3.47-3.47s1.56-3.47,3.47-3.47h10.36c2.44,0,4.42-2.05,4.42-4.57s-1.98-4.57-4.42-4.57h-6.82c-1.92,0-3.47-1.56-3.47-3.47s1.56-3.47,3.47-3.47h6.82c6.27,0,11.37,5.17,11.37,11.51s-5.1,11.51-11.37,11.51Z"/><path class="cls-1" d="M63.18,70.53h-6.82c-1.92,0-3.47-1.56-3.47-3.47s1.56-3.47,3.47-3.47h6.82c2.44,0,4.42-2.05,4.42-4.57s-1.98-4.57-4.42-4.57h-7.18c-1.92,0-3.47-1.56-3.47-3.47s1.56-3.47,3.47-3.47h7.18c6.27,0,11.37,5.17,11.37,11.51s-5.1,11.51-11.37,11.51Z"/><path class="cls-1" d="M50.58,43.09c-1.53,0-2.83-1.24-2.83-2.78s1.19-2.78,2.73-2.78c2.29,0,3.45-.99,3.52-1.3v-7.84c0-1.53,1.24-2.78,2.78-2.78s2.78,1.24,2.78,2.78v7.85c0,3.84-3.94,6.85-8.97,6.85Z"/><path class="cls-1" d="M77.8,43.09c-5.13,0-9.07-3.01-9.07-6.85v-7.85c0-1.53,1.24-2.78,2.78-2.78s2.78,1.24,2.78,2.78v7.85c.07.3,1.23,1.29,3.41,1.29,1.53,0,2.83,1.24,2.83,2.78s-1.19,2.78-2.73,2.78Z"/><path class="cls-1" d="M79.07,25.59h-29.99c-1.53,0-2.78-1.24-2.78-2.78s1.24-2.78,2.78-2.78h29.99c1.53,0,2.78,1.24,2.78,2.78s-1.24,2.78-2.78,2.78Z"/><path class="cls-1" d="M64.07,45.36c-1.53,0-2.78-1.24-2.78-2.78v-19.77c0-1.53,1.24-2.78,2.78-2.78s2.78,1.24,2.78,2.78v19.77c0,1.53-1.24,2.78-2.78,2.78Z"/><path class="cls-1" d="M64.07,25.59c-1.53,0-2.78-1.24-2.78-2.78v-13.37c0-1.53,1.24-2.78,2.78-2.78s2.78,1.24,2.78,2.78v13.37c0,1.53-1.24,2.78-2.78,2.78Z"/><path class="cls-2" d="M29.16,22.24c.07-.2.13-.38.2-.6-.11-.02-.2-.05-.3-.06-1.22-.11-1.62-1.14-1.88-2.06-.03-.1.06-.19.16-.17.89.13,1.83.17,2.55.79.16.14.28.32.42.48.32-.04.65-.11.98-.13.27-.02.5.1.49.4-.01.3-.24.32-.52.35-.28.02-.45.04-.79.09-.11.16-.24.54-.29.7-.26.06-.5.19-.72.3-.67.35-.89.68-1.11,1.38-.03.1-.08.22-.02.3.02.03.06.04.09.03.08-.02.12-.11.14-.18.3-1.31,1.77-2.11,3.46-1.48,1.18.44,1.63,1.36,1.78,2.45.28,2.04-.77,3.66-2.81,4.35-.59.2-1.2.33-1.8.48-.1.02-.2.02-.29-.02-1.18-.45-2.37-.88-3.25-1.86-1.48-1.66-1.08-4.22.81-5.42.78-.49,1.61-.56,2.49-.21.06.03.13.04.22.07Z"/><path class="cls-1" d="M13.32,62.97c-1.53,0-2.78-1.24-2.78-2.78V25.15c0-1.53,1.24-2.78,2.78-2.78s2.78,1.24,2.78,2.78v35.04c0,1.53-1.24,2.78-2.78,2.78Z"/><path class="cls-1" d="M2.78,65.63c-.87,0-1.72-.4-2.26-1.16-.89-1.25-.61-2.98.64-3.88,1.8-1.29,2.79-2.91,2.79-4.57v-20.55c0-1.53,1.24-2.78,2.78-2.78s2.78,1.24,2.78,2.78v20.55c0,3.45-1.86,6.76-5.11,9.09-.49.35-1.06.52-1.62.52Z"/><path class="cls-1" d="M20.09,61.99c-1.53,0-2.78-1.24-2.78-2.78v-23.41c0-1.53,1.24-2.78,2.78-2.78s2.78,1.24,2.78,2.78v23.41c0,1.53-1.24,2.78-2.78,2.78Z"/><path class="cls-1" d="M22.87,67.04c-1.53,0-2.78-1.24-2.78-2.78s1.24-2.78,2.78-2.78c2.97,0,5.19-1.55,5.19-2.93v-8.25c0-1.53,1.24-2.78,2.78-2.78s2.78,1.24,2.78,2.78v8.25c0,4.76-4.72,8.49-10.75,8.49Z"/><path class="cls-1" d="M45.29,66.17c-6.04,0-10.78-3.73-10.78-8.49v-12.6c0-1.53,1.24-2.78,2.78-2.78s2.78,1.24,2.78,2.78v12.6c0,1.38,2.23,2.93,5.22,2.93,1.53,0,2.78,1.24,2.78,2.78s-1.24,2.78-2.78,2.78Z"/><path class="cls-1" d="M37.29,44.7c-1.53,0-2.78-1.24-2.78-2.78v-12.81c0-1.53,1.24-2.78,2.78-2.78s2.78,1.24,2.78,2.78v12.81c0,1.53-1.24,2.78-2.78,2.78Z"/><path class="cls-1" d="M46.06,53.08c-.48,0-.97-.12-1.42-.39l-22.9-13.6c-1.32-.78-1.75-2.49-.97-3.81.78-1.32,2.49-1.76,3.81-.97l22.9,13.6c1.32.78,1.75,2.49.97,3.81-.52.87-1.44,1.36-2.39,1.36Z"/><path class="cls-1" d="M23.17,53.08c-.95,0-1.87-.49-2.39-1.36-.78-1.32-.35-3.02.97-3.81l22.9-13.6c1.32-.79,3.02-.35,3.81.97.78,1.32.35,3.02-.97,3.81l-22.9,13.6c-.45.26-.93.39-1.42.39Z"/><path class="cls-1" d="M20.72,31.7H5.92c-1.53,0-2.78-1.24-2.78-2.78s1.24-2.78,2.78-2.78h14.8c1.53,0,2.78,1.24,2.78,2.78s-1.24,2.78-2.78,2.78Z"/><path class="cls-1" d="M64.07,25.64c-.85,0-1.66-.39-2.19-1.06l-12.64-16.11c-.66-.84-.78-1.97-.31-2.93.47-.96,1.44-1.56,2.5-1.56h25.28c1.06,0,2.03.61,2.5,1.56s.34,2.09-.31,2.93l-12.64,16.11c-.53.67-1.33,1.06-2.19,1.06ZM57.14,9.53l6.93,8.83,6.93-8.83h-13.86Z"/><path class="cls-1" d="M64.07,9.48c-1.53,0-2.78-1.24-2.78-2.78v-3.92c0-1.53,1.24-2.78,2.78-2.78s2.78,1.24,2.78,2.78v3.92c0,1.53-1.24,2.78-2.78,2.78Z"/></g></svg>