<?xml version="1.0" encoding="UTF-8"?><svg id="_图层_2" xmlns="http://www.w3.org/2000/svg" xmlns:xlink="http://www.w3.org/1999/xlink" viewBox="0 0 248.78 118.33"><defs><style>.cls-1{fill:url(#_未命名的渐变_2-6);}.cls-2{fill:url(#_未命名的渐变_2-17);}.cls-3{fill:url(#_未命名的渐变_2-8);}.cls-4{fill:url(#_未命名的渐变_2-54);}.cls-5{fill:url(#_未命名的渐变_2-21);}.cls-6{fill:url(#_未命名的渐变_2-5);}.cls-7{fill:url(#_未命名的渐变_2-57);}.cls-8{fill:url(#_未命名的渐变_2-10);}.cls-9{fill:url(#_未命名的渐变_2-51);}.cls-10{fill:url(#_未命名的渐变_2-38);}.cls-11{fill:url(#_未命名的渐变_2-16);}.cls-12{fill:url(#_未命名的渐变_2-42);}.cls-13{fill:url(#_未命名的渐变_2-45);}.cls-14{fill:url(#_未命名的渐变_2-56);}.cls-15{fill:url(#_未命名的渐变_2-15);}.cls-16{fill:#fff;}.cls-17{fill:url(#_未命名的渐变_2-4);}.cls-18{fill:url(#_未命名的渐变_2-12);}.cls-19{fill:url(#_未命名的渐变_2-60);}.cls-20{fill:url(#_未命名的渐变_2-11);}.cls-21{fill:url(#_未命名的渐变_2-48);}.cls-22{fill:url(#_未命名的渐变_2-32);}.cls-23{fill:url(#_未命名的渐变_2-29);}.cls-24{fill:url(#_未命名的渐变_2-41);}.cls-25{fill:url(#_未命名的渐变_2-39);}.cls-26{fill:url(#_未命名的渐变_2-53);}.cls-27{fill:url(#_未命名的渐变_2-49);}.cls-28{fill:url(#_未命名的渐变_2-23);}.cls-29{fill:url(#_未命名的渐变_2-52);}.cls-30{fill:url(#_未命名的渐变_2-59);}.cls-31{fill:url(#_未命名的渐变_2-19);}.cls-32{fill:url(#_未命名的渐变_2-40);}.cls-33{fill:url(#_未命名的渐变_2-20);}.cls-34{fill:url(#_未命名的渐变_2-13);}.cls-35{fill:url(#_未命名的渐变_2-24);}.cls-36{fill:url(#_未命名的渐变_2-26);}.cls-37{fill:url(#_未命名的渐变_2-33);}.cls-38{fill:url(#_未命名的渐变_2-30);}.cls-39{fill:url(#_未命名的渐变_2-34);}.cls-40{fill:url(#_未命名的渐变_2-43);}.cls-41{fill:url(#_未命名的渐变_2-55);}.cls-42{fill:url(#_未命名的渐变_2-3);}.cls-43{fill:url(#_未命名的渐变_2-28);}.cls-44{fill:url(#_未命名的渐变_2-2);}.cls-45{fill:url(#_未命名的渐变_2-31);}.cls-46{fill:url(#_未命名的渐变_2-7);}.cls-47{fill:url(#_未命名的渐变_2-37);}.cls-48{fill:url(#_未命名的渐变_2-35);}.cls-49{fill:url(#_未命名的渐变_2-14);}.cls-50{fill:url(#_未命名的渐变_2-18);}.cls-51{fill:url(#_未命名的渐变_2-46);}.cls-52{fill:url(#_未命名的渐变_2-58);}.cls-53{fill:url(#_未命名的渐变_2-27);}.cls-54{fill:url(#_未命名的渐变_2-25);}.cls-55{fill:url(#_未命名的渐变_2-9);}.cls-56{fill:url(#_未命名的渐变_2-22);}.cls-57{fill:url(#_未命名的渐变_2-36);}.cls-58{fill:url(#_未命名的渐变_2-47);}.cls-59{fill:url(#_未命名的渐变_2-44);}.cls-60{fill:url(#_未命名的渐变_2-50);}.cls-61{fill:url(#_未命名的渐变_2);}</style><linearGradient id="_未命名的渐变_2" x1="60.03" y1="39.09" x2="74.13" y2="39.09" gradientUnits="userSpaceOnUse"><stop offset="0" stop-color="#303030"/><stop offset="1" stop-color="#000"/></linearGradient><linearGradient id="_未命名的渐变_2-2" x1="231.31" y1="58.53" x2="234.34" y2="58.53" xlink:href="#_未命名的渐变_2"/><linearGradient id="_未命名的渐变_2-3" x1="230.7" y1="54.75" x2="233.73" y2="54.75" xlink:href="#_未命名的渐变_2"/><linearGradient id="_未命名的渐变_2-4" x1="230.09" y1="50.97" x2="233.11" y2="50.97" xlink:href="#_未命名的渐变_2"/><linearGradient id="_未命名的渐变_2-5" x1="231.61" y1="60.42" x2="234.64" y2="60.42" xlink:href="#_未命名的渐变_2"/><linearGradient id="_未命名的渐变_2-6" x1="233.14" y1="69.88" x2="236.2" y2="69.88" xlink:href="#_未命名的渐变_2"/><linearGradient id="_未命名的渐变_2-7" x1="234.84" y1="72.1" x2="244.73" y2="72.1" xlink:href="#_未命名的渐变_2"/><linearGradient id="_未命名的渐变_2-8" x1="230.39" y1="52.86" x2="233.42" y2="52.86" xlink:href="#_未命名的渐变_2"/><linearGradient id="_未命名的渐变_2-9" x1="231" y1="56.64" x2="234.03" y2="56.64" xlink:href="#_未命名的渐变_2"/><linearGradient id="_未命名的渐变_2-10" x1="232.22" y1="64.21" x2="235.25" y2="64.21" xlink:href="#_未命名的渐变_2"/><linearGradient id="_未命名的渐变_2-11" x1="229.88" y1="49.05" x2="232.81" y2="49.05" xlink:href="#_未命名的渐变_2"/><linearGradient id="_未命名的渐变_2-12" x1="241.86" y1="67.68" x2="244.25" y2="67.68" xlink:href="#_未命名的渐变_2"/><linearGradient id="_未命名的渐变_2-13" x1="233.66" y1="71.65" x2="237.47" y2="71.65" xlink:href="#_未命名的渐变_2"/><linearGradient id="_未命名的渐变_2-14" x1="237.02" y1="73.65" x2="243.74" y2="73.65" xlink:href="#_未命名的渐变_2"/><linearGradient id="_未命名的渐变_2-15" x1="232.83" y1="67.99" x2="235.87" y2="67.99" xlink:href="#_未命名的渐变_2"/><linearGradient id="_未命名的渐变_2-16" x1="241.61" y1="69.22" x2="244.82" y2="69.22" xlink:href="#_未命名的渐变_2"/><linearGradient id="_未命名的渐变_2-17" x1="232.53" y1="66.1" x2="235.56" y2="66.1" xlink:href="#_未命名的渐变_2"/><linearGradient id="_未命名的渐变_2-18" x1="231.92" y1="62.31" x2="234.95" y2="62.31" xlink:href="#_未命名的渐变_2"/><linearGradient id="_未命名的渐变_2-19" x1="95.73" y1="31.51" x2="230.33" y2="31.51" xlink:href="#_未命名的渐变_2"/><linearGradient id="_未命名的渐变_2-20" x1="144.46" y1="86.63" x2="242.67" y2="86.63" xlink:href="#_未命名的渐变_2"/><linearGradient id="_未命名的渐变_2-21" x1="50.88" y1="46.57" x2="148.06" y2="46.57" xlink:href="#_未命名的渐变_2"/><linearGradient id="_未命名的渐变_2-22" x1="167.09" y1="74.1" x2="199.41" y2="74.1" xlink:href="#_未命名的渐变_2"/><linearGradient id="_未命名的渐变_2-23" x1="125.73" y1="39.99" x2="153.81" y2="39.99" xlink:href="#_未命名的渐变_2"/><linearGradient id="_未命名的渐变_2-24" x1="157.43" y1="40" x2="184.71" y2="40" xlink:href="#_未命名的渐变_2"/><linearGradient id="_未命名的渐变_2-25" x1="147.64" y1="76.51" x2="166.58" y2="76.51" xlink:href="#_未命名的渐变_2"/><linearGradient id="_未命名的渐变_2-26" x1="137.24" y1="82.37" x2="147.82" y2="82.37" xlink:href="#_未命名的渐变_2"/><linearGradient id="_未命名的渐变_2-27" x1="102.6" y1="31.27" x2="121.64" y2="31.27" xlink:href="#_未命名的渐变_2"/><linearGradient id="_未命名的渐变_2-28" x1="119.18" y1="107.86" x2="141.88" y2="107.86" xlink:href="#_未命名的渐变_2"/><linearGradient id="_未命名的渐变_2-29" x1="126.06" y1="31.83" x2="139.54" y2="31.83" xlink:href="#_未命名的渐变_2"/><linearGradient id="_未命名的渐变_2-30" x1="81.63" y1="107.82" x2="102.67" y2="107.82" xlink:href="#_未命名的渐变_2"/><linearGradient id="_未命名的渐变_2-31" x1="103.3" y1="46.37" x2="117.38" y2="46.37" xlink:href="#_未命名的渐变_2"/><linearGradient id="_未命名的渐变_2-32" x1="30.45" y1="90.16" x2="43" y2="90.16" xlink:href="#_未命名的渐变_2"/><linearGradient id="_未命名的渐变_2-33" x1="41.42" y1="107.66" x2="55.54" y2="107.66" xlink:href="#_未命名的渐变_2"/><linearGradient id="_未命名的渐变_2-34" x1="158.9" y1="46.4" x2="170.93" y2="46.4" xlink:href="#_未命名的渐变_2"/><linearGradient id="_未命名的渐变_2-35" x1="3.5" y1="105.79" x2="15.21" y2="105.79" xlink:href="#_未命名的渐变_2"/><linearGradient id="_未命名的渐变_2-36" x1="175.47" y1="88.66" x2="190.19" y2="88.66" xlink:href="#_未命名的渐变_2"/><linearGradient id="_未命名的渐变_2-37" x1="71.46" y1="104.99" x2="80.89" y2="104.99" xlink:href="#_未命名的渐变_2"/><linearGradient id="_未命名的渐变_2-38" x1="125.24" y1="83.86" x2="134.66" y2="83.86" xlink:href="#_未命名的渐变_2"/><linearGradient id="_未命名的渐变_2-39" x1="67.46" y1="88.83" x2="77.26" y2="88.83" xlink:href="#_未命名的渐变_2"/><linearGradient id="_未命名的渐变_2-40" x1="114.81" y1="86.64" x2="124.62" y2="86.64" xlink:href="#_未命名的渐变_2"/><linearGradient id="_未命名的渐变_2-41" x1="105.09" y1="86.66" x2="114.34" y2="86.66" xlink:href="#_未命名的渐变_2"/><linearGradient id="_未命名的渐变_2-42" x1="31.79" y1="107.73" x2="40.91" y2="107.73" xlink:href="#_未命名的渐变_2"/><linearGradient id="_未命名的渐变_2-43" x1="90.19" y1="86.71" x2="99.38" y2="86.71" xlink:href="#_未命名的渐变_2"/><linearGradient id="_未命名的渐变_2-44" x1="109.57" y1="107.89" x2="118.69" y2="107.89" xlink:href="#_未命名的渐变_2"/><linearGradient id="_未命名的渐变_2-45" x1="58.59" y1="86.71" x2="67.72" y2="86.71" xlink:href="#_未命名的渐变_2"/><linearGradient id="_未命名的渐变_2-46" x1="61.25" y1="105.99" x2="71.34" y2="105.99" xlink:href="#_未命名的渐变_2"/><linearGradient id="_未命名的渐变_2-47" x1="48.79" y1="84.96" x2="58.87" y2="84.96" xlink:href="#_未命名的渐变_2"/><linearGradient id="_未命名的渐变_2-48" x1="23.65" y1="107.72" x2="31.37" y2="107.72" xlink:href="#_未命名的渐变_2"/><linearGradient id="_未命名的渐变_2-49" x1="100.18" y1="83.91" x2="104.67" y2="83.91" xlink:href="#_未命名的渐变_2"/><linearGradient id="_未命名的渐变_2-50" x1="83.77" y1="85.58" x2="90.26" y2="85.58" xlink:href="#_未命名的渐变_2"/><linearGradient id="_未命名的渐变_2-51" x1="103.07" y1="106.71" x2="109.55" y2="106.71" xlink:href="#_未命名的渐变_2"/><linearGradient id="_未命名的渐变_2-52" x1="15.64" y1="107.64" x2="23.8" y2="107.64" xlink:href="#_未命名的渐变_2"/><linearGradient id="_未命名的渐变_2-53" x1="78.31" y1="86.7" x2="82.84" y2="86.7" xlink:href="#_未命名的渐变_2"/><linearGradient id="_未命名的渐变_2-54" x1="26.2" y1="82.17" x2="32.57" y2="82.17" xlink:href="#_未命名的渐变_2"/><linearGradient id="_未命名的渐变_2-55" x1="191.29" y1="87.81" x2="195.48" y2="87.81" xlink:href="#_未命名的渐变_2"/><linearGradient id="_未命名的渐变_2-56" x1="189.31" y1="79.37" x2="195.57" y2="79.37" xlink:href="#_未命名的渐变_2"/><linearGradient id="_未命名的渐变_2-57" x1="169.39" y1="88.88" x2="173.89" y2="88.88" xlink:href="#_未命名的渐变_2"/><linearGradient id="_未命名的渐变_2-58" x1="182.1" y1="85.54" x2="185.84" y2="85.54" xlink:href="#_未命名的渐变_2"/><linearGradient id="_未命名的渐变_2-59" x1="92.13" y1="100.42" x2="94.97" y2="100.42" xlink:href="#_未命名的渐变_2"/><linearGradient id="_未命名的渐变_2-60" x1="80.6" y1="79.34" x2="83.42" y2="79.34" xlink:href="#_未命名的渐变_2"/></defs><g id="_图层_1-2"><path class="cls-16" d="M45.54,83.69c.93-1.63,1.66-3.34,2.76-4.78,1.58-2.08,3.8-3.25,6.42-3.69,1.94-.33,3.7.11,5.42.82.98.41,1.76,1.05,2.18,2.05.19.45.47.51.96.53,1.91.05,3.81.21,5.72.31.29.02.58-.07.88-.09.97-.05,1.94-.09,2.9-.13.21,0,.41,0,.62,0,1.06-.04,2.11-.14,3.17-.11.48.01.67-.12.86-.54,1.41-3.1,3.65-3.72,6.4-3.33.75.11,1.46.71,2.11,1.19.42.31.72.54,1.33.39,1.76-.42,3.74.58,4.54,2.33.31.68.62.72,1.21.44.35-.17.74-.34,1.11-.34,1.35,0,2.26-.7,2.85-1.8,1.48-2.78,4.1-3.72,6.93-4.03,2.3-.25,4.4,1.34,4.54,4.15.03.52-.01,1.05-.02,1.43,1.16,0,2.2-.06,3.22,0,1.33.08,2.65.27,3.97.38.26.02.54-.02.79-.1,1.21-.43,2.41-.4,3.63-.1.38.09.82-.02,1.23-.08,1.45-.22,2.89-.32,4.21.42.52.29.77.11.96-.37.27-.69.58-1.38.84-2.07.42-1.11,1.1-1.97,2.24-2.44.41-.17.81-.37,1.21-.55v-.24c-.83-.12-1.65-.27-2.49-.37-7.33-.84-14.42-2.61-21.39-4.78-5.25-1.63-10.44-3.44-15.65-5.13-.55-.18-1.26-.25-1.8-.07-4.29,1.41-8.67,2.12-13.16,2.36-5.77.3-11.34-.38-16.75-2.18-3.19-1.06-6.07-2.64-8.41-5.04-2.1-2.16-3.38-4.7-3.64-7.78-.24-2.75.38-5.15,2.47-7.1,1.23-1.15,2.7-1.81,4.4-1.9.76-.04,1.53-.09,2.29-.2.29-.04.58-.24.81-.43.64-.52,1.21-1.11,1.87-1.59.45-.33.68-.54.13-.97-.54-.43-1.04-.92-1.52-1.43-1.51-1.58-1.7-4.3-.45-5.96,1.49-1.97,3.83-2.53,6.08-1.55.38.17,1.01.17,1.38-.02,3.06-1.6,6.55-.27,7.78,2.36.13.28.6.52.94.56,2.28.3,3.81,1.64,4.26,3.79.37,1.78-.58,3.95-2.39,4.83-1.1.54-2.38.71-3.57,1.04-.17.05-.34.07-.59.13.29.8.53,1.56.84,2.3.07.17.35.3.56.38,5.1,1.8,10.22,3.57,15.32,5.42,1,.37,1.52.02,2.11-.69,1.52-1.8,2.1-3.96,2.63-6.14.26-1.07.42-2.15.64-3.32-.99.09-1.81.21-2.63.22-4.17.05-7.64-2.71-8.32-6.72-.8-4.7.83-8.59,4.78-11.48,3.31-2.42,8.5-2.35,11.75.2,1.34,1.05,2.4,2.43,3.58,3.67.21.23.38.5.5.67.87-.91,1.56-1.98,2.55-2.57.97-.58,2.23-.66,3.48-1-1.1-.31-2.18-.59-3.25-.92-2.76-.86-5.61-1.51-8.08-3.03-2.77-1.7-4.82-3.97-5.39-7.23-.92-5.32,2.16-10.42,7.66-11.43,4.02-.73,7.66.19,10.5,3.18,1.73,1.83,2.53,5.63,1.11,8.05-.07.12-.11.26-.24.58,1.62.35,3.15.81,4.71,1,3.61.46,7.25.84,10.89,1.15,2.37.2,4.76.32,7.15.27,3.1-.07,6.21-.33,9.32-.54,1.64-.11,3.28-.28,4.93-.43,2.51-.24,5.01-.48,7.52-.73,1.97-.2,3.94-.41,5.92-.62,2.27-.24,4.54-.51,6.82-.73,1.32-.13,2.65-.15,3.97-.26,3.03-.24,6.06-.58,9.1-.73,5.04-.25,10.09-.41,14.68,2.11,3.33,1.83,6.07,4.15,6.95,7.99.02.09.06.17.07.25q.33,1.77,2.22,1.75c2.04-.02,4.09,0,6.13-.07.66-.02,1.35-.14,1.95-.39,3.47-1.44,7.57.21,8.74,3.62.22.66.55.66,1.09.46,3.02-1.09,5.79-.66,8.25,1.29,1.95,1.54,2.66,3.61,2.36,6.01-.5,4.05-3.15,6.74-6.31,9.06-2.35,1.72-4.97,2.96-7.74,3.92-.59.21-.89.53-1.09,1.16-.94,2.86-1.98,5.69-2.98,8.53-.06.16-.1.33-.23.76,1.34-.33,2.52-.57,3.66-.91,1.76-.54,3.52-.98,5.3-.24.8.33,1.52.84,2.51,1.4-.19-1.27-.37-2.39-.51-3.51-.18-1.47-.42-2.94-.46-4.42-.06-2.39,2.13-4.53,4.59-4.62,3.38-.12,5.34,1.43,5.87,4.71.82,5.07,1.62,10.15,2.43,15.24.03.19.15.36.26.61.37-.25.67-.44.97-.64,2.35-1.53,5.96-.92,7.51,1.34.36.53.56,1.21.65,1.85.72,5.35-2.25,9.49-7.28,10.78-2.19.56-4.32.22-6.41-.55-1.27-.47-2.54-.91-3.82-1.33-.2-.07-.51-.04-.68.08-.7.49-1.36,1.03-2.11,1.61.17.2.32.41.51.59,1.5,1.37,2.05,3.08,1.85,5.05-.18,1.8-2.25,3.64-4.21,3.7-2.46.08-4.92.15-7.38.18-.61,0-.92.17-1.12.77-.44,1.27-1,2.5-1.56,3.88.37-.02.66,0,.93-.06,7.44-1.55,14.19-4.57,20.18-9.19,1.58-1.22,3.25-1.98,5.37-1.58,3.42.65,4.59,4.6,3.08,6.94-1.12,1.73-2.79,2.87-4.43,4.05-6.22,4.51-13.01,7.9-20.57,9.61-3.34.76-6.78,1.11-10.17,1.61-1.61.23-3.23.33-4.83.59-.67.11-1.37.37-1.93.74-4.73,3.12-9.85,5.41-15.21,7.22-5.6,1.89-11.23,3.64-17.07,4.62-2.55.42-5.12.7-7.69.98-1.6.18-3.22.4-4.81.33-4.26-.19-8.48-.73-12.35-2.62-.94-.46-1.8-1.09-2.63-1.73-.42-.32-.67-.37-1.07,0-2.72,2.49-5.81,3.24-9.32,1.96-.25-.09-.6-.05-.86.05-1.63.62-3.22.75-4.84,0-.28-.13-.72-.07-1.04.03-1.34.43-2.64.55-3.95-.08-.25-.12-.62,0-.94.04-.94.1-1.88.22-2.83.3-.74.06-1.48.08-2.22.1-.66.02-1.38.18-1.97-.02-.93-.3-1.79-.19-2.72-.14-1.1.06-2.22-.25-3.33-.36-.36-.04-.78-.08-1.11.04-1.96.72-3.86.89-5.71-.26-.24-.15-.71-.13-.99,0-2.26.97-4.53,1.12-6.84.28-.23-.08-.54-.1-.77-.01-2.58,1-4.77.62-6.43-1.61-.91.53-1.75,1.09-2.66,1.51-1.25.57-2.55.54-3.87.22-.35-.09-.78-.09-1.12.01-1.52.47-2.99.54-4.44-.21-.24-.13-.65-.08-.93.02-1.57.55-3.07.66-4.56-.22-.26-.15-.75-.06-1.09.05-2.09.69-4.2.88-6.2-.01-1.1-.49-2.01-1.39-2.99-2.13-.2-.15-.36-.38-.47-.5-.83.66-1.56,1.36-2.4,1.88-2.06,1.27-4.24,1.73-6.55.76-.29-.12-.71-.07-1.04.01-1.65.41-3.29.85-4.93,1.31-.71.2-1.36.43-1.27-.9-1.35.07-2.59.17-3.83.17-.76,0-1.52-.15-2.28-.21-.31-.03-.65-.06-.95.02-1.61.43-3.13.27-4.52-.58-.5-.31-.86-.27-1.38-.04-2.36,1.07-4.7,1.24-6.93-.21-.43-.28-.81-.66-1.18-1.03-.34-.34-.58-.37-.94,0-1.32,1.36-2.94,2.06-4.82,1.8-.81-.11-1.61-.47-2.31-.88-.42-.25-.72-.36-1.19-.19-2.65.95-5.35,1.01-8.11.78-1.41-.12-2.65-.29-3.59-1.44-.92-1.13-1.22-3.2-.26-4.26,1.3-1.45,1.47-3.16,1.78-4.89.14-.76.14-1.38-.47-2.04-.41-.45-.55-1.36-.46-2.02.37-2.57,1.9-4,4.53-4.51,2.18-.42,4.35-.67,6.54-.18,1.86.41,3.49,1.18,4.7,2.65.38.46.8.61,1.37.58,1.23-.07,2.46-.2,3.68-.13.86.05,1.73.3,2.54.61.58.23,1.03.3,1.66.04,2.2-.89,4.37-.94,6.44.31.21.13.53.07.8.1.01-.26.05-.53.04-.78,0-.14-.14-.26-.18-.4-.39-1.48-1.31-1.93-2.89-1.93-3.57,0-4.41-3.39-3.01-5.68.3-.49.37-.88.05-1.37-.4-.64-.79-1.3-1.08-1.99-.28-.65-.71-.83-1.38-.79-.49.03-1.03.02-1.47-.14-1.54-.55-2.16-2.33-1.25-3.76.56-.88.61-1.55.08-2.47-1.06-1.85.08-4.55,2.66-4.68.53-.03.86-.18,1.15-.65.67-1.09,1.61-1.5,2.8-1.08,1.29.45,2.78.61,3.57,1.98.09.15.4.22.62.24,1.38.08,2.76.14,4.14.18,1.56.04,1.96.43,1.93,1.96,0,.14.01.3.07.42.44.95.91,1.88,1.32,2.84.24.56.58.85,1.21.76.23-.03.47-.02.71-.05,1.07-.16,2.17-.49,2.78.54Z"/><path class="cls-61" d="M62.64,35.85c.63.37,1.33.71,2.1,1-.17.52-.39,1.04-.65,1.55-.48.95-1.06,1.81-1.68,2.49-.53.58-1.06.99-1.49,1.16-.34.13-.61.38-.76.71-.15.33-.17.69-.04,1.02.14.39.46.67.86.79.29.08.59.07.87-.04.83-.32,1.71-.97,2.54-1.88.14-.16.28-.32.42-.49.02.22.04.43.07.63.16,1.19.51,2.19,1.02,2.9.17.24.41.41.7.49.4.12.83.04,1.18-.2.3-.21.49-.52.56-.87.06-.35-.01-.7-.22-.99-.26-.36-.46-.98-.56-1.75-.12-.89-.1-1.91.05-2.95.08-.57.21-1.12.36-1.64.81.15,1.59.24,2.33.26,1.28.04,2.38-.12,3.19-.47.53-.23.79-.84.57-1.35-.12-.28-.36-.49-.65-.57-.23-.07-.48-.05-.71.05-.52.22-1.33.33-2.28.3-.61-.02-1.27-.09-1.96-.22-.02,0-.05-.01-.07-.02.18-.1.35-.23.5-.38.23-.23.39-.51.49-.82.34-1.07-.26-2.2-1.34-2.51h0c-1.08-.31-2.25.31-2.59,1.39-.1.31-.12.62-.07.93.03.2.1.4.19.58-.02,0-.04-.02-.07-.02-.64-.25-1.23-.54-1.75-.84-.81-.48-1.42-.99-1.72-1.44-.13-.2-.33-.34-.56-.41-.29-.08-.61-.03-.87.14-.48.32-.63.95-.32,1.42.47.71,1.29,1.43,2.38,2.06ZM68.16,33.66c.04-.13.18-.2.3-.16s.2.17.16.29c-.04.13-.18.2-.3.16s-.2-.17-.16-.29ZM66.5,33.19c.04-.13.18-.2.3-.16.13.04.2.17.16.29s-.18.2-.3.16-.2-.17-.16-.29ZM66.21,34.03c.07-.04.16-.02.2.05.17.3.44.51.77.61.33.09.69.06,1-.1.07-.04.16-.01.19.06.04.07,0,.16-.06.19-.38.2-.81.24-1.22.13s-.74-.38-.94-.74c-.04-.07-.01-.16.06-.19ZM66.08,37.35c.04-.13.18-.2.3-.16.13.04.2.17.16.29-.04.13-.18.2-.3.16-.13-.04-.2-.17-.16-.29ZM65.87,38.01c.04-.13.18-.2.3-.16.13.04.2.17.16.29-.04.13-.18.2-.3.16-.13-.04-.2-.17-.16-.29ZM65.66,38.67c.04-.13.18-.2.3-.16.13.04.2.17.16.29-.04.13-.18.2-.3.16-.13-.04-.2-.17-.16-.29Z"/><path class="cls-44" d="M231.49,59.53l2.85-.89c-.06-.37-.12-.74-.18-1.11l-2.85.89c.06.38.12.75.18,1.11Z"/><path class="cls-42" d="M230.88,55.75l2.85-.89c-.06-.4-.12-.77-.18-1.11l-2.85.89c.06.36.12.73.18,1.11Z"/><path class="cls-17" d="M230.27,51.97l2.85-.89c-.08-.48-.14-.84-.18-1.11l-2.85.89c.05.32.11.69.18,1.11Z"/><path class="cls-6" d="M231.79,61.42l2.85-.89c-.06-.37-.12-.74-.18-1.11l-2.85.89c.06.39.12.76.18,1.11Z"/><path class="cls-1" d="M233.22,70.25c.04.21.09.42.16.62l2.82-.88c-.03-.09-.05-.17-.07-.26-.01-.08-.06-.38-.14-.84l-2.85.89c.07.46.08.47.08.48Z"/><path class="cls-46" d="M239.41,71.95c-.2.03-.39.04-.58.03l-3.99,1.25c.23.22.47.42.74.6.12.08.24.16.36.23l8.38-2.62c.19-.42.32-.85.4-1.3l-4,1.25c-.37.28-.82.48-1.32.56Z"/><path class="cls-3" d="M230.57,53.86l2.85-.89c-.07-.41-.13-.78-.18-1.11l-2.85.89c.06.35.12.72.18,1.11Z"/><path class="cls-55" d="M231.17,57.58s0,.04,0,.06l2.85-.89c-.06-.39-.12-.76-.18-1.11l-2.85.89c.06.35.11.7.17,1.05Z"/><path class="cls-8" d="M232.4,65.21l2.85-.89c-.06-.36-.12-.73-.18-1.11l-2.85.89c.06.4.12.77.18,1.11Z"/><path class="cls-20" d="M229.9,49.68s.03.16.07.41l2.85-.89s0,0,0,0c-.14-.77-.89-1.28-1.68-1.16,0,0-.02,0-.02,0-.8.14-1.33.87-1.21,1.64Z"/><path class="cls-18" d="M243.09,67.15s-.02,0-.02,0c-.6.09-1.06.53-1.21,1.07l2.39-.75c-.31-.25-.73-.38-1.16-.32Z"/><path class="cls-34" d="M234.27,72.59l3.2-1c-.37-.22-.69-.52-.93-.88l-2.87.9c.17.35.37.68.61.98Z"/><path class="cls-49" d="M239.87,74.79c1.53-.24,2.88-1.04,3.8-2.25.02-.03.05-.07.07-.1l-6.73,2.1c.91.31,1.88.4,2.86.25Z"/><path class="cls-15" d="M233.01,69l2.85-.89c-.05-.33-.11-.71-.18-1.11l-2.85.89c.07.45.13.82.18,1.11Z"/><path class="cls-11" d="M244.76,68.37c-.01-.07-.03-.15-.05-.22l-2.86.89c.02.44-.07.86-.24,1.25l3.21-1c0-.31-.01-.61-.06-.92Z"/><path class="cls-2" d="M232.71,67.1l2.85-.89c-.06-.35-.12-.73-.18-1.11l-2.85.89c.07.41.13.78.18,1.11Z"/><path class="cls-50" d="M232.1,63.31l2.85-.89c-.06-.37-.12-.74-.18-1.11l-2.85.89c.06.39.12.76.18,1.11Z"/><path class="cls-31" d="M200.45,52.63c-.57.21-.94.38-1.32.46-.98.2-1.75-.4-1.79-1.36,0-.18,0-.36-.01-.53-.13-1.1-.51-1.37-1.56-.93-2.02.85-4,1.8-6,2.67-.98.43-1.37.24-1.79-.67-.73-1.54-.51-2.74.7-4.18,2.39-2.84,4.44-5.96,6.61-8.98.16-.22.23-.72.1-.86-.17-.18-.63-.23-.91-.14-1.25.38-2.5.78-3.71,1.27-.96.39-1.66.29-2.31-.51-.66-.81-1-1.67-.45-2.61.54-.92,1.24-1.75,1.88-2.62,1.89-2.58,3.56-5.29,4.4-8.35.98-3.54.13-4.83-2.86-6.56-2.09-1.21-4.42-1.77-6.85-1.66-4.04.19-8.08.51-12.11.77-2.02.13-4.03.25-6.04.43-2.46.21-4.91.46-7.36.71-1.97.2-3.95.42-5.92.62-2.33.24-4.66.49-6.98.72-1.61.16-3.22.34-4.84.42-3.53.18-7.07.47-10.59.41-4.2-.07-8.39-.38-12.56-.73-5.39-.46-10.59-1.75-15.65-3.5-2.49-.86-4.7-2.11-6.03-4.49-2.03-3.65.31-8.97,5.35-9,1.84-.01,3.5.39,4.98,1.48,1.31.96,1.88,2.23,1.78,3.83-.04.6-.26,1.06-.94,1.06-.66,0-.71-.5-.67-.99.05-.66-.2-1.19-.82-1.39-.95-.31-1.95-.7-2.93-.71-2-.03-3.04,2.22-2.11,4.03.74,1.43,2.03,2.22,3.47,2.77,4.03,1.52,8.21,2.62,12.52,3.23,3.17.44,6.36.81,9.57.97,3.76.18,7.54.19,11.31.08,3.16-.1,6.33-.46,9.49-.74,3.44-.31,6.87-.64,10.31-.99,3.5-.36,6.99-.78,10.5-1.11,2.22-.21,4.45-.27,6.68-.44,2.77-.21,5.53-.52,8.3-.7,5.24-.33,10.23.24,14.27,3.94,2.05,1.87,2.48,4.21,2.06,6.79-.55,3.46-2.21,6.5-4.1,9.44-.41.65-.86,1.27-1.32,1.94,2.07.48,3.31-.09,4.03-1.48.66-1.27,1.39-2.51,2.04-3.79.32-.64.84-.98,1.46-.76.88.33,1.73.79,2.5,1.32.57.39.24.97-.09,1.42-1.65,2.22-3.22,4.49-4.98,6.62-2.14,2.59-4.44,5.06-6.67,7.59-.28.32-.55.64-.8.98-.4.56-.23.95.47.89,1.51-.13,3.02-.31,4.5-.63.37-.08.7-.73.87-1.19.15-.4,0-.89.06-1.32.04-.3.18-.76.37-.82.29-.08.73.05.97.25,1.34,1.07,2.03,2.47,2.09,4.16.02.49,0,.98.19,1.52.54-.69,1.05-1.41,1.64-2.06,2.24-2.45,5.11-3.98,8.2-5.12.94-.35,1.29-.87,1.4-1.81.35-2.76.82-5.5,1.21-8.25.23-1.64.44-3.28.57-4.92.06-.76-.57-.87-1.2-.87-2.75.02-5.49.04-8.24.06-1.01,0-2.01.02-3.02.02-.57,0-1.13-.09-1.18-.81-.06-.76.55-.91,1.09-.92,1.33-.03,2.67.08,4.01.06,2.68-.04,5.36-.09,8.03-.22.54-.03,1.07-.41,1.6-.64,1.16-.51,3.23.4,3.47,1.59.06.3-.09.71-.28.98-.67,1.01-.84,2.11-.94,3.29-.26,3.12-.66,6.23-1,9.34-.03.31-.04.61-.07,1.08.82-.28,1.48-.48,2.13-.73,2.99-1.14,5.86-2.49,8.18-4.71.74-.7,1.35-1.54,1.93-2.37.37-.54.53-1.32-.11-1.68-.49-.27-1.24-.16-1.86-.13-.24.01-.47.27-.69.42-1.06.73-2.13.61-2.68-.32-.46-.78-.02-1.92.97-2.38,1.39-.63,2.82-.66,4.16.06,1.73.92,2.18,2.3,1.55,4.35-.54,1.75-1.76,3.11-3.16,4.32-2.89,2.49-6.34,3.95-9.92,5.15-.76.25-1.14.64-1.32,1.4-.79,3.49-1.73,6.94-3.46,10.14-1.11,2.06-2.72,3.6-5.03,4.34-3.31,1.05-6.73-1.37-6.73-4.75,0-.61,0-1.23,0-1.94ZM211.6,45.73c-.1-.07-.21-.13-.31-.2-3.2,1.39-6.38,2.8-8.56,5.7-.73.98-1.09,2.03-1.01,3.25.12,1.83,1.85,3.09,3.59,2.38.93-.38,1.96-1.06,2.45-1.88,1.1-1.87,1.94-3.89,2.79-5.88.46-1.08.71-2.24,1.05-3.36Z"/><path class="cls-33" d="M207.81,97.32c2.3-.29,4.61-.52,6.89-.88,3.77-.59,7.47-1.49,11.07-2.78,5.12-1.83,9.75-4.49,14.04-7.75.43-.33.91-.67,1.42-.83.34-.11.91-.02,1.15.21.24.23.38.85.22,1.1-.37.59-.87,1.16-1.44,1.58-3.25,2.4-6.58,4.7-10.24,6.48-4.49,2.19-9.19,3.87-14.14,4.67-4.32.7-8.69,1.11-13.02,1.67-.29.04-.6.15-.83.31-4.82,3.43-10.18,5.8-15.76,7.7-5.68,1.94-11.43,3.61-17.35,4.6-2.34.39-4.71.55-7.06.83-3.64.43-7.23.12-10.74-.78-2.2-.57-4.35-1.32-6-3-1.76-1.79-2.03-3.99-.78-6.22,1.66-2.94,4.43-4.25,7.53-5.09,3.94-1.06,7.97-1.15,12.02-1.08,6.94.13,13.88.3,20.84.34,3.35.02,6.71-.21,10.07-.34,1.19-.04,2.42.04,3.56-.23.83-.2,1.62-.78,2.29-1.36,3.51-3.06,6.3-6.63,7.95-10.99.55-1.46.49-1.62-1.06-1.62-2.67,0-5.34,0-8,0-.28,0-.61.07-.81-.05-.3-.18-.73-.56-.69-.77.07-.3.5-.73.8-.75,1.34-.08,2.69-.04,4.04-.05,1.63,0,3.25,0,4.88,0,1.62,0,2.05-.37,2.31-1.94.22-1.28.23-1.32,1.58-1.29,1.06.03,2.05-.04,2.68-1.01.15-.23.33-.59.24-.77-.1-.2-.49-.35-.76-.36-1.13-.04-2.27-.02-3.41-.02-1.47,0-2.95,0-4.42,0-.55,0-1.08-.17-.98-.76.05-.31.56-.75.89-.78,1.37-.1,2.75-.09,4.12-.07.87.01,1.21-.35,1.21-1.19,0-.74.15-1.48.17-2.22.02-.96-.35-1.21-1.26-.8-1.64.75-3.23,1.61-4.88,2.34-1.11.49-2.28.86-3.45,1.23-.34.11-.75.02-1.13.02-.05-.07-.1-.15-.15-.22.34-.33.64-.71,1.02-.98,1.77-1.28,3.6-2.5,5.34-3.82.43-.32.65-.92.96-1.39-.52-.17-1.04-.45-1.57-.48-1.34-.07-2.69-.02-4.04-.01-.53,0-1.05-.07-1.06-.7,0-.63.52-.73,1.05-.73,2.57,0,5.15.03,7.72-.06.71-.03,1.55-.3,2.07-.74.37-.32.46-1.13.4-1.69-.08-.65-.75-.75-1.37-.77-1.07-.03-2.14-.09-3.2-.18-.33-.03-.64-.23-.96-.35,0-.11-.02-.21-.03-.32.51-.18,1.01-.44,1.53-.54,2.91-.58,5.83-1.1,8.73-1.7,1.32-.28,2.61-.69,3.9-1.07,1.37-.39,3.21,1.01,3.1,2.39-.06.73-.69.89-1.26.98-1.27.19-2.55.33-3.83.42-1.42.1-2.49.92-2.87,2.25-.17.58.04.95.58,1.11.4.12.83.21,1.25.22,1.14.03,2.28.09,3.41-.03.92-.1,1.81-.46,2.72-.67.64-.15,1.3-.35,1.95-.36.77-.01,1.43.79,1.37,1.52-.07.86-.75.94-1.41.94-1.88.02-3.75.02-5.63.03-.28,0-.56-.02-.83.04-.71.15-.91.71-.37,1.14.85.67,1.74,1.33,2.7,1.82,1.35.69,2.8,1.2,4.19,1.84.36.16.83.47.88.77.04.26-.39.68-.7.89-.68.46-1.43.82-2.15,1.23-.78.45-1.52.28-2.28-.08-1.09-.51-1.82-1.37-2.52-2.28-.92-1.22-1.86-2.44-2.8-3.65-.48-.61-.85-.57-1.05.17-.25.92-.42,1.86-.56,2.8-.12.79-.27,1.53-1.04,2-.15.1-.22.33-.33.49.2.11.38.29.59.3,1.18.08,2.32.03,3.36-.65,1.41-.92,3.45.05,3.93,1.57.21.66-.13,1.15-.91,1.4-1.37.44-2.74.88-4.1,1.36-.98.35-1.81.9-2.27,1.86-.39.81-.08,1.43.81,1.45,1.91.04,3.82.07,5.72-.03.66-.04,1.35-.41,1.92-.78,1.38-.9,3.09-.24,3.28,1.37.1.81-.55,1.02-1.2,1.05-1.08.05-2.16.02-3.23.02-2.15,0-4.31.03-6.46,0-.73-.01-1.15.26-1.2.93-.26,3.66-2.31,6.51-4.43,9.33-.78,1.03-1.67,1.98-2.52,2.97.02.08.04.16.05.24ZM193.83,101.65c-.03-.1-.06-.2-.09-.3-.35.04-.7.11-1.05.13-3.85.13-7.7.35-11.54.33-5.24-.02-10.48-.29-15.71-.31-3.67-.01-7.36.07-11.01.38-2.38.2-4.7.89-6.67,2.44-2.13,1.68-2.07,3.41.25,4.69.24.13.48.26.73.36,2.33.89,4.75,1.43,7.25,1.57,5.01.28,9.95-.42,14.84-1.51,6.42-1.44,12.7-3.33,18.78-5.87,1.43-.59,2.81-1.28,4.22-1.92Z"/><path class="cls-5" d="M97.81,52.95c-1.04,1.09-2,2.1-3.02,3.17.78.29,1.69.65,2.62.96,7.66,2.61,15.34,5.24,23.32,6.99,4.04.89,8.15,1.62,12.28,2.04,2.99.3,6.08.35,9.08-.49,2.86-.8,3.72-2.17,4.31-4.94.21-1.01-.7-1.96-1.97-2.26-.96-.23-1.58.15-2.03,1.28-.17.42-.26.87-.42,1.4.33,0,.51-.03.66,0,.44.08,1.16.09,1.24.31.16.43.12,1.09-.13,1.48-1.05,1.67-3.64,1.94-5.18.68-1.95-1.61-1.72-4.98.1-6.86,2.79-2.89,7.98-1.73,9.08,2.04.77,2.65-.01,5.03-1.75,7.13-1.99,2.39-4.76,3.18-7.72,3.48-1.26.13-2.52.18-3.78.19-4.32.05-8.54-.63-12.74-1.46-9.15-1.8-17.93-4.69-26.65-7.68-1.37-.47-2.72-1.02-4.11-1.43-.55-.16-1.26-.21-1.78-.01-3.58,1.34-7.26,2.16-11.05,2.48-5.51.46-10.91.14-16.16-1.42-3.07-.91-5.96-2.23-8.24-4.47-2.02-1.99-3.13-4.42-2.84-7.37.17-1.69,1.56-3.26,3.44-3.45,1.74-.18,3.55-.23,5.27.03,5.59.85,10.87,2.77,16.16,4.62,4.36,1.53,8.7,3.12,13.09,4.62.4.14,1.06-.08,1.45-.35,2.23-1.54,3.82-3.56,4.76-6.09,1.48-3.98,2.17-8.08,1.96-12.26-.13-2.63-.83-5.12-2.64-7.14-.93-1.04-2.81-2.19-4.29-1.6-2.24.9-3.46,3.68-2.35,5.65.14.24.33.51.57.64.31.17.77.38,1.02.27.24-.11.35-.61.43-.95.07-.31.02-.64.03-.96.02-1.06.56-1.88,1.41-2.13.94-.28,2,.08,2.59.88,1.3,1.76,1.1,4.04-.46,5.41-1.52,1.33-4.25,1.25-5.81-.16-1.85-1.68-2.3-4.64-1.11-7.27,2.19-4.82,7.59-5.85,11.33-2.21,2.23,2.17,3.39,4.86,3.77,7.86.39,3.01.21,6.05-.24,9.08-.4,2.71-1,5.37-2.11,7.92-.1.23.08.66.27.89,1.33,1.62,3.25,2.08,5.24,2.22,2.11.15,4.23.21,6.35.15,2.08-.06,4.17-.33,6.25-.5.21-.02.43-.07.63-.03.33.07.64.21.96.32-.13.33-.22.69-.42.99-.24.37-.61.66-.85,1.04-.75,1.21-1.84,1.58-3.22,1.55-2.22-.05-4.44.04-6.65,0-1.67-.03-3.33-.19-4.99-.29-2.01-.13-3.35-1.19-4.23-2.89-.2-.38-.47-.71-.74-1.12ZM83.96,56.85c0-.11-.01-.22-.02-.34-.18-.09-.35-.19-.53-.26-2.1-.77-4.18-1.6-6.31-2.29-5.62-1.83-11.22-3.67-16.88-5.33-1.97-.58-4.09-.73-6.16-.92-1.22-.11-1.74.63-1.52,1.79.34,1.9,1.36,3.39,2.9,4.48,5.18,3.68,11.29,4.28,17.48,4.44,1.93.05,3.9-.25,5.83-.53,1.74-.25,3.47-.69,5.2-1.05Z"/><path class="cls-56" d="M167.09,88.73c.09-.38.11-.78.27-1.13,2.39-5.35,3.67-10.97,4.46-16.7.41-2.96.88-5.92,1.31-8.87.09-.61.06-1.25.22-1.84.22-.81.8-1.11,1.52-.74,2.31,1.2,4.8,1.31,7.34,1.26,3.62-.06,7.25.02,10.88-.09.98-.03,2.03-.38,2.91-.84,1.45-.75,2.77-.38,3.35,1.14.23.62-.22,1.12-1.08,1.14-1.95.03-3.91.07-5.86.02-1.94-.06-3.61.5-5,1.82-.24.23-.53.64-.46.86.07.24.54.49.85.5,1.48.07,2.96.2,4.34-.64.96-.59,2.72-.11,3.24.85.19.35.17.86.09,1.27-.36,1.8-.88,3.57-1.16,5.38-.29,1.86-.85,2.76-2.44,3.02-.55.09-1.21-.07-1.71-.32-1.52-.75-2.63-.43-3.15,1.18-.34,1.04-.52,2.15-.63,3.23-.19,1.89-1.09,3.05-2.93,3.55-.7.19-1.28.03-1.64-.6-.25-.44-.51-.89-.67-1.36-.2-.55-.16-1.05.57-1.27.94-.28,1.46-.93,1.59-1.88.09-.65.26-1.29.31-1.93.05-.7-.24-1.31-1.04-1.28-.89.04-1.79.18-2.65.43-.61.17-.67.64-.14,1.06.17.13.34.24.5.38.57.47.59,1.15,0,1.6-1.56,1.2-3.12,2.4-4.72,3.55-.31.22-.81.19-1.22.27.06-.4,0-.85.18-1.18.8-1.37,1.69-2.7,2.51-4.06.2-.34.33-.77.35-1.16.06-1.21-.05-2.42.08-3.62.24-2.12.59-4.23.93-6.33.17-1.04.52-1.27,1.57-1.06.53.11,1.03.35,1.55.51,1.4.44,2.23.04,2.72-1.29.29-.8.03-1.34-.82-1.37-1.76-.06-3.53-.05-5.29.03-.95.04-1.56.63-1.72,1.58-.33,1.99-.61,3.98-.97,5.97-.74,4.12-1.12,8.36-2.82,12.24-.94,2.15-2.57,4.03-3.95,5.99-.3.42-.87.65-1.32.97-.09-.07-.19-.13-.28-.2ZM186.72,66.74c-.67,0-1.34-.01-2.01.01-.76.03-1.52.04-2.26.17-.66.11-1.03.66-.9,1.25.07.36.53.68.88.92.23.15.58.16.88.16,1.89,0,3.77.01,5.66-.02.45,0,.93-.08,1.33-.25.64-.27,1.01-.78.88-1.5-.13-.7-.7-.73-1.26-.73-1.07,0-2.13,0-3.2,0ZM185.71,72.81h0c1.25-.01,2.5,0,3.75-.03.67-.02,1.07-.41,1.15-1.06.07-.5.04-1.05-.57-1.15-2.71-.44-5.44-.46-8.16.04-.65.12-1,.7-.92,1.37.08.72.65.84,1.28.84,1.16-.01,2.31,0,3.47-.01Z"/><path class="cls-28" d="M125.73,56.78c.65-.33,1.29-.68,1.96-.97,1.87-.83,3.76-1.63,5.63-2.46.36-.16.68-.38,1.02-.58.6-.34.66-.67.23-1.27-.37-.51-.49-1.21-.66-1.84-.09-.33.02-.71-.03-1.05-.12-.81-.57-1.08-1.32-.73-.84.4-1.62.92-2.46,1.34-.89.45-1.79.86-2.71,1.23-.23.09-.53,0-.81,0,.1-.26.12-.59.3-.76.95-.91,1.98-1.74,2.92-2.67,2.11-2.08,4.2-4.18,6.24-6.32.27-.28.21-.86.33-1.29.14-.51.16-1.12.47-1.49,1.53-1.87,3.13-3.68,4.73-5.5.56-.64.57-1.13-.22-1.55-.18-.09-.35-.25-.45-.42-.12-.21-.26-.52-.18-.7.08-.17.41-.3.65-.34.68-.1,1.4-.04,2.04-.25.4-.14.88-.61.97-1,.3-1.25.49-2.54.61-3.82.12-1.33.69-1.8,2-1.47.29.07.57.17.85.28,1.27.53,1.3.92.74,2.16-.42.94-.57,2.02-.69,3.05-.07.63.68,1.08,1.53.94.61-.11,1.17-.44,1.77-.61.53-.15,1.09-.34,1.61-.29.73.07,1.05.65.99,1.34-.06.75-.65.94-1.29.97-.69.03-1.4-.05-2.08.05-.46.07-1.06.26-1.28.59-.17.25.03.89.26,1.23,1.02,1.47,2.11,2.9,3.18,4.34.65.87.51,1.34-.52,1.73-.23.09-.46.16-.69.23-1.44.44-2.12.13-2.67-1.24-.32-.82-.57-1.66-.91-2.48-.1-.23-.38-.38-.57-.57-.15.21-.38.4-.42.63-.19.95-.38,1.91-.48,2.87-.14,1.29-1.15,2.3-2.48,2.4-.84.06-1.22-.23-1.14-1.05.09-.9.36-1.79.45-2.69.04-.39-.17-.81-.26-1.21-.35.1-.76.13-1.04.33-1.13.8-2.22,1.64-3.32,2.48-.58.45-.58.84.11,1.19.5.26.99.54,1.46.86.76.52.77,1.14.07,1.74-.18.16-.4.28-.54.47-.4.54-.21,1.08.44,1.06,1.67-.05,3.38-.06,5.01-.4,1.03-.21,1.81-.2,2.55.47,1.4,1.26,2.37,1.82-.02,3.45-2.78,1.91-5.43,4.01-8.27,5.82-3.43,2.18-7.29,3.31-11.26,4.01-.74.13-1.5.15-2.24.22-.04-.15-.08-.29-.12-.44ZM139.85,45.11s0,0,0,0c-.57,0-1.16-.08-1.71.03-.9.19-1.83.41-2.65.79-.77.36-.76,1.03-.03,1.41,1.07.56,1.58,1.36,1.52,2.55-.03.61.33.84.87.51.53-.32,1.01-.74,1.5-1.13,1.03-.83,2.07-1.64,3.05-2.52.3-.27.41-.73.61-1.11-.39-.18-.77-.46-1.18-.52-.65-.08-1.32-.02-1.98-.01Z"/><path class="cls-35" d="M180.02,37.34c.53-.26,1.06-.51,1.58-.79,1.27-.68,2.8-.02,3.08,1.37.11.55-.13.97-.71,1.04-.96.12-1.93.19-2.89.22-1.53.05-2.06.41-2.29,1.86-.6,3.76-1.16,7.53-1.74,11.29-.13.85-.27,1.7-.49,2.53-.45,1.77-2.96,3.15-4.76,2.61-.29-.09-.53-.37-.74-.6-.19-.22-.31-.5-.47-.75-1.01-1.62-.88-1.88,1.04-2.15,1.2-.17,1.78-.66,1.97-1.87.6-3.76,1.19-7.52,1.71-11.29.19-1.36-.11-1.58-1.56-1.58-4.94.03-9.87.06-14.8.09-.27,0-.59.08-.8-.03-.3-.16-.71-.45-.72-.71,0-.26.36-.62.66-.78.26-.14.65-.08.98-.08,5.74-.04,11.5-.07,17.25-.11.3,0,.61.02.91-.04.72-.12.83-.47.4-1.04-1.44-1.89-3.32-3.27-5.34-4.52-.81-.5-1.41-.12-2.07.32-1.53,1.02-3.02,2.1-4.63,2.98-.93.51-2.04.71-3.09.97-.31.08-.69-.11-1.03-.18.24-.28.43-.61.72-.83,1.34-1.06,2.73-2.06,4.05-3.14.5-.41.88-.98,1.25-1.52.67-.97.36-1.6-.83-1.6-1.41,0-2.83.12-4.25.19-.27.01-.6.09-.8-.03-.34-.2-.59-.53-.88-.8.32-.25.63-.7.95-.71,1.93-.08,3.87-.06,5.8-.08,1.46-.01,1.89-.3,2.35-1.63.28-.81.44-1.65.71-2.47.32-.98.74-1.22,1.76-1.08,2.72.37,2.92.71,1.87,3.18-.1.25-.2.49-.29.75-.23.71.1,1.17.79,1.15,1.93-.05,3.92.43,5.7-.92.89-.68,2.19-.46,2.67.31.25.41.39,1.03.25,1.46-.09.27-.78.51-1.21.52-2.4.07-4.79.02-7.18.1-.7.02-1.45.21-2.08.51-.33.15-.52.71-.62,1.11-.02.1.54.44.86.49,1.63.26,3.28.41,4.92.68,2.64.43,3.57,2.67,2.07,4.89-.09.13-.14.3-.21.45l.18.22Z"/><path class="cls-54" d="M148.85,73.65c.07-.44.07-.9.23-1.3,1.36-3.31,2.75-6.61,4.12-9.91.31-.74.57-1.5.86-2.25.42-1.1.92-1.36,2.02-1.02,2.14.66,2.85,1.05,1.25,3.22-.56.77-.97,1.65-1.41,2.5-.42.81-.2,1.2.69,1.22,1.48.02,2.97.08,4.45-.04.65-.05,1.3-.44,1.9-.78.86-.49,1.72-.59,2.61-.24.77.3,1.09.95.99,1.72-.1.75-.78.88-1.39.91-1,.06-2,.01-3,.04-1.18.03-1.83.41-2.05,1.52-.44,2.18-.77,4.37-1.09,6.57-.09.64.34,1.08,1.01,1.15,1.2.13,2.36,0,3.36-.8.65-.52,1.4-.66,2.1-.19.6.41,1.12.96.92,1.79-.21.83-1.02.73-1.58.77-1.08.08-2.17-.07-3.26-.06-.75.01-1.53.04-2.23.27-.36.12-.76.65-.84,1.04-.41,2.1-.74,4.21-1.05,6.32-.29,2.03-.46,4.07-.79,6.09-.18,1.13-2.19,2.16-3.23,1.68-.31-.14-.59-.78-.54-1.15.63-4.08,1.33-8.15,2.02-12.21.25-1.48-.11-1.91-1.61-1.91-1.51,0-3.03,0-4.54,0-.55,0-1.16-.1-1.12-.72.02-.28.62-.73.98-.76,1.6-.11,3.2-.11,4.8-.13,1.64-.02,2.1-.47,2.32-2.09.25-1.88.62-3.74.84-5.62.05-.45-.13-1.15-.46-1.37-.38-.25-1.17-.29-1.56-.06-.64.39-1.12,1.06-1.61,1.64-1.05,1.23-2.06,2.5-3.1,3.73-.18.22-.45.37-.67.55l-.33-.13Z"/><path class="cls-36" d="M145.88,87.92c-.65-.22-1.05-.28-1.37-.48-.7-.43-1.02-1.06-.78-1.89.24-.86.92-1.16,1.72-1.21,1.02-.06,1.88.56,2.18,1.53.34,1.1.25,2.18-.37,3.18-1.06,1.72-2.43,3.11-4.33,3.97-2.56,1.15-4.77-.04-5.18-2.75-.35-2.35.3-4.55,1.07-6.69,1.01-2.8,2.23-5.53,3.36-8.29.1-.24.19-.48.34-.83-1.05.11-1.96.23-2.88.31-1.58.15-2.46-.47-2.38-1.66.06-.98.93-1.62,1.92-1.59,1.13.04,2.26-.06,3.39-.12,1.25-.07,2.55-.4,3.49.81.79,1.02.81,2.21.49,3.31-.66,2.28-1.56,4.5-2.28,6.77-.68,2.12-1.29,4.27-1.84,6.42-.11.41.22.93.34,1.39.41-.12.91-.13,1.22-.37.65-.5,1.2-1.13,1.9-1.81Z"/><path class="cls-53" d="M112.78,38.91c-2.3.01-4.6.02-6.9.05-.71.01-1.42.15-2.13.17-.6.02-1.17-.11-1.14-.89.03-.72.57-.86,1.14-.85,1.7.02,3.39.11,5.09.13,1.32.01,1.85-.46,2.04-1.73.09-.61.17-1.22.26-1.82.14-.9-.29-1.46-1.21-1.53-1.21-.09-2.14.42-2.9,1.32-.52.61-1.03,1.23-1.59,1.81-.16.16-.47.17-.71.25-.06-.26-.23-.55-.16-.78.71-2.52,1.44-5.04,2.2-7.54.24-.79.84-1.09,1.67-.9.23.05.46.1.68.18,1.49.54,1.66,1.05.84,2.41-.12.2-.3.42-.31.63-.02.32-.01.75.18.93.2.18.79.27.95.13.43-.39.93-.9,1.04-1.42.36-1.66.58-3.34.81-5.02.11-.85.6-1.1,1.37-.99.47.07.94.15,1.39.29,1.14.37,1.19.78.82,1.92-.43,1.33-.72,2.71-.9,4.09-.13,1.02.59,1.4,1.57.96.33-.15.62-.36.92-.55,1.15-.72,2.54-.24,2.94,1.03.2.62-.18,1.14-.94,1.18-1.05.05-2.09.02-3.14.04-1.42.02-1.95.46-2.15,1.85-.11.75-.15,1.51-.22,2.27-.06.63.31.92.89.97,1.21.1,2.37-.03,3.43-.76,1.12-.78,2.4-.39,2.94.82.32.71-.1,1.29-1.02,1.32-1.2.04-2.4.03-3.59.03-1.38,0-2.75.02-4.13.03Z"/><path class="cls-43" d="M133.64,111.33c-.77.36-1.62.83-2.53,1.16-1.11.4-1.67.01-1.57-1.14.13-1.39.43-2.76.65-4.14.06-.41.12-.83.1-1.24,0-.24-.1-.6-.26-.67-.19-.08-.61.02-.73.18-.55.73-1.18,1.46-1.48,2.29-.37,1.02-.42,2.15-.63,3.23-.13.68-1.67,1.73-2.28,1.49-.23-.09-.43-.62-.38-.92.21-1.35.52-2.69.78-4.03.1-.52.2-1.06.22-1.59.01-.23-.11-.54-.28-.69-.1-.09-.45.02-.64.12-.99.57-1.47,1.51-1.73,2.53-.27,1.03-.4,2.1-.59,3.16-.12.63-1.82,1.69-2.34,1.38-.22-.13-.35-.61-.31-.89.24-1.53.59-3.04.83-4.56.1-.66.03-1.34.04-2.07-.23,0-.39.04-.51,0-.27-.1-.53-.24-.79-.36.18-.2.33-.46.56-.57.54-.26,1.11-.47,1.69-.66,1.51-.52,1.6-.47,1.99,1.11.25-.13.48-.23.7-.36.33-.21.63-.47.98-.65,1.44-.77,2.38-.46,3.31,1.11.19-.13.37-.28.56-.39.6-.34,1.16-.79,1.81-.99,1.49-.45,2.5.52,2.23,2.04-.27,1.49-.53,2.99-.84,4.48-.15.72.13.93.81.87.31-.03.63.02,1.01.04-.02.01.05-.01.08-.06q.97-1.53,2.05-.15c.09.12.16.25.27.36.62.64,1.57.72,2.12.21.53-.49.44-1.32-.31-1.93-.55-.45-1.21-.77-1.81-1.17-1.51-1.02-1.56-2.77-.12-3.88,1.44-1.11,3.8-1.19,5.3-.18.14.09.34.34.32.37-.33.45-.64.94-1.08,1.28-.16.12-.65-.07-.93-.22-.31-.17-.53-.49-.83-.68-.47-.3-1.03-.28-1.24.24-.14.34-.04.98.21,1.22.51.48,1.22.75,1.82,1.15,1.89,1.26,1.85,3.33-.06,4.6-1.3.86-2.71,1.26-4.21.72-.65-.23-1.2-.69-1.92-1.12Z"/><path class="cls-23" d="M130.06,39.56c.08-.51.23-1.2.3-1.89.03-.26-.02-.65-.2-.78-.16-.13-.58-.09-.81.02-.61.32-1.18.72-1.76,1.09-.18.11-.34.31-.52.33-.33.05-.68,0-1.02,0,.07-.29.07-.63.24-.86.96-1.36,1.96-2.69,2.95-4.04.19-.26.42-.52.54-.82.18-.44.28-.91.41-1.37-.58-.15-1.15-.33-1.74-.44-.37-.07-.79.06-1.13-.05-.28-.09-.48-.39-.71-.6.28-.27.53-.72.84-.77.73-.13,1.49-.06,2.24-.07,1.62-.02,2.1-.42,2.31-1.97.15-1.13.29-2.26.42-3.39.1-.84.5-1.21,1.37-1.16.41.02.83.1,1.23.22,1.22.37,1.31.85.85,2.04-.39,1-.55,2.09-.69,3.16-.09.64.52.96,1.16.7.25-.1.48-.25.73-.35,1-.42,1.85-.12,2.33.82.29.58.17,1.1-.49,1.26-.69.17-1.42.16-2.13.22-.64.05-1.48-.12-1.68.67-.24.91.68.91,1.25,1.15.85.35,1.62.8,1.7,1.82.07.82-.42,1.52-1.16,1.68-.81.17-1.28-.23-1.6-.93-.13-.29-.44-.49-.67-.73-.18.31-.46.6-.52.93-.23,1.15-.37,2.32-.59,3.47-.21,1.1-.89,1.76-2.05,1.96-1.03.18-1.41-.08-1.39-1.29Z"/><path class="cls-38" d="M102.67,104.04c-.29.39-.48.72-.74,1-.45.49-.94.63-1.45.05-.17-.2-.41-.34-.62-.51-.5-.41-1.02-.38-1.43.11-.48.57-.1,1.03.34,1.35.52.38,1.12.67,1.68,1,1.67.99,1.93,2.89.48,4.19-1.68,1.5-4.19,2.02-6.15.36-.17-.14-.58-.13-.83-.04-.73.27-1.41.68-2.15.91-1.02.31-1.64-.22-1.49-1.29.17-1.23.44-2.45.66-3.68.1-.55.23-1.11.29-1.66.06-.52.07-1.06-.77-.9-.23.04-.49-.13-.8-.23-.13.17-.3.34-.42.54-.6.93-.65.91-1.61.38-.24-.13-.78-.07-.97.11-1.22,1.18-1.71,2.71-1.95,4.32-.22,1.48-.63,1.99-2.11,2.34-.65.16-.84-.15-.75-.71.33-1.93.67-3.85,1.02-5.78.12-.65.14-1.16-.79-1.01-.15.02-.47-.19-.49-.33-.02-.17.15-.47.31-.54.89-.36,1.8-.69,2.71-.96.51-.16.89.03.9.64,0,.23.03.46.07.9.38-.37.64-.62.92-.87.95-.86,1.83-.99,2.82-.25.67.5,1.25.49,1.96.16.49-.23,1.01-.41,1.53-.54.87-.23,1.25.02,1.14.9-.23,1.7-.57,3.39-.87,5.08-.02.09-.07.18-.06.26.06.39.14.77.21,1.15.55-.13,1.12-.24,1.65-.42.16-.05.25-.32.39-.48.36-.42.64-.38,1,.06.41.52.89,1.01,1.43,1.39.57.4,1.19.09,1.47-.42.19-.36.19-1.05-.05-1.34-.41-.5-1.06-.83-1.63-1.19-.82-.51-1.64-.96-1.58-2.14.06-1.17.73-2.07,2-2.59,1.67-.69,3.16-.29,4.73.67Z"/><path class="cls-45" d="M103.3,50.05c.27-1.76.57-3.75.88-5.75.11-.69.23-1.39.32-2.08.16-1.18.72-1.5,1.86-1.12,1.2.39,2.4.93,3.64,1.01,1.35.09,2.74-.26,4.11-.44.58-.08,1.16-.29,1.74-.28,1.09.02,1.7.96,1.49,2.02-.4,1.95-.77,3.9-1.1,5.86-.23,1.41-.76,2.12-2.16,2.32-.51.07-1.08-.24-1.61-.41-.57-.19-1.1-.55-1.68-.6-1.83-.17-3.64.03-5.31.93-.13.07-.28.09-.43.13-1.43.38-1.79.1-1.75-1.59ZM110.81,43.68c-.63,0-1.25,0-1.88.01-.71.03-1.23.39-1.37,1.07-.2.97-.37,1.96-.44,2.95-.08,1.03.26,1.37,1.32,1.42.89.04,1.79.04,2.68-.02,1.37-.09,1.84-.54,2.07-1.88.14-.81.26-1.62.34-2.43.06-.64-.23-1.09-.93-1.12-.59-.03-1.19,0-1.79,0Z"/><path class="cls-22" d="M30.89,86.59c.86.09,1.74.13,2.59.27,1.29.21,1.48.12,2.04-1.05.41-.87.85-1.73,1.28-2.59l.27-.02c.37.86.73,1.72,1.12,2.57.6,1.31.68,1.32,2.15,1.07.83-.14,1.67-.18,2.51-.27.05.07.1.15.15.22-.6.82-1.14,1.69-1.82,2.44-.62.69-.63,1.21-.04,1.89.64.74,1.14,1.59,1.71,2.39-.04.08-.08.16-.12.24-.82-.06-1.64-.13-2.46-.19-.38-.03-.78-.17-1.13-.08-.34.09-.74.33-.91.63-.54.97-.99,2-1.47,3-.09,0-.18.02-.28.02-.39-.85-.79-1.7-1.16-2.56-.5-1.16-.7-1.28-1.99-1.1-.73.11-1.46.22-2.19.3-.18.02-.38-.06-.7-.12.74-1,1.36-1.92,2.07-2.78.41-.5.47-.84.05-1.36-.68-.85-1.24-1.78-1.86-2.68.06-.08.11-.17.17-.25Z"/><path class="cls-37" d="M45.39,104.51c.7-.43,1.3-.86,1.94-1.18,1.54-.78,2.37-.45,2.97,1.21.22-.17.41-.35.62-.48.53-.32,1.04-.73,1.62-.92,1.55-.52,2.5.18,2.35,1.78-.11,1.23-.43,2.44-.65,3.66-.07.38-.11.76-.16,1.14-.07.58.13.82.76.71.21-.04.46.17.69.26-.14.22-.24.53-.44.65-.56.34-1.15.67-1.77.86-.47.15-1.2.3-1.47.06-.33-.29-.46-1-.4-1.5.13-1.17.43-2.32.63-3.48.09-.52.12-1.06.12-1.58.01-.63-.39-.77-.78-.36-.58.61-1.23,1.26-1.52,2.02-.38,1.01-.53,2.12-.62,3.2-.06.68-.21,1.13-.91,1.3-.58.14-1.16.31-1.74.46.03-.61,0-1.24.09-1.84.24-1.48.57-2.96.8-4.44.04-.26-.11-.65-.31-.81-.12-.09-.55.08-.76.24-1.54,1.12-1.75,2.83-1.99,4.5-.22,1.5-.56,1.96-1.96,2.37-.67.2-.99-.06-.87-.74.33-1.89.66-3.78,1.01-5.66.12-.67.21-1.23-.79-1.05-.14.03-.44-.17-.45-.27,0-.19.1-.51.25-.57.91-.37,1.82-.74,2.76-1.01.55-.16.91.12.88.76,0,.22.04.44.08.74Z"/><path class="cls-39" d="M170.93,43.06c-.24.88-.55,1.78-.74,2.7-.24,1.21-.41,2.44-.58,3.66-.16,1.13-1.01,1.51-1.98,1.82-.84.26-1.19-.24-1.61-.77-.84-1.07-2.7-.89-4.04.23-.55.46-1.25.84-1.94.99-.84.18-1.24-.4-1.11-1.23.45-2.79.88-5.57,1.3-8.36.1-.65.37-1.08,1.1-1,.5.06,1.03.1,1.49.29,1.75.71,3.47.77,5.26.02,1.45-.62,2.94.27,2.85,1.66ZM164.33,48.13c1.01.08,1.98.08,2.24-.76.33-1.1.3-2.29.42-3.44,0-.06-.1-.14-.16-.2-.99-.88-3.39-.29-3.74.99-.23.81-.32,1.68-.31,2.52,0,.3.44.68.78.86.25.14.65.02.78.02Z"/><path class="cls-48" d="M3.5,111.66c.17-.19.32-.52.53-.56.79-.17.93-.77,1.03-1.38.43-2.52.84-5.04,1.25-7.56.05-.33.02-.67.03-1.06-.29.01-.44.06-.57.02-.21-.07-.41-.19-.61-.29.14-.26.25-.72.42-.75,2.4-.44,4.82-.91,7.18.08,1.33.55,2,1.6,2.29,2.97.66,3.12-.87,6.54-3.17,7.89-.9.53-2.03.81-3.08.91-1.46.15-2.94.04-4.41.03-.26,0-.51-.04-.77-.06-.04-.08-.09-.16-.13-.24ZM12.68,104.61c-.12-.49-.24-1.33-.52-2.11-.39-1.1-1.27-1.6-2.43-1.65-.55-.02-.84.1-.94.74-.42,2.81-.92,5.61-1.36,8.42-.12.75.47.97,1,.84.72-.18,1.5-.45,2.07-.9,1.58-1.27,1.96-3.1,2.19-5.34Z"/><path class="cls-57" d="M182.63,90.54c.4,0,.8-.03,1.19,0,1.84.17,3.17-.55,4.12-2.1.63-1.02,1.01-.97,1.55.07.08.16.16.32.25.48,1.09,1.95.16,3.79-2.11,4.25-1.9.38-3.8.45-5.73.21-1.14-.14-2.32,0-3.48-.05-.57-.02-1.15-.13-1.7-.29-.84-.25-1.35-.82-1.24-1.74.26-2.25.52-4.49.84-6.73.09-.64.57-.98,1.26-.89.36.05.72.11,1.07.21,1.36.4,1.52.72,1.18,2.08-.25.98-.53,1.97-.65,2.97-.14,1.15.26,1.52,1.43,1.53.67,0,1.34,0,2.02,0Z"/><path class="cls-47" d="M75.22,104.42c.99-.47,1.82-.96,2.71-1.25,1.77-.58,2.64.26,2.29,2.07-.29,1.48-.53,2.97-.81,4.45-.12.62.05.9.74.81.24-.03.5.13.74.21-.16.25-.26.62-.49.73-.77.39-1.57.75-2.39,1.03-.79.27-1.27-.06-1.18-.88.17-1.67.46-3.34.69-5,.03-.23.1-.47.09-.7-.01-.72-.4-.94-1.06-.6-.94.49-1.51,1.29-1.75,2.28-.27,1.09-.47,2.2-.66,3.31-.12.7-1.66,1.81-2.29,1.53-.23-.11-.42-.63-.37-.94.23-1.52.57-3.02.84-4.54.38-2.21.75-4.43,1.1-6.64.1-.62-.06-1.05-.85-.98-.2.02-.43-.18-.64-.28.15-.21.25-.54.46-.63.77-.33,1.57-.6,2.36-.86,1-.33,1.52.07,1.38,1.1-.19,1.4-.46,2.8-.68,4.2-.08.52-.14,1.03-.21,1.59Z"/><path class="cls-10" d="M130.45,89.56c-.43.38-.72.62-.99.88-.69.69-1.45,1.21-2.49.88-1.13-.36-1.52-1.32-1.66-2.33-.52-3.66,1.81-6.61,5.55-7.18.29-.04.7-.4.77-.67.18-.74.21-1.52.29-2.28.06-.57-.17-.83-.8-.72-.18.03-.39-.12-.59-.18.1-.23.14-.6.3-.66.92-.37,1.85-.72,2.81-.96.69-.17,1.12.16,1.01.92-.28,1.87-.56,3.74-.87,5.61-.27,1.61-.59,3.21-.85,4.81-.17,1.04.21,1.48,1.21,1.59.17.02.43.19.44.31.02.2-.07.51-.22.61-.69.43-1.39.89-2.14,1.16-.77.27-1.22-.27-1.48-.94-.08-.21-.15-.43-.29-.85ZM127.67,87.22c0,.24-.08.5,0,.7.19.44.37,1,.74,1.21.2.12.83-.29,1.16-.58,1.09-.97,1.25-2.29,1.42-3.63.07-.54.17-.98-.4-1.29-.58-.31-1.1-.19-1.58.22-1.04.9-1.23,2.12-1.35,3.37Z"/><path class="cls-25" d="M70.8,90.02c-.24,1.66-.44,3.05-.66,4.44-.04.22-.16.51-.33.61-.41.24-.87.4-1.32.57-.79.3-1.16,0-1.01-.82.39-2.03.8-4.05,1.2-6.08.24-1.24.5-2.49.69-3.74.1-.63.24-1.39-.89-1.16-.12.02-.39-.19-.41-.32-.03-.15.11-.44.24-.49,1-.38,2-.81,3.04-1.01.29-.06.71.59,1.2,1.03.01,0,.24-.16.47-.32.86-.61,1.75-1.08,2.82-.64,1.05.43,1.38,1.37,1.41,2.35.07,2.29-.61,4.38-2.25,6.09-1.19,1.24-2.11,1.24-3.4.13-.19-.16-.39-.31-.79-.63ZM74.9,86.14c-.06-.01-.11-.03-.17-.04,0-.29.03-.59,0-.88-.01-.17-.07-.34-.13-.51-.3-.91-.64-1.06-1.41-.49-1.22.9-1.91,2.12-1.89,3.63.02.9.82,1.16,1.5,1.41.63.23,1.15-.14,1.37-.7.31-.78.49-1.62.72-2.43Z"/><path class="cls-32" d="M116.06,83.78c-.19-.03-.28-.04-.36-.06-.3-.09-.59-.19-.89-.29.23-.22.43-.53.71-.65.63-.29,1.29-.5,1.95-.71,1.07-.35,1.27-.22,1.38.86.01.11.05.23.08.34,0,.02.04.04.03.03.96-.44,1.86-.98,2.85-1.27,1.7-.51,2.5.32,2.15,2.06-.29,1.48-.57,2.97-.82,4.45-.1.57-.03,1.04.8.81.2-.05.45.12.68.19-.12.24-.17.59-.36.7-.71.4-1.44.76-2.2,1.05-1.1.42-1.71-.06-1.57-1.21.14-1.14.38-2.28.57-3.42.1-.61.23-1.22.27-1.84.01-.26-.12-.64-.31-.75-.19-.1-.59,0-.82.13-1.58.98-1.87,2.61-2.14,4.23-.09.52-.13,1.06-.23,1.58-.09.53-1.82,1.52-2.28,1.25-.22-.13-.4-.59-.35-.86.24-1.52.58-3.02.82-4.54.11-.68.04-1.39.05-2.07Z"/><path class="cls-24" d="M110.21,89.72c-.68.52-1.25,1.05-1.91,1.43-1.04.61-2.09.27-2.65-.77-1.53-2.82.22-6.93,3.47-8.13,1.01-.37,2-.6,3.05-.08.27.13.72-.09,1.09-.12.22-.02.57-.07.63.03.11.19.17.53.06.72-.96,1.83-1.1,3.79-1.13,5.78,0,.55.18.91.87.8.2-.03.44.17.65.26-.12.22-.18.53-.36.65-.61.39-1.24.74-1.9,1.04-.6.27-1.05,0-1.34-.52-.19-.35-.35-.72-.53-1.09ZM110.89,84.3c-.1-.13-.25-.55-.54-.65-.34-.12-.85-.09-1.16.09-1.37.77-2.16,3.65-1.44,5.02.29.55.62.67,1.2.22,1.49-1.15,1.7-2.79,1.94-4.68Z"/><path class="cls-12" d="M36.83,110.7c-.37.34-.63.58-.89.81-.71.61-1.39,1.22-2.45.87-1.08-.37-1.46-1.24-1.62-2.22-.51-3.14,1.65-6.32,4.77-7.08.48-.12,1.04-.17,1.49-.03.69.2,1.29.4,2.04.1.47-.19.74.3.48.7-.99,1.49-.91,3.22-1.3,4.85-.08.33-.04.71,0,1.06.06.49.29.8.89.69.2-.04.44.14.66.22-.11.24-.15.57-.33.71-.48.35-1,.66-1.53.92-.94.44-1.48.2-1.88-.77-.09-.21-.18-.43-.33-.81ZM33.97,108.26c.07.03.14.05.21.08,0,.15-.05.32,0,.44.22.51.48,1.01.72,1.51.44-.31.91-.58,1.31-.93,1.18-1.06,1.09-2.57,1.31-3.94.04-.24-.55-.8-.82-.78-.5.05-1.18.29-1.42.68-.55.91-.89,1.95-1.31,2.94Z"/><path class="cls-40" d="M95.07,89.54c-.29.38-.52.82-.87,1.13-1.56,1.35-3.31.79-3.82-1.17-.37-1.43-.18-2.83.49-4.12.91-1.73,2.26-3.03,4.29-3.35.61-.1,1.27.09,1.9.12.43.02.85-.01,1.28-.02.22,0,.59-.08.63,0,.1.2.08.48.03.72-.37,1.78-.81,3.55-1.13,5.33-.13.7,0,1.43,1.09,1.16.12-.03.38.13.4.23.03.18-.02.48-.15.55-.73.46-1.46.98-2.27,1.23-.31.1-.87-.44-1.23-.77-.19-.17-.22-.53-.32-.8-.11-.08-.23-.15-.34-.23ZM92.64,87.5c.03.21.02.63.15,1.01.3.91.62.93,1.38.31,1.28-1.03,1.58-2.44,1.77-3.92.07-.54.12-1.18-.56-1.28-.45-.06-1.09.09-1.43.38-.97.86-1.25,2.04-1.31,3.49Z"/><path class="cls-59" d="M114.53,110.73c-.33.4-.54.85-.88,1.02-.72.35-1.55.83-2.28.76-1.05-.1-1.58-1.1-1.72-2.05-.49-3.39,1.2-6.22,4.41-7.18.75-.22,1.63,0,2.45,0,.4,0,.81-.04,1.21-.04.22,0,.53-.03.64.1.11.13.08.43.03.64-.38,1.64-.9,3.26-1.13,4.92-.22,1.56-.06,1.61,1.42,1.67.12.76-.79,1.66-2.21,1.99-1.28.3-1.31-.92-1.94-1.83ZM111.94,108.53c.05.32.06.72.18,1.08.3.95.66.97,1.46.35,1.29-.99,1.5-2.38,1.69-3.8.07-.51.29-1.07-.43-1.36-.66-.27-1.17-.05-1.63.4-.92.91-1.1,2.08-1.26,3.34Z"/><path class="cls-13" d="M63.64,89.65c-.38.35-.65.58-.9.82-.66.66-1.39,1.19-2.37.9-1.1-.32-1.54-1.23-1.71-2.26-.52-3.17,1.79-6.45,4.99-7.1.45-.09.96-.08,1.4.05.63.18,1.21.45,1.86.02.1-.07.44.03.51.15.1.17.14.48.04.63-1.03,1.56-.91,3.39-1.3,5.1-.06.24.06.52.09.78.06.52.24.82.87.63.17-.05.57.11.6.24.05.19-.09.51-.25.64-.45.34-.94.64-1.45.9-1.03.53-1.6.32-2.03-.71-.09-.21-.18-.42-.35-.79ZM60.8,87.31c.06.02.13.04.19.07,0,.15-.05.32,0,.44.22.48.47.95.7,1.43.45-.29.95-.52,1.34-.87,1.18-1.06,1.02-2.58,1.33-3.93.04-.18-.18-.49-.36-.64-.61-.49-1.53-.31-1.97.51-.51.95-.83,1.99-1.24,3Z"/><path class="cls-51" d="M68.51,99.57c.56.13,1.36.23,2.1.5.85.31.91.65.47,1.43-.04.08-.1.15-.15.22-.8,1.32-1,1.34-2,.16-.93-1.1-2.49-1.04-3.44.23-1.43,1.91-1.99,4.06-1.47,6.38.42,1.88,1.96,2.61,3.75,1.84.44-.19.83-.48,1.27-.67.26-.11.56-.1.85-.14-.07.34-.03.81-.24,1-.58.51-1.23.98-1.92,1.32-2.4,1.19-4.99.46-5.91-1.6-.87-1.94-.6-3.89.13-5.78.9-2.32,2.42-4.11,5-4.71.43-.1.88-.11,1.58-.18Z"/><path class="cls-58" d="M48.79,86.95c.36-3.56,1.45-6.27,4.5-7.79,1.63-.82,3.33-.74,4.99-.04.65.27.74.67.39,1.24-.09.15-.19.3-.29.45-.72,1.19-1.02,1.2-1.85.1-.83-1.1-2.51-1.09-3.44.12-1.49,1.93-2.04,4.14-1.53,6.49.39,1.78,2.12,2.51,3.8,1.7.43-.21.84-.46,1.28-.63.23-.09.52-.04.78-.06-.06.29-.02.69-.2.85-.56.48-1.16.94-1.81,1.29-2.35,1.27-4.84.74-5.93-1.33-.43-.82-.53-1.82-.69-2.38Z"/><path class="cls-21" d="M23.68,109.03c-.26-2.39,2.27-5.15,4.15-5.82.3-.11.63-.2.95-.22,1.29-.11,2.14.26,2.45,1.11.38,1.05,0,1.97-.86,2.58-1.06.75-2.22,1.34-3.36,1.97-.44.24-1.01.32-.76,1.04.26.74,1,1.24,1.62.96.67-.3,1.28-.75,1.95-1.07.27-.13.62-.1.93-.14-.09.32-.08.78-.29.95-.79.62-1.6,1.27-2.5,1.7-2.59,1.24-4.61-.73-4.27-3.06ZM26.35,107.49c.58-.32,1.21-.53,1.61-.94.37-.38.63-.97.72-1.5.07-.41-.29-.68-.78-.48-.87.35-1.67,1.74-1.55,2.92Z"/><path class="cls-27" d="M104.67,78.22c-.3,1.75-.69,4.02-1.07,6.29-.23,1.37-.47,2.74-.68,4.11-.11.67.15.95.87.72.19-.06.43.04.64.07-.08.26-.08.67-.25.76-.93.47-1.88.95-2.87,1.26-.67.21-1.25-.55-1.1-1.43.46-2.83.98-5.65,1.44-8.47.14-.87.22-1.75.31-2.63.05-.51-.14-.77-.73-.7-.23.02-.48-.16-.71-.25.17-.22.3-.55.52-.65.65-.3,1.34-.53,2.03-.74,1.32-.42,1.63-.19,1.6,1.67Z"/><path class="cls-60" d="M85.06,83.76c-.55-.26-.92-.44-1.29-.61.36-.28.73-.55,1.07-.85.23-.2.53-.41.6-.66.32-1.26,1.46-1.49,2.41-1.93.08-.04.32.29.48.46.02.02-.04.11-.06.16-.51,1.8-.51,1.79,1.34,1.94.22.02.42.15.64.22-.11.22-.19.47-.34.67-.41.53-.87.86-1.6.49-.17-.09-.72.12-.75.24-.26,1.42-.51,2.85-.65,4.28-.1,1.04.27,1.24,1.29.94.44-.13,1.01-.7,1.33-.05.36.72-.47.9-.88,1.21-.43.32-.91.59-1.4.81-.75.34-1.55.61-2.28.02-.7-.57-.89-1.39-.77-2.24.18-1.31.44-2.62.67-3.92.07-.43.13-.86.17-1.18Z"/><path class="cls-9" d="M104.35,104.92c-.55-.28-.92-.46-1.28-.64.36-.29.73-.55,1.06-.87.26-.25.55-.52.68-.83.28-.68,1.71-1.83,2.41-1.78.15.01.39.33.38.5-.04.44-.16.87-.3,1.3-.21.63.08.81.65.8.36-.01.73-.02,1.08.02.19.02.46.13.5.26.05.14-.09.39-.22.53-.47.49-.89,1.13-1.73.54-.11-.08-.69.19-.73.36-.27,1.37-.52,2.74-.65,4.13-.1,1.04.4,1.34,1.4,1.02.23-.07.45-.23.68-.24.2-.02.51.05.58.18.09.16.06.52-.06.63-1.02.92-2.19,1.66-3.58,1.79-1.13.1-1.94-1.35-1.69-2.73.3-1.69.56-3.38.82-4.97Z"/><path class="cls-29" d="M20,104.61c.2-.33.33-.73.6-.98.96-.89,2.07-.89,3.01-.03.13.12.24.44.17.58-.27.53-.55,1.07-.95,1.49-.16.17-.79.16-.97-.01-.63-.58-1.05-.27-1.47.23-.93,1.13-1.4,2.46-1.68,3.86-.05.23-.08.46-.13.69-.23,1.02-1.07,1.77-2.11,1.86-.61.05-.65-.34-.57-.81.35-1.91.69-3.81,1.04-5.72.11-.6.13-1.09-.74-.95-.17.03-.37-.17-.56-.27.12-.21.2-.51.37-.6.58-.29,1.2-.52,1.81-.73,1.41-.5,1.6-.38,1.81,1.04.12.11.25.23.37.34Z"/><path class="cls-26" d="M82.31,83.68c-.24,1.25-.54,2.9-.87,4.55-.22,1.1-.18,1.15.89,1.08.17-.01.48.1.49.2.03.2-.03.55-.16.61-.96.48-1.92.99-2.94,1.3-.65.2-1.12-.5-.99-1.39.23-1.52.5-3.02.75-4.54.05-.29.09-.58.11-.87.04-.46-.03-.8-.65-.79-.21,0-.43-.28-.65-.43.18-.18.32-.43.54-.52.63-.27,1.28-.5,1.94-.71,1.39-.46,1.57-.33,1.53,1.51Z"/><path class="cls-4" d="M26.2,80.28c1.67.42,2.74.06,3.03-1.67.07.03.15.06.22.09.32.55.52,1.28,1,1.58.47.29,1.23.13,2.12.17-1.25,1.11-1.38,2.2-.02,3.39-.64.04-1.01.16-1.3.06-.91-.31-1.23.21-1.49.91-.09.24-.23.46-.47.92-.31-.57-.56-.94-.7-1.35-.18-.5-.44-.68-1-.55-.38.09-.79.02-1.31.02.37-.66.92-1.21.93-1.76,0-.52-.54-1.03-1.01-1.82Z"/><path class="cls-41" d="M195.48,88.82c0,1.26-.38,1.93-1.26,2.26-.89.33-1.85-.01-2.05-.91-.37-1.62-.64-3.26-.87-4.9-.1-.71.42-1.01,1.14-.76,1.54.52,3.05,2.66,3.04,4.32Z"/><path class="cls-14" d="M195.57,80.05c-.29.86-.49,1.47-1.24,1.81-.83.37-1.57.12-2.08-.45-.98-1.12-1.87-2.33-2.75-3.54-.16-.22-.26-.73-.13-.87.21-.21.69-.37.96-.29,1.32.43,2.68.82,3.87,1.49.62.34.92,1.22,1.36,1.85Z"/><path class="cls-7" d="M173.86,87.76c.16,1.07-.25,2.15-1.04,3.07-.34.39-.82.71-1.29.94-.65.32-1.38.3-1.82-.3-.48-.65-.4-1.43.12-2.08.87-1.07,1.76-2.13,2.7-3.15.23-.25.65-.32.99-.48.12.31.28.61.34.93.06.29,0,.59,0,1.05Z"/><path class="cls-52" d="M183.62,87.85c-.14-.1-.67-.3-.8-.65-.34-.94-.6-1.93-.72-2.92-.11-.93.56-1.32,1.39-.85.92.52,2.01.89,2.29,2.11.27,1.21-.56,2.29-2.16,2.31Z"/><path class="cls-30" d="M93.91,99.12c.68-.05,1.09.24,1.06,1.02-.03.89-.79,1.63-1.73,1.59-.57-.02-1.07-.25-1.11-.92-.05-.92.75-1.68,1.78-1.69Z"/><path class="cls-19" d="M80.6,79.61c.01-.87.78-1.57,1.7-1.59.7-.01,1.07.35,1.11.98.05.78-.94,1.65-1.82,1.65-.67,0-1-.34-.99-1.05Z"/></g></svg>