<?xml version="1.0" encoding="UTF-8"?>
<svg xmlns="http://www.w3.org/2000/svg" version="1.1" viewBox="0 0 974.71 998.13">
  <defs>
    <style>
      .cls-1 {
        fill: #fff;
      }
    </style>
  </defs>
  <!-- Generator: Adobe Illustrator 28.7.4, SVG Export Plug-In . SVG Version: 1.2.0 Build 166)  -->
  <g>
    <g id="_图层_1" data-name="图层_1">
      <g>
        <g>
          <path class="cls-1" d="M764.94,142.13c2.31-2.68,4.58-5.86,6.81-9.52,3.58-5.87,5.82-11.56,6.72-17.06.9-5.51.77-10.64-.39-15.41-1.16-4.77-3.22-9.07-6.17-12.9-2.95-3.83-6.49-7.01-10.62-9.52-2.68-1.64-5.34-3.15-8-4.54-2.65-1.39-5.36-2.62-8.11-3.69-2.75-1.07-5.6-1.95-8.55-2.66l-.09-.02c-5.35-1.27-10.93.96-13.92,5.57-1.88,2.9-3.74,5.8-5.56,8.7-3.31,5.26-6.65,10.57-10.02,15.92-6.75,10.57-13.44,21.11-20.08,31.62-2.75,4.36-5.52,8.73-8.29,13.11-.83,1.31-2.85.54-2.61-.98l14.27-89.03c.69-4.31-1.86-8.48-6.02-9.83l-20.23-6.56c-3.72-1.21-7.79.17-10.02,3.39l-48.87,70.65c-1.46,2.11-4.77,1.11-4.81-1.46l-1.55-87.14c-.08-4.37-3.32-8.02-7.65-8.62l-21.07-2.9c-3.88-.53-7.64,1.54-9.27,5.1l-41.81,91.55c-1.23,2.69.13,5.86,2.94,6.82l21.18,7.22c2.54.87,5.31-.42,6.28-2.92l3.59-9.22c.88-2.27,3.28-3.58,5.67-3.09l6.07,1.24c2.33.48,4,2.53,4,4.9v10.12c0,2.69,2.13,4.9,4.82,5l10.78.39c6.96.25,13.76,2.14,19.86,5.51l12.87,7.12c2.91,1.61,6.56.64,8.29-2.2l4.77-7.82c1.15-1.88,3.48-2.66,5.53-1.85l6.5,2.59c2,.79,3.16,2.88,2.78,5l-2.33,13.05c-.2,1.14.53,2.25,1.67,2.49l22.47,4.86c1.47.32,2.17,2,1.37,3.27l-.03.05c-.65,1.02-.33,2.37.7,3l19.69,12.02c.99.61,2.29.32,2.93-.66l17.71-26.95,6.91,3.83-8.75,30.87c-.67,2.36.67,4.81,3.01,5.54l18.95,5.85c2.65.82,5.41-.93,5.79-3.68l4.56-32.5c3.53-.49,6.77-1.28,9.72-2.38,2.95-1.1,5.71-2.57,8.28-4.42,2.57-1.85,5.01-4.11,7.31-6.8ZM569.79,81.19l-5.74-1.18c-.94-.19-1.49-1.18-1.14-2.08l6.37-16.7c.63-1.65,3.08-1.15,3.02.61l-.63,17.87c-.03.96-.93,1.67-1.87,1.47ZM651.12,106.09l-5.45-2.17c-.89-.36-1.26-1.43-.76-2.25l9.21-15.32c.91-1.51,3.23-.59,2.86,1.13l-3.76,17.48c-.2.94-1.2,1.48-2.1,1.12ZM748.74,114.22c-.59,1.9-1.48,3.83-2.69,5.8-1.43,2.35-3.07,4.12-4.92,5.31-1.85,1.19-3.74,1.94-5.68,2.23-1.94.3-3.88.21-5.81-.26-1.93-.47-3.67-1.18-5.22-2.12h0c-.71-.44-.92-1.37-.46-2.07l15.44-23.51c.36-.55,1.03-.79,1.66-.61.42.12.84.27,1.25.43.76.3,1.5.67,2.23,1.12,1.63.99,2.84,2.2,3.64,3.62.8,1.42,1.24,2.98,1.32,4.67.08,1.69-.17,3.49-.75,5.39Z"/>
          <path class="cls-1" d="M807.64,220.84c3.94-1.97,7.77-4.41,11.49-7.33,3.73-2.92,7.23-6.26,10.52-10.04,5.28-6.05,9.31-12.18,12.11-18.39,2.8-6.21,4.35-12.22,4.67-18.04.32-5.82-.62-11.32-2.81-16.52-2.19-5.2-5.61-9.81-10.24-13.86-2.88-2.51-6.06-4.37-9.55-5.59-3.49-1.22-7.16-1.87-11.01-1.94-3.85-.07-7.79.4-11.82,1.41-4.03,1.01-8.01,2.5-11.95,4.46-3.94,1.97-7.75,4.39-11.44,7.27-3.69,2.88-7.11,6.12-10.25,9.72-3.22,3.69-5.95,7.55-8.19,11.57-2.24,4.03-4.01,8.09-5.3,12.18-1.29,4.09-2.07,8.15-2.35,12.18-.28,4.03-.03,7.89.74,11.59.77,3.7,2.04,7.16,3.81,10.39,1.77,3.22,4.1,6.09,6.98,8.6,2.97,2.59,6.23,4.54,9.77,5.83,3.54,1.3,7.23,2.02,11.07,2.16,3.84.14,7.78-.28,11.81-1.25,4.03-.98,8.01-2.44,11.95-4.41ZM790.08,194.52c-1.87-.28-3.55-1.07-5.05-2.38-1.5-1.31-2.44-2.9-2.82-4.75-.38-1.86-.33-3.83.13-5.91.46-2.08,1.26-4.16,2.39-6.23,1.13-2.08,2.46-3.98,3.98-5.73,1.59-1.82,3.32-3.36,5.2-4.61,1.87-1.25,3.77-2.11,5.68-2.6,1.91-.48,3.77-.56,5.57-.24,1.8.33,3.45,1.14,4.95,2.45,1.47,1.28,2.42,2.82,2.85,4.62.43,1.8.46,3.68.09,5.66s-1.09,3.97-2.15,6c-1.07,2.03-2.37,3.93-3.93,5.72-1.59,1.82-3.35,3.39-5.28,4.7-1.93,1.31-3.88,2.25-5.85,2.84-1.97.58-3.89.73-5.76.45Z"/>
          <path class="cls-1" d="M869.21,285.73c2.57-2.07,5.42-4.36,8.56-6.87,3.13-2.51,6.32-5.17,9.57-7.97,3.25-2.8,6.47-5.75,9.66-8.86,3.19-3.1,6.11-6.24,8.78-9.42,2.67-3.18,5-6.41,6.98-9.69,1.99-3.28,3.4-6.51,4.24-9.68.84-3.17,1.01-6.3.51-9.38-.5-3.08-1.88-6.03-4.13-8.84-1.22-1.52-2.65-2.75-4.29-3.69-1.64-.94-3.41-1.66-5.31-2.14-1.91-.48-3.93-.75-6.08-.79h-.06c-1.97-.04-2.79-2.53-1.23-3.73l3.42-2.64c.97-.75,1.09-2.17.26-3.07l-17.51-19.09c-.73-.8-1.95-.9-2.81-.25-14.93,11.39-29.86,22.61-44.82,33.64-14.12,10.42-28.33,20.87-42.62,31.36-2.18,1.6-2.51,4.73-.7,6.74l15.52,17.26c1.6,1.78,4.3,2.02,6.19.56,6.62-5.09,13.16-10.17,19.63-15.23,7.56-5.91,15.21-11.83,22.93-17.76.94-.76,2.18-1.71,3.69-2.84,1.52-1.14,3.18-2.31,4.97-3.5,1.79-1.19,3.64-2.31,5.56-3.36,1.91-1.05,3.75-1.85,5.51-2.43,1.76-.57,3.38-.81,4.87-.73,1.48.09,2.67.69,3.58,1.82.5.63.5,1.52-.02,2.67-.52,1.15-1.34,2.44-2.46,3.85-1.12,1.42-2.43,2.88-3.94,4.39-1.51,1.51-3,2.94-4.49,4.3-1.49,1.36-2.84,2.55-4.05,3.58-1.22,1.03-2.1,1.77-2.66,2.22-7.72,6.2-15.66,11.97-23.81,17.32-6.75,4.43-13.58,8.77-20.49,13.03-2.31,1.42-2.89,4.52-1.24,6.67l16.46,21.47c1.52,1.99,4.37,2.38,6.37.87,3.7-2.79,7.36-5.59,10.99-8.4,4.8-3.72,9.63-7.53,14.48-11.42Z"/>
          <polygon class="cls-1" points="877.65 315.36 937.99 283.27 924.69 261.61 867.6 299.01 877.65 315.36"/>
          <path class="cls-1" d="M861.07,326.52c1.58-.97,2.94-2.15,4.07-3.53,1.13-1.38,1.96-2.82,2.49-4.3.53-1.48.77-2.98.71-4.48-.06-1.5-.48-2.89-1.26-4.16-.8-1.3-1.85-2.31-3.17-3.05-1.31-.74-2.75-1.2-4.32-1.39-1.57-.19-3.22-.09-4.95.3-1.74.4-3.39,1.08-4.98,2.05-1.62,1-2.98,2.17-4.08,3.51-1.1,1.35-1.92,2.76-2.45,4.25-.53,1.48-.76,2.97-.68,4.47.11,1.98.84,3.78,2.21,5.42.33.4.72.76,1.13,1.07,1.57,1.17,3.36,1.88,5.38,2.13,1.57.19,3.2.11,4.91-.25,1.71-.36,3.37-1.04,4.99-2.03Z"/>
          <path class="cls-1" d="M875.57,333.09c-1.27-.81-2.67-1.37-4.23-1.66-1.55-.29-3.2-.29-4.96,0s-3.45.87-5.1,1.74c-1.68.9-3.11,1.98-4.29,3.26-1.18,1.28-2.08,2.64-2.71,4.09-.62,1.45-.94,2.92-.95,4.42-.01,1.67.43,3.24,1.32,4.72.62,1.03,1.47,1.92,2.46,2.61,1.3.9,2.76,1.5,4.39,1.8,1.55.29,3.19.31,4.92.06,1.73-.25,3.43-.83,5.11-1.72,1.64-.87,3.07-1.97,4.28-3.28,1.21-1.31,2.13-2.69,2.75-4.14.62-1.45.95-2.93.98-4.43.03-1.51-.3-2.92-1-4.23-.72-1.34-1.71-2.42-2.97-3.24Z"/>
          <polygon class="cls-1" points="939.02 291.52 879.75 325.34 888.77 342.28 950.97 313.95 939.02 291.52"/>
        </g>
        <g>
          <path class="cls-1" d="M475.89,147.59c-217.49,0-396.98,166.02-418.35,377.96v.09C3.43,638.3,6.35,809,125.05,861.84v4.87c-39.04,2.3-70.1,34.8-70.1,74.43v13.77c0,18.6,15.13,33.74,33.73,33.74h227.24c13.74,0,25.61-8.28,30.87-20.11,270.71,87.25,549.64-116.02,549.64-400.43,0-231.86-188.66-420.52-420.54-420.52ZM135.02,970.19h-46.34c-8.43,0-15.29-6.85-15.29-15.28v-13.77c0-30.93,25.19-56.11,56.15-56.11h4.74c5.1,0,9.22-4.15,9.22-9.23,0-2.95,2.41-5.17,5.18-5.17.47,0,.94.06,1.42.19,6.21,1.72,12.63,3.17,19.23,4.31,6.01,1.03,8.27,8.45,3.86,12.65-2.45,2.32-3.95,4.03-4.08,4.31-26.99,24.57-33.88,48.62-34.09,78.1ZM331.2,954.95c0,8.26-6.76,15.24-15.28,15.24h-131.56c-8.43,0-15.28-6.84-15.28-15.28v-13.77c0-25.76,17.55-47.3,40.24-53.83,13.93-4.52,23.19.58,28.04-5.98v-.03c30.46-3.66,54.32-6.41,77.54-9.63,8.61-1.19,16.3,5.5,16.3,14.21v69.07ZM245.75,752.77c.21,1.24-.64,2.4-1.89,2.56l-1.47.18c-1.45.18-2.67-1.08-2.46-2.53,7.51-50.15,77.07-62.62,125.4-45.2,6.79,2.34,13.26,5.25,19.22,8.69,2.84,1.63,2.32,5.89-.83,6.78-23.09,6.53-47.73,11.12-70.38,13.79-4.59.55-9.18-1-12.53-4.19l-6.23-5.94c-20.41-19.45-53.5-1.26-48.83,25.86ZM244.35,707.67c-13.09,11.98-21.03,27.6-23.04,45.51-.22,1.97-2.19,3.23-4.06,2.57-5.21-1.86-10.72-1.59-24.24-1.61-2.8-.01-5.1-2.23-5.21-5.02-.5-12.86-8.98-23.65-20.18-26.85-2.49-.72-2.99-4.02-.89-5.53,20.36-14.72,49.96-18.16,75.65-15.22,3.01.35,4.21,4.1,1.97,6.15ZM853.81,675.37c-58.21,192.86-256.77,300.19-397.78,269.74-.3-.32-5.15-.73-17.49-4.62-.03-.03-.07-.03-.1-.03-34.54-10.75-63.38-31.28-80.95-61.79-3.47-6.02.11-13.65,6.94-14.94,207.68-39.08,321.57-148.43,371.66-357.76,2.76-12.2-15.25-15.88-17.95-4.29-30.74,125.95-89.52,232.68-203.94,293.59-.03.04-.09.07-.16.07-81.48,43.81-179.56,56.64-279.1,67.7-.39.04-1.4.15-2.03.07-7.82-.33-12.29-9.37-8.81-15.68.8-1.47,2.34-2.4,4.01-2.44,4.66-.1,14.78.18,17.95-1.78,3.69-2.23,5.06-6.81,4.1-10.02,0-1.39-2.39-6.07-8.21-6.82-4.96-.32-13.78.33-17.77.33-.42-.4-1.93-.88-3.41-2.88v-.04c-1.54-2.06-2.33-4.42-2.28-6.8.05-2.54,1.97-4.65,4.5-4.96,8.76-1.05,11.01-1.16,12.4-1.67.07,0,.1-.03.13-.03,6.19-2.32,7.85-9.24,4.34-14.21-2.81-3.94-6.62-3.93-10.76-3.41-.06.02-6.98.85-10.14,1.23-1.08.13-2.18-.32-2.81-1.23-3.88-5.53.54-15.66,5.69-15.66,7.48-2.72,53.08-4.47,57.34-9.68,3.15-4,2.47-9.87-.83-12.97-2.82-2.71-6.08-2.42-10.63-1.92-1.83.2-3.53-1.05-3.86-2.86-.45-2.45.04-4.71,1.24-6.75v-.03c3.32-5.66,11.19-7.85,16.75-2.56,14.9,14.15,16.33,16.91,21.8,16.36,37.21-3.64,78.84-11.57,113.89-24.96h.03c113.29-40.42,176.73-134.88,204.89-252.79v-.03c2.8-11.88-15.15-16.15-17.96-4.28-28.32,118.66-86.79,195.33-180.78,234.75-6.55,2.75-14.02,1.82-19.81-2.29-36.26-25.73-86.34-30.35-122.51-19.55-4.5,1.34-9.28,1.45-13.8.17-11.56-3.27-36.5-8.64-66.08-3.73-.04-.03-.07-.03-.09,0-13.22,2.24-25.77,6.34-36.77,12.42h-.04c-2.18,1.23-4.3,2.52-6.36,3.9h-.04c-13.6,9.34-23.4,20.98-28.76,36.11-.98,2.77-4.3,3.94-6.77,2.34-2.72-1.76-5.21-3.84-7.32-6.03v-.04c-.83-.8-1.6-1.63-2.37-2.53v-.02c-2.68-3.07-5.07-6.46-7.23-10.05v-.04c-4.29-7.04-7.57-14.58-10.6-22.25v-.04c-4.41-11.84-6.29-20.27-6.55-20.81t-.04-.07c-2.98-11.97-2.6-11.53-3.22-13.18-4.25-10.32-20.02-5.49-17.56,5.47,6.12,27.79,17.37,62.64,39.08,80.83v.03c8.24,6.77,26.59,16.62,34.28,10.03,2.23-1.96,4.38-4.91,12.95-16.73,5.82-7.72,15.6-1.65,15.24,7.43-.07,1.9-1.66,3.39-3.56,3.44l-1.85.04c-12.05.28-11.8,18.42.22,18.42,33.34,0,5.06-.22,31.59.03,1.94.01,3.22,1.98,2.51,3.79-2.07,5.32-2.51,10.97-1.55,15.72.08.4-.02.81-.27,1.13-3.57,4.79-1.66,11.59,3.65,13.91.82.36,1.32,1.23,1.07,2.1-1.24,4.51-1.38,8.95-.75,12.64.18,1.09-.63,2.1-1.72,2.21-5.61.55-8.3,4.83-8.3,9.12,0,4.63,3.14,9.3,9.16,9.3.27,0,.45-.02,3.71-.33,1.46-.13,2.64,1.22,2.25,2.63-.95,3.5-1.31,7.01-.87,10.81.27,2.31-1.65,4.3-3.98,4.21-4.48-.18-10.54-.55-15.75-1.12-.02,0-.02-.03-.02-.03-135.37-14.69-166.04-153.29-128.08-279.97.39-1.29,2-1.64,2.97-.71.19.19.39.36.58.52h.04c.64.53,1.35.93,2.09,1.27h.02c5.68,2.33,13.04-1.44,12.85-8.77-.61-21.45,0-35.97.32-41.72.03-.09.05-.46.05-.61,19.86-203.3,191.74-362.68,400.16-362.68,269.78,0,453.83,257.82,377.92,509.28,0,0-.03.02,0,.05Z"/>
          <g>
            <path class="cls-1" d="M372.84,410.77l-9.22,5.32,9.22,5.32v23.4c0,5.07-4.12,9.22-9.22,9.22s-9.22-4.15-9.22-9.22v-39.94c0-5.07,4.12-9.22,9.22-9.22s9.22,4.15,9.22,9.22v5.9Z"/>
            <path class="cls-1" d="M325.27,580.51c-9.75,0-19.5-.9-29.18-2.69-5.01-.93-8.32-5.74-7.39-10.75.93-5.01,5.74-8.31,10.75-7.39,17.14,3.17,34.51,3.17,51.65,0,5-.93,9.82,2.38,10.75,7.39.93,5.01-2.38,9.82-7.39,10.75-9.68,1.79-19.43,2.69-29.18,2.69Z"/>
            <path class="cls-1" d="M328.29,452.99c-3.6,3.59-9.44,3.59-13.04,0-4.76-4.76-11.43-6.45-17.55-5.08v.03c-14.52,3.16-19.63,21.33-9.19,31.76,3.59,3.62,3.59,9.46,0,13.06-1.79,1.79-4.16,2.71-6.52,2.71s-4.71-.92-6.52-2.71c-16.3-16.3-13.95-43.41,4.34-56.53v-31.37c0-5.07,4.15-9.22,9.22-9.22s9.23,4.15,9.23,9.22v5.91l-9.23,5.32,9.23,5.32v7.81c10.73-1.07,21.83,2.52,30.04,10.73,3.6,3.6,3.6,9.44,0,13.04Z"/>
          </g>
        </g>
      </g>
    </g>
  </g>
</svg>