<?xml version="1.0" encoding="UTF-8"?>
<svg id="_图层_1" xmlns="http://www.w3.org/2000/svg" version="1.1" viewBox="0 0 800 800">
  <!-- Generator: Adobe Illustrator 29.5.1, SVG Export Plug-In . SVG Version: 2.1.0 Build 141)  -->
  <defs>
    <style>
      .st0 {
        fill: #5f5f5f;
      }
    </style>
  </defs>
  <path class="st0" d="M522.21,489.68c-.81-3.86-4.57-6.33-8.44-5.54-3.86.81-6.34,4.59-5.53,8.46l5.61,27.05c.69,3.35,3.66,5.7,6.98,5.7.48,0,.97-.05,1.44-.16,3.9-.79,6.38-4.58,5.57-8.44l-5.63-27.05Z"/>
  <path class="st0" d="M580.28,586.26c-13.22,5.24-21.03,6.86-34.84,7.23-3.95.08-7.06,3.38-6.94,7.33.08,3.86,3.27,6.95,7.13,6.95h.2c15.55-.4,24.84-2.35,39.71-8.24,3.65-1.44,5.44-5.59,3.99-9.27-1.46-3.66-5.59-5.47-9.25-3.99h0Z"/>
  <path class="st0" d="M580.29,501.85c-1.05-.68-2.11-1.28-3.21-1.8l-4.33-20.86c-.81-3.86-4.59-6.34-8.46-5.53-3.86.79-6.37,4.57-5.54,8.42l3.27,15.67c-.59.07-1.15.18-1.71.31-6.96,1.44-12.94,5.51-16.85,11.45-2.16,3.3-1.23,7.73,2.06,9.89,3.31,2.18,7.74,1.24,9.9-2.07,1.8-2.72,4.58-4.63,7.79-5.31.79-.16,1.55-.23,2.34-.26,2.43-.02,4.84.66,6.94,2.02.35.23.68.48,1,.74,2.18,1.8,3.71,4.24,4.28,7.07.67,3.22.05,6.51-1.76,9.27-2.14,3.29-1.23,7.72,2.08,9.88,1.21.79,2.57,1.19,3.9,1.19,2.33,0,4.63-1.15,5.98-3.23,3.91-5.94,5.27-13.05,3.81-20-1.44-6.99-5.52-12.97-11.45-16.84h0Z"/>
  <path class="st0" d="M293.29,750.94c1.5-1.47,1.54-3.89.06-5.39l-3.78-3.88c-1.48-1.52-1.44-3.91.06-5.39l2.41-2.35c1.52-1.48,3.92-1.46,5.4.06l4.58,4.67c1.47,1.52,3.89,1.54,5.39.06l2.48-2.41c1.5-1.47,1.53-3.88.06-5.39l-9.82-10.04c-1.48-1.5-3.89-1.54-5.39-.06l-34.05,33.3c-1.52,1.47-1.54,3.88-.06,5.38l10.08,10.3c1.46,1.5,3.88,1.54,5.38.06l2.48-2.41c1.5-1.47,1.54-3.89.06-5.39l-4.85-4.94c-1.46-1.5-1.44-3.92.06-5.4l2.42-2.35c1.5-1.48,3.92-1.46,5.4.06l3.78,3.88c1.48,1.5,3.89,1.54,5.38.06l2.48-2.42h0Z"/>
  <path class="st0" d="M272.83,737.99c.43-1.03.78-2.03,1.03-3.01.06-.2.11-.41.15-.6.95-3.93,5.1-1.75,11.26-8.08,1.49-1.57,2.64-3.15,3.43-4.74.81-1.61,1.39-3.1,1.77-4.46.39-1.36.61-2.53.7-3.46.07-.96.12-1.54.14-1.75v-1.32l-9-9.2c-1.48-1.5-3.89-1.54-5.4-.06l-35.8,35.01c-1.5,1.47-1.54,3.89-.06,5.39l2.57,2.63.04-.06,7.39,7.54,1.61-.12c9.63-.75,16.84-5.83,20.15-13.72h0ZM272.82,715.8l1.43-1.4c3.15-3.08,8.09,1,6.86,4.5-1.21,3.49-5.09,5.63-8.35,2.28-1.48-1.5-1.44-3.9.06-5.38ZM255.6,740.61l-1.33-1.35c-1.47-1.49-1.43-3.91.07-5.38l3.24-3.18c1.5-1.46,3.91-1.43,5.38.07l2.21,2.25c-.05,7.78-6.8,10.43-9.57,7.59h0Z"/>
  <path class="st0" d="M265.3,706.79c2.08-3.19,3.59-6.26,4.55-9.21.97-2.95,1.33-5.67,1.09-8.19-.22-2.51-1.13-4.57-2.7-6.18-.43-.51-.86-1-1.3-1.44-.46-.47-.78-.76-.99-.89-1.71-1.09-3.75-1.64-6.1-1.63-2.37,0-4.91.53-7.62,1.57-9.4,3.56-19.39,12.71-24.96,20.58-2.03,2.84-3.54,5.59-4.52,8.2-1,2.62-1.47,5.04-1.39,7.27.06,2.24.72,4.2,1.95,5.91.09.11.2.22.31.35.09.15.26.33.47.55.15.15.38.36.67.63.28.27.55.51.76.73,1.62,1.66,3.65,2.69,6.05,3.05,2.42.38,5.05.18,7.88-.6,2.82-.78,5.78-2.13,8.88-4.05,6.07-3.75,12.7-10.07,16.97-16.65h0ZM241.33,718.14c-1.69.6-3.21.83-4.59.7-1.37-.12-2.51-.62-3.37-1.53l-1.64-1.67c-.73-1.05-.99-2.27-.79-3.66.21-1.42.73-2.89,1.57-4.44.86-1.55,1.93-3.15,3.24-4.78,3.83-4.72,9.77-10.19,15.21-12.73,6.1-2.83,7.79-1.1,9.35.93,5.07,5.17-5.63,19.14-13.62,24.41-1.9,1.26-3.69,2.17-5.36,2.77h0Z"/>
  <path class="st0" d="M226.92,698.03c1.59-1.07,2.9-2.04,3.92-2.92,1.03-.89,1.71-1.49,2.04-1.82,7.96-7.34,12.34-14.33,13.18-20.96.27-2.15.16-4.05-.32-5.74-.49-1.67-1.14-3.1-1.91-4.31-.78-1.19-1.6-2.17-2.44-2.94-.69-.61-1.26-1.07-1.73-1.4-.22-.15-.43-.32-.63-.53l-1.52-1.53c-1.47-1.52-3.88-1.54-5.39-.08l-35.65,34.86c-1.5,1.47-1.53,3.89-.06,5.39l2.56,2.62.06-.05c4.58,4.1,9.95,5.58,16.1,4.46,2.26-.4,4.39-1.09,6.4-2.04,2.01-.94,3.81-1.95,5.38-3.01h0ZM212.06,693.7c-2.77-.74-3.54-4.35-1.48-6.37l17.24-16.87c3.1-3.02,8.54-.95,8.49,3.39-.12,10.08-15.81,22.13-24.25,19.84h0Z"/>
  <path class="st0" d="M196.51,687.19l27.06-41.07c.99-1.5.79-3.49-.47-4.77l-3.83-3.92c-1.27-1.29-3.29-1.52-4.82-.52l-41.64,27.27c-1.09.72-1.73,1.94-1.73,3.21,0,.45.09.9.26,1.35.88,2.27,3.62,3.15,5.65,1.82l5.43-3.56c1.53-1,3.55-.8,4.82.52l5.65,5.77c1.26,1.29,1.44,3.27.45,4.78l-3.23,4.9c-1.36,2.07-.45,4.84,1.87,5.68h.04c1.66.62,3.52,0,4.5-1.46h0ZM196.91,655.16l14.76-9.67.47.49-9.71,14.7c-1.26,1.89-4.02,2.5-6.17.31-1.67-1.71-1.37-4.53.65-5.84h0Z"/>
  <path class="st0" d="M712.74,0H87.28C39.16,0,0,39.16,0,87.28v625.46c0,31.62,16.9,59.36,42.13,74.66,6.15,3.73,12.81,6.73,19.83,8.86,8.01,2.43,16.51,3.75,25.31,3.75h625.46c48.12,0,87.28-39.16,87.28-87.28V87.28c0-48.12-39.16-87.28-87.28-87.28h.01ZM771.14,703.02c0,37.62-30.5,68.12-68.12,68.12h-8.05c-10.69,0-18.31-10.41-15.03-20.58,10.16-31.57,15.51-65.27,15.19-100.22-.6-63.83-18.89-123.29-56-177.17-5.34-7.75-2.45-18.43,6.05-22.47,43.2-20.48,78.95-47.14,104.55-77.02,7.36-8.59,21.41-3.48,21.41,7.85v321.49h0ZM163.84,672.33c-1.64-7.07.62-14.5,5.86-19.56l47.1-45.63c.81-.8,1.94-1.1,3.03-.87,1.1.23,2,1,2.4,2.04,1.43,3.66,3.59,7.09,6.51,10.1l98.5,101.64c3.76,3.88,3.63,10.07-.25,13.82l-25.06,24.28c-8.6,8.33-20.08,12.98-32.05,12.98h-25c-18.63,0-36.17-8.71-47.5-23.51-15.9-20.78-26.77-46.16-33.54-75.3h.01ZM235.41,591.46c.8-2.25,2.13-4.38,3.96-6.15,1.82-1.77,3.96-3.05,6.3-3.82,1.64-.53,3.36-.81,5.12-.81h.27c4.38.08,8.48,1.83,11.52,4.98l89.18,92.06c1.29,1.35.83,3.58-.89,4.19-1.91.66-3.75,1.5-5.48,2.55-2.04,1.2-3.97,2.68-5.72,4.37-1.75,1.71-3.28,3.57-4.51,5.57-1.1,1.71-2.02,3.54-2.71,5.38-.67,1.71-2.94,2.14-4.23.79l-89.2-92.07c-4.51-4.66-5.7-11.33-3.59-17.03h0ZM349.07,732.38c2.84-2.75,2.91-7.27.16-10.1-1.79-1.87-3.04-4-3.76-6.3,0,0-.02,0-.02-.02-1.14-3.48-1.09-7.26.19-10.71.81-2.29,2.15-4.4,3.98-6.2,1.81-1.76,3.92-2.99,6.27-3.76,1.71-.55,3.51-.83,5.39-.83,1.87.04,3.7.36,5.39,1,2.29.8,4.33,2.13,6.07,3.91,2.57,2.62,6.88,2.98,9.74.62,3.24-2.67,3.48-7.49.6-10.48l-110.25-113.78c-5.71-5.92-13.35-9.23-21.54-9.35-8.17-.11-15.96,2.94-21.86,8.64l-62.33,60.39c-.95.92-2.45.93-3.39.01-.62-.6-1.36-1.1-2.2-1.46-3.93-1.66-8.34.75-9.75,4.82-1.69,4.94-2.92,10.02-3.79,15.15-1.12,6.89-1.52,13.95-1.21,21.06.95,23.99,9.5,48.8,22.78,71.61,6.33,10.89-1.48,24.53-14.07,24.53h-58.85c-19.37-.11-35.8-14.12-39.65-33.1-4.65-22.95-5.61-48.37-1.93-76.51.47-3.61,1.32-7.18,2.61-10.58,16.01-42.18,79.51-76.49,143.1-113.74.31-.2.61-.39.93-.55,3.66-2.03,7.31-4.15,10.96-6.34.01,0,.05,0,.08-.05,21.59-12.97,42.47-28.4,62.42-46.13,23.06-20.14,51.84-46.46,84.6-69.6,66.69-47.16,156.79-43.22,218.03,10.78,4.39,3.91,8.7,7.93,12.91,12.07,36.23,35.89,63.54,80.86,78.16,131.2,1.33,4.58,2.56,9.22,3.65,13.88.06.16.07.34.12.51,7.41,31.15,8.08,63.5,2.8,95.09-3.02,18.03-7.21,35.27-12.56,51.69-8.01,24.66-30.96,41.38-56.89,41.38h-278.28c-6.78,0-10.11-8.24-5.25-12.95l26.63-25.8h.01ZM96.99,28.87h132.72c20.21,0,39.59,8.22,53.47,22.91,23.56,24.91,44.08,52.57,58.85,83.49,3.21,6.69-.76,14.55-8.06,15.89-86.59,15.97-143.79,41.27-194.85,80.09-11.09,8.42-26.06,9.6-38.34,3.02-12.25-6.58-19.57-19.71-18.69-33.59v-.02c1.08-16.69,6.82-32.73,16.69-46.24l10.62-14.55c2.27-3.12,1.96-7.62-1.03-10.09-3.18-2.58-7.87-1.96-10.29,1.35l-7.16,9.81c-.74,1-2.3.4-2.21-.83l1.9-25.23c.25-3.14-1.41-6.24-4.33-7.4-4.77-1.9-9.53,1.41-9.89,6.07-8.94,41.76-20.48,84.52-39.98,121.28-1.95,3.68-7.54,2.29-7.54-1.88V96.99c0-37.62,30.5-68.12,68.12-68.12h-.01ZM703.02,28.87c37.62,0,68.12,30.5,68.12,68.12v62.01c0,11.64-14.28,17.1-22.14,8.52-24.5-26.75-54.52-44.95-89.64-54.25-37.95-10.05-81.7-8.89-123.16,3.32-25.53,7.52-65.4,26.1-109.26,72-8.14,8.52-22.54,3.66-23.9-8.03-.13-1.06-.23-2.13-.32-3.22-.78-9.38-5.47-18.15-12.88-24.01-4.02-3.16-8.67-5.38-13.58-6.51-8.9-2.06-16.38-8.01-20.37-16.24-8.63-17.82-26.3-48.66-56.73-82.45-6.68-7.42-1.36-19.25,8.61-19.25h395.24ZM28.87,539.06v-148.41c0-11.29,10.93-19.33,21.72-15.98,22.1,6.85,53.71,18.47,66.01,23.51,7.47,3.08,15.93,1.7,22.08-3.52,46.93-40.12,146.15-83.91,201.82-95.56,3.63-.75,6.47,3.07,4.74,6.34-3.05,5.77-6.1,11.67-9.13,17.78-1.73,3.56-.31,7.85,3.24,9.57,1.02.52,2.1.75,3.17.75,2.61,0,5.16-1.46,6.4-3.95,6.45-13.04,12.94-25.2,19.46-36.61,0-.04.02-.05.06-.08.13-.26.28-.51.41-.75,66.31-115.6,134.63-151.06,171.4-161.87,19.72-5.79,67.11-16.35,117-2.9,2.47.67,1.67,4.37-.86,3.93-58.25-9.65-115.96,10.92-172.04,61.53-46.92,42.33-84.14,97.32-111.85,142.21-3.08,4.98-6.04,9.87-8.88,14.56-3.54,5.85-6.91,11.47-10.1,16.78-9.82,16.47-17.62,29.47-23.13,36.73-99.94,131.65-220.06,157.74-273.54,161.87-15.12,1.16-28.01-10.78-28.01-25.93h0ZM85.2,324.52c-3.39-2.48-5.51-6.12-6.01-10.29-.49-4.09,1.68-9.94,4.5-12.94.13-.15.32-.32.45-.48,3.46-3.77,6.93-7.43,10.39-11,71.22-73.36,144.2-108.98,260.37-127.73h0c2.95-.47,5.91-.95,8.91-1.4h.01c.6-.07,1.2-.16,1.8-.27,5.53-.83,10.96.65,15.35,4.11,4.37,3.46,7.02,8.44,7.5,13.96.88,10.7,3.12,20.04,7.43,30.25,2.71,6.45,1.86,13.91-2.35,19.53-9.49,12.68-19.04,26.73-28.54,42.33-4.16,6.81-11.02,11.64-18.91,12.95-56.49,9.41-164.78,55.8-216.74,100.24-2.07,1.76-4.83,2.2-7.36,1.16-1.12-.47-3.79-1.91-4.09-5.54-1.89-22.26-12.6-40.23-32.73-54.9h.01ZM36.27,278.31c7.23-8.9,13.74-18.35,19.54-28.35,3.45-5.95,12.46-4.19,13.39,2.63,1,7.28,2.41,14.42,4.3,21.36,2.03,7.45.8,15.51-3.61,21.86-3.46,5-5.83,11.04-4.98,19.5,1.73,17.63,14.68,20.6,25.67,33.41,4.18,4.87-.33,12.24-6.54,10.65-14.09-3.59-27.51-6.45-40.24-8.63-8.64-1.48-14.95-9.01-14.95-17.78v-33.91c0-7.56,2.63-14.87,7.4-20.74h.01ZM28.87,589.8c0-5.7,4.69-10.26,10.38-10.15,1.69.04,3.38.05,5.09.05s3.39-.01,5.11-.05c5.59-.11,9.61,5.37,7.73,10.63-8.27,23.25-23.95,78.83-16.54,135.97.55,4.28-5.43,5.77-7.01,1.76-3.07-7.74-4.76-16.17-4.76-24.99v-113.22h0Z"/>
</svg>