<?xml version="1.0" encoding="UTF-8"?>
<svg id="_图层_1" xmlns="http://www.w3.org/2000/svg" version="1.1" viewBox="0 0 553.59 246.42">
  <!-- Generator: Adobe Illustrator 29.5.1, SVG Export Plug-In . SVG Version: 2.1.0 Build 141)  -->
  <defs>
    <style>
      .st0 {
        fill: #5f5f5f;
      }
    </style>
  </defs>
  <path class="st0" d="M140.38,107.5c4.63,0,8.4-3.77,8.4-8.4v-27.71c0-4.63-3.77-8.4-8.4-8.4s-8.4,3.77-8.4,8.4v4.09c0,.71.38,1.38,1,1.73l3.4,1.96-3.4,1.96c-.62.36-1,1.02-1,1.73v16.24c0,4.63,3.77,8.4,8.4,8.4Z"/>
  <path class="st0" d="M186.07,176.7c-.51,0-1.02.05-1.53.14-5.8,1.07-11.71,1.62-17.56,1.62s-11.76-.54-17.55-1.62c-.51-.09-1.03-.14-1.54-.14-4.04,0-7.51,2.89-8.25,6.87-.85,4.55,2.17,8.94,6.73,9.79,6.81,1.26,13.75,1.9,20.61,1.9h0c6.86,0,13.8-.64,20.61-1.9,4.56-.85,7.57-5.24,6.73-9.79-.74-3.98-4.21-6.87-8.26-6.87h0Z"/>
  <path class="st0" d="M200.53,92.15v-20.76c0-4.63-3.77-8.4-8.4-8.4s-8.4,3.77-8.4,8.4v4.1c0,.71.38,1.38,1,1.73l3.4,1.96-3.4,1.96c-.62.36-1,1.02-1,1.73v3.3h-.57c-7.43,0-14.42,2.9-19.69,8.16-1.59,1.59-2.46,3.69-2.46,5.94s.87,4.35,2.46,5.94c.04.04.08.07.12.11,1.57,1.51,3.64,2.35,5.83,2.35s4.35-.87,5.94-2.45c2.1-2.1,4.9-3.26,7.87-3.26.74,0,1.48.07,2.2.22.09.03.17.06.27.08,3.96.86,7.01,3.72,8.17,7.65,1.17,3.99.13,8.11-2.78,11.02-3.26,3.28-3.26,8.61,0,11.88,1.57,1.57,3.73,2.47,5.94,2.47s4.33-.87,5.94-2.47c5.8-5.8,8.74-13.84,8.07-22.06-.64-7.8-4.45-14.88-10.5-19.58v-.02h-.01Z"/>
  <path class="st0" d="M430.39,0H123.21c-32.92,0-63.86,12.81-87.13,36.09C12.81,59.37,0,90.31,0,123.21c0,67.94,55.27,123.21,123.21,123.21h307.18c32.91,0,63.85-12.81,87.12-36.09s36.08-54.22,36.08-87.12c0-67.94-55.27-123.21-123.2-123.21h0ZM300.15,219.42H124.33c-52.83,0-96.65-42.13-97.32-94.95-.28-22.14,6.85-43.21,20.25-60.35,2.44-3.12,5.08-6.1,7.92-8.94,18.17-18.17,42.33-28.18,68.03-28.18h36.24c22.21,0,44.1,5.74,63.28,16.94.11.06.22.12.33.19,47.3,27.71,85.85,66.28,113.01,112.26l24.88,42.12c2.53,4.28,2.57,9.6.1,13.92s-7.06,6.99-12.04,6.99h-48.87.01,0Z"/>
</svg>