<?xml version="1.0" encoding="UTF-8"?><svg id="_图层_1" xmlns="http://www.w3.org/2000/svg" viewBox="0 0 872.7 841.38"><defs><style>.cls-1{fill:#fff;}.cls-2{fill:none;}.cls-3{fill:#d2d7d8;}.cls-4{fill:#789196;}</style></defs><path class="cls-3" d="M149.46,740.19c-2.45,2.32-3.95,4.03-4.08,4.31-26.99,24.57-33.88,48.62-34.09,78.1h-46.34c-8.43,0-15.29-6.85-15.29-15.28v-13.77c0-30.93,25.19-56.11,56.15-56.11h4.74c5.1,0,9.22-4.15,9.22-9.23,0-2.95,2.41-5.17,5.18-5.17.47,0,.94.06,1.42.19,6.21,1.72,12.63,3.17,19.23,4.31,6.01,1.03,8.27,8.45,3.86,12.65Z"/><path class="cls-3" d="M149.46,740.19c-2.45,2.32-3.95,4.03-4.08,4.31-26.99,24.57-33.88,48.62-34.09,78.1h-46.34c-8.43,0-15.29-6.85-15.29-15.28v-13.77c0-30.93,25.19-56.11,56.15-56.11h4.74c5.1,0,9.22-4.15,9.22-9.23,0-2.95,2.41-5.17,5.18-5.17.47,0,.94.06,1.42.19,6.21,1.72,12.63,3.17,19.23,4.31,6.01,1.03,8.27,8.45,3.86,12.65Z"/><path class="cls-1" d="M104.97,737.45c-26.75,4.31-47.25,27.73-47.25,55.86v13.89c0,8.49,6.86,15.4,15.29,15.4h-8.06c-8.43,0-15.29-6.85-15.29-15.28v-13.77c0-30.65,24.74-55.65,55.31-56.1Z"/><path class="cls-1" d="M114.07,736.74c-1.08.45-2.27.7-3.52.7h-4.74c-.28,0-.56,0-.84.01,2.9-.47,5.87-.71,8.9-.71h.2Z"/><path class="cls-3" d="M307.47,738.29v69.07c0,8.26-6.76,15.24-15.28,15.24h-131.56c-8.43,0-15.28-6.84-15.28-15.28v-13.77c0-25.76,17.55-47.3,40.24-53.83,13.93-4.52,23.19.58,28.04-5.98v-.03c30.46-3.66,54.32-6.41,77.54-9.63,8.61-1.19,16.3,5.5,16.3,14.21Z"/><path class="cls-3" d="M220.62,560.08c-13.09,11.98-21.03,27.6-23.04,45.51-.22,1.97-2.19,3.23-4.06,2.57-5.21-1.86-10.72-1.59-24.24-1.61-2.8-.01-5.1-2.23-5.21-5.02-.5-12.86-8.98-23.65-20.18-26.85-2.49-.72-2.99-4.02-.89-5.53,20.36-14.72,49.96-18.16,75.65-15.22,3.01.35,4.21,4.1,1.97,6.15Z"/><path class="cls-1" d="M213.67,553.45c-31.61.1-54.9,10.41-67.07,22.18-.88-.37-1.79-.69-2.71-.95-2.49-.72-2.99-4.02-.89-5.53,19.06-13.78,46.2-17.67,70.67-15.7Z"/><path class="cls-3" d="M359.99,575.66c-23.09,6.53-47.73,11.12-70.38,13.79-4.59.55-9.18-1-12.53-4.19l-6.23-5.94c-20.41-19.45-53.5-1.26-48.83,25.86.21,1.24-.64,2.4-1.89,2.56l-1.47.18c-1.45.18-2.67-1.08-2.46-2.53,7.51-50.15,77.07-62.62,125.4-45.2,6.79,2.34,13.26,5.25,19.22,8.69,2.84,1.63,2.32,5.89-.83,6.78Z"/><path class="cls-1" d="M321.54,554.88c-34.28-2.87-60.59,5.46-83.05,19.17-11.01,5.19-18.91,16.93-16.47,31.13.21,1.24-.64,2.4-1.89,2.56l-1.47.18c-1.45.18-2.67-1.08-2.46-2.53,6.52-43.53,59.79-58.67,105.34-50.51Z"/><path class="cls-3" d="M830.08,527.73s-.03.02,0,.05c-58.21,192.86-256.77,300.19-397.78,269.74-.3-.32-5.15-.73-17.49-4.62-.03-.03-.07-.03-.1-.03-34.54-10.75-63.38-31.28-80.95-61.79-3.47-6.02.11-13.65,6.94-14.94,207.68-39.08,321.57-148.43,371.66-357.76,2.76-12.2-15.25-15.88-17.95-4.29-30.74,125.95-89.52,232.68-203.94,293.59-.03.04-.09.07-.16.07-81.48,43.81-179.56,56.64-279.1,67.7-.39.04-1.4.15-2.03.07-7.82-.33-12.29-9.37-8.81-15.68.8-1.47,2.34-2.4,4.01-2.44,4.66-.1,14.78.18,17.95-1.78,3.69-2.23,5.06-6.81,4.1-10.02,0-1.39-2.39-6.07-8.21-6.82-4.96-.32-13.78.33-17.77.33-.42-.4-1.93-.88-3.41-2.88v-.04c-1.54-2.06-2.33-4.42-2.28-6.8.05-2.54,1.97-4.65,4.5-4.96,8.76-1.05,11.01-1.16,12.4-1.67.07,0,.1-.03.13-.03,6.19-2.32,7.85-9.24,4.34-14.21-2.81-3.94-6.62-3.93-10.76-3.41-.06.02-6.98.85-10.14,1.23-1.08.13-2.18-.32-2.81-1.23-3.88-5.53.54-15.66,5.69-15.66,7.48-2.72,53.08-4.47,57.34-9.68,3.15-4,2.47-9.87-.83-12.97-2.82-2.71-6.08-2.42-10.63-1.92-1.83.2-3.53-1.05-3.86-2.86-.45-2.45.04-4.71,1.24-6.75v-.03c3.32-5.66,11.19-7.85,16.75-2.56,14.9,14.15,16.33,16.91,21.8,16.36,37.21-3.64,78.84-11.57,113.89-24.96h.03c113.29-40.42,176.73-134.88,204.89-252.79v-.03c2.8-11.88-15.15-16.15-17.96-4.28-28.32,118.66-86.79,195.33-180.78,234.75-6.55,2.75-14.02,1.82-19.81-2.29-36.26-25.73-86.34-30.35-122.51-19.55-4.5,1.34-9.28,1.45-13.8.17-11.56-3.27-36.5-8.64-66.08-3.73-.04-.03-.07-.03-.09,0-13.22,2.24-25.77,6.34-36.77,12.42h-.04c-2.18,1.23-4.3,2.52-6.36,3.9h-.04c-13.6,9.34-23.4,20.98-28.76,36.11-.98,2.77-4.3,3.94-6.77,2.34-2.72-1.76-5.21-3.84-7.32-6.03v-.04c-.83-.8-1.6-1.63-2.37-2.53v-.02c-2.68-3.07-5.07-6.46-7.23-10.05v-.04c-4.29-7.04-7.57-14.58-10.6-22.25v-.04c-4.41-11.84-6.29-20.27-6.55-20.81t-.04-.07c-2.98-11.97-2.6-11.53-3.22-13.18-4.25-10.32-20.02-5.49-17.56,5.47,6.12,27.79,17.37,62.64,39.08,80.83v.03c8.24,6.77,26.59,16.62,34.28,10.03,2.23-1.96,4.38-4.91,12.95-16.73,5.82-7.72,15.6-1.65,15.24,7.43-.07,1.9-1.66,3.39-3.56,3.44l-1.85.04c-12.05.28-11.8,18.42.22,18.42,33.34,0,5.06-.22,31.59.03,1.94.01,3.22,1.98,2.51,3.79-2.07,5.32-2.51,10.97-1.55,15.72.08.4-.02.81-.27,1.13-3.57,4.79-1.66,11.59,3.65,13.91.82.36,1.32,1.23,1.07,2.1-1.24,4.51-1.38,8.95-.75,12.64.18,1.09-.63,2.1-1.72,2.21-5.61.55-8.3,4.83-8.3,9.12,0,4.63,3.14,9.3,9.16,9.3.27,0,.45-.02,3.71-.33,1.46-.13,2.64,1.22,2.25,2.63-.95,3.5-1.31,7.01-.87,10.81.27,2.31-1.65,4.3-3.98,4.21-4.48-.18-10.54-.55-15.75-1.12-.02,0-.02-.03-.02-.03C25.79,696.43-4.88,557.83,33.08,431.15c.39-1.29,2-1.64,2.97-.71.19.19.39.36.58.52h.04c.64.53,1.35.93,2.09,1.27h.02c5.68,2.33,13.04-1.44,12.85-8.77-.61-21.45,0-35.97.32-41.72.03-.09.05-.46.05-.61C71.86,177.83,243.74,18.45,452.16,18.45c269.78,0,453.83,257.82,377.92,509.28Z"/><path class="cls-1" d="M261.79,351.42c2.36,0,4.73-.92,6.52-2.71,3.59-3.6,3.59-9.44,0-13.06l-3.54-3.54,3.54,3.54c-10.44-10.44-5.33-28.6,9.19-31.76v-.03c6.12-1.38,12.78.31,17.55,5.08l-3.54-3.53,3.54,3.54c3.6,3.59,9.44,3.59,13.04,0,3.6-3.6,3.6-9.44,0-13.04,0,0,0,0,0,0l-3.53-3.53h0c-7.31-7.31-16.91-10.96-26.5-10.91v-4.09l-3.54-3.54-4.4-2.54,7.93-4.58v-5.91c0-2.54-1.03-4.84-2.7-6.51l-3.54-3.54c-1.67-1.67-3.97-2.7-6.52-2.7-2.2,0-4.23.78-5.82,2.08-2.07,1.69-3.4,4.27-3.4,7.13v31.37c-18.29,13.12-20.64,40.24-4.34,56.53,0,0,0,0,0,0,0,0,3.53,3.53,3.54,3.54,1.81,1.79,4.15,2.71,6.52,2.71ZM343.41,309.98c5.1,0,9.22-4.15,9.22-9.22v-23.4l-3.54-3.54-4.39-2.53,7.93-4.57v-5.9c0-2.54-1.03-4.85-2.71-6.52l-3.54-3.54c-1.67-1.67-3.97-2.7-6.52-2.7-2.21,0-4.24.78-5.83,2.08-2.07,1.69-3.39,4.27-3.39,7.15v39.94c0,2.54,1.03,4.85,2.71,6.52l2.32,2.32,1.22,1.22c1.67,1.67,3.97,2.7,6.52,2.7ZM334.25,433.76c5.01-.93,8.32-5.74,7.39-10.75-.35-1.9-1.27-3.56-2.54-4.84l-3.54-3.54c-2.08-2.08-5.11-3.13-8.21-2.55-17.14,3.17-34.51,3.17-51.65,0-2.78-.51-5.49.28-7.52,1.94-1.63,1.33-2.81,3.22-3.23,5.45-.57,3.1.48,6.13,2.55,8.21l3.54,3.54c1.27,1.27,2.93,2.19,4.84,2.54,9.68,1.79,19.43,2.69,29.18,2.69s19.5-.9,29.18-2.69Z"/><path class="cls-4" d="M349.1,263.18l-9.22,5.32,9.22,5.32v23.4c0,5.07-4.12,9.22-9.22,9.22s-9.22-4.15-9.22-9.22v-39.94c0-5.07,4.12-9.22,9.22-9.22s9.22,4.15,9.22,9.22v5.9Z"/><path class="cls-4" d="M301.53,432.92c-9.75,0-19.5-.9-29.18-2.69-5.01-.93-8.32-5.74-7.39-10.75.93-5.01,5.74-8.31,10.75-7.39,17.14,3.17,34.51,3.17,51.65,0,5-.93,9.82,2.38,10.75,7.39.93,5.01-2.38,9.82-7.39,10.75-9.68,1.79-19.43,2.69-29.18,2.69Z"/><path class="cls-4" d="M304.55,305.4c-3.6,3.59-9.44,3.59-13.04,0-4.76-4.76-11.43-6.45-17.55-5.08v.03c-14.52,3.16-19.63,21.33-9.19,31.76,3.59,3.62,3.59,9.46,0,13.06-1.79,1.79-4.16,2.71-6.52,2.71s-4.71-.92-6.52-2.71c-16.3-16.3-13.95-43.41,4.34-56.53v-31.37c0-5.07,4.15-9.22,9.22-9.22s9.23,4.15,9.23,9.22v5.91l-9.23,5.32,9.23,5.32v7.81c10.73-1.07,21.83,2.52,30.04,10.73,3.6,3.6,3.6,9.44,0,13.04Z"/><path class="cls-1" d="M486.84,40.32c55.66,0,107.96,9.26,155.62,25.97-55.56-30.33-120.02-47.83-190.31-47.83-208.42,0-380.3,159.38-400.16,362.68,0,.15-.02.52-.05.61-.18,3.29-.46,9.47-.55,18.16C74.59,198.08,261.01,40.32,486.84,40.32Z"/><ellipse class="cls-1" cx="229.55" cy="125.54" rx="35.79" ry="17.23" transform="translate(-31.49 143.11) rotate(-32.52)"/><path class="cls-2" d="M214.19,553.44c-.17,0-.35,0-.52.01-31.61.1-54.9,10.41-67.07,22.18l-.06.06"/><path class="cls-4" d="M452.16,0C234.67,0,55.18,166.02,33.81,377.96v.09c-54.11,112.66-51.19,283.36,67.51,336.2v4.87c-39.04,2.3-70.1,34.8-70.1,74.43v13.77c0,18.6,15.13,33.74,33.73,33.74h227.24c13.74,0,25.61-8.28,30.87-20.11,270.71,87.25,549.64-116.02,549.64-400.43C872.7,188.66,684.04,0,452.16,0ZM111.29,822.6h-46.34c-8.43,0-15.29-6.85-15.29-15.28v-13.77c0-30.93,25.19-56.11,56.15-56.11h4.74c5.1,0,9.22-4.15,9.22-9.23,0-2.95,2.41-5.17,5.18-5.17.47,0,.94.06,1.42.19,6.21,1.72,12.63,3.17,19.23,4.31,6.01,1.03,8.27,8.45,3.86,12.65-2.45,2.32-3.95,4.03-4.08,4.31-26.99,24.57-33.88,48.62-34.09,78.1ZM307.47,807.36c0,8.26-6.76,15.24-15.28,15.24h-131.56c-8.43,0-15.28-6.84-15.28-15.28v-13.77c0-25.76,17.55-47.3,40.24-53.83,13.93-4.52,23.19.58,28.04-5.98v-.03c30.46-3.66,54.32-6.41,77.54-9.63,8.61-1.19,16.3,5.5,16.3,14.21v69.07ZM222.02,605.18c.21,1.24-.64,2.4-1.89,2.56l-1.47.18c-1.45.18-2.67-1.08-2.46-2.53,7.51-50.15,77.07-62.62,125.4-45.2,6.79,2.34,13.26,5.25,19.22,8.69,2.84,1.63,2.32,5.89-.83,6.78-23.09,6.53-47.73,11.12-70.38,13.79-4.59.55-9.18-1-12.53-4.19l-6.23-5.94c-20.41-19.45-53.5-1.26-48.83,25.86ZM220.62,560.08c-13.09,11.98-21.03,27.6-23.04,45.51-.22,1.97-2.19,3.23-4.06,2.57-5.21-1.86-10.72-1.59-24.24-1.61-2.8-.01-5.1-2.23-5.21-5.02-.5-12.86-8.98-23.65-20.18-26.85-2.49-.72-2.99-4.02-.89-5.53,20.36-14.72,49.96-18.16,75.65-15.22,3.01.35,4.21,4.1,1.97,6.15ZM830.08,527.78c-58.21,192.86-256.77,300.19-397.78,269.74-.3-.32-5.15-.73-17.49-4.62-.03-.03-.07-.03-.1-.03-34.54-10.75-63.38-31.28-80.95-61.79-3.47-6.02.11-13.65,6.94-14.94,207.68-39.08,321.57-148.43,371.66-357.76,2.76-12.2-15.25-15.88-17.95-4.29-30.74,125.95-89.52,232.68-203.94,293.59-.03.04-.09.07-.16.07-81.48,43.81-179.56,56.64-279.1,67.7-.39.04-1.4.15-2.03.07-7.82-.33-12.29-9.37-8.81-15.68.8-1.47,2.34-2.4,4.01-2.44,4.66-.1,14.78.18,17.95-1.78,3.69-2.23,5.06-6.81,4.1-10.02,0-1.39-2.39-6.07-8.21-6.82-4.96-.32-13.78.33-17.77.33-.42-.4-1.93-.88-3.41-2.88v-.04c-1.54-2.06-2.33-4.42-2.28-6.8.05-2.54,1.97-4.65,4.5-4.96,8.76-1.05,11.01-1.16,12.4-1.67.07,0,.1-.03.13-.03,6.19-2.32,7.85-9.24,4.34-14.21-2.81-3.94-6.62-3.93-10.76-3.41-.06.02-6.98.85-10.14,1.23-1.08.13-2.18-.32-2.81-1.23-3.88-5.53.54-15.66,5.69-15.66,7.48-2.72,53.08-4.47,57.34-9.68,3.15-4,2.47-9.87-.83-12.97-2.82-2.71-6.08-2.42-10.63-1.92-1.83.2-3.53-1.05-3.86-2.86-.45-2.45.04-4.71,1.24-6.75v-.03c3.32-5.66,11.19-7.85,16.75-2.56,14.9,14.15,16.33,16.91,21.8,16.36,37.21-3.64,78.84-11.57,113.89-24.96h.03c113.29-40.42,176.73-134.88,204.89-252.79v-.03c2.8-11.88-15.15-16.15-17.96-4.28-28.32,118.66-86.79,195.33-180.78,234.75-6.55,2.75-14.02,1.82-19.81-2.29-36.26-25.73-86.34-30.35-122.51-19.55-4.5,1.34-9.28,1.45-13.8.17-11.56-3.27-36.5-8.64-66.08-3.73-.04-.03-.07-.03-.09,0-13.22,2.24-25.77,6.34-36.77,12.42h-.04c-2.18,1.23-4.3,2.52-6.36,3.9h-.04c-13.6,9.34-23.4,20.98-28.76,36.11-.98,2.77-4.3,3.94-6.77,2.34-2.72-1.76-5.21-3.84-7.32-6.03v-.04c-.83-.8-1.6-1.63-2.37-2.53v-.02c-2.68-3.07-5.07-6.46-7.23-10.05v-.04c-4.29-7.04-7.57-14.58-10.6-22.25v-.04c-4.41-11.84-6.29-20.27-6.55-20.81t-.04-.07c-2.98-11.97-2.6-11.53-3.22-13.18-4.25-10.32-20.02-5.49-17.56,5.47,6.12,27.79,17.37,62.64,39.08,80.83v.03c8.24,6.77,26.59,16.62,34.28,10.03,2.23-1.96,4.38-4.91,12.95-16.73,5.82-7.72,15.6-1.65,15.24,7.43-.07,1.9-1.66,3.39-3.56,3.44l-1.85.04c-12.05.28-11.8,18.42.22,18.42,33.34,0,5.06-.22,31.59.03,1.94.01,3.22,1.98,2.51,3.79-2.07,5.32-2.51,10.97-1.55,15.72.08.4-.02.81-.27,1.13-3.57,4.79-1.66,11.59,3.65,13.91.82.36,1.32,1.23,1.07,2.1-1.24,4.51-1.38,8.95-.75,12.64.18,1.09-.63,2.1-1.72,2.21-5.61.55-8.3,4.83-8.3,9.12,0,4.63,3.14,9.3,9.16,9.3.27,0,.45-.02,3.71-.33,1.46-.13,2.64,1.22,2.25,2.63-.95,3.5-1.31,7.01-.87,10.81.27,2.31-1.65,4.3-3.98,4.21-4.48-.18-10.54-.55-15.75-1.12-.02,0-.02-.03-.02-.03C25.79,696.43-4.88,557.83,33.08,431.15c.39-1.29,2-1.64,2.97-.71.19.19.39.36.58.52h.04c.64.53,1.35.93,2.09,1.27h.02c5.68,2.33,13.04-1.44,12.85-8.77-.61-21.45,0-35.97.32-41.72.03-.09.05-.46.05-.61C71.86,177.83,243.74,18.45,452.16,18.45c269.78,0,453.83,257.82,377.92,509.28,0,0-.03.02,0,.05Z"/><path class="cls-1" d="M830.07,527.75h-.01s.01.02.02.03c-.01-.01-.01-.02-.01-.03ZM710.42,350.1c1.8,1.94,2.74,4.75,1.94,8.28-50.09,209.33-163.98,318.68-371.66,357.76-6.83,1.29-10.41,8.92-6.94,14.94,6.41,11.14,14.34,20.95,23.49,29.43-6.21-6.74-11.72-14.19-16.42-22.35-3.47-6.02.11-13.65,6.94-14.94,207.68-39.08,321.57-148.44,371.66-357.77.83-3.67-.22-6.56-2.16-8.51l-6.85-6.84ZM452.16,18.45c-208.42,0-380.3,159.38-400.16,362.68,0,.15-.02.52-.05.61-.32,5.75-.93,20.27-.32,41.72.19,7.33-7.17,11.1-12.85,8.77h-.02c-.74-.34-1.45-.74-2.09-1.27h-.04c-.19-.16-.39-.33-.58-.52-.97-.93-2.58-.58-2.97.71-27.24,90.9-19.14,187.94,37.62,240.92-50.33-54.26-56.62-146.86-30.56-233.85.39-1.29,2-1.64,2.97-.71h.01c.18.19.38.36.57.52h.04c.64.53,1.35.93,2.09,1.27h.02c5.68,2.33,13.04-1.44,12.85-8.77-.61-21.45,0-35.97.32-41.72.03-.09.05-.46.05-.61C78.92,184.9,250.81,25.52,459.23,25.52c110.06,0,205.85,42.91,275.55,110.79-70.21-71.96-168.79-117.86-282.62-117.86ZM393.81,584.08c-35.05,13.39-76.68,21.32-113.89,24.96-5.47.55-6.9-2.21-21.8-16.36-5.56-5.29-13.43-3.1-16.75,2.56v.03c-1.2,2.04-1.69,4.3-1.24,6.75.33,1.81,2.03,3.06,3.86,2.86,1.24-.14,2.39-.26,3.45-.3.24-.77.57-1.52,1-2.24v-.03c3.32-5.66,11.19-7.85,16.75-2.56,14.9,14.15,16.33,16.91,21.8,16.36,37.21-3.64,78.84-11.57,113.89-24.96h.03c113.29-40.42,176.73-134.88,204.89-252.79v-.03c.85-3.6-.21-6.5-2.18-8.47l-6.85-6.85c1.83,1.96,2.78,4.78,1.96,8.25v.03c-28.16,117.91-91.6,212.37-204.89,252.79h-.03ZM360.82,568.88c-5.96-3.44-12.43-6.35-19.22-8.69-48.33-17.42-117.89-4.95-125.4,45.2-.21,1.45,1.01,2.71,2.46,2.53l1.47-.18c1.25-.16,2.1-1.32,1.89-2.56-3.5-20.3,14.17-35.6,31.84-33.85,26.45-14.17,64.74-14.9,94.81-4.07,4.81,1.66,9.45,3.6,13.88,5.82.41-1.51-.12-3.28-1.73-4.2ZM306.93,734.36c-.2-.71-.45-1.39-.76-2.04.3.65.55,1.33.76,2.04ZM291.17,724.08c-23.22,3.22-47.08,5.97-77.54,9.63v.03c-4.85,6.56-14.11,1.46-28.04,5.98-22.69,6.53-40.24,28.07-40.24,53.83v13.77c0,6.04,3.51,11.26,8.59,13.73-.97-2.01-1.52-4.26-1.52-6.65v-13.77c0-25.76,17.55-47.3,40.24-53.83,13.93-4.52,23.19.58,28.04-5.98v-.03c30.46-3.66,54.32-6.41,77.54-9.63,2.82-.39,5.55.06,7.93,1.16-2.54-5.55-8.51-9.14-15-8.24ZM262.52,626.84c3.09-3.92,2.49-9.65-.65-12.79l-6.85-6.85c2.95,3.19,3.45,8.74.43,12.57-4.26,5.21-49.86,6.96-57.34,9.68-5.15,0-9.57,10.13-5.69,15.66.63.91,1.73,1.36,2.81,1.23.77-.09,1.77-.21,2.83-.34.42-4.75,3.6-9.48,7.12-9.48,7.48-2.72,53.08-4.47,57.34-9.68ZM211.45,704.48c4.66-.1,14.78.18,17.95-1.78,3.69-2.23,5.06-6.81,4.1-10.02,0-.75-.68-2.42-2.2-3.94l-6.79-6.79c1.32,1.44,1.92,2.96,1.92,3.65.96,3.21-.41,7.79-4.1,10.02-3.17,1.96-13.29,1.68-17.95,1.78-1.67.04-3.21.97-4.01,2.44-3.11,5.64.13,13.45,6.43,15.29-.88-2.69-.77-5.67.64-8.21.8-1.47,2.34-2.4,4.01-2.44ZM200.45,679.11c.49,0,1.05-.01,1.66-.03-.21-.87-.3-1.73-.28-2.61.05-2.55,1.97-4.65,4.5-4.97,8.76-1.05,11.01-1.16,12.4-1.67.07,0,.1-.03.13-.03,6.19-2.32,7.85-9.24,4.34-14.21-.34-.47-.69-.88-1.06-1.25l-6.81-6.8c.28.29.54.62.8.98,3.51,4.97,1.85,11.89-4.34,14.21-.03,0-.06.03-.13.03-1.39.51-3.64.62-12.4,1.67-2.53.31-4.45,2.42-4.5,4.96-.05,2.38.74,4.74,2.28,6.8v.04c1.48,2,2.99,2.48,3.41,2.88ZM218.65,553.93c-25.69-2.94-55.29.5-75.65,15.22-2.1,1.51-1.6,4.81.89,5.53,1.9.54,3.73,1.31,5.45,2.27.19-.27.43-.52.73-.73,18.91-13.67,45.8-17.61,70.12-15.74.14-.13.28-.27.43-.4,2.24-2.05,1.04-5.8-1.97-6.15ZM181.78,697.25c.39-1.41-.79-2.76-2.25-2.63-3.26.31-3.44.33-3.71.33-2.78,0-4.94-1-6.47-2.52l7.06,7.07c1.14,1.14,2.64,1.99,4.48,2.34,0,.04-.01.09-.01.13.17-1.59.48-3.16.9-4.72ZM176.51,675.44c.1-.19.16-.39.18-.6-.03.21-.09.41-.18.6ZM133.88,622.43s.04.05.06.07l7.07,7.07c1.52,1.52,3.68,2.5,6.49,2.5,30.53,0,9.38-.18,25.98-.02-.04.14-.07.29-.1.43.29-1.23.68-2.45,1.15-3.66.71-1.81-.57-3.78-2.51-3.79-26.53-.25,1.75-.03-31.59-.03-2.85,0-5.03-1.02-6.55-2.57ZM155.1,581.23c.25.24.5.49.74.74l-.4-.41c-.11-.11-.23-.22-.34-.33ZM145.6,727.54c-6.6-1.14-13.02-2.59-19.23-4.31-.48-.13-.95-.19-1.42-.19-2.77,0-5.18,2.22-5.18,5.17,0,5.08-4.12,9.23-9.22,9.23h-4.74c-30.96,0-56.15,25.18-56.15,56.11v13.77c0,6.02,3.5,11.24,8.58,13.73-.97-2.02-1.52-4.27-1.52-6.65v-13.77c0-30.93,25.19-56.11,56.15-56.11h4.74c5.11,0,9.22-4.15,9.22-9.23,0-2.95,2.41-5.17,5.18-5.17.47,0,.94.06,1.42.19,5.93,1.64,12.04,3.03,18.32,4.15-.17-3.23-2.46-6.29-6.15-6.92ZM83.15,602.34c-1.63-1.37-3.21-2.83-4.72-4.38.14.16.29.31.45.47l7.07,7.07c1.32,1.32,2.67,2.57,4.08,3.76l.18.18c8.24,6.77,26.59,16.62,34.28,10.03,2.23-1.96,4.39-4.91,12.96-16.73,2.25-2.99,5.1-3.91,7.72-3.39-1.96-6.81-9.82-10.27-14.79-3.68-8.57,11.82-10.72,14.77-12.95,16.73-7.69,6.59-26.04-3.26-34.28-10.03v-.03ZM61.86,689.47c11.23,11.23,24.34,20.87,39.46,28.5v-3.72c-17.98-8-33.3-18.7-46.16-31.5l6.7,6.72ZM82.04,572.39v.04c2.16,3.59,4.55,6.98,7.23,10.05v.02c.77.9,1.54,1.73,2.37,2.53v.04c1.19,1.24,2.5,2.44,3.91,3.57-2.36-2.83-4.5-5.9-6.45-9.14v-.04c-4.29-7.04-7.57-14.58-10.6-22.25v-.04c-4.41-11.84-6.29-20.27-6.55-20.81t-.04-.07c-2.98-11.97-2.6-11.53-3.22-13.18-.53-1.29-1.24-2.34-2.07-3.18l-6.97-6.97c.79.82,1.47,1.84,1.98,3.08.62,1.65.24,1.21,3.22,13.18t.04.07c.26.54,2.14,8.97,6.55,20.81v.04c3.03,7.67,6.31,15.21,10.6,22.25ZM59.24,735.33c-.2.15-.39.31-.59.47-.7.57-1.38,1.15-2.05,1.75.86-.76,1.74-1.5,2.64-2.22ZM55.31,738.71c-.85.77-1.67,1.56-2.48,2.39.81-.82,1.64-1.62,2.48-2.39Z"/><path class="cls-4" d="M402.04,788.38c-2.05-.82-4.07-1.68-6.07-2.57,2,.9,4.02,1.76,6.07,2.57ZM361.34,574.97s.04-.03.05-.05c-.05.05-.1.09-.16.13.04-.03.08-.05.11-.08ZM357.36,760.63c.1.1.21.19.32.29-.15-.13-.29-.27-.43-.41.04.04.07.08.11.12ZM247.44,604.58c.94-.04,1.81-.03,2.64.08-.83-.12-1.7-.13-2.64-.08ZM223.94,681.39c-.4-.38-.85-.73-1.36-1.05.51.33.96.68,1.36,1.05ZM206.8,715.14c.06.02.11.03.17.04-.06-.01-.11-.03-.17-.05h0ZM202.52,585.93c.51-1.23,1.04-2.44,1.6-3.64-.57,1.2-1.1,2.41-1.6,3.64ZM202.11,679.09c.86-.02,1.83-.06,2.87-.1-1.04.03-2.01.07-2.87.09h0ZM201.12,589.68c.44-1.27.9-2.51,1.4-3.74-.51,1.23-.97,2.48-1.4,3.74ZM70.82,672.2c.32.3.64.6.97.88-.37-.34-.73-.67-1.09-1.01.04.04.08.09.12.13ZM59.45,512.77c-.32-.32-.66-.6-1.01-.84.35.25.69.53,1.01.84Z"/><path class="cls-1" d="M200.66,737.45c-26.75,4.31-47.25,27.73-47.25,55.86v13.89c0,8.49,6.86,15.4,15.29,15.4h-8.06c-8.43,0-15.29-6.85-15.29-15.28v-13.77c0-30.65,24.74-55.65,55.31-56.1Z"/></svg>